G04*
G04 #@! TF.GenerationSoftware,Altium Limited,Altium Designer,26.10.1 (5)*
G04*
G04 Layer_Color=65535*
G04 Board_Origin=0|0*
%FSLAX44Y44*%
%MOMM*%
G71*
G04*
G04 #@! TF.SameCoordinates,1C1FC9D1-0847-4E34-B182-99CB99BC725A*
G04*
G04*
G04 #@! TF.FilePolarity,Positive*
G04*
G01*
G75*
%ADD10C,0.1524*%
%ADD11C,0.5080*%
%ADD12C,0.4000*%
%ADD13C,0.3740*%
%ADD14C,0.1270*%
%ADD15C,0.2540*%
%ADD16C,0.2500*%
%ADD17C,0.0762*%
G36*
X1415251Y686675D02*
X1412711D01*
Y682865D01*
X1415251D01*
Y686675D01*
D02*
G37*
G36*
X1475665Y651261D02*
X1471855D01*
Y648721D01*
X1475665D01*
Y651261D01*
D02*
G37*
G36*
X1517269Y701675D02*
X1519809D01*
Y697865D01*
X1517269D01*
Y701675D01*
D02*
G37*
G36*
X1480665Y753279D02*
X1476855D01*
Y755819D01*
X1480665D01*
Y753279D01*
D02*
G37*
D10*
X1190975Y592210D02*
G03*
X1190975Y592210I-2032J0D01*
G01*
X1392975Y935710D02*
G03*
X1392975Y935710I-2032J0D01*
G01*
X1278890Y698881D02*
G03*
X1297686Y717677I0J18796D01*
G01*
X1260094D02*
G03*
X1278890Y698881I18796J0D01*
G01*
X1297686Y737743D02*
G03*
X1260094Y737743I-18796J0D01*
G01*
X1413513Y729770D02*
G03*
X1413513Y729770I-762J0D01*
G01*
X1121410Y871601D02*
G03*
X1140206Y890397I0J18796D01*
G01*
X1102614D02*
G03*
X1121410Y871601I18796J0D01*
G01*
X1140206Y910463D02*
G03*
X1102614Y910463I-18796J0D01*
G01*
X1238250Y698881D02*
G03*
X1257046Y717677I0J18796D01*
G01*
X1219454D02*
G03*
X1238250Y698881I18796J0D01*
G01*
X1257046Y737743D02*
G03*
X1219454Y737743I-18796J0D01*
G01*
X1142619Y834587D02*
G03*
X1142619Y834587I-1016J0D01*
G01*
X1206723Y508409D02*
X1326357D01*
Y530161D01*
X1206723Y626011D02*
X1326357D01*
X1206723Y604554D02*
Y626011D01*
Y554259D02*
Y579866D01*
Y508409D02*
Y530161D01*
X1326357Y554259D02*
Y580161D01*
Y604259D02*
Y626011D01*
X1408723Y851909D02*
X1528357D01*
Y873661D01*
X1408723Y969511D02*
X1528357D01*
X1408723Y948054D02*
Y969511D01*
Y897759D02*
Y923366D01*
Y851909D02*
Y873661D01*
X1528357Y897759D02*
Y923661D01*
Y947759D02*
Y969511D01*
X1505794Y518851D02*
X1571326D01*
X1505794Y490149D02*
Y518851D01*
Y490149D02*
X1571326D01*
Y518851D01*
X1061864Y1076960D02*
X1195976D01*
X1061864Y1016683D02*
Y1076960D01*
Y986790D02*
X1195976D01*
Y1006637D01*
Y1016683D02*
Y1076960D01*
X1061864Y986790D02*
Y1006637D01*
X996061Y781285D02*
X1053719D01*
X996061Y868915D02*
X1053719D01*
Y781285D02*
Y868915D01*
X996061Y781285D02*
Y868915D01*
X1180084Y928751D02*
X1245616D01*
Y900049D02*
Y928751D01*
X1180084Y900049D02*
Y928751D01*
Y900049D02*
X1245616D01*
X1260094Y717677D02*
Y737743D01*
X1297686Y717677D02*
Y737743D01*
X1248791Y796544D02*
Y862076D01*
X1220089D02*
X1248791D01*
X1220089Y796544D02*
X1248791D01*
X1220089D02*
Y862076D01*
X917321Y781285D02*
X974979D01*
X917321Y868915D02*
X974979D01*
Y781285D02*
Y868915D01*
X917321Y781285D02*
Y868915D01*
X780034Y467741D02*
X845566D01*
Y439039D02*
Y467741D01*
X780034Y439039D02*
Y467741D01*
Y439039D02*
X845566D01*
X721599Y549418D02*
X834121D01*
X721599D02*
Y698008D01*
X834121D01*
Y549418D02*
Y698008D01*
X950976Y464820D02*
X962889D01*
X957326Y458470D02*
Y471170D01*
X968991Y443611D02*
X1026649D01*
Y455656D01*
X968991Y486029D02*
X1026649D01*
X968991Y474751D02*
Y486029D01*
Y443611D02*
Y454889D01*
X1026649Y473984D02*
Y486029D01*
X1728970Y493494D02*
Y627606D01*
X1668693D02*
X1728970D01*
X1638800Y493494D02*
Y627606D01*
Y493494D02*
X1658647D01*
X1668693D02*
X1728970D01*
X1638800Y627606D02*
X1658647D01*
X1638280Y869724D02*
Y1003836D01*
Y869724D02*
X1698557D01*
X1728450D02*
Y1003836D01*
X1708603D02*
X1728450D01*
X1638280D02*
X1698557D01*
X1708603Y869724D02*
X1728450D01*
X1318149Y1008544D02*
X1346851D01*
X1318149D02*
Y1074076D01*
X1346851Y1008544D02*
Y1074076D01*
X1318149D02*
X1346851D01*
X1496314Y823341D02*
X1561846D01*
Y794639D02*
Y823341D01*
X1496314Y794639D02*
Y823341D01*
Y794639D02*
X1561846D01*
X1574264Y481457D02*
X1639796D01*
Y452755D02*
Y481457D01*
X1574264Y452755D02*
Y481457D01*
Y452755D02*
X1639796D01*
X1551884Y410456D02*
X1685996D01*
X1551884Y350179D02*
Y410456D01*
Y320286D02*
X1685996D01*
Y340133D01*
Y350179D02*
Y410456D01*
X1551884Y320286D02*
Y340133D01*
X1627124Y449961D02*
X1692656D01*
Y421259D02*
Y449961D01*
X1627124Y421259D02*
Y449961D01*
Y421259D02*
X1692656D01*
X1390904Y410456D02*
X1525016D01*
X1390904Y350179D02*
Y410456D01*
Y320286D02*
X1525016D01*
Y340133D01*
Y350179D02*
Y410456D01*
X1390904Y320286D02*
Y340133D01*
X1231364Y409976D02*
X1365476D01*
X1231364Y349699D02*
Y409976D01*
Y319806D02*
X1365476D01*
Y339653D01*
Y349699D02*
Y409976D01*
X1231364Y319806D02*
Y339653D01*
X1145131Y321291D02*
X1202789D01*
X1145131Y408921D02*
X1202789D01*
Y321291D02*
Y408921D01*
X1145131Y321291D02*
Y408921D01*
X1182751Y565404D02*
Y630936D01*
X1154049D02*
X1182751D01*
X1154049Y565404D02*
X1182751D01*
X1154049D02*
Y630936D01*
X1275814Y452247D02*
X1341346D01*
Y423545D02*
Y452247D01*
X1275814Y423545D02*
Y452247D01*
Y423545D02*
X1341346D01*
X1256284Y489331D02*
X1321816D01*
Y460629D02*
Y489331D01*
X1256284Y460629D02*
Y489331D01*
Y460629D02*
X1321816D01*
X1411350Y1108082D02*
X1601850D01*
X1411350Y995560D02*
Y1108082D01*
Y995560D02*
X1601850D01*
Y1108082D01*
X1302811Y1008614D02*
Y1074146D01*
X1274109D02*
X1302811D01*
X1274109Y1008614D02*
X1302811D01*
X1274109D02*
Y1074146D01*
X1250741Y1007344D02*
Y1072876D01*
X1222039D02*
X1250741D01*
X1222039Y1007344D02*
X1250741D01*
X1222039D02*
Y1072876D01*
X1365399Y1007044D02*
X1394101D01*
X1365399D02*
Y1072576D01*
X1394101Y1007044D02*
Y1072576D01*
X1365399D02*
X1394101D01*
X805680Y389742D02*
X996180D01*
X805680Y277220D02*
Y389742D01*
Y277220D02*
X996180D01*
Y389742D01*
X1321077Y784860D02*
X1325603D01*
X1332103Y766241D02*
Y772999D01*
X1321077Y754380D02*
X1325603D01*
X1156589Y840640D02*
Y848459D01*
X1144651Y840640D02*
Y848459D01*
X1095629Y858420D02*
Y866239D01*
X1083691Y858420D02*
Y866239D01*
X1498611Y739481D02*
X1503471D01*
Y734621D02*
Y739481D01*
Y665059D02*
Y669919D01*
X1498611Y665059D02*
X1503471D01*
X1429049Y739481D02*
X1433909D01*
X1429049Y734621D02*
Y739481D01*
Y665059D02*
X1433909D01*
X1429049D02*
Y669919D01*
X1102614Y890397D02*
Y910463D01*
X1140206Y890397D02*
Y910463D01*
X1232916Y934339D02*
Y963041D01*
X1167384Y934339D02*
X1232916D01*
X1167384Y963041D02*
X1232916D01*
X1167384Y934339D02*
Y963041D01*
X1415514Y483997D02*
X1481046D01*
Y455295D02*
Y483997D01*
X1415514Y455295D02*
Y483997D01*
Y455295D02*
X1481046D01*
X1219454Y717677D02*
Y737743D01*
X1257046Y717677D02*
Y737743D01*
X727872Y861568D02*
Y1018032D01*
Y861568D02*
X813948D01*
X870620D02*
Y1018032D01*
X830852D02*
X870620D01*
X727872D02*
X813948D01*
X830852Y861568D02*
X870620D01*
X885488Y874527D02*
Y1019053D01*
Y874527D02*
X962450D01*
Y1019053D01*
X885488D02*
X962450D01*
X807974Y433451D02*
X873506D01*
Y404749D02*
Y433451D01*
X807974Y404749D02*
Y433451D01*
Y404749D02*
X873506D01*
X1728490Y675894D02*
Y810006D01*
X1668213D02*
X1728490D01*
X1638320Y675894D02*
Y810006D01*
Y675894D02*
X1658167D01*
X1668213D02*
X1728490D01*
X1638320Y810006D02*
X1658167D01*
X1440914Y450977D02*
X1506446D01*
Y422275D02*
Y450977D01*
X1440914Y422275D02*
Y450977D01*
Y422275D02*
X1506446D01*
X949706Y412750D02*
X961619D01*
X956056Y406400D02*
Y419100D01*
X967721Y391541D02*
X1025379D01*
Y403586D01*
X967721Y433959D02*
X1025379D01*
X967721Y422681D02*
Y433959D01*
Y391541D02*
Y402819D01*
X1025379Y421914D02*
Y433959D01*
X1108652Y863854D02*
X1126548D01*
X1108652Y830326D02*
X1126548D01*
D11*
X1056784Y1051060D02*
G03*
X1056784Y1051060I-3810J0D01*
G01*
X749179Y529098D02*
G03*
X749179Y529098I-3810J0D01*
G01*
X1706880Y636496D02*
G03*
X1706880Y636496I-3810J0D01*
G01*
X1667990Y860834D02*
G03*
X1667990Y860834I-3810J0D01*
G01*
X1546804Y384556D02*
G03*
X1546804Y384556I-3810J0D01*
G01*
X1385824D02*
G03*
X1385824Y384556I-3810J0D01*
G01*
X1226284Y384076D02*
G03*
X1226284Y384076I-3810J0D01*
G01*
X1625980Y1019330D02*
G03*
X1625980Y1019330I-3810J0D01*
G01*
X1020310Y300990D02*
G03*
X1020310Y300990I-3810J0D01*
G01*
X765960Y852678D02*
G03*
X765960Y852678I-3810J0D01*
G01*
X935990Y1036833D02*
G03*
X935990Y1036833I-3810J0D01*
G01*
X1706400Y818896D02*
G03*
X1706400Y818896I-3810J0D01*
G01*
D12*
X1058256Y333520D02*
G03*
X1058256Y333520I-1796J0D01*
G01*
D13*
X1185436Y788670D02*
G03*
X1185436Y788670I-1796J0D01*
G01*
D14*
X1292920Y780100D02*
X1296470D01*
X1292920Y820100D02*
X1296470D01*
Y780100D02*
Y820100D01*
X1271470D02*
X1275020D01*
X1271470Y780100D02*
X1275020D01*
X1271470D02*
Y820100D01*
X1409760Y581980D02*
X1413310D01*
X1409760Y621980D02*
X1413310D01*
Y581980D02*
Y621980D01*
X1388310D02*
X1391860D01*
X1388310Y581980D02*
X1391860D01*
X1388310D02*
Y621980D01*
X1473260Y581980D02*
X1476810D01*
X1473260Y621980D02*
X1476810D01*
Y581980D02*
Y621980D01*
X1451810D02*
X1455360D01*
X1451810Y581980D02*
X1455360D01*
X1451810D02*
Y621980D01*
X1405950Y736520D02*
X1409500D01*
X1405950Y776520D02*
X1409500D01*
Y736520D02*
Y776520D01*
X1384500D02*
X1388050D01*
X1384500Y736520D02*
Y776520D01*
Y736520D02*
X1388050D01*
X1400490Y708720D02*
Y712270D01*
X1360490Y708720D02*
Y712270D01*
X1400490D01*
Y687270D02*
Y690820D01*
X1360490Y687270D02*
Y690820D01*
Y687270D02*
X1400490D01*
X1372930Y759780D02*
X1376480D01*
X1372930Y799780D02*
X1376480D01*
Y759780D02*
Y799780D01*
X1351480D02*
X1355030D01*
X1351480Y759780D02*
X1355030D01*
X1351480D02*
Y799780D01*
X1560890Y581980D02*
X1564440D01*
X1560890Y621980D02*
X1564440D01*
Y581980D02*
Y621980D01*
X1539440D02*
X1542990D01*
X1539440Y581980D02*
X1542990D01*
X1539440D02*
Y621980D01*
X1531680Y581980D02*
X1535230D01*
X1531680Y621980D02*
X1535230D01*
Y581980D02*
Y621980D01*
X1510230D02*
X1513780D01*
X1510230Y581980D02*
X1513780D01*
X1510230D02*
Y621980D01*
X1543110Y736920D02*
X1546660D01*
X1543110Y776920D02*
X1546660D01*
Y736920D02*
Y776920D01*
X1521660D02*
X1525210D01*
X1521660Y736920D02*
Y776920D01*
Y736920D02*
X1525210D01*
X1503740Y581980D02*
X1507290D01*
X1503740Y621980D02*
X1507290D01*
Y581980D02*
Y621980D01*
X1482290D02*
X1485840D01*
X1482290Y581980D02*
X1485840D01*
X1482290D02*
Y621980D01*
X1442780Y581980D02*
X1446330D01*
X1442780Y621980D02*
X1446330D01*
Y581980D02*
Y621980D01*
X1421330D02*
X1424880D01*
X1421330Y581980D02*
X1424880D01*
X1421330D02*
Y621980D01*
X1447860Y775020D02*
X1451410D01*
X1447860Y815020D02*
X1451410D01*
Y775020D02*
Y815020D01*
X1426410D02*
X1429960D01*
X1426410Y775020D02*
Y815020D01*
Y775020D02*
X1429960D01*
D15*
X1037410Y661180D02*
X1137410D01*
X1037410Y282720D02*
X1137410D01*
Y661180D01*
X1037410Y282720D02*
Y661180D01*
X1195070Y787400D02*
Y819150D01*
X1093470D02*
X1195070D01*
Y704850D02*
Y736600D01*
X1093470Y787400D02*
Y819150D01*
Y704850D02*
X1195070D01*
X1093470D02*
Y737870D01*
X1426956Y497632D02*
Y512868D01*
X1434574D01*
X1437113Y510328D01*
Y505250D01*
X1434574Y502711D01*
X1426956D01*
X1432034D02*
X1437113Y497632D01*
X1442191D02*
X1447270D01*
X1444730D01*
Y512868D01*
X1442191Y510328D01*
X1454887D02*
X1457426Y512868D01*
X1462505D01*
X1465044Y510328D01*
Y507789D01*
X1462505Y505250D01*
X1465044Y502711D01*
Y500172D01*
X1462505Y497632D01*
X1457426D01*
X1454887Y500172D01*
Y502711D01*
X1457426Y505250D01*
X1454887Y507789D01*
Y510328D01*
X1457426Y505250D02*
X1462505D01*
X1333804Y526367D02*
Y511133D01*
X1341422D01*
X1343961Y513672D01*
Y516211D01*
X1341422Y518750D01*
X1333804D01*
X1341422D01*
X1343961Y521289D01*
Y523828D01*
X1341422Y526367D01*
X1333804D01*
X1359196Y511133D02*
X1349039D01*
X1359196Y521289D01*
Y523828D01*
X1356657Y526367D01*
X1351578D01*
X1349039Y523828D01*
X1373843Y917868D02*
Y902633D01*
X1381461D01*
X1384000Y905172D01*
Y907711D01*
X1381461Y910250D01*
X1373843D01*
X1381461D01*
X1384000Y912789D01*
Y915328D01*
X1381461Y917868D01*
X1373843D01*
X1389078Y902633D02*
X1394157D01*
X1391618D01*
Y917868D01*
X1389078Y915328D01*
X1459914Y774658D02*
Y761962D01*
X1462453Y759423D01*
X1467532D01*
X1470071Y761962D01*
Y774658D01*
X1482767Y759423D02*
Y774658D01*
X1475149Y767040D01*
X1485306D01*
X1038606Y684017D02*
Y671321D01*
X1041145Y668782D01*
X1046224D01*
X1048763Y671321D01*
Y684017D01*
X1053841Y681478D02*
X1056380Y684017D01*
X1061459D01*
X1063998Y681478D01*
Y678939D01*
X1061459Y676400D01*
X1058919D01*
X1061459D01*
X1063998Y673860D01*
Y671321D01*
X1061459Y668782D01*
X1056380D01*
X1053841Y671321D01*
X1303020Y817621D02*
Y804925D01*
X1305559Y802386D01*
X1310638D01*
X1313177Y804925D01*
Y817621D01*
X1328412Y802386D02*
X1318255D01*
X1328412Y812543D01*
Y815082D01*
X1325873Y817621D01*
X1320794D01*
X1318255Y815082D01*
X1074093Y844368D02*
Y831672D01*
X1076633Y829133D01*
X1081711D01*
X1084250Y831672D01*
Y844368D01*
X1089328Y829133D02*
X1094407D01*
X1091868D01*
Y844368D01*
X1089328Y841828D01*
X854716Y472443D02*
Y487677D01*
X862334D01*
X864873Y485138D01*
Y480060D01*
X862334Y477521D01*
X854716D01*
X859794D02*
X864873Y472443D01*
X869951D02*
X875030D01*
X872490D01*
Y487677D01*
X869951Y485138D01*
X882647Y487677D02*
X892804D01*
Y485138D01*
X882647Y474982D01*
Y472443D01*
X1363706Y1115632D02*
Y1130867D01*
X1371324D01*
X1373863Y1128328D01*
Y1123250D01*
X1371324Y1120711D01*
X1363706D01*
X1368784D02*
X1373863Y1115632D01*
X1378941D02*
X1384020D01*
X1381480D01*
Y1130867D01*
X1378941Y1128328D01*
X1401794Y1130867D02*
X1396716Y1128328D01*
X1391637Y1123250D01*
Y1118172D01*
X1394176Y1115632D01*
X1399255D01*
X1401794Y1118172D01*
Y1120711D01*
X1399255Y1123250D01*
X1391637D01*
X1222502Y1115060D02*
Y1130295D01*
X1230119D01*
X1232659Y1127756D01*
Y1122678D01*
X1230119Y1120138D01*
X1222502D01*
X1227580D02*
X1232659Y1115060D01*
X1237737D02*
X1242815D01*
X1240276D01*
Y1130295D01*
X1237737Y1127756D01*
X1260590Y1130295D02*
X1250433D01*
Y1122678D01*
X1255511Y1125217D01*
X1258051D01*
X1260590Y1122678D01*
Y1117599D01*
X1258051Y1115060D01*
X1252972D01*
X1250433Y1117599D01*
X1544326Y425452D02*
Y440687D01*
X1551944D01*
X1554483Y438148D01*
Y433070D01*
X1551944Y430531D01*
X1544326D01*
X1549404D02*
X1554483Y425452D01*
X1559561D02*
X1564640D01*
X1562100D01*
Y440687D01*
X1559561Y438148D01*
X1579875Y425452D02*
Y440687D01*
X1572257Y433070D01*
X1582414D01*
X1200156Y429263D02*
Y444497D01*
X1207774D01*
X1210313Y441958D01*
Y436880D01*
X1207774Y434341D01*
X1200156D01*
X1205235D02*
X1210313Y429263D01*
X1215391D02*
X1220470D01*
X1217930D01*
Y444497D01*
X1215391Y441958D01*
X1228087D02*
X1230626Y444497D01*
X1235705D01*
X1238244Y441958D01*
Y439419D01*
X1235705Y436880D01*
X1233166D01*
X1235705D01*
X1238244Y434341D01*
Y431802D01*
X1235705Y429263D01*
X1230626D01*
X1228087Y431802D01*
X1692456Y399883D02*
Y415117D01*
X1700074D01*
X1702613Y412578D01*
Y407500D01*
X1700074Y404961D01*
X1692456D01*
X1697534D02*
X1702613Y399883D01*
X1707691D02*
X1712770D01*
X1710230D01*
Y415117D01*
X1707691Y412578D01*
X1730544Y399883D02*
X1720387D01*
X1730544Y410039D01*
Y412578D01*
X1728005Y415117D01*
X1722926D01*
X1720387Y412578D01*
X886465Y435612D02*
Y450848D01*
X894083D01*
X896622Y448308D01*
Y443230D01*
X894083Y440691D01*
X886465D01*
X891544D02*
X896622Y435612D01*
X901700D02*
X906779D01*
X904240D01*
Y450848D01*
X901700Y448308D01*
X914396Y435612D02*
X919475D01*
X916936D01*
Y450848D01*
X914396Y448308D01*
X1313956Y1117633D02*
Y1132868D01*
X1321574D01*
X1324113Y1130328D01*
Y1125250D01*
X1321574Y1122711D01*
X1313956D01*
X1319034D02*
X1324113Y1117633D01*
X1329191D02*
X1334270D01*
X1331730D01*
Y1132868D01*
X1329191Y1130328D01*
X1341887D02*
X1344426Y1132868D01*
X1349505D01*
X1352044Y1130328D01*
Y1120172D01*
X1349505Y1117633D01*
X1344426D01*
X1341887Y1120172D01*
Y1130328D01*
X1274572Y1116330D02*
Y1131565D01*
X1282189D01*
X1284729Y1129026D01*
Y1123948D01*
X1282189Y1121408D01*
X1274572D01*
X1279650D02*
X1284729Y1116330D01*
X1289807Y1118869D02*
X1292346Y1116330D01*
X1297425D01*
X1299964Y1118869D01*
Y1129026D01*
X1297425Y1131565D01*
X1292346D01*
X1289807Y1129026D01*
Y1126487D01*
X1292346Y1123948D01*
X1299964D01*
X1379224Y486413D02*
Y501647D01*
X1386842D01*
X1389381Y499108D01*
Y494030D01*
X1386842Y491491D01*
X1379224D01*
X1384303D02*
X1389381Y486413D01*
X1394459Y499108D02*
X1396998Y501647D01*
X1402077D01*
X1404616Y499108D01*
Y496569D01*
X1402077Y494030D01*
X1404616Y491491D01*
Y488952D01*
X1402077Y486413D01*
X1396998D01*
X1394459Y488952D01*
Y491491D01*
X1396998Y494030D01*
X1394459Y496569D01*
Y499108D01*
X1396998Y494030D02*
X1402077D01*
X1191554Y469632D02*
Y484868D01*
X1199172D01*
X1201711Y482328D01*
Y477250D01*
X1199172Y474711D01*
X1191554D01*
X1196633D02*
X1201711Y469632D01*
X1206789Y484868D02*
X1216946D01*
Y482328D01*
X1206789Y472172D01*
Y469632D01*
X1678944Y459743D02*
Y474977D01*
X1686562D01*
X1689101Y472438D01*
Y467360D01*
X1686562Y464821D01*
X1678944D01*
X1684023D02*
X1689101Y459743D01*
X1704336Y474977D02*
X1699258Y472438D01*
X1694179Y467360D01*
Y462282D01*
X1696718Y459743D01*
X1701797D01*
X1704336Y462282D01*
Y464821D01*
X1701797Y467360D01*
X1694179D01*
X1513554Y828883D02*
Y844118D01*
X1521172D01*
X1523711Y841578D01*
Y836500D01*
X1521172Y833961D01*
X1513554D01*
X1518633D02*
X1523711Y828883D01*
X1538946Y844118D02*
X1528789D01*
Y836500D01*
X1533867Y839039D01*
X1536407D01*
X1538946Y836500D01*
Y831422D01*
X1536407Y828883D01*
X1531328D01*
X1528789Y831422D01*
X1154684Y673100D02*
Y688335D01*
X1162301D01*
X1164841Y685796D01*
Y680717D01*
X1162301Y678178D01*
X1154684D01*
X1159762D02*
X1164841Y673100D01*
X1177537D02*
Y688335D01*
X1169919Y680717D01*
X1180076D01*
X1181054Y879382D02*
Y894617D01*
X1188672D01*
X1191211Y892078D01*
Y887000D01*
X1188672Y884461D01*
X1181054D01*
X1186133D02*
X1191211Y879382D01*
X1196289Y892078D02*
X1198828Y894617D01*
X1203907D01*
X1206446Y892078D01*
Y889539D01*
X1203907Y887000D01*
X1201367D01*
X1203907D01*
X1206446Y884461D01*
Y881922D01*
X1203907Y879382D01*
X1198828D01*
X1196289Y881922D01*
X1248414Y877572D02*
Y892807D01*
X1256032D01*
X1258571Y890268D01*
Y885190D01*
X1256032Y882651D01*
X1248414D01*
X1253493D02*
X1258571Y877572D01*
X1273806D02*
X1263649D01*
X1273806Y887729D01*
Y890268D01*
X1271267Y892807D01*
X1266188D01*
X1263649Y890268D01*
X1135383Y962663D02*
Y977897D01*
X1143001D01*
X1145540Y975358D01*
Y970280D01*
X1143001Y967741D01*
X1135383D01*
X1140462D02*
X1145540Y962663D01*
X1150618D02*
X1155697D01*
X1153158D01*
Y977897D01*
X1150618Y975358D01*
X1057913Y725167D02*
Y709932D01*
X1068070D01*
X1073148D02*
X1078227D01*
X1075688D01*
Y725167D01*
X1073148Y722628D01*
X738629Y1042919D02*
X733550D01*
X736089D01*
Y1030223D01*
X733550Y1027684D01*
X731011D01*
X728472Y1030223D01*
X743707Y1027684D02*
X748785D01*
X746246D01*
Y1042919D01*
X743707Y1040380D01*
X756403Y1027684D02*
X761481D01*
X758942D01*
Y1042919D01*
X756403Y1040380D01*
X1672863Y1040368D02*
X1667784D01*
X1670324D01*
Y1027672D01*
X1667784Y1025133D01*
X1665245D01*
X1662706Y1027672D01*
X1677941Y1025133D02*
X1683020D01*
X1680480D01*
Y1040368D01*
X1677941Y1037828D01*
X1690637D02*
X1693176Y1040368D01*
X1698255D01*
X1700794Y1037828D01*
Y1027672D01*
X1698255Y1025133D01*
X1693176D01*
X1690637Y1027672D01*
Y1037828D01*
X1436461Y314867D02*
X1431382D01*
X1433922D01*
Y302172D01*
X1431382Y299632D01*
X1428843D01*
X1426304Y302172D01*
X1441539D02*
X1444078Y299632D01*
X1449157D01*
X1451696Y302172D01*
Y312328D01*
X1449157Y314867D01*
X1444078D01*
X1441539Y312328D01*
Y309789D01*
X1444078Y307250D01*
X1451696D01*
X1253211Y314118D02*
X1248132D01*
X1250672D01*
Y301422D01*
X1248132Y298883D01*
X1245593D01*
X1243054Y301422D01*
X1258289Y311578D02*
X1260828Y314118D01*
X1265907D01*
X1268446Y311578D01*
Y309039D01*
X1265907Y306500D01*
X1268446Y303961D01*
Y301422D01*
X1265907Y298883D01*
X1260828D01*
X1258289Y301422D01*
Y303961D01*
X1260828Y306500D01*
X1258289Y309039D01*
Y311578D01*
X1260828Y306500D02*
X1265907D01*
X1582211Y314867D02*
X1577133D01*
X1579672D01*
Y302172D01*
X1577133Y299632D01*
X1574593D01*
X1572054Y302172D01*
X1587289Y314867D02*
X1597446D01*
Y312328D01*
X1587289Y302172D01*
Y299632D01*
X783591Y374647D02*
X778512D01*
X781052D01*
Y361952D01*
X778512Y359412D01*
X775973D01*
X773434Y361952D01*
X798826Y374647D02*
X793747Y372108D01*
X788669Y367030D01*
Y361952D01*
X791208Y359412D01*
X796287D01*
X798826Y361952D01*
Y364491D01*
X796287Y367030D01*
X788669D01*
X1073461Y978617D02*
X1068382D01*
X1070922D01*
Y965922D01*
X1068382Y963382D01*
X1065843D01*
X1063304Y965922D01*
X1088696Y978617D02*
X1078539D01*
Y971000D01*
X1083617Y973539D01*
X1086157D01*
X1088696Y971000D01*
Y965922D01*
X1086157Y963382D01*
X1081078D01*
X1078539Y965922D01*
X1617711Y612368D02*
X1612632D01*
X1615172D01*
Y599672D01*
X1612632Y597132D01*
X1610093D01*
X1607554Y599672D01*
X1630407Y597132D02*
Y612368D01*
X1622789Y604750D01*
X1632946D01*
X732279Y722879D02*
X727200D01*
X729740D01*
Y710183D01*
X727200Y707644D01*
X724661D01*
X722122Y710183D01*
X737357Y720340D02*
X739896Y722879D01*
X744975D01*
X747514Y720340D01*
Y717801D01*
X744975Y715262D01*
X742435D01*
X744975D01*
X747514Y712722D01*
Y710183D01*
X744975Y707644D01*
X739896D01*
X737357Y710183D01*
X1451091Y1128508D02*
X1446013D01*
X1448552D01*
Y1115812D01*
X1446013Y1113272D01*
X1443473D01*
X1440934Y1115812D01*
X1466326Y1113272D02*
X1456169D01*
X1466326Y1123429D01*
Y1125968D01*
X1463787Y1128508D01*
X1458708D01*
X1456169Y1125968D01*
X1682250Y831367D02*
X1677172D01*
X1679711D01*
Y818672D01*
X1677172Y816133D01*
X1674633D01*
X1672093Y818672D01*
X1687328Y816133D02*
X1692407D01*
X1689868D01*
Y831367D01*
X1687328Y828828D01*
X978750Y996117D02*
X968593D01*
Y988500D01*
X973672D01*
X968593D01*
Y980882D01*
X983828D02*
X988907D01*
X986368D01*
Y996117D01*
X983828Y993578D01*
X1433833Y844548D02*
X1431294Y847087D01*
X1426216D01*
X1423677Y844548D01*
Y834392D01*
X1426216Y831852D01*
X1431294D01*
X1433833Y834392D01*
X1449068Y831852D02*
X1438912D01*
X1449068Y842009D01*
Y844548D01*
X1446529Y847087D01*
X1441451D01*
X1438912Y844548D01*
X1464303Y831852D02*
X1454147D01*
X1464303Y842009D01*
Y844548D01*
X1461764Y847087D01*
X1456686D01*
X1454147Y844548D01*
X1561633Y743078D02*
X1559093Y745618D01*
X1554015D01*
X1551476Y743078D01*
Y732922D01*
X1554015Y730383D01*
X1559093D01*
X1561633Y732922D01*
X1576868Y730383D02*
X1566711D01*
X1576868Y740539D01*
Y743078D01*
X1574328Y745618D01*
X1569250D01*
X1566711Y743078D01*
X1581946Y730383D02*
X1587024D01*
X1584485D01*
Y745618D01*
X1581946Y743078D01*
X1352343Y729578D02*
X1349804Y732117D01*
X1344726D01*
X1342187Y729578D01*
Y719422D01*
X1344726Y716882D01*
X1349804D01*
X1352343Y719422D01*
X1367578Y716882D02*
X1357422D01*
X1367578Y727039D01*
Y729578D01*
X1365039Y732117D01*
X1359961D01*
X1357422Y729578D01*
X1372657D02*
X1375196Y732117D01*
X1380274D01*
X1382813Y729578D01*
Y719422D01*
X1380274Y716882D01*
X1375196D01*
X1372657Y719422D01*
Y729578D01*
X1518922Y537213D02*
X1516382Y534674D01*
Y529595D01*
X1518922Y527056D01*
X1529078D01*
X1531617Y529595D01*
Y534674D01*
X1529078Y537213D01*
X1531617Y542291D02*
Y547370D01*
Y544830D01*
X1516382D01*
X1518922Y542291D01*
X1529078Y554987D02*
X1531617Y557526D01*
Y562605D01*
X1529078Y565144D01*
X1518922D01*
X1516382Y562605D01*
Y557526D01*
X1518922Y554987D01*
X1521461D01*
X1524000Y557526D01*
Y565144D01*
X1551942Y535943D02*
X1549402Y533404D01*
Y528325D01*
X1551942Y525786D01*
X1562098D01*
X1564637Y528325D01*
Y533404D01*
X1562098Y535943D01*
X1564637Y541021D02*
Y546100D01*
Y543560D01*
X1549402D01*
X1551942Y541021D01*
Y553717D02*
X1549402Y556256D01*
Y561335D01*
X1551942Y563874D01*
X1554481D01*
X1557020Y561335D01*
X1559559Y563874D01*
X1562098D01*
X1564637Y561335D01*
Y556256D01*
X1562098Y553717D01*
X1559559D01*
X1557020Y556256D01*
X1554481Y553717D01*
X1551942D01*
X1557020Y556256D02*
Y561335D01*
X1390652Y803913D02*
X1388112Y801374D01*
Y796295D01*
X1390652Y793756D01*
X1400808D01*
X1403347Y796295D01*
Y801374D01*
X1400808Y803913D01*
X1403347Y808991D02*
Y814070D01*
Y811530D01*
X1388112D01*
X1390652Y808991D01*
X1388112Y821687D02*
Y831844D01*
X1390652D01*
X1400808Y821687D01*
X1403347D01*
X1459232Y535943D02*
X1456692Y533404D01*
Y528325D01*
X1459232Y525786D01*
X1469388D01*
X1471927Y528325D01*
Y533404D01*
X1469388Y535943D01*
X1471927Y541021D02*
Y546100D01*
Y543560D01*
X1456692D01*
X1459232Y541021D01*
X1456692Y563874D02*
X1459232Y558796D01*
X1464310Y553717D01*
X1469388D01*
X1471927Y556256D01*
Y561335D01*
X1469388Y563874D01*
X1466849D01*
X1464310Y561335D01*
Y553717D01*
X1489712Y535943D02*
X1487172Y533404D01*
Y528325D01*
X1489712Y525786D01*
X1499868D01*
X1502408Y528325D01*
Y533404D01*
X1499868Y535943D01*
X1502408Y541021D02*
Y546100D01*
Y543560D01*
X1487172D01*
X1489712Y541021D01*
X1487172Y563874D02*
Y553717D01*
X1494790D01*
X1492251Y558796D01*
Y561335D01*
X1494790Y563874D01*
X1499868D01*
X1502408Y561335D01*
Y556256D01*
X1499868Y553717D01*
X1395732Y535943D02*
X1393192Y533404D01*
Y528325D01*
X1395732Y525786D01*
X1405888D01*
X1408427Y528325D01*
Y533404D01*
X1405888Y535943D01*
X1408427Y541021D02*
Y546100D01*
Y543560D01*
X1393192D01*
X1395732Y541021D01*
X1408427Y561335D02*
X1393192D01*
X1400810Y553717D01*
Y563874D01*
X1430022Y535943D02*
X1427482Y533404D01*
Y528325D01*
X1430022Y525786D01*
X1440178D01*
X1442717Y528325D01*
Y533404D01*
X1440178Y535943D01*
X1442717Y541021D02*
Y546100D01*
Y543560D01*
X1427482D01*
X1430022Y541021D01*
Y553717D02*
X1427482Y556256D01*
Y561335D01*
X1430022Y563874D01*
X1432561D01*
X1435100Y561335D01*
Y558796D01*
Y561335D01*
X1437639Y563874D01*
X1440178D01*
X1442717Y561335D01*
Y556256D01*
X1440178Y553717D01*
X1155363Y428078D02*
X1152824Y430617D01*
X1147745D01*
X1145206Y428078D01*
Y417922D01*
X1147745Y415382D01*
X1152824D01*
X1155363Y417922D01*
X1160441Y415382D02*
X1165520D01*
X1162980D01*
Y430617D01*
X1160441Y428078D01*
X1183294Y415382D02*
X1173137D01*
X1183294Y425539D01*
Y428078D01*
X1180755Y430617D01*
X1175676D01*
X1173137Y428078D01*
X923292Y415288D02*
X920753Y417827D01*
X915675D01*
X913135Y415288D01*
Y405132D01*
X915675Y402593D01*
X920753D01*
X923292Y405132D01*
X928370Y402593D02*
X933449D01*
X930910D01*
Y417827D01*
X928370Y415288D01*
X941066Y402593D02*
X946145D01*
X943605D01*
Y417827D01*
X941066Y415288D01*
X988063Y505458D02*
X985524Y507998D01*
X980445D01*
X977906Y505458D01*
Y495302D01*
X980445Y492762D01*
X985524D01*
X988063Y495302D01*
X993141Y492762D02*
X998220D01*
X995680D01*
Y507998D01*
X993141Y505458D01*
X1005837D02*
X1008376Y507998D01*
X1013455D01*
X1015994Y505458D01*
Y495302D01*
X1013455Y492762D01*
X1008376D01*
X1005837Y495302D01*
Y505458D01*
X1234441Y690878D02*
X1231902Y693418D01*
X1226823D01*
X1224284Y690878D01*
Y680722D01*
X1226823Y678183D01*
X1231902D01*
X1234441Y680722D01*
X1239519D02*
X1242058Y678183D01*
X1247137D01*
X1249676Y680722D01*
Y690878D01*
X1247137Y693418D01*
X1242058D01*
X1239519Y690878D01*
Y688339D01*
X1242058Y685800D01*
X1249676D01*
X1285241Y690878D02*
X1282702Y693418D01*
X1277623D01*
X1275084Y690878D01*
Y680722D01*
X1277623Y678183D01*
X1282702D01*
X1285241Y680722D01*
X1290319Y690878D02*
X1292858Y693418D01*
X1297937D01*
X1300476Y690878D01*
Y688339D01*
X1297937Y685800D01*
X1300476Y683261D01*
Y680722D01*
X1297937Y678183D01*
X1292858D01*
X1290319Y680722D01*
Y683261D01*
X1292858Y685800D01*
X1290319Y688339D01*
Y690878D01*
X1292858Y685800D02*
X1297937D01*
X1155701Y892808D02*
X1153162Y895348D01*
X1148083D01*
X1145544Y892808D01*
Y882652D01*
X1148083Y880113D01*
X1153162D01*
X1155701Y882652D01*
X1160779Y895348D02*
X1170936D01*
Y892808D01*
X1160779Y882652D01*
Y880113D01*
X1172211Y849628D02*
X1169672Y852168D01*
X1164593D01*
X1162054Y849628D01*
Y839472D01*
X1164593Y836933D01*
X1169672D01*
X1172211Y839472D01*
X1187446Y852168D02*
X1182367Y849628D01*
X1177289Y844550D01*
Y839472D01*
X1179828Y836933D01*
X1184907D01*
X1187446Y839472D01*
Y842011D01*
X1184907Y844550D01*
X1177289D01*
X1358901Y829308D02*
X1356362Y831848D01*
X1351283D01*
X1348744Y829308D01*
Y819152D01*
X1351283Y816612D01*
X1356362D01*
X1358901Y819152D01*
X1374136Y831848D02*
X1363979D01*
Y824230D01*
X1369057Y826769D01*
X1371597D01*
X1374136Y824230D01*
Y819152D01*
X1371597Y816612D01*
X1366518D01*
X1363979Y819152D01*
X1283459Y853944D02*
X1280919Y856483D01*
X1275841D01*
X1273302Y853944D01*
Y843787D01*
X1275841Y841248D01*
X1280919D01*
X1283459Y843787D01*
X1296155Y841248D02*
Y856483D01*
X1288537Y848866D01*
X1298694D01*
X1065211Y885328D02*
X1062672Y887868D01*
X1057593D01*
X1055054Y885328D01*
Y875172D01*
X1057593Y872633D01*
X1062672D01*
X1065211Y875172D01*
X1070289Y885328D02*
X1072828Y887868D01*
X1077907D01*
X1080446Y885328D01*
Y882789D01*
X1077907Y880250D01*
X1075368D01*
X1077907D01*
X1080446Y877711D01*
Y875172D01*
X1077907Y872633D01*
X1072828D01*
X1070289Y875172D01*
X1018541Y773428D02*
X1016002Y775967D01*
X1010923D01*
X1008384Y773428D01*
Y763272D01*
X1010923Y760732D01*
X1016002D01*
X1018541Y763272D01*
X1033776Y760732D02*
X1023619D01*
X1033776Y770889D01*
Y773428D01*
X1031237Y775967D01*
X1026158D01*
X1023619Y773428D01*
X944750Y773828D02*
X942211Y776367D01*
X937132D01*
X934593Y773828D01*
Y763672D01*
X937132Y761133D01*
X942211D01*
X944750Y763672D01*
X949828Y761133D02*
X954907D01*
X952368D01*
Y776367D01*
X949828Y773828D01*
D16*
X1599205Y655991D02*
X1597538Y657657D01*
X1594206D01*
X1592540Y655991D01*
Y654324D01*
X1594206Y652658D01*
X1597538D01*
X1599205Y650992D01*
Y649326D01*
X1597538Y647660D01*
X1594206D01*
X1592540Y649326D01*
X1602537Y657657D02*
Y647660D01*
X1605869Y650992D01*
X1609201Y647660D01*
Y657657D01*
X1619198Y655991D02*
X1617532Y657657D01*
X1614200D01*
X1612534Y655991D01*
Y649326D01*
X1614200Y647660D01*
X1617532D01*
X1619198Y649326D01*
X1622530Y657657D02*
Y647660D01*
X1629195D01*
X1632527Y657657D02*
Y647660D01*
Y650992D01*
X1639192Y657657D01*
X1634193Y652658D01*
X1639192Y647660D01*
X1587460Y756006D02*
Y766003D01*
X1592458D01*
X1594124Y764337D01*
Y761004D01*
X1592458Y759338D01*
X1587460D01*
X1597457Y766003D02*
X1600789D01*
X1599123D01*
Y756006D01*
X1597457D01*
X1600789D01*
X1605787Y754340D02*
X1612452D01*
X1615784Y766003D02*
X1622449D01*
X1619116D01*
Y756006D01*
X1625781Y766003D02*
X1632446Y756006D01*
Y766003D02*
X1625781Y756006D01*
X1201235Y669367D02*
X1194570D01*
Y664368D01*
X1197902Y666034D01*
X1199568D01*
X1201235Y664368D01*
Y661036D01*
X1199568Y659370D01*
X1196236D01*
X1194570Y661036D01*
X1204567Y666034D02*
X1207899Y659370D01*
X1211231Y666034D01*
X1481500Y1123997D02*
Y1114000D01*
X1486498D01*
X1488165Y1115666D01*
Y1117332D01*
X1486498Y1118998D01*
X1481500D01*
X1486498D01*
X1488165Y1120665D01*
Y1122331D01*
X1486498Y1123997D01*
X1481500D01*
X1491497Y1114000D02*
Y1123997D01*
X1496495D01*
X1498161Y1122331D01*
Y1118998D01*
X1496495Y1117332D01*
X1491497D01*
X1494829D02*
X1498161Y1114000D01*
X1501494D02*
Y1120665D01*
X1504826Y1123997D01*
X1508158Y1120665D01*
Y1114000D01*
Y1118998D01*
X1501494D01*
X1511490Y1123997D02*
Y1114000D01*
Y1117332D01*
X1518155Y1123997D01*
X1513156Y1118998D01*
X1518155Y1114000D01*
X1528152Y1123997D02*
X1521487D01*
Y1114000D01*
X1528152D01*
X1521487Y1118998D02*
X1524819D01*
X773000Y707000D02*
Y716997D01*
X777998D01*
X779665Y715331D01*
Y711998D01*
X777998Y710332D01*
X773000D01*
X782997Y716997D02*
Y708666D01*
X784663Y707000D01*
X787995D01*
X789661Y708666D01*
Y716997D01*
X792993Y707000D02*
Y716997D01*
X796326Y713664D01*
X799658Y716997D01*
Y707000D01*
X802990D02*
Y716997D01*
X807989D01*
X809655Y715331D01*
Y711998D01*
X807989Y710332D01*
X802990D01*
X1353414Y291497D02*
X1350082Y289831D01*
X1346750Y286498D01*
Y283166D01*
X1348416Y281500D01*
X1351748D01*
X1353414Y283166D01*
Y284832D01*
X1351748Y286498D01*
X1346750D01*
X1356747Y288165D02*
X1360079Y281500D01*
X1363411Y288165D01*
X1638000Y816000D02*
Y825997D01*
X1642998D01*
X1644664Y824331D01*
Y820998D01*
X1642998Y819332D01*
X1638000D01*
X1647997Y825997D02*
X1651329D01*
X1649663D01*
Y816000D01*
X1647997D01*
X1651329D01*
X1661326D02*
Y825997D01*
X1656327Y820998D01*
X1662992D01*
X1587460Y689966D02*
Y699963D01*
X1592458D01*
X1594124Y698297D01*
Y694965D01*
X1592458Y693298D01*
X1587460D01*
X1597457Y699963D02*
X1600789D01*
X1599123D01*
Y689966D01*
X1597457D01*
X1600789D01*
X1605787Y688300D02*
X1612452D01*
X1615784Y689966D02*
Y699963D01*
X1620783D01*
X1622449Y698297D01*
Y694965D01*
X1620783Y693298D01*
X1615784D01*
X1619116D02*
X1622449Y689966D01*
X1625781Y699963D02*
X1632446Y689966D01*
Y699963D02*
X1625781Y689966D01*
X1349250Y659750D02*
Y669747D01*
X1355914Y659750D01*
Y669747D01*
X1359247Y659750D02*
Y669747D01*
X1364245D01*
X1365911Y668081D01*
Y664748D01*
X1364245Y663082D01*
X1359247D01*
X1362579D02*
X1365911Y659750D01*
X1375908Y668081D02*
X1374242Y669747D01*
X1370910D01*
X1369243Y668081D01*
Y666414D01*
X1370910Y664748D01*
X1374242D01*
X1375908Y663082D01*
Y661416D01*
X1374242Y659750D01*
X1370910D01*
X1369243Y661416D01*
X1379240Y669747D02*
X1385905D01*
X1382573D01*
Y659750D01*
X969250Y930750D02*
Y940747D01*
X972582Y937414D01*
X975915Y940747D01*
Y930750D01*
X979247D02*
Y937414D01*
X982579Y940747D01*
X985911Y937414D01*
Y930750D01*
Y935748D01*
X979247D01*
X989243Y940747D02*
X995908Y930750D01*
Y940747D02*
X989243Y930750D01*
X1232666Y631077D02*
Y641074D01*
X1237665D01*
X1239331Y639408D01*
Y636075D01*
X1237665Y634409D01*
X1232666D01*
X1235999D02*
X1239331Y631077D01*
X1249328Y641074D02*
X1242663D01*
Y631077D01*
X1249328D01*
X1242663Y636075D02*
X1245995D01*
X1259324Y639408D02*
X1257658Y641074D01*
X1254326D01*
X1252660Y639408D01*
Y637742D01*
X1254326Y636075D01*
X1257658D01*
X1259324Y634409D01*
Y632743D01*
X1257658Y631077D01*
X1254326D01*
X1252660Y632743D01*
X1269321Y641074D02*
X1262657D01*
Y631077D01*
X1269321D01*
X1262657Y636075D02*
X1265989D01*
X1272654Y641074D02*
X1279318D01*
X1275986D01*
Y631077D01*
X1611154Y571991D02*
X1609488Y573657D01*
X1606156D01*
X1604490Y571991D01*
Y565326D01*
X1606156Y563660D01*
X1609488D01*
X1611154Y565326D01*
Y568658D01*
X1607822D01*
X1614487Y563660D02*
Y573657D01*
X1621151Y563660D01*
Y573657D01*
X1624483D02*
Y563660D01*
X1629482D01*
X1631148Y565326D01*
Y571991D01*
X1629482Y573657D01*
X1624483D01*
X1595394Y676311D02*
X1593728Y677977D01*
X1590396D01*
X1588730Y676311D01*
Y674644D01*
X1590396Y672978D01*
X1593728D01*
X1595394Y671312D01*
Y669646D01*
X1593728Y667980D01*
X1590396D01*
X1588730Y669646D01*
X1598727Y677977D02*
Y667980D01*
X1602059Y671312D01*
X1605391Y667980D01*
Y677977D01*
X1608723D02*
Y667980D01*
X1613722D01*
X1615388Y669646D01*
Y676311D01*
X1613722Y677977D01*
X1608723D01*
X1618720D02*
X1622053D01*
X1620386D01*
Y667980D01*
X1618720D01*
X1622053D01*
X1632049Y677977D02*
X1628717D01*
X1627051Y676311D01*
Y669646D01*
X1628717Y667980D01*
X1632049D01*
X1633716Y669646D01*
Y676311D01*
X1632049Y677977D01*
X1641165Y1017831D02*
X1639498Y1019497D01*
X1636166D01*
X1634500Y1017831D01*
Y1016164D01*
X1636166Y1014498D01*
X1639498D01*
X1641165Y1012832D01*
Y1011166D01*
X1639498Y1009500D01*
X1636166D01*
X1634500Y1011166D01*
X1651161Y1019497D02*
X1644497D01*
Y1009500D01*
X1651161D01*
X1644497Y1014498D02*
X1647829D01*
X1654494Y1009500D02*
Y1019497D01*
X1661158Y1009500D01*
Y1019497D01*
X1671155Y1017831D02*
X1669489Y1019497D01*
X1666156D01*
X1664490Y1017831D01*
Y1016164D01*
X1666156Y1014498D01*
X1669489D01*
X1671155Y1012832D01*
Y1011166D01*
X1669489Y1009500D01*
X1666156D01*
X1664490Y1011166D01*
X1679485Y1019497D02*
X1676153D01*
X1674487Y1017831D01*
Y1011166D01*
X1676153Y1009500D01*
X1679485D01*
X1681152Y1011166D01*
Y1017831D01*
X1679485Y1019497D01*
X1684484Y1009500D02*
Y1019497D01*
X1689482D01*
X1691148Y1017831D01*
Y1014498D01*
X1689482Y1012832D01*
X1684484D01*
X1687816D02*
X1691148Y1009500D01*
X1711142Y1017831D02*
X1709476Y1019497D01*
X1706144D01*
X1704477Y1017831D01*
Y1016164D01*
X1706144Y1014498D01*
X1709476D01*
X1711142Y1012832D01*
Y1011166D01*
X1709476Y1009500D01*
X1706144D01*
X1704477Y1011166D01*
X1714474Y1019497D02*
X1721139D01*
X1717807D01*
Y1009500D01*
X1724471D02*
Y1019497D01*
X1727803Y1016164D01*
X1731136Y1019497D01*
Y1009500D01*
X1639664Y312831D02*
X1637998Y314497D01*
X1634666D01*
X1633000Y312831D01*
Y311164D01*
X1634666Y309498D01*
X1637998D01*
X1639664Y307832D01*
Y306166D01*
X1637998Y304500D01*
X1634666D01*
X1633000Y306166D01*
X1642997Y304500D02*
X1646329D01*
X1644663D01*
Y314497D01*
X1642997Y312831D01*
X1657992Y304500D02*
X1656326Y306166D01*
X1654660Y304500D01*
X1652993D01*
X1651327Y306166D01*
Y307832D01*
X1652993Y309498D01*
X1651327Y311164D01*
Y312831D01*
X1652993Y314497D01*
X1654660D01*
X1656326Y312831D01*
Y311164D01*
X1654660Y309498D01*
X1656326Y307832D01*
Y306166D01*
X1657992Y309498D02*
X1656326Y307832D01*
X1652993Y309498D02*
X1654660D01*
X1667989Y304500D02*
X1661324D01*
X1667989Y311164D01*
Y312831D01*
X1666323Y314497D01*
X1662990D01*
X1661324Y312831D01*
X822500Y1107247D02*
Y1098916D01*
X824166Y1097250D01*
X827498D01*
X829165Y1098916D01*
Y1107247D01*
X839161Y1105581D02*
X837495Y1107247D01*
X834163D01*
X832497Y1105581D01*
Y1098916D01*
X834163Y1097250D01*
X837495D01*
X839161Y1098916D01*
Y1102248D01*
X835829D01*
X842494Y1107247D02*
Y1100582D01*
X845826Y1097250D01*
X849158Y1100582D01*
Y1107247D01*
X862487Y1097250D02*
Y1107247D01*
X867486D01*
X869152Y1105581D01*
Y1102248D01*
X867486Y1100582D01*
X862487D01*
X874150Y1097250D02*
X877482D01*
X879148Y1098916D01*
Y1102248D01*
X877482Y1103914D01*
X874150D01*
X872484Y1102248D01*
Y1098916D01*
X874150Y1097250D01*
X882481Y1103914D02*
Y1098916D01*
X884147Y1097250D01*
X885813Y1098916D01*
X887479Y1097250D01*
X889145Y1098916D01*
Y1103914D01*
X897476Y1097250D02*
X894144D01*
X892477Y1098916D01*
Y1102248D01*
X894144Y1103914D01*
X897476D01*
X899142Y1102248D01*
Y1100582D01*
X892477D01*
X902474Y1103914D02*
Y1097250D01*
Y1100582D01*
X904140Y1102248D01*
X905807Y1103914D01*
X907473D01*
X922468Y1107247D02*
Y1097250D01*
X927466D01*
X929132Y1098916D01*
Y1105581D01*
X927466Y1107247D01*
X922468D01*
X932465Y1097250D02*
X935797D01*
X934131D01*
Y1103914D01*
X932465D01*
X940795Y1097250D02*
X945794D01*
X947460Y1098916D01*
X945794Y1100582D01*
X942461D01*
X940795Y1102248D01*
X942461Y1103914D01*
X947460D01*
X952458Y1105581D02*
Y1103914D01*
X950792D01*
X954124D01*
X952458D01*
Y1098916D01*
X954124Y1097250D01*
X959123Y1103914D02*
Y1097250D01*
Y1100582D01*
X960789Y1102248D01*
X962455Y1103914D01*
X964121D01*
X969119Y1097250D02*
X972452D01*
X970786D01*
Y1103914D01*
X969119D01*
X977450Y1107247D02*
Y1097250D01*
X982448D01*
X984115Y1098916D01*
Y1100582D01*
Y1102248D01*
X982448Y1103914D01*
X977450D01*
X987447D02*
Y1098916D01*
X989113Y1097250D01*
X994111D01*
Y1103914D01*
X999110Y1105581D02*
Y1103914D01*
X997444D01*
X1000776D01*
X999110D01*
Y1098916D01*
X1000776Y1097250D01*
X1005774D02*
X1009107D01*
X1007440D01*
Y1103914D01*
X1005774D01*
X1015771Y1097250D02*
X1019103D01*
X1020769Y1098916D01*
Y1102248D01*
X1019103Y1103914D01*
X1015771D01*
X1014105Y1102248D01*
Y1098916D01*
X1015771Y1097250D01*
X1024102D02*
Y1103914D01*
X1029100D01*
X1030766Y1102248D01*
Y1097250D01*
X1044095D02*
Y1107247D01*
X1049094D01*
X1050760Y1105581D01*
Y1102248D01*
X1049094Y1100582D01*
X1044095D01*
X1047428D02*
X1050760Y1097250D01*
X1059090D02*
X1055758D01*
X1054092Y1098916D01*
Y1102248D01*
X1055758Y1103914D01*
X1059090D01*
X1060757Y1102248D01*
Y1100582D01*
X1054092D01*
X1064089Y1103914D02*
X1067421Y1097250D01*
X1070753Y1103914D01*
X1084082Y1097250D02*
Y1103914D01*
X1087415Y1107247D01*
X1090747Y1103914D01*
Y1097250D01*
Y1102248D01*
X1084082D01*
X730665Y348331D02*
X728998Y349997D01*
X725666D01*
X724000Y348331D01*
Y346665D01*
X725666Y344998D01*
X728998D01*
X730665Y343332D01*
Y341666D01*
X728998Y340000D01*
X725666D01*
X724000Y341666D01*
X733997Y349997D02*
X740661D01*
X737329D01*
Y340000D01*
X750658Y349997D02*
X743994D01*
Y340000D01*
X750658D01*
X743994Y344998D02*
X747326D01*
X760655Y349997D02*
X753990D01*
Y340000D01*
X760655D01*
X753990Y344998D02*
X757323D01*
X763987Y340000D02*
Y349997D01*
X768986D01*
X770652Y348331D01*
Y344998D01*
X768986Y343332D01*
X763987D01*
X767319D02*
X770652Y340000D01*
X773984Y349997D02*
X777316D01*
X775650D01*
Y340000D01*
X773984D01*
X777316D01*
X782315D02*
Y349997D01*
X788979Y340000D01*
Y349997D01*
X798976Y348331D02*
X797310Y349997D01*
X793977D01*
X792311Y348331D01*
Y341666D01*
X793977Y340000D01*
X797310D01*
X798976Y341666D01*
Y344998D01*
X795643D01*
X1120500Y1082000D02*
Y1088664D01*
X1123832Y1091997D01*
X1127165Y1088664D01*
Y1082000D01*
Y1086998D01*
X1120500D01*
X1137161Y1090331D02*
X1135495Y1091997D01*
X1132163D01*
X1130497Y1090331D01*
Y1083666D01*
X1132163Y1082000D01*
X1135495D01*
X1137161Y1083666D01*
X1147158Y1090331D02*
X1145492Y1091997D01*
X1142160D01*
X1140493Y1090331D01*
Y1083666D01*
X1142160Y1082000D01*
X1145492D01*
X1147158Y1083666D01*
X1157155Y1091997D02*
X1150490D01*
Y1082000D01*
X1157155D01*
X1150490Y1086998D02*
X1153823D01*
X1160487Y1091997D02*
Y1082000D01*
X1167152D01*
X1310665Y311831D02*
X1308998Y313497D01*
X1305666D01*
X1304000Y311831D01*
Y310165D01*
X1305666Y308498D01*
X1308998D01*
X1310665Y306832D01*
Y305166D01*
X1308998Y303500D01*
X1305666D01*
X1304000Y305166D01*
X1313997Y311831D02*
X1315663Y313497D01*
X1318995D01*
X1320661Y311831D01*
Y310165D01*
X1318995Y308498D01*
X1317329D01*
X1318995D01*
X1320661Y306832D01*
Y305166D01*
X1318995Y303500D01*
X1315663D01*
X1313997Y305166D01*
X1330658Y303500D02*
X1328992Y305166D01*
X1327326Y303500D01*
X1325660D01*
X1323994Y305166D01*
Y306832D01*
X1325660Y308498D01*
X1323994Y310165D01*
Y311831D01*
X1325660Y313497D01*
X1327326D01*
X1328992Y311831D01*
Y310165D01*
X1327326Y308498D01*
X1328992Y306832D01*
Y305166D01*
X1330658Y308498D02*
X1328992Y306832D01*
X1325660Y308498D02*
X1327326D01*
X1338989Y303500D02*
Y313497D01*
X1333990Y308498D01*
X1340655D01*
X1488165Y311581D02*
X1486498Y313247D01*
X1483166D01*
X1481500Y311581D01*
Y309914D01*
X1483166Y308248D01*
X1486498D01*
X1488165Y306582D01*
Y304916D01*
X1486498Y303250D01*
X1483166D01*
X1481500Y304916D01*
X1498161Y313247D02*
X1491497D01*
Y308248D01*
X1494829Y309914D01*
X1496495D01*
X1498161Y308248D01*
Y304916D01*
X1496495Y303250D01*
X1493163D01*
X1491497Y304916D01*
X1508158Y303250D02*
X1506492Y304916D01*
X1504826Y303250D01*
X1503160D01*
X1501494Y304916D01*
Y306582D01*
X1503160Y308248D01*
X1501494Y309914D01*
Y311581D01*
X1503160Y313247D01*
X1504826D01*
X1506492Y311581D01*
Y309914D01*
X1504826Y308248D01*
X1506492Y306582D01*
Y304916D01*
X1508158Y308248D02*
X1506492Y306582D01*
X1503160Y308248D02*
X1504826D01*
X1518155Y313247D02*
X1514823Y311581D01*
X1511490Y308248D01*
Y304916D01*
X1513156Y303250D01*
X1516489D01*
X1518155Y304916D01*
Y306582D01*
X1516489Y308248D01*
X1511490D01*
X923943Y1049971D02*
X927276D01*
X925610D01*
Y1059968D01*
X923943Y1058302D01*
X938939Y1049971D02*
X932274D01*
X938939Y1056636D01*
Y1058302D01*
X937272Y1059968D01*
X933940D01*
X932274Y1058302D01*
X942271Y1056636D02*
X945603Y1049971D01*
X948935Y1056636D01*
X952268Y1048305D02*
X958932D01*
X962264Y1059968D02*
X965597D01*
X963931D01*
Y1049971D01*
X962264D01*
X965597D01*
X970595D02*
Y1059968D01*
X977260Y1049971D01*
Y1059968D01*
X1007250Y1058302D02*
X1005584Y1059968D01*
X1002252D01*
X1000585Y1058302D01*
Y1051638D01*
X1002252Y1049971D01*
X1005584D01*
X1007250Y1051638D01*
Y1054970D01*
X1003918D01*
X1010582Y1049971D02*
Y1059968D01*
X1017247Y1049971D01*
Y1059968D01*
X1020579D02*
Y1049971D01*
X1025577D01*
X1027243Y1051638D01*
Y1058302D01*
X1025577Y1059968D01*
X1020579D01*
X1665164Y640831D02*
X1663498Y642497D01*
X1660166D01*
X1658500Y640831D01*
Y639165D01*
X1660166Y637498D01*
X1663498D01*
X1665164Y635832D01*
Y634166D01*
X1663498Y632500D01*
X1660166D01*
X1658500Y634166D01*
X1668497Y642497D02*
X1675161D01*
X1671829D01*
Y632500D01*
X1678493D02*
Y642497D01*
X1681826Y639165D01*
X1685158Y642497D01*
Y632500D01*
X1437000Y985497D02*
Y975500D01*
X1441998D01*
X1443665Y977166D01*
Y978832D01*
X1441998Y980498D01*
X1437000D01*
X1441998D01*
X1443665Y982165D01*
Y983831D01*
X1441998Y985497D01*
X1437000D01*
X1451995D02*
X1448663D01*
X1446997Y983831D01*
Y977166D01*
X1448663Y975500D01*
X1451995D01*
X1453661Y977166D01*
Y983831D01*
X1451995Y985497D01*
X1461992D02*
X1458660D01*
X1456994Y983831D01*
Y977166D01*
X1458660Y975500D01*
X1461992D01*
X1463658Y977166D01*
Y983831D01*
X1461992Y985497D01*
X1466990D02*
X1473655D01*
X1470323D01*
Y975500D01*
X1308500Y660831D02*
X1310166Y662497D01*
X1313498D01*
X1315164Y660831D01*
Y659165D01*
X1313498Y657498D01*
X1311832D01*
X1313498D01*
X1315164Y655832D01*
Y654166D01*
X1313498Y652500D01*
X1310166D01*
X1308500Y654166D01*
X1318497Y659165D02*
X1321829Y652500D01*
X1325161Y659165D01*
X1328493Y660831D02*
X1330160Y662497D01*
X1333492D01*
X1335158Y660831D01*
Y659165D01*
X1333492Y657498D01*
X1331826D01*
X1333492D01*
X1335158Y655832D01*
Y654166D01*
X1333492Y652500D01*
X1330160D01*
X1328493Y654166D01*
X974165Y950500D02*
X967500D01*
X974165Y957165D01*
Y958831D01*
X972498Y960497D01*
X969166D01*
X967500Y958831D01*
X977497D02*
X979163Y960497D01*
X982495D01*
X984161Y958831D01*
Y952166D01*
X982495Y950500D01*
X979163D01*
X977497Y952166D01*
Y958831D01*
X987494Y950500D02*
Y957165D01*
X990826Y960497D01*
X994158Y957165D01*
Y950500D01*
Y955498D01*
X987494D01*
X823250Y1130079D02*
Y1120082D01*
X828248D01*
X829914Y1121748D01*
Y1128413D01*
X828248Y1130079D01*
X823250D01*
X838245Y1120082D02*
X834913D01*
X833247Y1121748D01*
Y1125081D01*
X834913Y1126747D01*
X838245D01*
X839911Y1125081D01*
Y1123415D01*
X833247D01*
X843243Y1120082D02*
X848242D01*
X849908Y1121748D01*
X848242Y1123415D01*
X844910D01*
X843243Y1125081D01*
X844910Y1126747D01*
X849908D01*
X853240Y1120082D02*
X856573D01*
X854906D01*
Y1126747D01*
X853240D01*
X864903Y1116750D02*
X866569D01*
X868235Y1118416D01*
Y1126747D01*
X863237D01*
X861571Y1125081D01*
Y1121748D01*
X863237Y1120082D01*
X868235D01*
X871568D02*
Y1126747D01*
X876566D01*
X878232Y1125081D01*
Y1120082D01*
X886563D02*
X883231D01*
X881564Y1121748D01*
Y1125081D01*
X883231Y1126747D01*
X886563D01*
X888229Y1125081D01*
Y1123415D01*
X881564D01*
X898226Y1130079D02*
Y1120082D01*
X893227D01*
X891561Y1121748D01*
Y1125081D01*
X893227Y1126747D01*
X898226D01*
X911555Y1130079D02*
Y1120082D01*
X916553D01*
X918219Y1121748D01*
Y1123415D01*
Y1125081D01*
X916553Y1126747D01*
X911555D01*
X921552D02*
Y1121748D01*
X923218Y1120082D01*
X928216D01*
Y1118416D01*
X926550Y1116750D01*
X924884D01*
X928216Y1120082D02*
Y1126747D01*
X941545Y1130079D02*
Y1120082D01*
X946544D01*
X948210Y1121748D01*
Y1123415D01*
X946544Y1125081D01*
X941545D01*
X946544D01*
X948210Y1126747D01*
Y1128413D01*
X946544Y1130079D01*
X941545D01*
X951542Y1126747D02*
Y1120082D01*
Y1123415D01*
X953208Y1125081D01*
X954874Y1126747D01*
X956540D01*
X961539D02*
Y1121748D01*
X963205Y1120082D01*
X968203D01*
Y1118416D01*
X966537Y1116750D01*
X964871D01*
X968203Y1120082D02*
Y1126747D01*
X973202Y1128413D02*
Y1126747D01*
X971535D01*
X974868D01*
X973202D01*
Y1121748D01*
X974868Y1120082D01*
X981532D02*
X984865D01*
X986531Y1121748D01*
Y1125081D01*
X984865Y1126747D01*
X981532D01*
X979866Y1125081D01*
Y1121748D01*
X981532Y1120082D01*
X989863D02*
Y1126747D01*
X994861D01*
X996527Y1125081D01*
Y1120082D01*
X1009856Y1130079D02*
Y1120082D01*
Y1123415D01*
X1016521Y1130079D01*
X1011523Y1125081D01*
X1016521Y1120082D01*
X1019853D02*
X1023186D01*
X1021519D01*
Y1126747D01*
X1019853D01*
X1028184Y1120082D02*
Y1126747D01*
X1033182D01*
X1034848Y1125081D01*
Y1120082D01*
X1041513Y1116750D02*
X1043179D01*
X1044845Y1118416D01*
Y1126747D01*
X1039847D01*
X1038181Y1125081D01*
Y1121748D01*
X1039847Y1120082D01*
X1044845D01*
X810220Y791170D02*
X813552D01*
X811886D01*
Y801167D01*
X810220Y799501D01*
X825215Y791170D02*
X818551D01*
X825215Y797834D01*
Y799501D01*
X823549Y801167D01*
X820217D01*
X818551Y799501D01*
X828547Y797834D02*
X831880Y791170D01*
X835212Y797834D01*
D17*
X1305941Y794018D02*
X1314405Y785554D01*
X1305941D02*
X1314405Y794018D01*
X1305941Y789786D02*
X1314405D01*
X1310173Y785554D02*
Y794018D01*
X1446750Y725446D02*
Y714866D01*
X1448866Y712750D01*
X1453098D01*
X1455214Y714866D01*
Y725446D01*
X1465794Y712750D02*
Y725446D01*
X1459446Y719098D01*
X1467910D01*
M02*
