G04*
G04 #@! TF.GenerationSoftware,Altium Limited,Altium Designer,26.10.1 (5)*
G04*
G04 Layer_Physical_Order=2*
G04 Layer_Color=36540*
G04 Board_Origin=0|0*
%FSLAX44Y44*%
%MOMM*%
G71*
G04*
G04 #@! TF.SameCoordinates,1C1FC9D1-0847-4E34-B182-99CB99BC725A*
G04*
G04*
G04 #@! TF.FilePolarity,Positive*
G04*
G01*
G75*
%ADD30C,1.5748*%
%ADD31C,1.0668*%
%ADD32C,1.3716*%
%ADD33C,1.1176*%
%ADD36C,1.9558*%
%ADD37R,1.3208X1.3208*%
%ADD38C,1.3208*%
%ADD43C,2.1082*%
%ADD44C,2.7940*%
%ADD52C,3.5000*%
%ADD53C,1.1500*%
%ADD54C,1.7000*%
%ADD55C,2.4000*%
%ADD56C,0.6000*%
%ADD57C,1.5000*%
%ADD58C,1.2000*%
%ADD59C,1.8030*%
%ADD60C,1.5240*%
%ADD61C,1.9560*%
%ADD62C,2.3620*%
G36*
X730790Y1141589D02*
X730457Y1141509D01*
X725619Y1139505D01*
X721154Y1136769D01*
X717172Y1133368D01*
X713771Y1129386D01*
X711035Y1124921D01*
X709031Y1120083D01*
X706559Y1120667D01*
Y1144099D01*
X730488Y1144129D01*
X730790Y1141589D01*
D02*
G37*
G36*
X1714786Y1136976D02*
X1718857Y1135999D01*
X1722726Y1134396D01*
X1726296Y1132208D01*
X1729481Y1129489D01*
X1732200Y1126305D01*
X1734388Y1122735D01*
X1735990Y1118866D01*
X1736968Y1114794D01*
X1737296Y1110620D01*
X1736968Y1106445D01*
X1735990Y1102374D01*
X1734388Y1098505D01*
X1732200Y1094934D01*
X1729481Y1091750D01*
X1726296Y1089031D01*
X1722726Y1086843D01*
X1718857Y1085240D01*
X1714786Y1084263D01*
X1710611Y1083934D01*
X1706437Y1084263D01*
X1702365Y1085240D01*
X1698496Y1086843D01*
X1694926Y1089031D01*
X1691742Y1091750D01*
X1689022Y1094934D01*
X1686835Y1098505D01*
X1685232Y1102374D01*
X1684254Y1106445D01*
X1683926Y1110620D01*
X1684254Y1114794D01*
X1685232Y1118866D01*
X1686835Y1122735D01*
X1689022Y1126305D01*
X1691742Y1129489D01*
X1694926Y1132208D01*
X1698496Y1134396D01*
X1702365Y1135999D01*
X1706437Y1136976D01*
X1710611Y1137305D01*
X1714786Y1136976D01*
D02*
G37*
G36*
X744945Y1136127D02*
X749016Y1135149D01*
X752885Y1133547D01*
X756455Y1131359D01*
X759639Y1128639D01*
X762359Y1125455D01*
X764547Y1121885D01*
X766149Y1118016D01*
X767127Y1113944D01*
X767455Y1109770D01*
X767127Y1105595D01*
X766149Y1101524D01*
X764547Y1097655D01*
X762359Y1094085D01*
X759639Y1090901D01*
X756455Y1088181D01*
X752885Y1085993D01*
X749016Y1084391D01*
X744945Y1083413D01*
X740770Y1083085D01*
X736596Y1083413D01*
X732524Y1084391D01*
X728655Y1085993D01*
X725085Y1088181D01*
X721901Y1090901D01*
X719181Y1094085D01*
X716993Y1097655D01*
X715391Y1101524D01*
X714413Y1105595D01*
X714085Y1109770D01*
X714413Y1113944D01*
X715391Y1118016D01*
X716993Y1121885D01*
X719181Y1125455D01*
X721901Y1128639D01*
X725085Y1131359D01*
X728655Y1133547D01*
X732524Y1135149D01*
X736596Y1136127D01*
X740770Y1136455D01*
X744945Y1136127D01*
D02*
G37*
G36*
X1699193Y1141901D02*
X1695460Y1140355D01*
X1690995Y1137619D01*
X1687013Y1134218D01*
X1683612Y1130236D01*
X1680876Y1125771D01*
X1678872Y1120932D01*
X1677649Y1115840D01*
X1677238Y1110620D01*
X1677649Y1105399D01*
X1678872Y1100307D01*
X1680876Y1095469D01*
X1683612Y1091004D01*
X1687013Y1087021D01*
X1690995Y1083621D01*
X1695460Y1080884D01*
X1700298Y1078880D01*
X1705391Y1077658D01*
X1710611Y1077247D01*
X1715832Y1077658D01*
X1720924Y1078880D01*
X1725762Y1080884D01*
X1730227Y1083621D01*
X1734209Y1087021D01*
X1737610Y1091004D01*
X1740347Y1095469D01*
X1741151Y1097411D01*
X1743691Y1096906D01*
X1743691Y307591D01*
X1741151Y307086D01*
X1739985Y309901D01*
X1737249Y314366D01*
X1733848Y318348D01*
X1729866Y321749D01*
X1725401Y324485D01*
X1720563Y326489D01*
X1715471Y327712D01*
X1710250Y328123D01*
X1705029Y327712D01*
X1699937Y326489D01*
X1695099Y324485D01*
X1690634Y321749D01*
X1686652Y318348D01*
X1683251Y314366D01*
X1680515Y309901D01*
X1678510Y305063D01*
X1677288Y299971D01*
X1676877Y294750D01*
X1677288Y289529D01*
X1678510Y284437D01*
X1680515Y279599D01*
X1683251Y275134D01*
X1686652Y271152D01*
X1690634Y267751D01*
X1694554Y265349D01*
X1694054Y262942D01*
X1693986Y262809D01*
X753549D01*
X753043Y265349D01*
X754651Y266015D01*
X759116Y268751D01*
X763098Y272152D01*
X766499Y276134D01*
X769235Y280599D01*
X771239Y285437D01*
X772462Y290529D01*
X772873Y295750D01*
X772462Y300971D01*
X771239Y306063D01*
X769235Y310901D01*
X766499Y315366D01*
X763098Y319348D01*
X759116Y322749D01*
X754651Y325485D01*
X749813Y327490D01*
X744721Y328712D01*
X739500Y329123D01*
X734279Y328712D01*
X729187Y327490D01*
X724349Y325485D01*
X719884Y322749D01*
X715902Y319348D01*
X712501Y315366D01*
X709765Y310901D01*
X709099Y309293D01*
X706559Y309799D01*
Y1098873D01*
X709031Y1099457D01*
X711035Y1094619D01*
X713771Y1090154D01*
X717172Y1086172D01*
X721154Y1082771D01*
X725619Y1080035D01*
X730457Y1078030D01*
X735549Y1076808D01*
X740770Y1076397D01*
X745991Y1076808D01*
X751083Y1078030D01*
X755921Y1080035D01*
X760386Y1082771D01*
X764368Y1086172D01*
X767769Y1090154D01*
X770505Y1094619D01*
X772510Y1099457D01*
X773732Y1104549D01*
X774143Y1109770D01*
X773732Y1114991D01*
X772510Y1120083D01*
X770505Y1124921D01*
X767769Y1129386D01*
X764368Y1133368D01*
X760386Y1136769D01*
X755921Y1139505D01*
X751083Y1141509D01*
X750648Y1141614D01*
X750947Y1144154D01*
X983499Y1144441D01*
X1698688D01*
X1699193Y1141901D01*
D02*
G37*
G36*
X743674Y322107D02*
X747746Y321129D01*
X751615Y319527D01*
X755185Y317339D01*
X758369Y314619D01*
X761089Y311435D01*
X763277Y307865D01*
X764879Y303996D01*
X765857Y299925D01*
X766185Y295750D01*
X765857Y291576D01*
X764879Y287504D01*
X763277Y283635D01*
X761089Y280065D01*
X758369Y276881D01*
X755185Y274161D01*
X751615Y271973D01*
X747746Y270371D01*
X743674Y269393D01*
X739500Y269065D01*
X735325Y269393D01*
X731254Y270371D01*
X727385Y271973D01*
X723815Y274161D01*
X720631Y276881D01*
X717911Y280065D01*
X715723Y283635D01*
X714121Y287504D01*
X713143Y291576D01*
X712815Y295750D01*
X713143Y299925D01*
X714121Y303996D01*
X715723Y307865D01*
X717911Y311435D01*
X720631Y314619D01*
X723815Y317339D01*
X727385Y319527D01*
X731254Y321129D01*
X735325Y322107D01*
X739500Y322435D01*
X743674Y322107D01*
D02*
G37*
G36*
X1714424Y321107D02*
X1718496Y320129D01*
X1722365Y318527D01*
X1725935Y316339D01*
X1729119Y313619D01*
X1731839Y310435D01*
X1734027Y306865D01*
X1735629Y302996D01*
X1736607Y298925D01*
X1736935Y294750D01*
X1736607Y290576D01*
X1735629Y286504D01*
X1734027Y282635D01*
X1731839Y279065D01*
X1729119Y275881D01*
X1725935Y273161D01*
X1722365Y270973D01*
X1718496Y269371D01*
X1714424Y268393D01*
X1710250Y268065D01*
X1706075Y268393D01*
X1702004Y269371D01*
X1698135Y270973D01*
X1694565Y273161D01*
X1691381Y275881D01*
X1688661Y279065D01*
X1686473Y282635D01*
X1684871Y286504D01*
X1683893Y290576D01*
X1683565Y294750D01*
X1683893Y298925D01*
X1684871Y302996D01*
X1686473Y306865D01*
X1688661Y310435D01*
X1691381Y313619D01*
X1694565Y316339D01*
X1698135Y318527D01*
X1702004Y320129D01*
X1706075Y321107D01*
X1710250Y321435D01*
X1714424Y321107D01*
D02*
G37*
G36*
X1743691Y281909D02*
Y262809D01*
X1726514D01*
X1726446Y262942D01*
X1725946Y265349D01*
X1729866Y267751D01*
X1733848Y271152D01*
X1737249Y275134D01*
X1739985Y279599D01*
X1741151Y282414D01*
X1743691Y281909D01*
D02*
G37*
G36*
X709765Y280599D02*
X712501Y276134D01*
X715902Y272152D01*
X719884Y268751D01*
X724349Y266015D01*
X725957Y265349D01*
X725452Y262809D01*
X706559D01*
Y281702D01*
X709099Y282207D01*
X709765Y280599D01*
D02*
G37*
%LPC*%
G36*
X1712532Y1130120D02*
X1708691D01*
X1704923Y1129370D01*
X1701375Y1127900D01*
X1698181Y1125766D01*
X1695465Y1123050D01*
X1693331Y1119856D01*
X1691861Y1116308D01*
X1691111Y1112540D01*
Y1108699D01*
X1691861Y1104932D01*
X1693331Y1101383D01*
X1695465Y1098189D01*
X1698181Y1095473D01*
X1701375Y1093339D01*
X1704923Y1091869D01*
X1708691Y1091120D01*
X1712532D01*
X1716299Y1091869D01*
X1719848Y1093339D01*
X1723042Y1095473D01*
X1725758Y1098189D01*
X1727892Y1101383D01*
X1729362Y1104932D01*
X1730111Y1108699D01*
Y1112540D01*
X1729362Y1116308D01*
X1727892Y1119856D01*
X1725758Y1123050D01*
X1723042Y1125766D01*
X1719848Y1127900D01*
X1716299Y1129370D01*
X1712532Y1130120D01*
D02*
G37*
G36*
X742691Y1129270D02*
X738849D01*
X735082Y1128521D01*
X731533Y1127051D01*
X728339Y1124917D01*
X725623Y1122200D01*
X723489Y1119007D01*
X722019Y1115458D01*
X721270Y1111691D01*
Y1107849D01*
X722019Y1104082D01*
X723489Y1100533D01*
X725623Y1097339D01*
X728339Y1094623D01*
X731533Y1092489D01*
X735082Y1091019D01*
X738849Y1090270D01*
X742691D01*
X746458Y1091019D01*
X750007Y1092489D01*
X753201Y1094623D01*
X755917Y1097339D01*
X758051Y1100533D01*
X759521Y1104082D01*
X760270Y1107849D01*
Y1111691D01*
X759521Y1115458D01*
X758051Y1119007D01*
X755917Y1122200D01*
X753201Y1124917D01*
X750007Y1127051D01*
X746458Y1128521D01*
X742691Y1129270D01*
D02*
G37*
G36*
X1289798Y1108690D02*
X1289730D01*
Y1099800D01*
X1298620D01*
Y1099868D01*
X1297928Y1102452D01*
X1296590Y1104768D01*
X1294698Y1106660D01*
X1292382Y1107998D01*
X1289798Y1108690D01*
D02*
G37*
G36*
X1287190D02*
X1287122D01*
X1284538Y1107998D01*
X1282222Y1106660D01*
X1280330Y1104768D01*
X1278992Y1102452D01*
X1278300Y1099868D01*
Y1099800D01*
X1287190D01*
Y1108690D01*
D02*
G37*
G36*
X1333838Y1108620D02*
X1333770D01*
Y1099730D01*
X1342660D01*
Y1099798D01*
X1341968Y1102382D01*
X1340630Y1104698D01*
X1338738Y1106590D01*
X1336422Y1107928D01*
X1333838Y1108620D01*
D02*
G37*
G36*
X1331230D02*
X1331162D01*
X1328578Y1107928D01*
X1326262Y1106590D01*
X1324370Y1104698D01*
X1323032Y1102382D01*
X1322340Y1099798D01*
Y1099730D01*
X1331230D01*
Y1108620D01*
D02*
G37*
G36*
X1237728Y1107420D02*
X1237660D01*
Y1098530D01*
X1246550D01*
Y1098598D01*
X1245858Y1101182D01*
X1244520Y1103498D01*
X1242628Y1105390D01*
X1240312Y1106728D01*
X1237728Y1107420D01*
D02*
G37*
G36*
X1235120D02*
X1235052D01*
X1232468Y1106728D01*
X1230152Y1105390D01*
X1228260Y1103498D01*
X1226922Y1101182D01*
X1226230Y1098598D01*
Y1098530D01*
X1235120D01*
Y1107420D01*
D02*
G37*
G36*
X1381088Y1107120D02*
X1381020D01*
Y1098230D01*
X1389910D01*
Y1098298D01*
X1389218Y1100882D01*
X1387880Y1103198D01*
X1385988Y1105090D01*
X1383672Y1106428D01*
X1381088Y1107120D01*
D02*
G37*
G36*
X1378480D02*
X1378412D01*
X1375828Y1106428D01*
X1373512Y1105090D01*
X1371620Y1103198D01*
X1370282Y1100882D01*
X1369590Y1098298D01*
Y1098230D01*
X1378480D01*
Y1107120D01*
D02*
G37*
G36*
X1298620Y1097260D02*
X1289730D01*
Y1088370D01*
X1289798D01*
X1292382Y1089062D01*
X1294698Y1090400D01*
X1296590Y1092292D01*
X1297928Y1094608D01*
X1298620Y1097192D01*
Y1097260D01*
D02*
G37*
G36*
X1287190D02*
X1278300D01*
Y1097192D01*
X1278992Y1094608D01*
X1280330Y1092292D01*
X1282222Y1090400D01*
X1284538Y1089062D01*
X1287122Y1088370D01*
X1287190D01*
Y1097260D01*
D02*
G37*
G36*
X1342660Y1097190D02*
X1333770D01*
Y1088300D01*
X1333838D01*
X1336422Y1088992D01*
X1338738Y1090330D01*
X1340630Y1092222D01*
X1341968Y1094538D01*
X1342660Y1097122D01*
Y1097190D01*
D02*
G37*
G36*
X1331230D02*
X1322340D01*
Y1097122D01*
X1323032Y1094538D01*
X1324370Y1092222D01*
X1326262Y1090330D01*
X1328578Y1088992D01*
X1331162Y1088300D01*
X1331230D01*
Y1097190D01*
D02*
G37*
G36*
X1246550Y1095990D02*
X1237660D01*
Y1087100D01*
X1237728D01*
X1240312Y1087792D01*
X1242628Y1089130D01*
X1244520Y1091022D01*
X1245858Y1093338D01*
X1246550Y1095922D01*
Y1095990D01*
D02*
G37*
G36*
X1235120D02*
X1226230D01*
Y1095922D01*
X1226922Y1093338D01*
X1228260Y1091022D01*
X1230152Y1089130D01*
X1232468Y1087792D01*
X1235052Y1087100D01*
X1235120D01*
Y1095990D01*
D02*
G37*
G36*
X1389910Y1095690D02*
X1381020D01*
Y1086800D01*
X1381088D01*
X1383672Y1087492D01*
X1385988Y1088830D01*
X1387880Y1090722D01*
X1389218Y1093038D01*
X1389910Y1095622D01*
Y1095690D01*
D02*
G37*
G36*
X1378480D02*
X1369590D01*
Y1095622D01*
X1370282Y1093038D01*
X1371620Y1090722D01*
X1373512Y1088830D01*
X1375828Y1087492D01*
X1378412Y1086800D01*
X1378480D01*
Y1095690D01*
D02*
G37*
G36*
X1529222Y1086650D02*
X1528870D01*
Y1075600D01*
X1539920D01*
Y1075952D01*
X1539080Y1079085D01*
X1537458Y1081895D01*
X1535165Y1084188D01*
X1532355Y1085810D01*
X1529222Y1086650D01*
D02*
G37*
G36*
X1571222D02*
X1570870D01*
Y1075600D01*
X1581920D01*
Y1075952D01*
X1581080Y1079085D01*
X1579458Y1081895D01*
X1577165Y1084188D01*
X1574355Y1085810D01*
X1571222Y1086650D01*
D02*
G37*
G36*
X1568330D02*
X1567978D01*
X1564845Y1085810D01*
X1562035Y1084188D01*
X1559742Y1081895D01*
X1558120Y1079085D01*
X1557280Y1075952D01*
Y1075600D01*
X1568330D01*
Y1086650D01*
D02*
G37*
G36*
X1526330D02*
X1525978D01*
X1522845Y1085810D01*
X1520035Y1084188D01*
X1517742Y1081895D01*
X1516120Y1079085D01*
X1515280Y1075952D01*
Y1075600D01*
X1526330D01*
Y1086650D01*
D02*
G37*
G36*
X1487151Y1086110D02*
X1484049D01*
X1481053Y1085307D01*
X1478367Y1083756D01*
X1476174Y1081563D01*
X1474623Y1078877D01*
X1473820Y1075881D01*
Y1072779D01*
X1474623Y1069783D01*
X1476174Y1067097D01*
X1478367Y1064904D01*
X1481053Y1063353D01*
X1484049Y1062550D01*
X1487151D01*
X1490147Y1063353D01*
X1492833Y1064904D01*
X1495026Y1067097D01*
X1496577Y1069783D01*
X1497380Y1072779D01*
Y1075881D01*
X1496577Y1078877D01*
X1495026Y1081563D01*
X1492833Y1083756D01*
X1490147Y1085307D01*
X1487151Y1086110D01*
D02*
G37*
G36*
X1445151D02*
X1442049D01*
X1439053Y1085307D01*
X1436367Y1083756D01*
X1434174Y1081563D01*
X1432623Y1078877D01*
X1431820Y1075881D01*
Y1072779D01*
X1432623Y1069783D01*
X1434174Y1067097D01*
X1436367Y1064904D01*
X1439053Y1063353D01*
X1442049Y1062550D01*
X1445151D01*
X1448147Y1063353D01*
X1450833Y1064904D01*
X1453026Y1067097D01*
X1454577Y1069783D01*
X1455380Y1072779D01*
Y1075881D01*
X1454577Y1078877D01*
X1453026Y1081563D01*
X1450833Y1083756D01*
X1448147Y1085307D01*
X1445151Y1086110D01*
D02*
G37*
G36*
X1581920Y1073060D02*
X1570870D01*
Y1062010D01*
X1571222D01*
X1574355Y1062850D01*
X1577165Y1064472D01*
X1579458Y1066765D01*
X1581080Y1069575D01*
X1581920Y1072708D01*
Y1073060D01*
D02*
G37*
G36*
X1568330D02*
X1557280D01*
Y1072708D01*
X1558120Y1069575D01*
X1559742Y1066765D01*
X1562035Y1064472D01*
X1564845Y1062850D01*
X1567978Y1062010D01*
X1568330D01*
Y1073060D01*
D02*
G37*
G36*
X1539920D02*
X1528870D01*
Y1062010D01*
X1529222D01*
X1532355Y1062850D01*
X1535165Y1064472D01*
X1537458Y1066765D01*
X1539080Y1069575D01*
X1539920Y1072708D01*
Y1073060D01*
D02*
G37*
G36*
X1526330D02*
X1515280D01*
Y1072708D01*
X1516120Y1069575D01*
X1517742Y1066765D01*
X1520035Y1064472D01*
X1522845Y1062850D01*
X1525978Y1062010D01*
X1526330D01*
Y1073060D01*
D02*
G37*
G36*
X1160220Y1060934D02*
X1157620D01*
X1155109Y1060261D01*
X1152857Y1058961D01*
X1151019Y1057123D01*
X1149719Y1054871D01*
X1149046Y1052360D01*
Y1049760D01*
X1149719Y1047249D01*
X1151019Y1044997D01*
X1152857Y1043159D01*
X1155109Y1041859D01*
X1157620Y1041186D01*
X1160220D01*
X1162731Y1041859D01*
X1164983Y1043159D01*
X1166821Y1044997D01*
X1168121Y1047249D01*
X1168794Y1049760D01*
Y1052360D01*
X1168121Y1054871D01*
X1166821Y1057123D01*
X1164983Y1058961D01*
X1162731Y1060261D01*
X1160220Y1060934D01*
D02*
G37*
G36*
X1130220D02*
X1127620D01*
X1125109Y1060261D01*
X1122857Y1058961D01*
X1121019Y1057123D01*
X1119719Y1054871D01*
X1119046Y1052360D01*
Y1049760D01*
X1119719Y1047249D01*
X1121019Y1044997D01*
X1122857Y1043159D01*
X1125109Y1041859D01*
X1127620Y1041186D01*
X1130220D01*
X1132731Y1041859D01*
X1134983Y1043159D01*
X1136821Y1044997D01*
X1138121Y1047249D01*
X1138794Y1049760D01*
Y1052360D01*
X1138121Y1054871D01*
X1136821Y1057123D01*
X1134983Y1058961D01*
X1132731Y1060261D01*
X1130220Y1060934D01*
D02*
G37*
G36*
X1100220D02*
X1097620D01*
X1095109Y1060261D01*
X1092857Y1058961D01*
X1091019Y1057123D01*
X1089719Y1054871D01*
X1089046Y1052360D01*
Y1049760D01*
X1089719Y1047249D01*
X1091019Y1044997D01*
X1092857Y1043159D01*
X1095109Y1041859D01*
X1097620Y1041186D01*
X1100220D01*
X1102731Y1041859D01*
X1104983Y1043159D01*
X1106821Y1044997D01*
X1108121Y1047249D01*
X1108794Y1049760D01*
Y1052360D01*
X1108121Y1054871D01*
X1106821Y1057123D01*
X1104983Y1058961D01*
X1102731Y1060261D01*
X1100220Y1060934D01*
D02*
G37*
G36*
X916665Y1046400D02*
X914675D01*
X912838Y1045639D01*
X911431Y1044232D01*
X910670Y1042395D01*
Y1040405D01*
X911431Y1038568D01*
X912838Y1037161D01*
X914675Y1036400D01*
X916665D01*
X918502Y1037161D01*
X919909Y1038568D01*
X920670Y1040405D01*
Y1042395D01*
X919909Y1044232D01*
X918502Y1045639D01*
X916665Y1046400D01*
D02*
G37*
G36*
X889995D02*
X888005D01*
X886168Y1045639D01*
X884761Y1044232D01*
X884000Y1042395D01*
Y1040405D01*
X884761Y1038568D01*
X886168Y1037161D01*
X888005Y1036400D01*
X889995D01*
X891832Y1037161D01*
X893239Y1038568D01*
X894000Y1040405D01*
Y1042395D01*
X893239Y1044232D01*
X891832Y1045639D01*
X889995Y1046400D01*
D02*
G37*
G36*
X860785D02*
X858795D01*
X856958Y1045639D01*
X855551Y1044232D01*
X854790Y1042395D01*
Y1040405D01*
X855551Y1038568D01*
X856958Y1037161D01*
X858795Y1036400D01*
X860785D01*
X862622Y1037161D01*
X864029Y1038568D01*
X864790Y1040405D01*
Y1042395D01*
X864029Y1044232D01*
X862622Y1045639D01*
X860785Y1046400D01*
D02*
G37*
G36*
X1016052Y1043820D02*
X1016000D01*
Y1035050D01*
X1024770D01*
Y1035102D01*
X1024086Y1037655D01*
X1022764Y1039945D01*
X1020895Y1041814D01*
X1018605Y1043136D01*
X1016052Y1043820D01*
D02*
G37*
G36*
X1013460D02*
X1013408D01*
X1010855Y1043136D01*
X1008565Y1041814D01*
X1006696Y1039945D01*
X1005374Y1037655D01*
X1004690Y1035102D01*
Y1035050D01*
X1013460D01*
Y1043820D01*
D02*
G37*
G36*
X951211Y1043280D02*
X948709D01*
X946293Y1042633D01*
X944127Y1041382D01*
X942358Y1039613D01*
X941107Y1037447D01*
X940460Y1035031D01*
Y1032529D01*
X941107Y1030113D01*
X942358Y1027947D01*
X944127Y1026178D01*
X946293Y1024927D01*
X948709Y1024280D01*
X951211D01*
X953627Y1024927D01*
X955793Y1026178D01*
X957562Y1027947D01*
X958813Y1030113D01*
X959460Y1032529D01*
Y1035031D01*
X958813Y1037447D01*
X957562Y1039613D01*
X955793Y1041382D01*
X953627Y1042633D01*
X951211Y1043280D01*
D02*
G37*
G36*
X1024770Y1032510D02*
X1016000D01*
Y1023740D01*
X1016052D01*
X1018605Y1024424D01*
X1020895Y1025746D01*
X1022764Y1027615D01*
X1024086Y1029905D01*
X1024770Y1032458D01*
Y1032510D01*
D02*
G37*
G36*
X1013460D02*
X1004690D01*
Y1032458D01*
X1005374Y1029905D01*
X1006696Y1027615D01*
X1008565Y1025746D01*
X1010855Y1024424D01*
X1013408Y1023740D01*
X1013460D01*
Y1032510D01*
D02*
G37*
G36*
X1130291Y1031474D02*
X1130190D01*
Y1022330D01*
X1139334D01*
Y1022431D01*
X1138624Y1025080D01*
X1137253Y1027454D01*
X1135314Y1029393D01*
X1132940Y1030764D01*
X1130291Y1031474D01*
D02*
G37*
G36*
X1127650D02*
X1127549D01*
X1124900Y1030764D01*
X1122526Y1029393D01*
X1120587Y1027454D01*
X1119216Y1025080D01*
X1118506Y1022431D01*
Y1022330D01*
X1127650D01*
Y1031474D01*
D02*
G37*
G36*
X916665Y1031160D02*
X914675D01*
X912838Y1030399D01*
X911431Y1028992D01*
X910670Y1027155D01*
Y1025165D01*
X911431Y1023328D01*
X912838Y1021921D01*
X914675Y1021160D01*
X916665D01*
X918502Y1021921D01*
X919909Y1023328D01*
X920670Y1025165D01*
Y1027155D01*
X919909Y1028992D01*
X918502Y1030399D01*
X916665Y1031160D01*
D02*
G37*
G36*
X889995D02*
X888005D01*
X886168Y1030399D01*
X884761Y1028992D01*
X884000Y1027155D01*
Y1025165D01*
X884761Y1023328D01*
X886168Y1021921D01*
X888005Y1021160D01*
X889995D01*
X891832Y1021921D01*
X893239Y1023328D01*
X894000Y1025165D01*
Y1027155D01*
X893239Y1028992D01*
X891832Y1030399D01*
X889995Y1031160D01*
D02*
G37*
G36*
X860785D02*
X858795D01*
X856958Y1030399D01*
X855551Y1028992D01*
X854790Y1027155D01*
Y1025165D01*
X855551Y1023328D01*
X856958Y1021921D01*
X858795Y1021160D01*
X860785D01*
X862622Y1021921D01*
X864029Y1023328D01*
X864790Y1025165D01*
Y1027155D01*
X864029Y1028992D01*
X862622Y1030399D01*
X860785Y1031160D01*
D02*
G37*
G36*
X1160220Y1030934D02*
X1157620D01*
X1155109Y1030261D01*
X1152857Y1028961D01*
X1151019Y1027123D01*
X1149719Y1024871D01*
X1149046Y1022360D01*
Y1019760D01*
X1149719Y1017249D01*
X1151019Y1014997D01*
X1152857Y1013159D01*
X1155109Y1011859D01*
X1157620Y1011186D01*
X1160220D01*
X1162731Y1011859D01*
X1164983Y1013159D01*
X1166821Y1014997D01*
X1168121Y1017249D01*
X1168794Y1019760D01*
Y1022360D01*
X1168121Y1024871D01*
X1166821Y1027123D01*
X1164983Y1028961D01*
X1162731Y1030261D01*
X1160220Y1030934D01*
D02*
G37*
G36*
X1100220D02*
X1097620D01*
X1095109Y1030261D01*
X1092857Y1028961D01*
X1091019Y1027123D01*
X1089719Y1024871D01*
X1089046Y1022360D01*
Y1019760D01*
X1089719Y1017249D01*
X1091019Y1014997D01*
X1092857Y1013159D01*
X1095109Y1011859D01*
X1097620Y1011186D01*
X1100220D01*
X1102731Y1011859D01*
X1104983Y1013159D01*
X1106821Y1014997D01*
X1108121Y1017249D01*
X1108794Y1019760D01*
Y1022360D01*
X1108121Y1024871D01*
X1106821Y1027123D01*
X1104983Y1028961D01*
X1102731Y1030261D01*
X1100220Y1030934D01*
D02*
G37*
G36*
X1139334Y1019790D02*
X1130190D01*
Y1010646D01*
X1130291D01*
X1132940Y1011356D01*
X1135314Y1012727D01*
X1137253Y1014666D01*
X1138624Y1017040D01*
X1139334Y1019689D01*
Y1019790D01*
D02*
G37*
G36*
X1127650D02*
X1118506D01*
Y1019689D01*
X1119216Y1017040D01*
X1120587Y1014666D01*
X1122526Y1012727D01*
X1124900Y1011356D01*
X1127549Y1010646D01*
X1127650D01*
Y1019790D01*
D02*
G37*
G36*
X1571151Y1031110D02*
X1568049D01*
X1565053Y1030307D01*
X1562367Y1028756D01*
X1560174Y1026563D01*
X1558623Y1023877D01*
X1557820Y1020881D01*
Y1017779D01*
X1558623Y1014783D01*
X1560174Y1012097D01*
X1562367Y1009904D01*
X1565053Y1008353D01*
X1568049Y1007550D01*
X1571151D01*
X1574147Y1008353D01*
X1576833Y1009904D01*
X1579026Y1012097D01*
X1580577Y1014783D01*
X1581380Y1017779D01*
Y1020881D01*
X1580577Y1023877D01*
X1579026Y1026563D01*
X1576833Y1028756D01*
X1574147Y1030307D01*
X1571151Y1031110D01*
D02*
G37*
G36*
X1529151D02*
X1526049D01*
X1523053Y1030307D01*
X1520367Y1028756D01*
X1518174Y1026563D01*
X1516623Y1023877D01*
X1515820Y1020881D01*
Y1017779D01*
X1516623Y1014783D01*
X1518174Y1012097D01*
X1520367Y1009904D01*
X1523053Y1008353D01*
X1526049Y1007550D01*
X1529151D01*
X1532147Y1008353D01*
X1534833Y1009904D01*
X1537026Y1012097D01*
X1538577Y1014783D01*
X1539380Y1017779D01*
Y1020881D01*
X1538577Y1023877D01*
X1537026Y1026563D01*
X1534833Y1028756D01*
X1532147Y1030307D01*
X1529151Y1031110D01*
D02*
G37*
G36*
X1487151D02*
X1484049D01*
X1481053Y1030307D01*
X1478367Y1028756D01*
X1476174Y1026563D01*
X1474623Y1023877D01*
X1473820Y1020881D01*
Y1017779D01*
X1474623Y1014783D01*
X1476174Y1012097D01*
X1478367Y1009904D01*
X1481053Y1008353D01*
X1484049Y1007550D01*
X1487151D01*
X1490147Y1008353D01*
X1492833Y1009904D01*
X1495026Y1012097D01*
X1496577Y1014783D01*
X1497380Y1017779D01*
Y1020881D01*
X1496577Y1023877D01*
X1495026Y1026563D01*
X1492833Y1028756D01*
X1490147Y1030307D01*
X1487151Y1031110D01*
D02*
G37*
G36*
X1445151D02*
X1442049D01*
X1439053Y1030307D01*
X1436367Y1028756D01*
X1434174Y1026563D01*
X1432623Y1023877D01*
X1431820Y1020881D01*
Y1017779D01*
X1432623Y1014783D01*
X1434174Y1012097D01*
X1436367Y1009904D01*
X1439053Y1008353D01*
X1442049Y1007550D01*
X1445151D01*
X1448147Y1008353D01*
X1450833Y1009904D01*
X1453026Y1012097D01*
X1454577Y1014783D01*
X1455380Y1017779D01*
Y1020881D01*
X1454577Y1023877D01*
X1453026Y1026563D01*
X1450833Y1028756D01*
X1448147Y1030307D01*
X1445151Y1031110D01*
D02*
G37*
G36*
X1189885Y1018994D02*
X1187954D01*
X1186089Y1018494D01*
X1184417Y1017529D01*
X1183051Y1016163D01*
X1182086Y1014491D01*
X1181586Y1012626D01*
Y1010694D01*
X1182086Y1008829D01*
X1183051Y1007157D01*
X1184417Y1005791D01*
X1186089Y1004826D01*
X1187954Y1004326D01*
X1189885D01*
X1191751Y1004826D01*
X1193423Y1005791D01*
X1194789Y1007157D01*
X1195754Y1008829D01*
X1196254Y1010694D01*
Y1012626D01*
X1195754Y1014491D01*
X1194789Y1016163D01*
X1193423Y1017529D01*
X1191751Y1018494D01*
X1189885Y1018994D01*
D02*
G37*
G36*
X1069885D02*
X1067954D01*
X1066089Y1018494D01*
X1064417Y1017529D01*
X1063051Y1016163D01*
X1062086Y1014491D01*
X1061586Y1012626D01*
Y1010694D01*
X1062086Y1008829D01*
X1063051Y1007157D01*
X1064417Y1005791D01*
X1066089Y1004826D01*
X1067954Y1004326D01*
X1069885D01*
X1071751Y1004826D01*
X1073423Y1005791D01*
X1074789Y1007157D01*
X1075754Y1008829D01*
X1076254Y1010694D01*
Y1012626D01*
X1075754Y1014491D01*
X1074789Y1016163D01*
X1073423Y1017529D01*
X1071751Y1018494D01*
X1069885Y1018994D01*
D02*
G37*
G36*
X1704545Y1004114D02*
X1702614D01*
X1700749Y1003614D01*
X1699077Y1002649D01*
X1697711Y1001283D01*
X1696746Y999611D01*
X1696246Y997746D01*
Y995814D01*
X1696746Y993949D01*
X1697711Y992277D01*
X1699077Y990911D01*
X1700749Y989946D01*
X1702614Y989446D01*
X1704545D01*
X1706411Y989946D01*
X1708083Y990911D01*
X1709449Y992277D01*
X1710414Y993949D01*
X1710914Y995814D01*
Y997746D01*
X1710414Y999611D01*
X1709449Y1001283D01*
X1708083Y1002649D01*
X1706411Y1003614D01*
X1704545Y1004114D01*
D02*
G37*
G36*
X824098Y1018740D02*
X820702D01*
X817371Y1018077D01*
X814234Y1016778D01*
X811410Y1014891D01*
X809009Y1012490D01*
X807122Y1009666D01*
X805823Y1006529D01*
X805160Y1003198D01*
Y999802D01*
X805823Y996471D01*
X807122Y993334D01*
X809009Y990510D01*
X811410Y988109D01*
X814234Y986222D01*
X817371Y984922D01*
X820702Y984260D01*
X824098D01*
X827429Y984922D01*
X830566Y986222D01*
X833390Y988109D01*
X835791Y990510D01*
X837678Y993334D01*
X838977Y996471D01*
X839640Y999802D01*
Y1003198D01*
X838977Y1006529D01*
X837678Y1009666D01*
X835791Y1012490D01*
X833390Y1014891D01*
X830566Y1016778D01*
X827429Y1018077D01*
X824098Y1018740D01*
D02*
G37*
G36*
X1289727Y993850D02*
X1287193D01*
X1284747Y993194D01*
X1282553Y991928D01*
X1280762Y990137D01*
X1279496Y987943D01*
X1278840Y985497D01*
Y982963D01*
X1279496Y980517D01*
X1280762Y978323D01*
X1282553Y976532D01*
X1284747Y975266D01*
X1287193Y974610D01*
X1289727D01*
X1292173Y975266D01*
X1294367Y976532D01*
X1296158Y978323D01*
X1297424Y980517D01*
X1298080Y982963D01*
Y985497D01*
X1297424Y987943D01*
X1296158Y990137D01*
X1294367Y991928D01*
X1292173Y993194D01*
X1289727Y993850D01*
D02*
G37*
G36*
X1333766Y993780D02*
X1331234D01*
X1328787Y993124D01*
X1326593Y991858D01*
X1324802Y990067D01*
X1323536Y987873D01*
X1322880Y985426D01*
Y982894D01*
X1323536Y980447D01*
X1324802Y978253D01*
X1326593Y976462D01*
X1328787Y975196D01*
X1331234Y974540D01*
X1333766D01*
X1336213Y975196D01*
X1338407Y976462D01*
X1340198Y978253D01*
X1341464Y980447D01*
X1342120Y982894D01*
Y985426D01*
X1341464Y987873D01*
X1340198Y990067D01*
X1338407Y991858D01*
X1336213Y993124D01*
X1333766Y993780D01*
D02*
G37*
G36*
X933831Y999331D02*
X930529D01*
X927339Y998476D01*
X924480Y996825D01*
X922145Y994490D01*
X920494Y991631D01*
X919639Y988441D01*
Y985139D01*
X920494Y981949D01*
X922145Y979090D01*
X924480Y976755D01*
X927339Y975104D01*
X930529Y974249D01*
X933831D01*
X937021Y975104D01*
X939880Y976755D01*
X942215Y979090D01*
X943866Y981949D01*
X944721Y985139D01*
Y988441D01*
X943866Y991631D01*
X942215Y994490D01*
X939880Y996825D01*
X937021Y998476D01*
X933831Y999331D01*
D02*
G37*
G36*
X1237656Y992580D02*
X1235124D01*
X1232677Y991924D01*
X1230483Y990658D01*
X1228692Y988867D01*
X1227426Y986673D01*
X1226770Y984227D01*
Y981693D01*
X1227426Y979247D01*
X1228692Y977053D01*
X1230483Y975262D01*
X1232677Y973996D01*
X1235124Y973340D01*
X1237656D01*
X1240103Y973996D01*
X1242297Y975262D01*
X1244088Y977053D01*
X1245354Y979247D01*
X1246010Y981693D01*
Y984227D01*
X1245354Y986673D01*
X1244088Y988867D01*
X1242297Y990658D01*
X1240103Y991924D01*
X1237656Y992580D01*
D02*
G37*
G36*
X1381017Y992280D02*
X1378483D01*
X1376037Y991624D01*
X1373843Y990358D01*
X1372052Y988567D01*
X1370786Y986373D01*
X1370130Y983926D01*
Y981394D01*
X1370786Y978947D01*
X1372052Y976753D01*
X1373843Y974962D01*
X1376037Y973696D01*
X1378483Y973040D01*
X1381017D01*
X1383463Y973696D01*
X1385657Y974962D01*
X1387448Y976753D01*
X1388714Y978947D01*
X1389370Y981394D01*
Y983926D01*
X1388714Y986373D01*
X1387448Y988567D01*
X1385657Y990358D01*
X1383463Y991624D01*
X1381017Y992280D01*
D02*
G37*
G36*
X1665551Y977194D02*
X1665450D01*
Y968050D01*
X1674594D01*
Y968151D01*
X1673884Y970800D01*
X1672513Y973174D01*
X1670574Y975113D01*
X1668200Y976484D01*
X1665551Y977194D01*
D02*
G37*
G36*
X1662910D02*
X1662809D01*
X1660160Y976484D01*
X1657786Y975113D01*
X1655847Y973174D01*
X1654476Y970800D01*
X1653766Y968151D01*
Y968050D01*
X1662910D01*
Y977194D01*
D02*
G37*
G36*
X1695480Y976654D02*
X1692880D01*
X1690369Y975981D01*
X1688117Y974681D01*
X1686279Y972843D01*
X1684979Y970591D01*
X1684306Y968080D01*
Y965480D01*
X1684979Y962969D01*
X1686279Y960717D01*
X1688117Y958879D01*
X1690369Y957579D01*
X1692880Y956906D01*
X1695480D01*
X1697991Y957579D01*
X1700243Y958879D01*
X1702081Y960717D01*
X1703381Y962969D01*
X1704054Y965480D01*
Y968080D01*
X1703381Y970591D01*
X1702081Y972843D01*
X1700243Y974681D01*
X1697991Y975981D01*
X1695480Y976654D01*
D02*
G37*
G36*
X1674594Y965510D02*
X1665450D01*
Y956366D01*
X1665551D01*
X1668200Y957076D01*
X1670574Y958447D01*
X1672513Y960386D01*
X1673884Y962760D01*
X1674594Y965409D01*
Y965510D01*
D02*
G37*
G36*
X1662910D02*
X1653766D01*
Y965409D01*
X1654476Y962760D01*
X1655847Y960386D01*
X1657786Y958447D01*
X1660160Y957076D01*
X1662809Y956366D01*
X1662910D01*
Y965510D01*
D02*
G37*
G36*
X1042670Y960510D02*
Y956310D01*
X1046870D01*
X1046097Y958178D01*
X1044538Y959737D01*
X1042670Y960510D01*
D02*
G37*
G36*
X1040130D02*
X1038262Y959737D01*
X1036703Y958178D01*
X1035930Y956310D01*
X1040130D01*
Y960510D01*
D02*
G37*
G36*
X1046870Y953770D02*
X1042670D01*
Y949570D01*
X1044538Y950343D01*
X1046097Y951902D01*
X1046870Y953770D01*
D02*
G37*
G36*
X1040130D02*
X1035930D01*
X1036703Y951902D01*
X1038262Y950343D01*
X1040130Y949570D01*
Y953770D01*
D02*
G37*
G36*
X1027430Y946540D02*
Y942340D01*
X1031630D01*
X1030857Y944208D01*
X1029298Y945767D01*
X1027430Y946540D01*
D02*
G37*
G36*
X1024890D02*
X1023022Y945767D01*
X1021463Y944208D01*
X1020690Y942340D01*
X1024890D01*
Y946540D01*
D02*
G37*
G36*
X764039Y954150D02*
X763420D01*
Y941070D01*
X776500D01*
Y941689D01*
X775522Y945339D01*
X773633Y948611D01*
X770961Y951283D01*
X767689Y953172D01*
X764039Y954150D01*
D02*
G37*
G36*
X760880D02*
X760261D01*
X756611Y953172D01*
X753339Y951283D01*
X750667Y948611D01*
X748778Y945339D01*
X747800Y941689D01*
Y941070D01*
X760880D01*
Y954150D01*
D02*
G37*
G36*
X1258567Y958310D02*
X1256033D01*
X1253587Y957654D01*
X1251393Y956388D01*
X1249602Y954597D01*
X1248336Y952403D01*
X1247680Y949957D01*
Y947423D01*
X1248336Y944977D01*
X1249602Y942783D01*
X1251393Y940992D01*
X1253587Y939726D01*
X1256033Y939070D01*
X1258567D01*
X1261013Y939726D01*
X1263207Y940992D01*
X1264998Y942783D01*
X1266264Y944977D01*
X1266920Y947423D01*
Y949957D01*
X1266264Y952403D01*
X1264998Y954597D01*
X1263207Y956388D01*
X1261013Y957654D01*
X1258567Y958310D01*
D02*
G37*
G36*
X1144267D02*
X1141733D01*
X1139287Y957654D01*
X1137093Y956388D01*
X1135302Y954597D01*
X1134036Y952403D01*
X1133380Y949957D01*
Y947423D01*
X1134036Y944977D01*
X1135302Y942783D01*
X1137093Y940992D01*
X1139287Y939726D01*
X1141733Y939070D01*
X1144267D01*
X1146713Y939726D01*
X1148907Y940992D01*
X1150698Y942783D01*
X1151964Y944977D01*
X1152620Y947423D01*
Y949957D01*
X1151964Y952403D01*
X1150698Y954597D01*
X1148907Y956388D01*
X1146713Y957654D01*
X1144267Y958310D01*
D02*
G37*
G36*
X1088390Y940190D02*
Y935990D01*
X1092590D01*
X1091817Y937858D01*
X1090258Y939417D01*
X1088390Y940190D01*
D02*
G37*
G36*
X1085850D02*
X1083982Y939417D01*
X1082423Y937858D01*
X1081650Y935990D01*
X1085850D01*
Y940190D01*
D02*
G37*
G36*
X1031630Y939800D02*
X1027430D01*
Y935600D01*
X1029298Y936373D01*
X1030857Y937932D01*
X1031630Y939800D01*
D02*
G37*
G36*
X1024890D02*
X1020690D01*
X1021463Y937932D01*
X1023022Y936373D01*
X1024890Y935600D01*
Y939800D01*
D02*
G37*
G36*
X925753Y962760D02*
X922607D01*
X919522Y962146D01*
X916615Y960942D01*
X914000Y959195D01*
X911775Y956970D01*
X910028Y954355D01*
X908824Y951448D01*
X908210Y948363D01*
Y945217D01*
X908824Y942132D01*
X910028Y939225D01*
X911775Y936610D01*
X914000Y934385D01*
X916615Y932638D01*
X919522Y931434D01*
X922607Y930820D01*
X925753D01*
X928838Y931434D01*
X931745Y932638D01*
X934360Y934385D01*
X936585Y936610D01*
X938332Y939225D01*
X939536Y942132D01*
X940150Y945217D01*
Y948363D01*
X939536Y951448D01*
X938332Y954355D01*
X936585Y956970D01*
X934360Y959195D01*
X931745Y960942D01*
X928838Y962146D01*
X925753Y962760D01*
D02*
G37*
G36*
X1092590Y933450D02*
X1088390D01*
Y929250D01*
X1090258Y930023D01*
X1091817Y931582D01*
X1092590Y933450D01*
D02*
G37*
G36*
X1085850D02*
X1081650D01*
X1082423Y931582D01*
X1083982Y930023D01*
X1085850Y929250D01*
Y933450D01*
D02*
G37*
G36*
X1316245Y935500D02*
X1314255D01*
X1312418Y934739D01*
X1311011Y933332D01*
X1310250Y931495D01*
Y929505D01*
X1310421Y929092D01*
X1308638Y927719D01*
X1308304Y927565D01*
X1306555Y928290D01*
X1304565D01*
X1302728Y927529D01*
X1301321Y926122D01*
X1300560Y924285D01*
Y922295D01*
X1301321Y920458D01*
X1302728Y919051D01*
X1304565Y918290D01*
X1306555D01*
X1308392Y919051D01*
X1309799Y920458D01*
X1310560Y922295D01*
Y924285D01*
X1310389Y924698D01*
X1312171Y926071D01*
X1312506Y926225D01*
X1314255Y925500D01*
X1316245D01*
X1318082Y926261D01*
X1319489Y927668D01*
X1320250Y929505D01*
Y931495D01*
X1319489Y933332D01*
X1318082Y934739D01*
X1316245Y935500D01*
D02*
G37*
G36*
X1695480Y946654D02*
X1692880D01*
X1690369Y945981D01*
X1688117Y944681D01*
X1686279Y942843D01*
X1684979Y940591D01*
X1684306Y938080D01*
Y935480D01*
X1684979Y932969D01*
X1686279Y930717D01*
X1688117Y928879D01*
X1690369Y927579D01*
X1692880Y926906D01*
X1695480D01*
X1697991Y927579D01*
X1700243Y928879D01*
X1702081Y930717D01*
X1703381Y932969D01*
X1704054Y935480D01*
Y938080D01*
X1703381Y940591D01*
X1702081Y942843D01*
X1700243Y944681D01*
X1697991Y945981D01*
X1695480Y946654D01*
D02*
G37*
G36*
X1665480D02*
X1662880D01*
X1660369Y945981D01*
X1658117Y944681D01*
X1656279Y942843D01*
X1654979Y940591D01*
X1654306Y938080D01*
Y935480D01*
X1654979Y932969D01*
X1656279Y930717D01*
X1658117Y928879D01*
X1660369Y927579D01*
X1662880Y926906D01*
X1665480D01*
X1667991Y927579D01*
X1670243Y928879D01*
X1672081Y930717D01*
X1673381Y932969D01*
X1674054Y935480D01*
Y938080D01*
X1673381Y940591D01*
X1672081Y942843D01*
X1670243Y944681D01*
X1667991Y945981D01*
X1665480Y946654D01*
D02*
G37*
G36*
X820968Y953610D02*
X817332D01*
X813820Y952669D01*
X810670Y950851D01*
X808099Y948279D01*
X806281Y945130D01*
X805340Y941618D01*
Y937982D01*
X806281Y934470D01*
X808099Y931320D01*
X810670Y928749D01*
X813820Y926931D01*
X817332Y925990D01*
X820968D01*
X824481Y926931D01*
X827629Y928749D01*
X830201Y931320D01*
X832019Y934470D01*
X832960Y937982D01*
Y941618D01*
X832019Y945130D01*
X830201Y948279D01*
X827629Y950851D01*
X824481Y952669D01*
X820968Y953610D01*
D02*
G37*
G36*
X776500Y938530D02*
X763420D01*
Y925450D01*
X764039D01*
X767689Y926428D01*
X770961Y928317D01*
X773633Y930989D01*
X775522Y934261D01*
X776500Y937911D01*
Y938530D01*
D02*
G37*
G36*
X760880D02*
X747800D01*
Y937911D01*
X748778Y934261D01*
X750667Y930989D01*
X753339Y928317D01*
X756611Y926428D01*
X760261Y925450D01*
X760880D01*
Y938530D01*
D02*
G37*
G36*
X1532490Y946725D02*
X1529590D01*
X1526788Y945974D01*
X1524277Y944524D01*
X1522226Y942473D01*
X1520776Y939962D01*
X1520025Y937160D01*
Y934260D01*
X1520776Y931458D01*
X1522226Y928947D01*
X1524277Y926896D01*
X1526788Y925446D01*
X1529590Y924695D01*
X1532490D01*
X1535292Y925446D01*
X1537803Y926896D01*
X1539854Y928947D01*
X1541304Y931458D01*
X1542055Y934260D01*
Y937160D01*
X1541304Y939962D01*
X1539854Y942473D01*
X1537803Y944524D01*
X1535292Y945974D01*
X1532490Y946725D01*
D02*
G37*
G36*
X1407490D02*
X1404590D01*
X1401788Y945974D01*
X1399277Y944524D01*
X1397226Y942473D01*
X1395776Y939962D01*
X1395025Y937160D01*
Y934260D01*
X1395776Y931458D01*
X1397226Y928947D01*
X1399277Y926896D01*
X1401788Y925446D01*
X1404590Y924695D01*
X1407490D01*
X1410292Y925446D01*
X1412803Y926896D01*
X1414854Y928947D01*
X1416304Y931458D01*
X1417055Y934260D01*
Y937160D01*
X1416304Y939962D01*
X1414854Y942473D01*
X1412803Y944524D01*
X1410292Y945974D01*
X1407490Y946725D01*
D02*
G37*
G36*
X1073150Y924950D02*
Y920750D01*
X1077350D01*
X1076577Y922618D01*
X1075018Y924177D01*
X1073150Y924950D01*
D02*
G37*
G36*
X1070610D02*
X1068742Y924177D01*
X1067183Y922618D01*
X1066410Y920750D01*
X1070610D01*
Y924950D01*
D02*
G37*
G36*
X1271338Y924560D02*
X1271270D01*
Y915670D01*
X1280160D01*
Y915738D01*
X1279468Y918322D01*
X1278130Y920638D01*
X1276238Y922530D01*
X1273922Y923868D01*
X1271338Y924560D01*
D02*
G37*
G36*
X1268730D02*
X1268662D01*
X1266078Y923868D01*
X1263762Y922530D01*
X1261870Y920638D01*
X1260532Y918322D01*
X1259840Y915738D01*
Y915670D01*
X1268730D01*
Y924560D01*
D02*
G37*
G36*
X1077350Y918210D02*
X1073150D01*
Y914010D01*
X1075018Y914783D01*
X1076577Y916342D01*
X1077350Y918210D01*
D02*
G37*
G36*
X1070610D02*
X1066410D01*
X1067183Y916342D01*
X1068742Y914783D01*
X1070610Y914010D01*
Y918210D01*
D02*
G37*
G36*
X1695551Y917194D02*
X1695450D01*
Y908050D01*
X1704594D01*
Y908151D01*
X1703884Y910800D01*
X1702513Y913174D01*
X1700574Y915113D01*
X1698200Y916484D01*
X1695551Y917194D01*
D02*
G37*
G36*
X1692910D02*
X1692809D01*
X1690160Y916484D01*
X1687786Y915113D01*
X1685847Y913174D01*
X1684476Y910800D01*
X1683766Y908151D01*
Y908050D01*
X1692910D01*
Y917194D01*
D02*
G37*
G36*
X1122409Y920518D02*
X1120411D01*
X1118481Y920001D01*
X1116751Y919002D01*
X1115338Y917589D01*
X1114339Y915859D01*
X1113822Y913929D01*
Y911931D01*
X1114339Y910001D01*
X1115338Y908271D01*
X1116751Y906858D01*
X1118481Y905859D01*
X1120411Y905342D01*
X1122409D01*
X1124339Y905859D01*
X1126069Y906858D01*
X1127482Y908271D01*
X1128481Y910001D01*
X1128998Y911931D01*
Y913929D01*
X1128481Y915859D01*
X1127482Y917589D01*
X1126069Y919002D01*
X1124339Y920001D01*
X1122409Y920518D01*
D02*
G37*
G36*
X1156966Y924020D02*
X1154434D01*
X1151987Y923364D01*
X1149793Y922098D01*
X1148002Y920307D01*
X1146736Y918113D01*
X1146080Y915667D01*
Y913133D01*
X1146736Y910687D01*
X1148002Y908493D01*
X1149793Y906702D01*
X1151987Y905436D01*
X1154434Y904780D01*
X1156966D01*
X1159413Y905436D01*
X1161607Y906702D01*
X1163398Y908493D01*
X1164664Y910687D01*
X1165320Y913133D01*
Y915667D01*
X1164664Y918113D01*
X1163398Y920307D01*
X1161607Y922098D01*
X1159413Y923364D01*
X1156966Y924020D01*
D02*
G37*
G36*
X1280160Y913130D02*
X1271270D01*
Y904240D01*
X1271338D01*
X1273922Y904932D01*
X1276238Y906270D01*
X1278130Y908162D01*
X1279468Y910478D01*
X1280160Y913062D01*
Y913130D01*
D02*
G37*
G36*
X1268730D02*
X1259840D01*
Y913062D01*
X1260532Y910478D01*
X1261870Y908162D01*
X1263762Y906270D01*
X1266078Y904932D01*
X1268662Y904240D01*
X1268730D01*
Y913130D01*
D02*
G37*
G36*
X1055370Y907170D02*
Y902970D01*
X1059570D01*
X1058797Y904838D01*
X1057238Y906397D01*
X1055370Y907170D01*
D02*
G37*
G36*
X1052830D02*
X1050962Y906397D01*
X1049403Y904838D01*
X1048630Y902970D01*
X1052830D01*
Y907170D01*
D02*
G37*
G36*
X1665480Y916654D02*
X1662880D01*
X1660369Y915981D01*
X1658117Y914681D01*
X1656279Y912843D01*
X1654979Y910591D01*
X1654306Y908080D01*
Y905480D01*
X1654979Y902969D01*
X1656279Y900717D01*
X1658117Y898879D01*
X1660369Y897579D01*
X1662880Y896906D01*
X1665480D01*
X1667991Y897579D01*
X1670243Y898879D01*
X1672081Y900717D01*
X1673381Y902969D01*
X1674054Y905480D01*
Y908080D01*
X1673381Y910591D01*
X1672081Y912843D01*
X1670243Y914681D01*
X1667991Y915981D01*
X1665480Y916654D01*
D02*
G37*
G36*
X1704594Y905510D02*
X1695450D01*
Y896366D01*
X1695551D01*
X1698200Y897076D01*
X1700574Y898447D01*
X1702513Y900386D01*
X1703884Y902760D01*
X1704594Y905409D01*
Y905510D01*
D02*
G37*
G36*
X1692910D02*
X1683766D01*
Y905409D01*
X1684476Y902760D01*
X1685847Y900386D01*
X1687786Y898447D01*
X1690160Y897076D01*
X1692809Y896366D01*
X1692910D01*
Y905510D01*
D02*
G37*
G36*
X1059570Y900430D02*
X1055370D01*
Y896230D01*
X1057238Y897003D01*
X1058797Y898562D01*
X1059570Y900430D01*
D02*
G37*
G36*
X1052830D02*
X1048630D01*
X1049403Y898562D01*
X1050962Y897003D01*
X1052830Y896230D01*
Y900430D01*
D02*
G37*
G36*
X933831Y919331D02*
X930529D01*
X927339Y918476D01*
X924480Y916825D01*
X922145Y914490D01*
X920494Y911631D01*
X919639Y908441D01*
Y905139D01*
X920494Y901949D01*
X922145Y899090D01*
X924480Y896755D01*
X927339Y895104D01*
X930529Y894249D01*
X933831D01*
X937021Y895104D01*
X939880Y896755D01*
X942215Y899090D01*
X943866Y901949D01*
X944721Y905139D01*
Y908441D01*
X943866Y911631D01*
X942215Y914490D01*
X939880Y916825D01*
X937021Y918476D01*
X933831Y919331D01*
D02*
G37*
G36*
X1122409Y895518D02*
X1120411D01*
X1118481Y895001D01*
X1116751Y894002D01*
X1115338Y892589D01*
X1114339Y890859D01*
X1113822Y888929D01*
Y886931D01*
X1114339Y885001D01*
X1115338Y883271D01*
X1116751Y881858D01*
X1118481Y880859D01*
X1120411Y880342D01*
X1122409D01*
X1124339Y880859D01*
X1126069Y881858D01*
X1127482Y883271D01*
X1128481Y885001D01*
X1128998Y886931D01*
Y888929D01*
X1128481Y890859D01*
X1127482Y892589D01*
X1126069Y894002D01*
X1124339Y895001D01*
X1122409Y895518D01*
D02*
G37*
G36*
X1235706Y896080D02*
X1233174D01*
X1230727Y895424D01*
X1228533Y894158D01*
X1226742Y892367D01*
X1225476Y890173D01*
X1224820Y887727D01*
Y885193D01*
X1225476Y882747D01*
X1226742Y880553D01*
X1228533Y878762D01*
X1230727Y877496D01*
X1233174Y876840D01*
X1235706D01*
X1238153Y877496D01*
X1240347Y878762D01*
X1242138Y880553D01*
X1243404Y882747D01*
X1244060Y885193D01*
Y887727D01*
X1243404Y890173D01*
X1242138Y892367D01*
X1240347Y894158D01*
X1238153Y895424D01*
X1235706Y896080D01*
D02*
G37*
G36*
X1532490Y896725D02*
X1529590D01*
X1526788Y895974D01*
X1524277Y894524D01*
X1522226Y892473D01*
X1520776Y889962D01*
X1520025Y887160D01*
Y884260D01*
X1520776Y881458D01*
X1522226Y878947D01*
X1524277Y876896D01*
X1526788Y875446D01*
X1529590Y874695D01*
X1532490D01*
X1535292Y875446D01*
X1537803Y876896D01*
X1539854Y878947D01*
X1541304Y881458D01*
X1542055Y884260D01*
Y887160D01*
X1541304Y889962D01*
X1539854Y892473D01*
X1537803Y894524D01*
X1535292Y895974D01*
X1532490Y896725D01*
D02*
G37*
G36*
X1407490D02*
X1404590D01*
X1401788Y895974D01*
X1399277Y894524D01*
X1397226Y892473D01*
X1395776Y889962D01*
X1395025Y887160D01*
Y884260D01*
X1395776Y881458D01*
X1397226Y878947D01*
X1399277Y876896D01*
X1401788Y875446D01*
X1404590Y874695D01*
X1407490D01*
X1410292Y875446D01*
X1412803Y876896D01*
X1414854Y878947D01*
X1416304Y881458D01*
X1417055Y884260D01*
Y887160D01*
X1416304Y889962D01*
X1414854Y892473D01*
X1412803Y894524D01*
X1410292Y895974D01*
X1407490Y896725D01*
D02*
G37*
G36*
X1704545Y884114D02*
X1702614D01*
X1700749Y883614D01*
X1699077Y882649D01*
X1697711Y881283D01*
X1696746Y879611D01*
X1696246Y877746D01*
Y875815D01*
X1696746Y873949D01*
X1697711Y872277D01*
X1699077Y870911D01*
X1700749Y869946D01*
X1702614Y869446D01*
X1704545D01*
X1706411Y869946D01*
X1708083Y870911D01*
X1709449Y872277D01*
X1710414Y873949D01*
X1710914Y875815D01*
Y877746D01*
X1710414Y879611D01*
X1709449Y881283D01*
X1708083Y882649D01*
X1706411Y883614D01*
X1704545Y884114D01*
D02*
G37*
G36*
X824098Y895340D02*
X820702D01*
X817371Y894678D01*
X814234Y893378D01*
X811410Y891491D01*
X809009Y889090D01*
X807122Y886266D01*
X805823Y883129D01*
X805160Y879798D01*
Y876402D01*
X805823Y873071D01*
X807122Y869934D01*
X809009Y867110D01*
X811410Y864709D01*
X814234Y862822D01*
X817371Y861523D01*
X820702Y860860D01*
X824098D01*
X827429Y861523D01*
X830566Y862822D01*
X833390Y864709D01*
X835791Y867110D01*
X837678Y869934D01*
X838977Y873071D01*
X839640Y876402D01*
Y879798D01*
X838977Y883129D01*
X837678Y886266D01*
X835791Y889090D01*
X833390Y891491D01*
X830566Y893378D01*
X827429Y894678D01*
X824098Y895340D01*
D02*
G37*
G36*
X1026056Y858958D02*
X1023724D01*
X1021471Y858354D01*
X1019451Y857188D01*
X1017802Y855539D01*
X1016636Y853519D01*
X1016032Y851266D01*
Y848934D01*
X1016636Y846681D01*
X1017802Y844661D01*
X1019451Y843012D01*
X1021471Y841846D01*
X1023724Y841242D01*
X1026056D01*
X1028309Y841846D01*
X1030329Y843012D01*
X1031978Y844661D01*
X1033144Y846681D01*
X1033748Y848934D01*
Y851266D01*
X1033144Y853519D01*
X1031978Y855539D01*
X1030329Y857188D01*
X1028309Y858354D01*
X1026056Y858958D01*
D02*
G37*
G36*
X947316D02*
X944984D01*
X942731Y858354D01*
X940711Y857188D01*
X939062Y855539D01*
X937896Y853519D01*
X937292Y851266D01*
Y848934D01*
X937896Y846681D01*
X939062Y844661D01*
X940711Y843012D01*
X942731Y841846D01*
X944984Y841242D01*
X947316D01*
X949569Y841846D01*
X951589Y843012D01*
X953238Y844661D01*
X954404Y846681D01*
X955008Y848934D01*
Y851266D01*
X954404Y853519D01*
X953238Y855539D01*
X951589Y857188D01*
X949569Y858354D01*
X947316Y858958D01*
D02*
G37*
G36*
X1285240Y833342D02*
Y826370D01*
X1292212D01*
X1291695Y828300D01*
X1290604Y830190D01*
X1289060Y831734D01*
X1287170Y832825D01*
X1285240Y833342D01*
D02*
G37*
G36*
X1282700D02*
X1280770Y832825D01*
X1278880Y831734D01*
X1277336Y830190D01*
X1276245Y828300D01*
X1275728Y826370D01*
X1282700D01*
Y833342D01*
D02*
G37*
G36*
X1440180Y828262D02*
Y821290D01*
X1447152D01*
X1446635Y823220D01*
X1445544Y825110D01*
X1444000Y826654D01*
X1442110Y827745D01*
X1440180Y828262D01*
D02*
G37*
G36*
X1437640D02*
X1435710Y827745D01*
X1433820Y826654D01*
X1432276Y825110D01*
X1431185Y823220D01*
X1430668Y821290D01*
X1437640D01*
Y828262D01*
D02*
G37*
G36*
X1292212Y823830D02*
X1285240D01*
Y816858D01*
X1287170Y817375D01*
X1289060Y818466D01*
X1290604Y820010D01*
X1291695Y821900D01*
X1292212Y823830D01*
D02*
G37*
G36*
X1282700D02*
X1275728D01*
X1276245Y821900D01*
X1277336Y820010D01*
X1278880Y818466D01*
X1280770Y817375D01*
X1282700Y816858D01*
Y823830D01*
D02*
G37*
G36*
X1259565Y824150D02*
X1257575D01*
X1255738Y823389D01*
X1254331Y821982D01*
X1253570Y820145D01*
Y818155D01*
X1254331Y816318D01*
X1255738Y814911D01*
X1257575Y814150D01*
X1259565D01*
X1261402Y814911D01*
X1262809Y816318D01*
X1263570Y818155D01*
Y820145D01*
X1262809Y821982D01*
X1261402Y823389D01*
X1259565Y824150D01*
D02*
G37*
G36*
X1447152Y818750D02*
X1440180D01*
Y811778D01*
X1442110Y812295D01*
X1444000Y813386D01*
X1445544Y814930D01*
X1446635Y816820D01*
X1447152Y818750D01*
D02*
G37*
G36*
X1437640D02*
X1430668D01*
X1431185Y816820D01*
X1432276Y814930D01*
X1433820Y813386D01*
X1435710Y812295D01*
X1437640Y811778D01*
Y818750D01*
D02*
G37*
G36*
X1587568Y819150D02*
X1587500D01*
Y810260D01*
X1596390D01*
Y810328D01*
X1595698Y812912D01*
X1594360Y815228D01*
X1592468Y817120D01*
X1590152Y818458D01*
X1587568Y819150D01*
D02*
G37*
G36*
X1584960D02*
X1584892D01*
X1582308Y818458D01*
X1579992Y817120D01*
X1578100Y815228D01*
X1576762Y812912D01*
X1576070Y810328D01*
Y810260D01*
X1584960D01*
Y819150D01*
D02*
G37*
G36*
X862055Y817800D02*
X860065D01*
X858228Y817039D01*
X856821Y815632D01*
X856060Y813795D01*
Y811805D01*
X856821Y809968D01*
X858228Y808561D01*
X860065Y807800D01*
X862055D01*
X863892Y808561D01*
X865299Y809968D01*
X866060Y811805D01*
Y813795D01*
X865299Y815632D01*
X863892Y817039D01*
X862055Y817800D01*
D02*
G37*
G36*
X822685D02*
X820695D01*
X818858Y817039D01*
X817451Y815632D01*
X816690Y813795D01*
Y811805D01*
X817451Y809968D01*
X818858Y808561D01*
X820695Y807800D01*
X822685D01*
X824522Y808561D01*
X825929Y809968D01*
X826690Y811805D01*
Y813795D01*
X825929Y815632D01*
X824522Y817039D01*
X822685Y817800D01*
D02*
G37*
G36*
X789665D02*
X787675D01*
X785838Y817039D01*
X784431Y815632D01*
X783670Y813795D01*
Y811805D01*
X784431Y809968D01*
X785838Y808561D01*
X787675Y807800D01*
X789665D01*
X791502Y808561D01*
X792909Y809968D01*
X793670Y811805D01*
Y813795D01*
X792909Y815632D01*
X791502Y817039D01*
X789665Y817800D01*
D02*
G37*
G36*
X1365250Y813022D02*
Y806050D01*
X1372222D01*
X1371705Y807980D01*
X1370614Y809870D01*
X1369070Y811414D01*
X1367180Y812505D01*
X1365250Y813022D01*
D02*
G37*
G36*
X1362710D02*
X1360780Y812505D01*
X1358890Y811414D01*
X1357346Y809870D01*
X1356255Y807980D01*
X1355738Y806050D01*
X1362710D01*
Y813022D01*
D02*
G37*
G36*
X1026160Y809489D02*
Y801370D01*
X1034279D01*
X1033648Y803727D01*
X1032410Y805871D01*
X1030660Y807620D01*
X1028518Y808857D01*
X1026160Y809489D01*
D02*
G37*
G36*
X947420D02*
Y801370D01*
X955539D01*
X954908Y803727D01*
X953670Y805871D01*
X951920Y807620D01*
X949778Y808857D01*
X947420Y809489D01*
D02*
G37*
G36*
X1023620D02*
X1021263Y808857D01*
X1019119Y807620D01*
X1017370Y805871D01*
X1016133Y803727D01*
X1015501Y801370D01*
X1023620D01*
Y809489D01*
D02*
G37*
G36*
X944880D02*
X942523Y808857D01*
X940379Y807620D01*
X938630Y805871D01*
X937393Y803727D01*
X936761Y801370D01*
X944880D01*
Y809489D01*
D02*
G37*
G36*
X1473197Y818610D02*
X1470663D01*
X1468217Y817954D01*
X1466023Y816688D01*
X1464232Y814897D01*
X1462966Y812703D01*
X1462310Y810257D01*
Y807723D01*
X1462966Y805277D01*
X1464232Y803083D01*
X1466023Y801292D01*
X1468217Y800026D01*
X1470663Y799370D01*
X1473197D01*
X1475643Y800026D01*
X1477837Y801292D01*
X1479628Y803083D01*
X1480894Y805277D01*
X1481550Y807723D01*
Y810257D01*
X1480894Y812703D01*
X1479628Y814897D01*
X1477837Y816688D01*
X1475643Y817954D01*
X1473197Y818610D01*
D02*
G37*
G36*
X1259565Y808910D02*
X1257575D01*
X1255738Y808149D01*
X1254331Y806742D01*
X1253570Y804905D01*
Y802915D01*
X1254331Y801078D01*
X1255738Y799671D01*
X1257575Y798910D01*
X1259565D01*
X1261402Y799671D01*
X1262809Y801078D01*
X1263570Y802915D01*
Y804905D01*
X1262809Y806742D01*
X1261402Y808149D01*
X1259565Y808910D01*
D02*
G37*
G36*
X1596390Y807720D02*
X1587500D01*
Y798830D01*
X1587568D01*
X1590152Y799522D01*
X1592468Y800860D01*
X1594360Y802752D01*
X1595698Y805068D01*
X1596390Y807652D01*
Y807720D01*
D02*
G37*
G36*
X1584960D02*
X1576070D01*
Y807652D01*
X1576762Y805068D01*
X1578100Y802752D01*
X1579992Y800860D01*
X1582308Y799522D01*
X1584892Y798830D01*
X1584960D01*
Y807720D01*
D02*
G37*
G36*
X1372222Y803510D02*
X1365250D01*
Y796538D01*
X1367180Y797055D01*
X1369070Y798146D01*
X1370614Y799690D01*
X1371705Y801580D01*
X1372222Y803510D01*
D02*
G37*
G36*
X1362710D02*
X1355738D01*
X1356255Y801580D01*
X1357346Y799690D01*
X1358890Y798146D01*
X1360780Y797055D01*
X1362710Y796538D01*
Y803510D01*
D02*
G37*
G36*
X1664155Y810284D02*
X1662224D01*
X1660359Y809784D01*
X1658687Y808819D01*
X1657321Y807453D01*
X1656356Y805781D01*
X1655856Y803915D01*
Y801984D01*
X1656356Y800119D01*
X1657321Y798447D01*
X1658687Y797081D01*
X1660359Y796116D01*
X1662224Y795616D01*
X1664155D01*
X1666021Y796116D01*
X1667693Y797081D01*
X1669059Y798447D01*
X1670024Y800119D01*
X1670524Y801984D01*
Y803915D01*
X1670024Y805781D01*
X1669059Y807453D01*
X1667693Y808819D01*
X1666021Y809784D01*
X1664155Y810284D01*
D02*
G37*
G36*
X1327150Y797950D02*
Y793750D01*
X1331350D01*
X1330577Y795618D01*
X1329018Y797177D01*
X1327150Y797950D01*
D02*
G37*
G36*
X1324610D02*
X1322742Y797177D01*
X1321183Y795618D01*
X1320410Y793750D01*
X1324610D01*
Y797950D01*
D02*
G37*
G36*
X1420855Y801290D02*
X1418865D01*
X1417028Y800529D01*
X1415621Y799122D01*
X1414860Y797285D01*
Y795295D01*
X1415321Y794182D01*
X1413625Y792135D01*
X1412745Y792500D01*
X1410755D01*
X1408918Y791739D01*
X1407511Y790332D01*
X1406750Y788495D01*
Y786505D01*
X1407511Y784668D01*
X1408918Y783261D01*
X1410755Y782500D01*
X1412745D01*
X1414582Y783261D01*
X1415989Y784668D01*
X1416750Y786505D01*
Y788495D01*
X1416289Y789608D01*
X1417985Y791655D01*
X1418865Y791290D01*
X1420855D01*
X1422692Y792051D01*
X1424099Y793458D01*
X1424860Y795295D01*
Y797285D01*
X1424099Y799122D01*
X1422692Y800529D01*
X1420855Y801290D01*
D02*
G37*
G36*
X1034279Y798830D02*
X1026160D01*
Y790711D01*
X1028518Y791342D01*
X1030660Y792580D01*
X1032410Y794330D01*
X1033648Y796472D01*
X1034279Y798830D01*
D02*
G37*
G36*
X955539D02*
X947420D01*
Y790711D01*
X949778Y791342D01*
X951920Y792580D01*
X953670Y794330D01*
X954908Y796472D01*
X955539Y798830D01*
D02*
G37*
G36*
X1023620D02*
X1015501D01*
X1016133Y796472D01*
X1017370Y794330D01*
X1019119Y792580D01*
X1021263Y791342D01*
X1023620Y790711D01*
Y798830D01*
D02*
G37*
G36*
X944880D02*
X936761D01*
X937393Y796472D01*
X938630Y794330D01*
X940379Y792580D01*
X942523Y791342D01*
X944880Y790711D01*
Y798830D01*
D02*
G37*
G36*
X1331350Y791210D02*
X1327150D01*
Y787010D01*
X1329018Y787783D01*
X1330577Y789342D01*
X1331350Y791210D01*
D02*
G37*
G36*
X1324610D02*
X1320410D01*
X1321183Y789342D01*
X1322742Y787783D01*
X1324610Y787010D01*
Y791210D01*
D02*
G37*
G36*
X1535430Y790162D02*
Y783190D01*
X1542402D01*
X1541885Y785120D01*
X1540794Y787010D01*
X1539250Y788554D01*
X1537360Y789645D01*
X1535430Y790162D01*
D02*
G37*
G36*
X1532890D02*
X1530960Y789645D01*
X1529070Y788554D01*
X1527526Y787010D01*
X1526435Y785120D01*
X1525918Y783190D01*
X1532890D01*
Y790162D01*
D02*
G37*
G36*
X1398270Y789762D02*
Y782790D01*
X1405242D01*
X1404725Y784720D01*
X1403634Y786610D01*
X1402090Y788154D01*
X1400200Y789245D01*
X1398270Y789762D01*
D02*
G37*
G36*
X1395730D02*
X1393800Y789245D01*
X1391910Y788154D01*
X1390366Y786610D01*
X1389275Y784720D01*
X1388758Y782790D01*
X1395730D01*
Y789762D01*
D02*
G37*
G36*
X1259565Y791130D02*
X1257575D01*
X1255738Y790369D01*
X1254331Y788962D01*
X1253570Y787125D01*
Y785135D01*
X1254331Y783298D01*
X1255738Y781891D01*
X1257575Y781130D01*
X1259565D01*
X1261402Y781891D01*
X1262809Y783298D01*
X1263570Y785135D01*
Y787125D01*
X1262809Y788962D01*
X1261402Y790369D01*
X1259565Y791130D01*
D02*
G37*
G36*
X1582145Y786050D02*
X1580155D01*
X1578318Y785289D01*
X1576911Y783882D01*
X1576150Y782045D01*
Y780055D01*
X1576911Y778218D01*
X1578318Y776811D01*
X1580155Y776050D01*
X1582145D01*
X1583982Y776811D01*
X1585389Y778218D01*
X1586150Y780055D01*
Y782045D01*
X1585389Y783882D01*
X1583982Y785289D01*
X1582145Y786050D01*
D02*
G37*
G36*
X1558015D02*
X1556025D01*
X1554188Y785289D01*
X1552781Y783882D01*
X1552020Y782045D01*
Y780055D01*
X1552781Y778218D01*
X1554188Y776811D01*
X1556025Y776050D01*
X1558015D01*
X1559852Y776811D01*
X1561259Y778218D01*
X1562020Y780055D01*
Y782045D01*
X1561259Y783882D01*
X1559852Y785289D01*
X1558015Y786050D01*
D02*
G37*
G36*
X1673961Y783364D02*
X1673860D01*
Y774220D01*
X1683004D01*
Y774321D01*
X1682294Y776970D01*
X1680923Y779344D01*
X1678984Y781283D01*
X1676610Y782654D01*
X1673961Y783364D01*
D02*
G37*
G36*
X1671320D02*
X1671219D01*
X1668570Y782654D01*
X1666196Y781283D01*
X1664257Y779344D01*
X1662886Y776970D01*
X1662176Y774321D01*
Y774220D01*
X1671320D01*
Y783364D01*
D02*
G37*
G36*
X1542402Y780650D02*
X1535430D01*
Y773678D01*
X1537360Y774195D01*
X1539250Y775286D01*
X1540794Y776830D01*
X1541885Y778720D01*
X1542402Y780650D01*
D02*
G37*
G36*
X1532890D02*
X1525918D01*
X1526435Y778720D01*
X1527526Y776830D01*
X1529070Y775286D01*
X1530960Y774195D01*
X1532890Y773678D01*
Y780650D01*
D02*
G37*
G36*
X860785Y783510D02*
X858795D01*
X856958Y782749D01*
X855551Y781342D01*
X854790Y779505D01*
Y777515D01*
X855551Y775678D01*
X856958Y774271D01*
X858795Y773510D01*
X860785D01*
X862622Y774271D01*
X864029Y775678D01*
X864790Y777515D01*
Y779505D01*
X864029Y781342D01*
X862622Y782749D01*
X860785Y783510D01*
D02*
G37*
G36*
X787125D02*
X785135D01*
X783298Y782749D01*
X781891Y781342D01*
X781130Y779505D01*
Y777515D01*
X781891Y775678D01*
X783298Y774271D01*
X785135Y773510D01*
X787125D01*
X788962Y774271D01*
X790369Y775678D01*
X791130Y777515D01*
Y779505D01*
X790369Y781342D01*
X788962Y782749D01*
X787125Y783510D01*
D02*
G37*
G36*
X1405242Y780250D02*
X1398270D01*
Y773278D01*
X1400200Y773795D01*
X1402090Y774886D01*
X1403634Y776430D01*
X1404725Y778320D01*
X1405242Y780250D01*
D02*
G37*
G36*
X1395730D02*
X1388758D01*
X1389275Y778320D01*
X1390366Y776430D01*
X1391910Y774886D01*
X1393800Y773795D01*
X1395730Y773278D01*
Y780250D01*
D02*
G37*
G36*
X821671Y789280D02*
X819169D01*
X816753Y788633D01*
X814587Y787382D01*
X812818Y785613D01*
X811567Y783447D01*
X810920Y781031D01*
Y778529D01*
X811567Y776113D01*
X812818Y773947D01*
X814587Y772178D01*
X816753Y770927D01*
X819169Y770280D01*
X821671D01*
X824087Y770927D01*
X826253Y772178D01*
X828022Y773947D01*
X829273Y776113D01*
X829920Y778529D01*
Y781031D01*
X829273Y783447D01*
X828022Y785613D01*
X826253Y787382D01*
X824087Y788633D01*
X821671Y789280D01*
D02*
G37*
G36*
X1284990Y782850D02*
X1282950D01*
X1280979Y782322D01*
X1279211Y781301D01*
X1277768Y779859D01*
X1276748Y778091D01*
X1276220Y776120D01*
Y774080D01*
X1276748Y772109D01*
X1277768Y770341D01*
X1279211Y768898D01*
X1280979Y767878D01*
X1282950Y767350D01*
X1284990D01*
X1286961Y767878D01*
X1288729Y768898D01*
X1290172Y770341D01*
X1291192Y772109D01*
X1291720Y774080D01*
Y776120D01*
X1291192Y778091D01*
X1290172Y779859D01*
X1288729Y781301D01*
X1286961Y782322D01*
X1284990Y782850D01*
D02*
G37*
G36*
X1259565Y774620D02*
X1257575D01*
X1255738Y773859D01*
X1254331Y772452D01*
X1253570Y770615D01*
Y768625D01*
X1254331Y766788D01*
X1255738Y765381D01*
X1257575Y764620D01*
X1259565D01*
X1261402Y765381D01*
X1262809Y766788D01*
X1263570Y768625D01*
Y770615D01*
X1262809Y772452D01*
X1261402Y773859D01*
X1259565Y774620D01*
D02*
G37*
G36*
X1703890Y782824D02*
X1701290D01*
X1698779Y782151D01*
X1696527Y780851D01*
X1694689Y779013D01*
X1693389Y776761D01*
X1692716Y774250D01*
Y771650D01*
X1693389Y769139D01*
X1694689Y766887D01*
X1696527Y765049D01*
X1698779Y763749D01*
X1701290Y763076D01*
X1703890D01*
X1706401Y763749D01*
X1708653Y765049D01*
X1710491Y766887D01*
X1711791Y769139D01*
X1712464Y771650D01*
Y774250D01*
X1711791Y776761D01*
X1710491Y779013D01*
X1708653Y780851D01*
X1706401Y782151D01*
X1703890Y782824D01*
D02*
G37*
G36*
X1235706Y781780D02*
X1233174D01*
X1230727Y781124D01*
X1228533Y779858D01*
X1226742Y778067D01*
X1225476Y775873D01*
X1224820Y773427D01*
Y770893D01*
X1225476Y768447D01*
X1226742Y766253D01*
X1228533Y764462D01*
X1230727Y763196D01*
X1233174Y762540D01*
X1235706D01*
X1238153Y763196D01*
X1240347Y764462D01*
X1242138Y766253D01*
X1243404Y768447D01*
X1244060Y770893D01*
Y773427D01*
X1243404Y775873D01*
X1242138Y778067D01*
X1240347Y779858D01*
X1238153Y781124D01*
X1235706Y781780D01*
D02*
G37*
G36*
X1683004Y771680D02*
X1673860D01*
Y762536D01*
X1673961D01*
X1676610Y763246D01*
X1678984Y764617D01*
X1680923Y766556D01*
X1682294Y768930D01*
X1683004Y771579D01*
Y771680D01*
D02*
G37*
G36*
X1671320D02*
X1662176D01*
Y771579D01*
X1662886Y768930D01*
X1664257Y766556D01*
X1666196Y764617D01*
X1668570Y763246D01*
X1671219Y762536D01*
X1671320D01*
Y771680D01*
D02*
G37*
G36*
X1439930Y777770D02*
X1437890D01*
X1435919Y777242D01*
X1434151Y776221D01*
X1432708Y774779D01*
X1431688Y773011D01*
X1431160Y771040D01*
Y769000D01*
X1431688Y767029D01*
X1432708Y765261D01*
X1434151Y763819D01*
X1435919Y762798D01*
X1437890Y762270D01*
X1439930D01*
X1441901Y762798D01*
X1443669Y763819D01*
X1445112Y765261D01*
X1446132Y767029D01*
X1446660Y769000D01*
Y771040D01*
X1446132Y773011D01*
X1445112Y774779D01*
X1443669Y776221D01*
X1441901Y777242D01*
X1439930Y777770D01*
D02*
G37*
G36*
X1455145Y764460D02*
X1453155D01*
X1451318Y763699D01*
X1449911Y762292D01*
X1449150Y760455D01*
Y758465D01*
X1449911Y756628D01*
X1451318Y755221D01*
X1453155Y754460D01*
X1455145D01*
X1456982Y755221D01*
X1458389Y756628D01*
X1459150Y758465D01*
Y760455D01*
X1458389Y762292D01*
X1456982Y763699D01*
X1455145Y764460D01*
D02*
G37*
G36*
X1495785Y763190D02*
X1493795D01*
X1491958Y762429D01*
X1490551Y761022D01*
X1489790Y759185D01*
Y757195D01*
X1490551Y755358D01*
X1491958Y753951D01*
X1493795Y753190D01*
X1495785D01*
X1497622Y753951D01*
X1499029Y755358D01*
X1499790Y757195D01*
Y759185D01*
X1499029Y761022D01*
X1497622Y762429D01*
X1495785Y763190D01*
D02*
G37*
G36*
X1365000Y762530D02*
X1362960D01*
X1360989Y762002D01*
X1359221Y760982D01*
X1357778Y759539D01*
X1356758Y757771D01*
X1356230Y755800D01*
Y753760D01*
X1356758Y751789D01*
X1357778Y750021D01*
X1359221Y748578D01*
X1360989Y747558D01*
X1362960Y747030D01*
X1365000D01*
X1366971Y747558D01*
X1368739Y748578D01*
X1370181Y750021D01*
X1371202Y751789D01*
X1371730Y753760D01*
Y755800D01*
X1371202Y757771D01*
X1370181Y759539D01*
X1368739Y760982D01*
X1366971Y762002D01*
X1365000Y762530D01*
D02*
G37*
G36*
X1703961Y753364D02*
X1703860D01*
Y744220D01*
X1713004D01*
Y744321D01*
X1712294Y746970D01*
X1710923Y749344D01*
X1708984Y751283D01*
X1706610Y752654D01*
X1703961Y753364D01*
D02*
G37*
G36*
X1701320D02*
X1701219D01*
X1698570Y752654D01*
X1696196Y751283D01*
X1694257Y749344D01*
X1692886Y746970D01*
X1692176Y744321D01*
Y744220D01*
X1701320D01*
Y753364D01*
D02*
G37*
G36*
X1508485Y749220D02*
X1506495D01*
X1504658Y748459D01*
X1503251Y747052D01*
X1502490Y745215D01*
Y743225D01*
X1503251Y741388D01*
X1504658Y739981D01*
X1506495Y739220D01*
X1508485D01*
X1510322Y739981D01*
X1511729Y741388D01*
X1512490Y743225D01*
Y745215D01*
X1511729Y747052D01*
X1510322Y748459D01*
X1508485Y749220D01*
D02*
G37*
G36*
X862055D02*
X860065D01*
X858228Y748459D01*
X856821Y747052D01*
X856060Y745215D01*
Y743225D01*
X856821Y741388D01*
X858228Y739981D01*
X860065Y739220D01*
X862055D01*
X863892Y739981D01*
X865299Y741388D01*
X866060Y743225D01*
Y745215D01*
X865299Y747052D01*
X863892Y748459D01*
X862055Y749220D01*
D02*
G37*
G36*
X821415Y747950D02*
X819425D01*
X817588Y747189D01*
X816181Y745782D01*
X815420Y743945D01*
Y741955D01*
X816181Y740118D01*
X817588Y738711D01*
X819425Y737950D01*
X821415D01*
X823252Y738711D01*
X824659Y740118D01*
X825420Y741955D01*
Y743945D01*
X824659Y745782D01*
X823252Y747189D01*
X821415Y747950D01*
D02*
G37*
G36*
X784585D02*
X782595D01*
X780758Y747189D01*
X779351Y745782D01*
X778590Y743945D01*
Y741955D01*
X779351Y740118D01*
X780758Y738711D01*
X782595Y737950D01*
X784585D01*
X786422Y738711D01*
X787829Y740118D01*
X788590Y741955D01*
Y743945D01*
X787829Y745782D01*
X786422Y747189D01*
X784585Y747950D01*
D02*
G37*
G36*
X1611611Y752450D02*
X1609109D01*
X1606693Y751803D01*
X1604527Y750552D01*
X1602758Y748783D01*
X1601507Y746617D01*
X1600860Y744201D01*
Y741699D01*
X1601507Y739283D01*
X1602758Y737117D01*
X1604527Y735348D01*
X1606693Y734097D01*
X1609109Y733450D01*
X1611611D01*
X1614027Y734097D01*
X1616193Y735348D01*
X1617962Y737117D01*
X1619213Y739283D01*
X1619860Y741699D01*
Y744201D01*
X1619213Y746617D01*
X1617962Y748783D01*
X1616193Y750552D01*
X1614027Y751803D01*
X1611611Y752450D01*
D02*
G37*
G36*
X1673890Y752824D02*
X1671290D01*
X1668779Y752151D01*
X1666527Y750851D01*
X1664689Y749013D01*
X1663389Y746761D01*
X1662716Y744250D01*
Y741650D01*
X1663389Y739139D01*
X1664689Y736887D01*
X1666527Y735049D01*
X1668779Y733749D01*
X1671290Y733076D01*
X1673890D01*
X1676401Y733749D01*
X1678653Y735049D01*
X1680491Y736887D01*
X1681791Y739139D01*
X1682464Y741650D01*
Y744250D01*
X1681791Y746761D01*
X1680491Y749013D01*
X1678653Y750851D01*
X1676401Y752151D01*
X1673890Y752824D01*
D02*
G37*
G36*
X1279889Y747798D02*
X1277891D01*
X1275961Y747281D01*
X1274231Y746282D01*
X1272818Y744869D01*
X1271819Y743139D01*
X1271302Y741209D01*
Y739211D01*
X1271819Y737281D01*
X1272818Y735551D01*
X1274231Y734138D01*
X1275961Y733139D01*
X1277891Y732622D01*
X1279889D01*
X1281819Y733139D01*
X1283549Y734138D01*
X1284962Y735551D01*
X1285961Y737281D01*
X1286478Y739211D01*
Y741209D01*
X1285961Y743139D01*
X1284962Y744869D01*
X1283549Y746282D01*
X1281819Y747281D01*
X1279889Y747798D01*
D02*
G37*
G36*
X1239249D02*
X1237251D01*
X1235321Y747281D01*
X1233591Y746282D01*
X1232178Y744869D01*
X1231179Y743139D01*
X1230662Y741209D01*
Y739211D01*
X1231179Y737281D01*
X1232178Y735551D01*
X1233591Y734138D01*
X1235321Y733139D01*
X1237251Y732622D01*
X1239249D01*
X1241179Y733139D01*
X1242909Y734138D01*
X1244322Y735551D01*
X1245321Y737281D01*
X1245838Y739211D01*
Y741209D01*
X1245321Y743139D01*
X1244322Y744869D01*
X1242909Y746282D01*
X1241179Y747281D01*
X1239249Y747798D01*
D02*
G37*
G36*
X1713004Y741680D02*
X1703860D01*
Y732536D01*
X1703961D01*
X1706610Y733246D01*
X1708984Y734617D01*
X1710923Y736556D01*
X1712294Y738930D01*
X1713004Y741579D01*
Y741680D01*
D02*
G37*
G36*
X1701320D02*
X1692176D01*
Y741579D01*
X1692886Y738930D01*
X1694257Y736556D01*
X1696196Y734617D01*
X1698570Y733246D01*
X1701219Y732536D01*
X1701320D01*
Y741680D01*
D02*
G37*
G36*
X1307825Y741600D02*
X1305835D01*
X1303998Y740839D01*
X1302591Y739432D01*
X1301830Y737595D01*
Y735605D01*
X1302591Y733768D01*
X1303998Y732361D01*
X1305835Y731600D01*
X1307825D01*
X1309662Y732361D01*
X1311069Y733768D01*
X1311830Y735605D01*
Y737595D01*
X1311069Y739432D01*
X1309662Y740839D01*
X1307825Y741600D01*
D02*
G37*
G36*
X1535180Y739670D02*
X1533140D01*
X1531169Y739142D01*
X1529401Y738121D01*
X1527959Y736679D01*
X1526938Y734911D01*
X1526410Y732940D01*
Y730900D01*
X1526938Y728929D01*
X1527959Y727161D01*
X1529401Y725719D01*
X1531169Y724698D01*
X1533140Y724170D01*
X1535180D01*
X1537151Y724698D01*
X1538919Y725719D01*
X1540361Y727161D01*
X1541382Y728929D01*
X1541910Y730900D01*
Y732940D01*
X1541382Y734911D01*
X1540361Y736679D01*
X1538919Y738121D01*
X1537151Y739142D01*
X1535180Y739670D01*
D02*
G37*
G36*
X1398020Y739270D02*
X1395980D01*
X1394009Y738742D01*
X1392241Y737721D01*
X1390798Y736279D01*
X1389778Y734511D01*
X1389250Y732540D01*
Y730500D01*
X1389778Y728529D01*
X1390798Y726761D01*
X1392241Y725319D01*
X1394009Y724298D01*
X1395980Y723770D01*
X1398020D01*
X1399991Y724298D01*
X1401759Y725319D01*
X1403201Y726761D01*
X1404222Y728529D01*
X1404750Y730500D01*
Y732540D01*
X1404222Y734511D01*
X1403201Y736279D01*
X1401759Y737721D01*
X1399991Y738742D01*
X1398020Y739270D01*
D02*
G37*
G36*
X1280160Y723284D02*
Y716480D01*
X1286964D01*
X1286464Y718347D01*
X1285394Y720201D01*
X1283881Y721714D01*
X1282027Y722784D01*
X1280160Y723284D01*
D02*
G37*
G36*
X1239520D02*
Y716480D01*
X1246324D01*
X1245824Y718347D01*
X1244754Y720201D01*
X1243241Y721714D01*
X1241387Y722784D01*
X1239520Y723284D01*
D02*
G37*
G36*
X1277620D02*
X1275753Y722784D01*
X1273899Y721714D01*
X1272386Y720201D01*
X1271316Y718347D01*
X1270816Y716480D01*
X1277620D01*
Y723284D01*
D02*
G37*
G36*
X1236980D02*
X1235113Y722784D01*
X1233259Y721714D01*
X1231746Y720201D01*
X1230676Y718347D01*
X1230176Y716480D01*
X1236980D01*
Y723284D01*
D02*
G37*
G36*
X1497055Y726280D02*
X1495065D01*
X1493228Y725519D01*
X1491821Y724112D01*
X1491060Y722275D01*
Y720285D01*
X1491821Y718448D01*
X1493228Y717041D01*
X1495065Y716280D01*
X1497055D01*
X1498892Y717041D01*
X1500299Y718448D01*
X1501060Y720285D01*
Y722275D01*
X1500299Y724112D01*
X1498892Y725519D01*
X1497055Y726280D01*
D02*
G37*
G36*
X1307825Y717470D02*
X1305835D01*
X1303998Y716709D01*
X1302591Y715302D01*
X1301830Y713465D01*
Y711475D01*
X1302591Y709638D01*
X1303998Y708231D01*
X1305835Y707470D01*
X1307825D01*
X1309662Y708231D01*
X1311069Y709638D01*
X1311830Y711475D01*
Y713465D01*
X1311069Y715302D01*
X1309662Y716709D01*
X1307825Y717470D01*
D02*
G37*
G36*
X1246324Y713940D02*
X1239520D01*
Y707136D01*
X1241387Y707636D01*
X1243241Y708706D01*
X1244754Y710219D01*
X1245824Y712073D01*
X1246324Y713940D01*
D02*
G37*
G36*
X1286964D02*
X1280160D01*
Y707136D01*
X1282027Y707636D01*
X1283881Y708706D01*
X1285394Y710219D01*
X1286464Y712073D01*
X1286964Y713940D01*
D02*
G37*
G36*
X1277620D02*
X1270816D01*
X1271316Y712073D01*
X1272386Y710219D01*
X1273899Y708706D01*
X1275753Y707636D01*
X1277620Y707136D01*
Y713940D01*
D02*
G37*
G36*
X1236980D02*
X1230176D01*
X1230676Y712073D01*
X1231746Y710219D01*
X1233259Y708706D01*
X1235113Y707636D01*
X1236980Y707136D01*
Y713940D01*
D02*
G37*
G36*
X1524995Y721280D02*
X1523005D01*
X1521168Y720519D01*
X1519761Y719112D01*
X1519000Y717275D01*
Y715285D01*
X1519761Y713448D01*
X1519981Y713228D01*
X1519394Y710236D01*
X1519304Y710199D01*
X1517898Y708792D01*
X1517136Y706954D01*
Y704965D01*
X1517898Y703128D01*
X1519304Y701721D01*
X1521142Y700960D01*
X1523131D01*
X1524969Y701721D01*
X1526375Y703128D01*
X1527136Y704965D01*
Y705714D01*
X1527136Y705913D01*
X1528423Y706169D01*
Y706169D01*
X1529676Y706419D01*
X1529738Y706270D01*
X1529921Y705828D01*
X1531328Y704421D01*
X1533165Y703660D01*
X1535155D01*
X1536992Y704421D01*
X1538399Y705828D01*
X1539160Y707665D01*
Y709655D01*
X1538399Y711492D01*
X1536992Y712899D01*
X1535155Y713660D01*
X1533165D01*
X1531328Y712899D01*
X1529921Y711492D01*
X1529760Y711103D01*
X1527532Y710613D01*
X1527630Y712839D01*
X1528239Y713448D01*
X1529000Y715285D01*
Y717275D01*
X1528239Y719112D01*
X1526832Y720519D01*
X1524995Y721280D01*
D02*
G37*
G36*
X1703890Y722824D02*
X1701290D01*
X1698779Y722151D01*
X1696527Y720851D01*
X1694689Y719013D01*
X1693389Y716761D01*
X1692716Y714250D01*
Y711650D01*
X1693389Y709139D01*
X1694689Y706887D01*
X1696527Y705049D01*
X1698779Y703749D01*
X1701290Y703076D01*
X1703890D01*
X1706401Y703749D01*
X1708653Y705049D01*
X1710491Y706887D01*
X1711791Y709139D01*
X1712464Y711650D01*
Y714250D01*
X1711791Y716761D01*
X1710491Y719013D01*
X1708653Y720851D01*
X1706401Y722151D01*
X1703890Y722824D01*
D02*
G37*
G36*
X1673890D02*
X1671290D01*
X1668779Y722151D01*
X1666527Y720851D01*
X1664689Y719013D01*
X1663389Y716761D01*
X1662716Y714250D01*
Y711650D01*
X1663389Y709139D01*
X1664689Y706887D01*
X1666527Y705049D01*
X1668779Y703749D01*
X1671290Y703076D01*
X1673890D01*
X1676401Y703749D01*
X1678653Y705049D01*
X1680491Y706887D01*
X1681791Y709139D01*
X1682464Y711650D01*
Y714250D01*
X1681791Y716761D01*
X1680491Y719013D01*
X1678653Y720851D01*
X1676401Y722151D01*
X1673890Y722824D01*
D02*
G37*
G36*
X1611611Y721970D02*
X1609109D01*
X1606693Y721323D01*
X1604527Y720072D01*
X1602758Y718303D01*
X1601507Y716137D01*
X1600860Y713721D01*
Y711219D01*
X1601507Y708803D01*
X1602758Y706637D01*
X1604527Y704868D01*
X1606693Y703617D01*
X1609109Y702970D01*
X1611611D01*
X1614027Y703617D01*
X1616193Y704868D01*
X1617962Y706637D01*
X1619213Y708803D01*
X1619860Y711219D01*
Y713721D01*
X1619213Y716137D01*
X1617962Y718303D01*
X1616193Y720072D01*
X1614027Y721323D01*
X1611611Y721970D01*
D02*
G37*
G36*
X1356760Y708012D02*
Y701040D01*
X1363732D01*
X1363215Y702970D01*
X1362124Y704860D01*
X1360580Y706404D01*
X1358690Y707495D01*
X1356760Y708012D01*
D02*
G37*
G36*
X1354220D02*
X1352290Y707495D01*
X1350400Y706404D01*
X1348856Y704860D01*
X1347765Y702970D01*
X1347248Y701040D01*
X1354220D01*
Y708012D01*
D02*
G37*
G36*
X1406510Y707520D02*
X1404470D01*
X1402499Y706992D01*
X1400731Y705972D01*
X1399288Y704529D01*
X1398268Y702761D01*
X1397740Y700790D01*
Y698750D01*
X1398268Y696779D01*
X1399288Y695011D01*
X1400731Y693568D01*
X1402499Y692548D01*
X1404470Y692020D01*
X1406510D01*
X1408481Y692548D01*
X1410249Y693568D01*
X1411691Y695011D01*
X1412712Y696779D01*
X1413240Y698750D01*
Y700790D01*
X1412712Y702761D01*
X1411691Y704529D01*
X1410249Y705972D01*
X1408481Y706992D01*
X1406510Y707520D01*
D02*
G37*
G36*
X1363732Y698500D02*
X1356760D01*
Y691528D01*
X1358690Y692045D01*
X1360580Y693136D01*
X1362124Y694680D01*
X1363215Y696570D01*
X1363732Y698500D01*
D02*
G37*
G36*
X1354220D02*
X1347248D01*
X1347765Y696570D01*
X1348856Y694680D01*
X1350400Y693136D01*
X1352290Y692045D01*
X1354220Y691528D01*
Y698500D01*
D02*
G37*
G36*
X1437365Y699690D02*
X1435375D01*
X1433538Y698929D01*
X1432131Y697522D01*
X1431370Y695685D01*
Y693695D01*
X1432131Y691858D01*
X1432783Y691206D01*
X1433277Y689610D01*
X1432783Y688014D01*
X1432131Y687362D01*
X1431370Y685525D01*
Y683535D01*
X1432131Y681698D01*
X1433538Y680291D01*
X1435375Y679530D01*
X1437365D01*
X1439202Y680291D01*
X1440609Y681698D01*
X1441370Y683535D01*
Y685525D01*
X1440609Y687362D01*
X1439957Y688014D01*
X1439463Y689610D01*
X1439957Y691206D01*
X1440609Y691858D01*
X1441370Y693695D01*
Y695685D01*
X1440609Y697522D01*
X1439202Y698929D01*
X1437365Y699690D01*
D02*
G37*
G36*
X1464310Y683650D02*
Y679450D01*
X1468510D01*
X1467737Y681318D01*
X1466178Y682877D01*
X1464310Y683650D01*
D02*
G37*
G36*
X1461770D02*
X1459902Y682877D01*
X1458343Y681318D01*
X1457500Y679282D01*
X1455145Y678100D01*
X1453155D01*
X1451318Y677339D01*
X1450666Y676687D01*
X1449070Y676193D01*
X1447474Y676687D01*
X1446822Y677339D01*
X1444985Y678100D01*
X1442995D01*
X1441158Y677339D01*
X1439751Y675932D01*
X1438990Y674095D01*
Y672105D01*
X1439751Y670268D01*
X1441158Y668861D01*
X1442995Y668100D01*
X1444985D01*
X1446822Y668861D01*
X1447474Y669513D01*
X1449070Y670007D01*
X1450666Y669513D01*
X1451318Y668861D01*
X1453155Y668100D01*
X1455145D01*
X1456982Y668861D01*
X1458389Y670268D01*
X1458802Y671265D01*
X1461104Y672596D01*
X1461690Y672743D01*
X1461770Y672710D01*
Y678180D01*
Y683650D01*
D02*
G37*
G36*
X1664155Y690284D02*
X1662224D01*
X1660359Y689784D01*
X1658687Y688819D01*
X1657321Y687453D01*
X1656356Y685781D01*
X1655856Y683915D01*
Y681984D01*
X1656356Y680119D01*
X1657321Y678447D01*
X1658687Y677081D01*
X1660359Y676116D01*
X1662224Y675616D01*
X1664155D01*
X1666021Y676116D01*
X1667693Y677081D01*
X1669059Y678447D01*
X1670024Y680119D01*
X1670524Y681984D01*
Y683915D01*
X1670024Y685781D01*
X1669059Y687453D01*
X1667693Y688819D01*
X1666021Y689784D01*
X1664155Y690284D01*
D02*
G37*
G36*
X1524995Y697150D02*
X1523005D01*
X1521168Y696389D01*
X1519761Y694982D01*
X1519000Y693145D01*
Y691155D01*
X1519761Y689318D01*
X1521168Y687911D01*
X1522160Y687500D01*
X1522214Y686082D01*
X1521907Y684856D01*
X1520418Y684239D01*
X1519011Y682832D01*
X1518250Y680995D01*
Y679005D01*
X1519011Y677168D01*
X1520418Y675761D01*
X1522255Y675000D01*
X1524245D01*
X1526082Y675761D01*
X1527489Y677168D01*
X1528250Y679005D01*
Y680995D01*
X1527489Y682832D01*
X1526082Y684239D01*
X1525090Y684650D01*
X1525036Y686068D01*
X1525343Y687294D01*
X1526832Y687911D01*
X1528239Y689318D01*
X1529000Y691155D01*
Y693145D01*
X1528239Y694982D01*
X1526832Y696389D01*
X1524995Y697150D01*
D02*
G37*
G36*
X1488245Y714250D02*
X1486255D01*
X1484418Y713489D01*
X1483011Y712082D01*
X1482250Y710245D01*
Y708255D01*
X1483011Y706418D01*
X1484418Y705011D01*
X1486255Y704250D01*
X1487412D01*
X1487885Y703823D01*
X1488845Y702333D01*
X1488980Y701903D01*
X1488500Y700745D01*
Y698755D01*
X1489261Y696918D01*
X1490227Y695952D01*
X1490568Y694737D01*
X1490331Y692902D01*
X1489511Y692082D01*
X1488750Y690245D01*
Y688255D01*
X1489511Y686418D01*
X1490139Y685790D01*
X1490089Y684831D01*
X1489521Y683049D01*
X1488168Y682489D01*
X1486761Y681082D01*
X1486000Y679245D01*
Y677255D01*
X1486761Y675418D01*
X1488168Y674011D01*
X1490005Y673250D01*
X1491995D01*
X1493832Y674011D01*
X1495239Y675418D01*
X1496000Y677255D01*
Y679245D01*
X1495239Y681082D01*
X1494611Y681710D01*
X1494662Y682669D01*
X1495228Y684451D01*
X1496582Y685011D01*
X1497989Y686418D01*
X1498750Y688255D01*
Y690245D01*
X1497989Y692082D01*
X1497023Y693048D01*
X1496682Y694263D01*
X1496920Y696098D01*
X1497739Y696918D01*
X1498500Y698755D01*
Y700745D01*
X1497739Y702582D01*
X1496332Y703989D01*
X1494495Y704750D01*
X1493338D01*
X1492865Y705177D01*
X1491905Y706667D01*
X1491770Y707097D01*
X1492250Y708255D01*
Y710245D01*
X1491489Y712082D01*
X1490082Y713489D01*
X1488245Y714250D01*
D02*
G37*
G36*
X1468510Y676910D02*
X1464310D01*
Y672710D01*
X1466178Y673483D01*
X1467737Y675042D01*
X1468510Y676910D01*
D02*
G37*
G36*
X1397436Y682145D02*
X1395447D01*
X1393609Y681384D01*
X1392203Y679977D01*
X1391441Y678139D01*
Y676150D01*
X1392203Y674312D01*
X1393609Y672906D01*
X1395447Y672145D01*
X1397436D01*
X1399274Y672906D01*
X1400680Y674312D01*
X1401441Y676150D01*
Y678139D01*
X1400680Y679977D01*
X1399274Y681384D01*
X1397436Y682145D01*
D02*
G37*
G36*
X1204751Y690500D02*
X1202249D01*
X1199833Y689853D01*
X1197667Y688602D01*
X1195898Y686833D01*
X1194647Y684667D01*
X1194000Y682251D01*
Y679749D01*
X1194647Y677333D01*
X1195898Y675167D01*
X1197667Y673398D01*
X1199833Y672147D01*
X1202249Y671500D01*
X1204751D01*
X1207167Y672147D01*
X1209333Y673398D01*
X1211102Y675167D01*
X1212353Y677333D01*
X1213000Y679749D01*
Y682251D01*
X1212353Y684667D01*
X1211102Y686833D01*
X1209333Y688602D01*
X1207167Y689853D01*
X1204751Y690500D01*
D02*
G37*
G36*
X746991Y678032D02*
X746639D01*
Y666983D01*
X757688D01*
Y667335D01*
X756848Y670468D01*
X755227Y673277D01*
X752933Y675571D01*
X750124Y677192D01*
X746991Y678032D01*
D02*
G37*
G36*
X744099D02*
X743747D01*
X740614Y677192D01*
X737805Y675571D01*
X735511Y673277D01*
X733889Y670468D01*
X733050Y667335D01*
Y666983D01*
X744099D01*
Y678032D01*
D02*
G37*
G36*
X1410245Y687750D02*
X1408255D01*
X1406418Y686989D01*
X1405011Y685582D01*
X1404250Y683745D01*
Y681755D01*
X1405011Y679918D01*
X1406418Y678511D01*
X1407197Y678188D01*
X1407555Y678040D01*
X1407050Y675500D01*
X1406505Y675500D01*
X1404668Y674739D01*
X1403261Y673332D01*
X1402500Y671495D01*
Y669505D01*
X1403261Y667668D01*
X1404668Y666261D01*
X1406505Y665500D01*
X1408495D01*
X1410332Y666261D01*
X1411739Y667668D01*
X1412500Y669505D01*
Y671495D01*
X1411739Y673332D01*
X1410332Y674739D01*
X1409553Y675062D01*
X1409195Y675210D01*
X1409700Y677750D01*
X1410245Y677750D01*
X1412082Y678511D01*
X1413489Y679918D01*
X1414250Y681755D01*
Y683745D01*
X1413489Y685582D01*
X1412082Y686989D01*
X1410245Y687750D01*
D02*
G37*
G36*
X1509183Y675480D02*
X1507194D01*
X1505357Y674719D01*
X1503950Y673312D01*
X1503189Y671475D01*
Y669485D01*
X1503950Y667648D01*
X1505357Y666241D01*
X1507194Y665480D01*
X1509183D01*
X1511021Y666241D01*
X1512428Y667648D01*
X1513189Y669485D01*
Y671475D01*
X1512428Y673312D01*
X1511021Y674719D01*
X1509183Y675480D01*
D02*
G37*
G36*
X1579663Y681100D02*
X1577557D01*
X1575522Y680555D01*
X1573698Y679502D01*
X1572208Y678012D01*
X1571155Y676188D01*
X1570610Y674153D01*
Y672047D01*
X1571155Y670012D01*
X1572208Y668188D01*
X1573698Y666698D01*
X1575522Y665645D01*
X1577557Y665100D01*
X1579663D01*
X1581698Y665645D01*
X1583522Y666698D01*
X1585012Y668188D01*
X1586065Y670012D01*
X1586610Y672047D01*
Y674153D01*
X1586065Y676188D01*
X1585012Y678012D01*
X1583522Y679502D01*
X1581698Y680555D01*
X1579663Y681100D01*
D02*
G37*
G36*
X1333481Y683870D02*
X1330979D01*
X1328563Y683223D01*
X1326397Y681972D01*
X1324628Y680203D01*
X1323377Y678037D01*
X1322730Y675621D01*
Y673119D01*
X1323377Y670703D01*
X1324628Y668537D01*
X1326397Y666768D01*
X1328563Y665517D01*
X1330979Y664870D01*
X1333481D01*
X1335897Y665517D01*
X1338063Y666768D01*
X1339832Y668537D01*
X1341083Y670703D01*
X1341730Y673119D01*
Y675621D01*
X1341083Y678037D01*
X1339832Y680203D01*
X1338063Y681972D01*
X1335897Y683223D01*
X1333481Y683870D01*
D02*
G37*
G36*
X1421167Y671559D02*
X1419178D01*
X1417340Y670798D01*
X1415934Y669392D01*
X1415172Y667554D01*
Y665565D01*
X1415934Y663727D01*
X1417340Y662320D01*
X1419178Y661559D01*
X1421167D01*
X1423005Y662320D01*
X1424411Y663727D01*
X1425172Y665565D01*
Y667554D01*
X1424411Y669392D01*
X1423005Y670798D01*
X1421167Y671559D01*
D02*
G37*
G36*
X801920Y677492D02*
X798818D01*
X795822Y676689D01*
X793136Y675138D01*
X790943Y672945D01*
X789393Y670259D01*
X788590Y667264D01*
Y664162D01*
X789393Y661166D01*
X790943Y658480D01*
X793136Y656287D01*
X795822Y654736D01*
X798818Y653934D01*
X801920D01*
X804915Y654736D01*
X807601Y656287D01*
X809794Y658480D01*
X811345Y661166D01*
X812148Y664162D01*
Y667264D01*
X811345Y670259D01*
X809794Y672945D01*
X807601Y675138D01*
X804915Y676689D01*
X801920Y677492D01*
D02*
G37*
G36*
X757688Y664443D02*
X746639D01*
Y653394D01*
X746991D01*
X750124Y654233D01*
X752933Y655855D01*
X755227Y658149D01*
X756848Y660958D01*
X757688Y664091D01*
Y664443D01*
D02*
G37*
G36*
X744099D02*
X733050D01*
Y664091D01*
X733889Y660958D01*
X735511Y658149D01*
X737805Y655855D01*
X740614Y654233D01*
X743747Y653394D01*
X744099D01*
Y664443D01*
D02*
G37*
G36*
X1431015Y662860D02*
X1429025D01*
X1427188Y662099D01*
X1425781Y660692D01*
X1425020Y658855D01*
Y656865D01*
X1425781Y655028D01*
X1427188Y653621D01*
X1429025Y652860D01*
X1431015D01*
X1432852Y653621D01*
X1434259Y655028D01*
X1435020Y656865D01*
Y658855D01*
X1434259Y660692D01*
X1432852Y662099D01*
X1431015Y662860D01*
D02*
G37*
G36*
X1169667Y664940D02*
X1167133D01*
X1164687Y664284D01*
X1162493Y663018D01*
X1160702Y661227D01*
X1159436Y659033D01*
X1158780Y656587D01*
Y654053D01*
X1159436Y651607D01*
X1160702Y649413D01*
X1162493Y647622D01*
X1164687Y646356D01*
X1167133Y645700D01*
X1169667D01*
X1172113Y646356D01*
X1174307Y647622D01*
X1176098Y649413D01*
X1177364Y651607D01*
X1178020Y654053D01*
Y656587D01*
X1177364Y659033D01*
X1176098Y661227D01*
X1174307Y663018D01*
X1172113Y664284D01*
X1169667Y664940D01*
D02*
G37*
G36*
X1580933Y660780D02*
X1578827D01*
X1576792Y660235D01*
X1574968Y659182D01*
X1573478Y657692D01*
X1572425Y655868D01*
X1571880Y653833D01*
Y651727D01*
X1572425Y649692D01*
X1573478Y647868D01*
X1574968Y646378D01*
X1576792Y645325D01*
X1578827Y644780D01*
X1580933D01*
X1582968Y645325D01*
X1584792Y646378D01*
X1586282Y647868D01*
X1587335Y649692D01*
X1587880Y651727D01*
Y653833D01*
X1587335Y655868D01*
X1586282Y657692D01*
X1584792Y659182D01*
X1582968Y660235D01*
X1580933Y660780D01*
D02*
G37*
G36*
X1391645Y652700D02*
X1389655D01*
X1387818Y651939D01*
X1386411Y650532D01*
X1385650Y648695D01*
Y646705D01*
X1386411Y644868D01*
X1387818Y643461D01*
X1389655Y642700D01*
X1391645D01*
X1393482Y643461D01*
X1394889Y644868D01*
X1395650Y646705D01*
Y648695D01*
X1394889Y650532D01*
X1393482Y651939D01*
X1391645Y652700D01*
D02*
G37*
G36*
X1481815Y650160D02*
X1479825D01*
X1477988Y649399D01*
X1476581Y647992D01*
X1475820Y646155D01*
Y644165D01*
X1476581Y642328D01*
X1477988Y640921D01*
X1479825Y640160D01*
X1481815D01*
X1483652Y640921D01*
X1485059Y642328D01*
X1485820Y644165D01*
Y646155D01*
X1485059Y647992D01*
X1483652Y649399D01*
X1481815Y650160D01*
D02*
G37*
G36*
X1358060Y655053D02*
X1355953D01*
X1353919Y654508D01*
X1352094Y653455D01*
X1350605Y651966D01*
X1349552Y650141D01*
X1349007Y648107D01*
Y646000D01*
X1349552Y643966D01*
X1350605Y642141D01*
X1352094Y640652D01*
X1353919Y639599D01*
X1355953Y639054D01*
X1358060D01*
X1360094Y639599D01*
X1361919Y640652D01*
X1363408Y642141D01*
X1364461Y643966D01*
X1365006Y646000D01*
Y648107D01*
X1364461Y650141D01*
X1363408Y651966D01*
X1361919Y653455D01*
X1360094Y654508D01*
X1358060Y655053D01*
D02*
G37*
G36*
X1443715Y650160D02*
X1441725D01*
X1439888Y649399D01*
X1438481Y647992D01*
X1437720Y646155D01*
Y644165D01*
X1438481Y642328D01*
X1439888Y640921D01*
X1441725Y640160D01*
X1443715D01*
X1445552Y640921D01*
X1446803Y642172D01*
X1447939Y642180D01*
X1449547Y641938D01*
X1449911Y641058D01*
X1451318Y639651D01*
X1453155Y638890D01*
X1455145D01*
X1456982Y639651D01*
X1458389Y641058D01*
X1459150Y642895D01*
Y644885D01*
X1458389Y646722D01*
X1456982Y648129D01*
X1455145Y648890D01*
X1453155D01*
X1451318Y648129D01*
X1450067Y646878D01*
X1448931Y646870D01*
X1447323Y647112D01*
X1446959Y647992D01*
X1445552Y649399D01*
X1443715Y650160D01*
D02*
G37*
G36*
X1057033Y659210D02*
X1053347D01*
X1049786Y658256D01*
X1046594Y656413D01*
X1043987Y653806D01*
X1042144Y650614D01*
X1041190Y647053D01*
Y643367D01*
X1042144Y639806D01*
X1043987Y636614D01*
X1046594Y634007D01*
X1049786Y632164D01*
X1053347Y631210D01*
X1057033D01*
X1060594Y632164D01*
X1063786Y634007D01*
X1066393Y636614D01*
X1068236Y639806D01*
X1069190Y643367D01*
Y647053D01*
X1068236Y650614D01*
X1066393Y653806D01*
X1063786Y656413D01*
X1060594Y658256D01*
X1057033Y659210D01*
D02*
G37*
G36*
X801991Y636032D02*
X801639D01*
Y624983D01*
X812688D01*
Y625335D01*
X811848Y628468D01*
X810227Y631277D01*
X807933Y633571D01*
X805124Y635192D01*
X801991Y636032D01*
D02*
G37*
G36*
X799099D02*
X798747D01*
X795614Y635192D01*
X792805Y633571D01*
X790511Y631277D01*
X788889Y628468D01*
X788050Y625335D01*
Y624983D01*
X799099D01*
Y636032D01*
D02*
G37*
G36*
X1575795Y634920D02*
X1573805D01*
X1571968Y634159D01*
X1570561Y632752D01*
X1569800Y630915D01*
Y628925D01*
X1570561Y627088D01*
X1571968Y625681D01*
X1573805Y624920D01*
X1575795D01*
X1577632Y625681D01*
X1579039Y627088D01*
X1579800Y628925D01*
Y630915D01*
X1579039Y632752D01*
X1577632Y634159D01*
X1575795Y634920D01*
D02*
G37*
G36*
X1378945D02*
X1376955D01*
X1375118Y634159D01*
X1373711Y632752D01*
X1372950Y630915D01*
Y628925D01*
X1373711Y627088D01*
X1375118Y625681D01*
X1376955Y624920D01*
X1378945D01*
X1380782Y625681D01*
X1382189Y627088D01*
X1382950Y628925D01*
Y630915D01*
X1382189Y632752D01*
X1380782Y634159D01*
X1378945Y634920D01*
D02*
G37*
G36*
X1552960Y634730D02*
X1550920D01*
X1548949Y634202D01*
X1547181Y633181D01*
X1545739Y631739D01*
X1544718Y629971D01*
X1544190Y628000D01*
Y625960D01*
X1544718Y623989D01*
X1545739Y622221D01*
X1547181Y620779D01*
X1548949Y619758D01*
X1550920Y619230D01*
X1552960D01*
X1554931Y619758D01*
X1556699Y620779D01*
X1558141Y622221D01*
X1559162Y623989D01*
X1559690Y625960D01*
Y628000D01*
X1559162Y629971D01*
X1558141Y631739D01*
X1556699Y633181D01*
X1554931Y634202D01*
X1552960Y634730D01*
D02*
G37*
G36*
X1523750D02*
X1521710D01*
X1519739Y634202D01*
X1517971Y633181D01*
X1516528Y631739D01*
X1515508Y629971D01*
X1514980Y628000D01*
Y625960D01*
X1515508Y623989D01*
X1516528Y622221D01*
X1517971Y620779D01*
X1519739Y619758D01*
X1521710Y619230D01*
X1523750D01*
X1525721Y619758D01*
X1527489Y620779D01*
X1528931Y622221D01*
X1529952Y623989D01*
X1530480Y625960D01*
Y628000D01*
X1529952Y629971D01*
X1528931Y631739D01*
X1527489Y633181D01*
X1525721Y634202D01*
X1523750Y634730D01*
D02*
G37*
G36*
X1495810D02*
X1493770D01*
X1491799Y634202D01*
X1490031Y633181D01*
X1488589Y631739D01*
X1487568Y629971D01*
X1487040Y628000D01*
Y625960D01*
X1487568Y623989D01*
X1488589Y622221D01*
X1490031Y620779D01*
X1491799Y619758D01*
X1493770Y619230D01*
X1495810D01*
X1497781Y619758D01*
X1499549Y620779D01*
X1500992Y622221D01*
X1502012Y623989D01*
X1502540Y625960D01*
Y628000D01*
X1502012Y629971D01*
X1500992Y631739D01*
X1499549Y633181D01*
X1497781Y634202D01*
X1495810Y634730D01*
D02*
G37*
G36*
X1465330D02*
X1463290D01*
X1461319Y634202D01*
X1459551Y633181D01*
X1458109Y631739D01*
X1457088Y629971D01*
X1456560Y628000D01*
Y625960D01*
X1457088Y623989D01*
X1458109Y622221D01*
X1459551Y620779D01*
X1461319Y619758D01*
X1463290Y619230D01*
X1465330D01*
X1467301Y619758D01*
X1469069Y620779D01*
X1470511Y622221D01*
X1471532Y623989D01*
X1472060Y625960D01*
Y628000D01*
X1471532Y629971D01*
X1470511Y631739D01*
X1469069Y633181D01*
X1467301Y634202D01*
X1465330Y634730D01*
D02*
G37*
G36*
X1434850D02*
X1432810D01*
X1430839Y634202D01*
X1429071Y633181D01*
X1427628Y631739D01*
X1426608Y629971D01*
X1426080Y628000D01*
Y625960D01*
X1426608Y623989D01*
X1427628Y622221D01*
X1429071Y620779D01*
X1430839Y619758D01*
X1432810Y619230D01*
X1434850D01*
X1436821Y619758D01*
X1438589Y620779D01*
X1440031Y622221D01*
X1441052Y623989D01*
X1441580Y625960D01*
Y628000D01*
X1441052Y629971D01*
X1440031Y631739D01*
X1438589Y633181D01*
X1436821Y634202D01*
X1434850Y634730D01*
D02*
G37*
G36*
X1401830D02*
X1399790D01*
X1397819Y634202D01*
X1396051Y633181D01*
X1394608Y631739D01*
X1393588Y629971D01*
X1393060Y628000D01*
Y625960D01*
X1393588Y623989D01*
X1394608Y622221D01*
X1396051Y620779D01*
X1397819Y619758D01*
X1399790Y619230D01*
X1401830D01*
X1403801Y619758D01*
X1405569Y620779D01*
X1407012Y622221D01*
X1408032Y623989D01*
X1408560Y625960D01*
Y628000D01*
X1408032Y629971D01*
X1407012Y631739D01*
X1405569Y633181D01*
X1403801Y634202D01*
X1401830Y634730D01*
D02*
G37*
G36*
X1582145Y623490D02*
X1580155D01*
X1578318Y622729D01*
X1576911Y621322D01*
X1576150Y619485D01*
Y617495D01*
X1576911Y615658D01*
X1578318Y614251D01*
X1580155Y613490D01*
X1582145D01*
X1583982Y614251D01*
X1585389Y615658D01*
X1586150Y617495D01*
Y619485D01*
X1585389Y621322D01*
X1583982Y622729D01*
X1582145Y623490D01*
D02*
G37*
G36*
X1370055D02*
X1368065D01*
X1366228Y622729D01*
X1364821Y621322D01*
X1364060Y619485D01*
Y617495D01*
X1364821Y615658D01*
X1366228Y614251D01*
X1368065Y613490D01*
X1370055D01*
X1371892Y614251D01*
X1373299Y615658D01*
X1374060Y617495D01*
Y619485D01*
X1373299Y621322D01*
X1371892Y622729D01*
X1370055Y623490D01*
D02*
G37*
G36*
X1664635Y627884D02*
X1662704D01*
X1660839Y627384D01*
X1659167Y626419D01*
X1657801Y625053D01*
X1656836Y623381D01*
X1656336Y621516D01*
Y619585D01*
X1656836Y617719D01*
X1657801Y616047D01*
X1659167Y614681D01*
X1660839Y613716D01*
X1662704Y613216D01*
X1664635D01*
X1666501Y613716D01*
X1668173Y614681D01*
X1669539Y616047D01*
X1670504Y617719D01*
X1671004Y619585D01*
Y621516D01*
X1670504Y623381D01*
X1669539Y625053D01*
X1668173Y626419D01*
X1666501Y627384D01*
X1664635Y627884D01*
D02*
G37*
G36*
X746920Y635492D02*
X743818D01*
X740822Y634689D01*
X738136Y633138D01*
X735943Y630945D01*
X734393Y628259D01*
X733590Y625264D01*
Y622162D01*
X734393Y619166D01*
X735943Y616480D01*
X738136Y614287D01*
X740822Y612737D01*
X743818Y611934D01*
X746920D01*
X749915Y612737D01*
X752601Y614287D01*
X754794Y616480D01*
X756345Y619166D01*
X757148Y622162D01*
Y625264D01*
X756345Y628259D01*
X754794Y630945D01*
X752601Y633138D01*
X749915Y634689D01*
X746920Y635492D01*
D02*
G37*
G36*
X812688Y622443D02*
X801639D01*
Y611394D01*
X801991D01*
X805124Y612233D01*
X807933Y613855D01*
X810227Y616149D01*
X811848Y618958D01*
X812688Y622091D01*
Y622443D01*
D02*
G37*
G36*
X799099D02*
X788050D01*
Y622091D01*
X788889Y618958D01*
X790511Y616149D01*
X792805Y613855D01*
X795614Y612233D01*
X798747Y611394D01*
X799099D01*
Y622443D01*
D02*
G37*
G36*
X1386565Y609520D02*
X1384575D01*
X1382738Y608759D01*
X1381331Y607352D01*
X1380570Y605515D01*
Y603525D01*
X1381331Y601688D01*
X1382738Y600281D01*
X1384575Y599520D01*
X1386565D01*
X1388402Y600281D01*
X1389809Y601688D01*
X1390570Y603525D01*
Y605515D01*
X1389809Y607352D01*
X1388402Y608759D01*
X1386565Y609520D01*
D02*
G37*
G36*
X1077072Y611210D02*
X1074308D01*
X1071637Y610494D01*
X1069243Y609112D01*
X1067288Y607157D01*
X1065906Y604763D01*
X1065190Y602092D01*
Y599328D01*
X1065906Y596657D01*
X1067288Y594263D01*
X1069243Y592308D01*
X1071637Y590926D01*
X1074308Y590210D01*
X1077072D01*
X1079743Y590926D01*
X1082137Y592308D01*
X1084092Y594263D01*
X1085474Y596657D01*
X1086190Y599328D01*
Y602092D01*
X1085474Y604763D01*
X1084092Y607157D01*
X1082137Y609112D01*
X1079743Y610494D01*
X1077072Y611210D01*
D02*
G37*
G36*
X1378945Y594280D02*
X1376955D01*
X1375118Y593519D01*
X1373711Y592112D01*
X1372950Y590275D01*
Y588285D01*
X1373711Y586448D01*
X1375118Y585041D01*
X1376955Y584280D01*
X1378945D01*
X1380782Y585041D01*
X1382189Y586448D01*
X1382950Y588285D01*
Y590275D01*
X1382189Y592112D01*
X1380782Y593519D01*
X1378945Y594280D01*
D02*
G37*
G36*
X746991Y594032D02*
X746639D01*
Y582983D01*
X757688D01*
Y583335D01*
X756848Y586468D01*
X755227Y589277D01*
X752933Y591571D01*
X750124Y593192D01*
X746991Y594032D01*
D02*
G37*
G36*
X744099D02*
X743747D01*
X740614Y593192D01*
X737805Y591571D01*
X735511Y589277D01*
X733889Y586468D01*
X733050Y583335D01*
Y582983D01*
X744099D01*
Y594032D01*
D02*
G37*
G36*
X1330490Y603225D02*
X1327590D01*
X1324788Y602474D01*
X1322277Y601024D01*
X1320226Y598973D01*
X1318776Y596462D01*
X1318025Y593660D01*
Y590760D01*
X1318776Y587958D01*
X1320226Y585447D01*
X1322277Y583396D01*
X1324788Y581946D01*
X1327590Y581195D01*
X1330490D01*
X1333292Y581946D01*
X1335803Y583396D01*
X1337854Y585447D01*
X1339304Y587958D01*
X1340055Y590760D01*
Y593660D01*
X1339304Y596462D01*
X1337854Y598973D01*
X1335803Y601024D01*
X1333292Y602474D01*
X1330490Y603225D01*
D02*
G37*
G36*
X1205490D02*
X1202590D01*
X1199788Y602474D01*
X1197277Y601024D01*
X1195226Y598973D01*
X1193776Y596462D01*
X1193025Y593660D01*
Y590760D01*
X1193776Y587958D01*
X1195226Y585447D01*
X1197277Y583396D01*
X1199788Y581946D01*
X1202590Y581195D01*
X1205490D01*
X1208292Y581946D01*
X1210803Y583396D01*
X1212854Y585447D01*
X1214304Y587958D01*
X1215055Y590760D01*
Y593660D01*
X1214304Y596462D01*
X1212854Y598973D01*
X1210803Y601024D01*
X1208292Y602474D01*
X1205490Y603225D01*
D02*
G37*
G36*
X1704370Y600424D02*
X1701770D01*
X1699259Y599751D01*
X1697007Y598451D01*
X1695169Y596613D01*
X1693869Y594361D01*
X1693196Y591850D01*
Y589250D01*
X1693869Y586739D01*
X1695169Y584487D01*
X1697007Y582649D01*
X1699259Y581349D01*
X1701770Y580676D01*
X1704370D01*
X1706881Y581349D01*
X1709133Y582649D01*
X1710971Y584487D01*
X1712271Y586739D01*
X1712944Y589250D01*
Y591850D01*
X1712271Y594361D01*
X1710971Y596613D01*
X1709133Y598451D01*
X1706881Y599751D01*
X1704370Y600424D01*
D02*
G37*
G36*
X1674370D02*
X1671770D01*
X1669259Y599751D01*
X1667007Y598451D01*
X1665169Y596613D01*
X1663869Y594361D01*
X1663196Y591850D01*
Y589250D01*
X1663869Y586739D01*
X1665169Y584487D01*
X1667007Y582649D01*
X1669259Y581349D01*
X1671770Y580676D01*
X1674370D01*
X1676881Y581349D01*
X1679133Y582649D01*
X1680971Y584487D01*
X1682271Y586739D01*
X1682944Y589250D01*
Y591850D01*
X1682271Y594361D01*
X1680971Y596613D01*
X1679133Y598451D01*
X1676881Y599751D01*
X1674370Y600424D01*
D02*
G37*
G36*
X1553210Y585222D02*
Y578250D01*
X1560182D01*
X1559665Y580180D01*
X1558574Y582070D01*
X1557030Y583614D01*
X1555140Y584705D01*
X1553210Y585222D01*
D02*
G37*
G36*
X1524000D02*
Y578250D01*
X1530972D01*
X1530455Y580180D01*
X1529364Y582070D01*
X1527820Y583614D01*
X1525930Y584705D01*
X1524000Y585222D01*
D02*
G37*
G36*
X1496060D02*
Y578250D01*
X1503032D01*
X1502515Y580180D01*
X1501424Y582070D01*
X1499880Y583614D01*
X1497990Y584705D01*
X1496060Y585222D01*
D02*
G37*
G36*
X1465580D02*
Y578250D01*
X1472552D01*
X1472035Y580180D01*
X1470944Y582070D01*
X1469400Y583614D01*
X1467510Y584705D01*
X1465580Y585222D01*
D02*
G37*
G36*
X1435100D02*
Y578250D01*
X1442072D01*
X1441555Y580180D01*
X1440464Y582070D01*
X1438920Y583614D01*
X1437030Y584705D01*
X1435100Y585222D01*
D02*
G37*
G36*
X1402080D02*
Y578250D01*
X1409052D01*
X1408535Y580180D01*
X1407444Y582070D01*
X1405900Y583614D01*
X1404010Y584705D01*
X1402080Y585222D01*
D02*
G37*
G36*
X1550670D02*
X1548740Y584705D01*
X1546850Y583614D01*
X1545306Y582070D01*
X1544215Y580180D01*
X1543698Y578250D01*
X1550670D01*
Y585222D01*
D02*
G37*
G36*
X1521460D02*
X1519530Y584705D01*
X1517640Y583614D01*
X1516096Y582070D01*
X1515005Y580180D01*
X1514488Y578250D01*
X1521460D01*
Y585222D01*
D02*
G37*
G36*
X1493520D02*
X1491590Y584705D01*
X1489700Y583614D01*
X1488156Y582070D01*
X1487065Y580180D01*
X1486548Y578250D01*
X1493520D01*
Y585222D01*
D02*
G37*
G36*
X1463040D02*
X1461110Y584705D01*
X1459220Y583614D01*
X1457676Y582070D01*
X1456585Y580180D01*
X1456068Y578250D01*
X1463040D01*
Y585222D01*
D02*
G37*
G36*
X1432560D02*
X1430630Y584705D01*
X1428740Y583614D01*
X1427196Y582070D01*
X1426105Y580180D01*
X1425588Y578250D01*
X1432560D01*
Y585222D01*
D02*
G37*
G36*
X1399540D02*
X1397610Y584705D01*
X1395720Y583614D01*
X1394176Y582070D01*
X1393085Y580180D01*
X1392568Y578250D01*
X1399540D01*
Y585222D01*
D02*
G37*
G36*
X1077143Y586350D02*
X1076960D01*
Y576580D01*
X1086730D01*
Y576763D01*
X1085978Y579571D01*
X1084524Y582089D01*
X1082469Y584144D01*
X1079951Y585598D01*
X1077143Y586350D01*
D02*
G37*
G36*
X1074420D02*
X1074237D01*
X1071429Y585598D01*
X1068911Y584144D01*
X1066856Y582089D01*
X1065402Y579571D01*
X1064650Y576763D01*
Y576580D01*
X1074420D01*
Y586350D01*
D02*
G37*
G36*
X801920Y593492D02*
X798818D01*
X795822Y592689D01*
X793136Y591138D01*
X790943Y588945D01*
X789393Y586259D01*
X788590Y583264D01*
Y580162D01*
X789393Y577166D01*
X790943Y574480D01*
X793136Y572287D01*
X795822Y570737D01*
X798818Y569934D01*
X801920D01*
X804915Y570737D01*
X807601Y572287D01*
X809794Y574480D01*
X811345Y577166D01*
X812148Y580162D01*
Y583264D01*
X811345Y586259D01*
X809794Y588945D01*
X807601Y591138D01*
X804915Y592689D01*
X801920Y593492D01*
D02*
G37*
G36*
X757688Y580443D02*
X746639D01*
Y569394D01*
X746991D01*
X750124Y570233D01*
X752933Y571855D01*
X755227Y574149D01*
X756848Y576958D01*
X757688Y580091D01*
Y580443D01*
D02*
G37*
G36*
X744099D02*
X733050D01*
Y580091D01*
X733889Y576958D01*
X735511Y574149D01*
X737805Y571855D01*
X740614Y570233D01*
X743747Y569394D01*
X744099D01*
Y580443D01*
D02*
G37*
G36*
X1560182Y575710D02*
X1553210D01*
Y568738D01*
X1555140Y569255D01*
X1557030Y570346D01*
X1558574Y571890D01*
X1559665Y573780D01*
X1560182Y575710D01*
D02*
G37*
G36*
X1530972D02*
X1524000D01*
Y568738D01*
X1525930Y569255D01*
X1527820Y570346D01*
X1529364Y571890D01*
X1530455Y573780D01*
X1530972Y575710D01*
D02*
G37*
G36*
X1503032D02*
X1496060D01*
Y568738D01*
X1497990Y569255D01*
X1499880Y570346D01*
X1501424Y571890D01*
X1502515Y573780D01*
X1503032Y575710D01*
D02*
G37*
G36*
X1472552D02*
X1465580D01*
Y568738D01*
X1467510Y569255D01*
X1469400Y570346D01*
X1470944Y571890D01*
X1472035Y573780D01*
X1472552Y575710D01*
D02*
G37*
G36*
X1442072D02*
X1435100D01*
Y568738D01*
X1437030Y569255D01*
X1438920Y570346D01*
X1440464Y571890D01*
X1441555Y573780D01*
X1442072Y575710D01*
D02*
G37*
G36*
X1409052D02*
X1402080D01*
Y568738D01*
X1404010Y569255D01*
X1405900Y570346D01*
X1407444Y571890D01*
X1408535Y573780D01*
X1409052Y575710D01*
D02*
G37*
G36*
X1493520D02*
X1486548D01*
X1487065Y573780D01*
X1488156Y571890D01*
X1489700Y570346D01*
X1491590Y569255D01*
X1493520Y568738D01*
Y575710D01*
D02*
G37*
G36*
X1463040D02*
X1456068D01*
X1456585Y573780D01*
X1457676Y571890D01*
X1459220Y570346D01*
X1461110Y569255D01*
X1463040Y568738D01*
Y575710D01*
D02*
G37*
G36*
X1432560D02*
X1425588D01*
X1426105Y573780D01*
X1427196Y571890D01*
X1428740Y570346D01*
X1430630Y569255D01*
X1432560Y568738D01*
Y575710D01*
D02*
G37*
G36*
X1399540D02*
X1392568D01*
X1393085Y573780D01*
X1394176Y571890D01*
X1395720Y570346D01*
X1397610Y569255D01*
X1399540Y568738D01*
Y575710D01*
D02*
G37*
G36*
X1550670D02*
X1543698D01*
X1544215Y573780D01*
X1545306Y571890D01*
X1546850Y570346D01*
X1548740Y569255D01*
X1550670Y568738D01*
Y575710D01*
D02*
G37*
G36*
X1521460D02*
X1514488D01*
X1515005Y573780D01*
X1516096Y571890D01*
X1517640Y570346D01*
X1519530Y569255D01*
X1521460Y568738D01*
Y575710D01*
D02*
G37*
G36*
X1086730Y574040D02*
X1076960D01*
Y564270D01*
X1077143D01*
X1079951Y565022D01*
X1082469Y566476D01*
X1084524Y568531D01*
X1085978Y571049D01*
X1086730Y573857D01*
Y574040D01*
D02*
G37*
G36*
X1074420D02*
X1064650D01*
Y573857D01*
X1065402Y571049D01*
X1066856Y568531D01*
X1068911Y566476D01*
X1071429Y565022D01*
X1074237Y564270D01*
X1074420D01*
Y574040D01*
D02*
G37*
G36*
X1704441Y570964D02*
X1704340D01*
Y561820D01*
X1713484D01*
Y561921D01*
X1712774Y564570D01*
X1711403Y566944D01*
X1709464Y568883D01*
X1707090Y570254D01*
X1704441Y570964D01*
D02*
G37*
G36*
X1701800D02*
X1701699D01*
X1699050Y570254D01*
X1696676Y568883D01*
X1694737Y566944D01*
X1693366Y564570D01*
X1692656Y561921D01*
Y561820D01*
X1701800D01*
Y570964D01*
D02*
G37*
G36*
X1366245Y567610D02*
X1364255D01*
X1362418Y566849D01*
X1361011Y565442D01*
X1360250Y563605D01*
Y561615D01*
X1361011Y559778D01*
X1362418Y558371D01*
X1364255Y557610D01*
X1366245D01*
X1368082Y558371D01*
X1369489Y559778D01*
X1370250Y561615D01*
Y563605D01*
X1369489Y565442D01*
X1368082Y566849D01*
X1366245Y567610D01*
D02*
G37*
G36*
X1618552Y559770D02*
X1618500D01*
Y551000D01*
X1627270D01*
Y551052D01*
X1626586Y553605D01*
X1625264Y555895D01*
X1623395Y557764D01*
X1621105Y559086D01*
X1618552Y559770D01*
D02*
G37*
G36*
X1615960D02*
X1615908D01*
X1613355Y559086D01*
X1611065Y557764D01*
X1609196Y555895D01*
X1607874Y553605D01*
X1607190Y551052D01*
Y551000D01*
X1615960D01*
Y559770D01*
D02*
G37*
G36*
X1674370Y570424D02*
X1671770D01*
X1669259Y569751D01*
X1667007Y568451D01*
X1665169Y566613D01*
X1663869Y564361D01*
X1663196Y561850D01*
Y559250D01*
X1663869Y556739D01*
X1665169Y554487D01*
X1667007Y552649D01*
X1669259Y551349D01*
X1671770Y550676D01*
X1674370D01*
X1676881Y551349D01*
X1679133Y552649D01*
X1680971Y554487D01*
X1682271Y556739D01*
X1682944Y559250D01*
Y561850D01*
X1682271Y564361D01*
X1680971Y566613D01*
X1679133Y568451D01*
X1676881Y569751D01*
X1674370Y570424D01*
D02*
G37*
G36*
X1713484Y559280D02*
X1704340D01*
Y550136D01*
X1704441D01*
X1707090Y550846D01*
X1709464Y552217D01*
X1711403Y554156D01*
X1712774Y556530D01*
X1713484Y559179D01*
Y559280D01*
D02*
G37*
G36*
X1701800D02*
X1692656D01*
Y559179D01*
X1693366Y556530D01*
X1694737Y554156D01*
X1696676Y552217D01*
X1699050Y550846D01*
X1701699Y550136D01*
X1701800D01*
Y559280D01*
D02*
G37*
G36*
X1330561Y553765D02*
X1330310D01*
Y543480D01*
X1340595D01*
Y543731D01*
X1339807Y546670D01*
X1338286Y549305D01*
X1336135Y551456D01*
X1333500Y552977D01*
X1330561Y553765D01*
D02*
G37*
G36*
X1327770D02*
X1327519D01*
X1324580Y552977D01*
X1321945Y551456D01*
X1319794Y549305D01*
X1318273Y546670D01*
X1317485Y543731D01*
Y543480D01*
X1327770D01*
Y553765D01*
D02*
G37*
G36*
X1627270Y548460D02*
X1618500D01*
Y539690D01*
X1618552D01*
X1621105Y540374D01*
X1623395Y541696D01*
X1625264Y543565D01*
X1626586Y545855D01*
X1627270Y548408D01*
Y548460D01*
D02*
G37*
G36*
X1615960D02*
X1607190D01*
Y548408D01*
X1607874Y545855D01*
X1609196Y543565D01*
X1611065Y541696D01*
X1613355Y540374D01*
X1615908Y539690D01*
X1615960D01*
Y548460D01*
D02*
G37*
G36*
X1704441Y540964D02*
X1704340D01*
Y531820D01*
X1713484D01*
Y531921D01*
X1712774Y534570D01*
X1711403Y536944D01*
X1709464Y538883D01*
X1707090Y540254D01*
X1704441Y540964D01*
D02*
G37*
G36*
X1701800D02*
X1701699D01*
X1699050Y540254D01*
X1696676Y538883D01*
X1694737Y536944D01*
X1693366Y534570D01*
X1692656Y531921D01*
Y531820D01*
X1701800D01*
Y540964D01*
D02*
G37*
G36*
X1169667Y550640D02*
X1167133D01*
X1164687Y549984D01*
X1162493Y548718D01*
X1160702Y546927D01*
X1159436Y544733D01*
X1158780Y542286D01*
Y539753D01*
X1159436Y537307D01*
X1160702Y535113D01*
X1162493Y533322D01*
X1164687Y532056D01*
X1167133Y531400D01*
X1169667D01*
X1172113Y532056D01*
X1174307Y533322D01*
X1176098Y535113D01*
X1177364Y537307D01*
X1178020Y539753D01*
Y542286D01*
X1177364Y544733D01*
X1176098Y546927D01*
X1174307Y548718D01*
X1172113Y549984D01*
X1169667Y550640D01*
D02*
G37*
G36*
X1205490Y553225D02*
X1202590D01*
X1199788Y552474D01*
X1197277Y551024D01*
X1195226Y548973D01*
X1193776Y546462D01*
X1193025Y543660D01*
Y540760D01*
X1193776Y537958D01*
X1195226Y535447D01*
X1197277Y533396D01*
X1199788Y531946D01*
X1202590Y531195D01*
X1205490D01*
X1208292Y531946D01*
X1210803Y533396D01*
X1212854Y535447D01*
X1214304Y537958D01*
X1215055Y540760D01*
Y543660D01*
X1214304Y546462D01*
X1212854Y548973D01*
X1210803Y551024D01*
X1208292Y552474D01*
X1205490Y553225D01*
D02*
G37*
G36*
X1340595Y540940D02*
X1330310D01*
Y530655D01*
X1330561D01*
X1333500Y531442D01*
X1336135Y532964D01*
X1338286Y535115D01*
X1339807Y537750D01*
X1340595Y540689D01*
Y540940D01*
D02*
G37*
G36*
X1327770D02*
X1317485D01*
Y540689D01*
X1318273Y537750D01*
X1319794Y535115D01*
X1321945Y532964D01*
X1324580Y531442D01*
X1327519Y530655D01*
X1327770D01*
Y540940D01*
D02*
G37*
G36*
X1674370Y540424D02*
X1671770D01*
X1669259Y539751D01*
X1667007Y538451D01*
X1665169Y536613D01*
X1663869Y534361D01*
X1663196Y531850D01*
Y529250D01*
X1663869Y526739D01*
X1665169Y524487D01*
X1667007Y522649D01*
X1669259Y521349D01*
X1671770Y520676D01*
X1674370D01*
X1676881Y521349D01*
X1679133Y522649D01*
X1680971Y524487D01*
X1682271Y526739D01*
X1682944Y529250D01*
Y531850D01*
X1682271Y534361D01*
X1680971Y536613D01*
X1679133Y538451D01*
X1676881Y539751D01*
X1674370Y540424D01*
D02*
G37*
G36*
X1713484Y529280D02*
X1704340D01*
Y520136D01*
X1704441D01*
X1707090Y520846D01*
X1709464Y522217D01*
X1711403Y524156D01*
X1712774Y526530D01*
X1713484Y529179D01*
Y529280D01*
D02*
G37*
G36*
X1701800D02*
X1692656D01*
Y529179D01*
X1693366Y526530D01*
X1694737Y524156D01*
X1696676Y522217D01*
X1699050Y520846D01*
X1701699Y520136D01*
X1701800D01*
Y529280D01*
D02*
G37*
G36*
X1596976Y514120D02*
X1594444D01*
X1591997Y513464D01*
X1589803Y512198D01*
X1588012Y510407D01*
X1586746Y508213D01*
X1586090Y505766D01*
Y503233D01*
X1586746Y500787D01*
X1588012Y498593D01*
X1589803Y496802D01*
X1591997Y495536D01*
X1594444Y494880D01*
X1596976D01*
X1599423Y495536D01*
X1601617Y496802D01*
X1603408Y498593D01*
X1604674Y500787D01*
X1605330Y503233D01*
Y505766D01*
X1604674Y508213D01*
X1603408Y510407D01*
X1601617Y512198D01*
X1599423Y513464D01*
X1596976Y514120D01*
D02*
G37*
G36*
X1482677D02*
X1480143D01*
X1477697Y513464D01*
X1475503Y512198D01*
X1473712Y510407D01*
X1472446Y508213D01*
X1471790Y505766D01*
Y503233D01*
X1472446Y500787D01*
X1473712Y498593D01*
X1475503Y496802D01*
X1477697Y495536D01*
X1480143Y494880D01*
X1482677D01*
X1485123Y495536D01*
X1487317Y496802D01*
X1489108Y498593D01*
X1490374Y500787D01*
X1491030Y503233D01*
Y505766D01*
X1490374Y508213D01*
X1489108Y510407D01*
X1487317Y512198D01*
X1485123Y513464D01*
X1482677Y514120D01*
D02*
G37*
G36*
X1201245Y504250D02*
X1199255D01*
X1197418Y503489D01*
X1196011Y502082D01*
X1195250Y500245D01*
Y498255D01*
X1196011Y496418D01*
X1197418Y495011D01*
X1199255Y494250D01*
X1201245D01*
X1203082Y495011D01*
X1204489Y496418D01*
X1205250Y498255D01*
Y500245D01*
X1204489Y502082D01*
X1203082Y503489D01*
X1201245Y504250D01*
D02*
G37*
G36*
X1664635Y507884D02*
X1662704D01*
X1660839Y507384D01*
X1659167Y506419D01*
X1657801Y505053D01*
X1656836Y503381D01*
X1656336Y501516D01*
Y499585D01*
X1656836Y497719D01*
X1657801Y496047D01*
X1659167Y494681D01*
X1660839Y493716D01*
X1662704Y493216D01*
X1664635D01*
X1666501Y493716D01*
X1668173Y494681D01*
X1669539Y496047D01*
X1670504Y497719D01*
X1671004Y499585D01*
Y501516D01*
X1670504Y503381D01*
X1669539Y505053D01*
X1668173Y506419D01*
X1666501Y507384D01*
X1664635Y507884D01*
D02*
G37*
G36*
X1347538Y485140D02*
X1347470D01*
Y476250D01*
X1356360D01*
Y476318D01*
X1355668Y478902D01*
X1354330Y481218D01*
X1352438Y483110D01*
X1350122Y484448D01*
X1347538Y485140D01*
D02*
G37*
G36*
X1344930D02*
X1344862D01*
X1342278Y484448D01*
X1339962Y483110D01*
X1338070Y481218D01*
X1336732Y478902D01*
X1336040Y476318D01*
Y476250D01*
X1344930D01*
Y485140D01*
D02*
G37*
G36*
X1506767Y479806D02*
X1506700D01*
Y470916D01*
X1515590D01*
Y470984D01*
X1514897Y473568D01*
X1513560Y475884D01*
X1511668Y477776D01*
X1509352Y479114D01*
X1506767Y479806D01*
D02*
G37*
G36*
X1504160D02*
X1504092D01*
X1501508Y479114D01*
X1499191Y477776D01*
X1497300Y475884D01*
X1495962Y473568D01*
X1495270Y470984D01*
Y470916D01*
X1504160D01*
Y479806D01*
D02*
G37*
G36*
X1665517Y477266D02*
X1665450D01*
Y468376D01*
X1674340D01*
Y468444D01*
X1673647Y471028D01*
X1672310Y473344D01*
X1670418Y475236D01*
X1668102Y476574D01*
X1665517Y477266D01*
D02*
G37*
G36*
X1662910D02*
X1662842D01*
X1660258Y476574D01*
X1657941Y475236D01*
X1656050Y473344D01*
X1654712Y471028D01*
X1654020Y468444D01*
Y468376D01*
X1662910D01*
Y477266D01*
D02*
G37*
G36*
X981964Y473964D02*
X974090D01*
Y466090D01*
X981964D01*
Y473964D01*
D02*
G37*
G36*
X971550D02*
X963676D01*
Y466090D01*
X971550D01*
Y473964D01*
D02*
G37*
G36*
X1233167Y484600D02*
X1230633D01*
X1228187Y483944D01*
X1225993Y482678D01*
X1224202Y480887D01*
X1222936Y478693D01*
X1222280Y476246D01*
Y473713D01*
X1222936Y471267D01*
X1224202Y469073D01*
X1225993Y467282D01*
X1228187Y466016D01*
X1230633Y465360D01*
X1233167D01*
X1235613Y466016D01*
X1237807Y467282D01*
X1239598Y469073D01*
X1240864Y471267D01*
X1241520Y473713D01*
Y476246D01*
X1240864Y478693D01*
X1239598Y480887D01*
X1237807Y482678D01*
X1235613Y483944D01*
X1233167Y484600D01*
D02*
G37*
G36*
X1356360Y473710D02*
X1347470D01*
Y464820D01*
X1347538D01*
X1350122Y465512D01*
X1352438Y466850D01*
X1354330Y468742D01*
X1355668Y471058D01*
X1356360Y473642D01*
Y473710D01*
D02*
G37*
G36*
X1344930D02*
X1336040D01*
Y473642D01*
X1336732Y471058D01*
X1338070Y468742D01*
X1339962Y466850D01*
X1342278Y465512D01*
X1344862Y464820D01*
X1344930D01*
Y473710D01*
D02*
G37*
G36*
X1077072Y484210D02*
X1074308D01*
X1071637Y483494D01*
X1069243Y482112D01*
X1067288Y480157D01*
X1065906Y477763D01*
X1065190Y475092D01*
Y472328D01*
X1065906Y469657D01*
X1067288Y467263D01*
X1069243Y465308D01*
X1071637Y463926D01*
X1074308Y463210D01*
X1077072D01*
X1079743Y463926D01*
X1082137Y465308D01*
X1084092Y467263D01*
X1085474Y469657D01*
X1086190Y472328D01*
Y475092D01*
X1085474Y477763D01*
X1084092Y480157D01*
X1082137Y482112D01*
X1079743Y483494D01*
X1077072Y484210D01*
D02*
G37*
G36*
X1392396Y479266D02*
X1389863D01*
X1387417Y478610D01*
X1385223Y477344D01*
X1383432Y475553D01*
X1382166Y473359D01*
X1381510Y470913D01*
Y468380D01*
X1382166Y465933D01*
X1383432Y463739D01*
X1385223Y461948D01*
X1387417Y460682D01*
X1389863Y460026D01*
X1392396D01*
X1394843Y460682D01*
X1397037Y461948D01*
X1398828Y463739D01*
X1400094Y465933D01*
X1400750Y468380D01*
Y470913D01*
X1400094Y473359D01*
X1398828Y475553D01*
X1397037Y477344D01*
X1394843Y478610D01*
X1392396Y479266D01*
D02*
G37*
G36*
X1515590Y468376D02*
X1506700D01*
Y459486D01*
X1506767D01*
X1509352Y460178D01*
X1511668Y461516D01*
X1513560Y463408D01*
X1514897Y465724D01*
X1515590Y468308D01*
Y468376D01*
D02*
G37*
G36*
X1504160D02*
X1495270D01*
Y468308D01*
X1495962Y465724D01*
X1497300Y463408D01*
X1499191Y461516D01*
X1501508Y460178D01*
X1504092Y459486D01*
X1504160D01*
Y468376D01*
D02*
G37*
G36*
X1551146Y476726D02*
X1548613D01*
X1546167Y476070D01*
X1543973Y474804D01*
X1542182Y473013D01*
X1540916Y470819D01*
X1540260Y468372D01*
Y465840D01*
X1540916Y463393D01*
X1542182Y461199D01*
X1543973Y459408D01*
X1546167Y458142D01*
X1548613Y457486D01*
X1551146D01*
X1553593Y458142D01*
X1555787Y459408D01*
X1557578Y461199D01*
X1558844Y463393D01*
X1559500Y465840D01*
Y468372D01*
X1558844Y470819D01*
X1557578Y473013D01*
X1555787Y474804D01*
X1553593Y476070D01*
X1551146Y476726D01*
D02*
G37*
G36*
X1674340Y465836D02*
X1665450D01*
Y456946D01*
X1665517D01*
X1668102Y457638D01*
X1670418Y458976D01*
X1672310Y460868D01*
X1673647Y463184D01*
X1674340Y465768D01*
Y465836D01*
D02*
G37*
G36*
X1662910D02*
X1654020D01*
Y465768D01*
X1654712Y463184D01*
X1656050Y460868D01*
X1657941Y458976D01*
X1660258Y457638D01*
X1662842Y456946D01*
X1662910D01*
Y465836D01*
D02*
G37*
G36*
X1023953Y473424D02*
X1021687D01*
X1019499Y472838D01*
X1017537Y471705D01*
X1015935Y470103D01*
X1014802Y468141D01*
X1014216Y465953D01*
Y463687D01*
X1014802Y461499D01*
X1015935Y459537D01*
X1017537Y457935D01*
X1019499Y456802D01*
X1021687Y456216D01*
X1023953D01*
X1026141Y456802D01*
X1028103Y457935D01*
X1029705Y459537D01*
X1030838Y461499D01*
X1031424Y463687D01*
Y465953D01*
X1030838Y468141D01*
X1029705Y470103D01*
X1028103Y471705D01*
X1026141Y472838D01*
X1023953Y473424D01*
D02*
G37*
G36*
X981964Y463550D02*
X974090D01*
Y455676D01*
X981964D01*
Y463550D01*
D02*
G37*
G36*
X971550D02*
X963676D01*
Y455676D01*
X971550D01*
Y463550D01*
D02*
G37*
G36*
X871288D02*
X871220D01*
Y454660D01*
X880110D01*
Y454728D01*
X879418Y457312D01*
X878080Y459628D01*
X876188Y461520D01*
X873872Y462858D01*
X871288Y463550D01*
D02*
G37*
G36*
X868680D02*
X868612D01*
X866028Y462858D01*
X863712Y461520D01*
X861820Y459628D01*
X860482Y457312D01*
X859790Y454728D01*
Y454660D01*
X868680D01*
Y463550D01*
D02*
G37*
G36*
X1201145Y460930D02*
X1199155D01*
X1197318Y460169D01*
X1195911Y458762D01*
X1195150Y456925D01*
Y454935D01*
X1195911Y453098D01*
X1197318Y451691D01*
X1199155Y450930D01*
X1201145D01*
X1202982Y451691D01*
X1204389Y453098D01*
X1205150Y454935D01*
Y456925D01*
X1204389Y458762D01*
X1202982Y460169D01*
X1201145Y460930D01*
D02*
G37*
G36*
X756917Y463010D02*
X754383D01*
X751937Y462354D01*
X749743Y461088D01*
X747952Y459297D01*
X746686Y457103D01*
X746030Y454656D01*
Y452123D01*
X746686Y449677D01*
X747952Y447483D01*
X749743Y445692D01*
X751937Y444426D01*
X754383Y443770D01*
X756917D01*
X759363Y444426D01*
X761557Y445692D01*
X763348Y447483D01*
X764614Y449677D01*
X765270Y452123D01*
Y454656D01*
X764614Y457103D01*
X763348Y459297D01*
X761557Y461088D01*
X759363Y462354D01*
X756917Y463010D01*
D02*
G37*
G36*
X880110Y452120D02*
X871220D01*
Y443230D01*
X871288D01*
X873872Y443922D01*
X876188Y445260D01*
X878080Y447152D01*
X879418Y449468D01*
X880110Y452052D01*
Y452120D01*
D02*
G37*
G36*
X868680D02*
X859790D01*
Y452052D01*
X860482Y449468D01*
X861820Y447152D01*
X863712Y445260D01*
X866028Y443922D01*
X868612Y443230D01*
X868680D01*
Y452120D01*
D02*
G37*
G36*
X1367068Y448056D02*
X1367000D01*
Y439166D01*
X1375890D01*
Y439234D01*
X1375197Y441818D01*
X1373860Y444134D01*
X1371968Y446026D01*
X1369651Y447364D01*
X1367068Y448056D01*
D02*
G37*
G36*
X1364460D02*
X1364392D01*
X1361808Y447364D01*
X1359491Y446026D01*
X1357600Y444134D01*
X1356262Y441818D01*
X1355570Y439234D01*
Y439166D01*
X1364460D01*
Y448056D01*
D02*
G37*
G36*
X1532168Y446786D02*
X1532100D01*
Y437896D01*
X1540990D01*
Y437964D01*
X1540298Y440548D01*
X1538960Y442864D01*
X1537068Y444756D01*
X1534751Y446094D01*
X1532168Y446786D01*
D02*
G37*
G36*
X1529560D02*
X1529492D01*
X1526908Y446094D01*
X1524592Y444756D01*
X1522700Y442864D01*
X1521362Y440548D01*
X1520670Y437964D01*
Y437896D01*
X1529560D01*
Y446786D01*
D02*
G37*
G36*
X1077072Y458810D02*
X1074308D01*
X1071637Y458094D01*
X1069243Y456712D01*
X1067288Y454757D01*
X1065906Y452363D01*
X1065190Y449692D01*
Y446928D01*
X1065906Y444257D01*
X1067288Y441863D01*
X1069243Y439908D01*
X1071637Y438526D01*
X1074308Y437810D01*
X1077072D01*
X1079743Y438526D01*
X1082137Y439908D01*
X1084092Y441863D01*
X1085474Y444257D01*
X1086190Y446928D01*
Y449692D01*
X1085474Y452363D01*
X1084092Y454757D01*
X1082137Y456712D01*
X1079743Y458094D01*
X1077072Y458810D01*
D02*
G37*
G36*
X1718378Y445770D02*
X1718310D01*
Y436880D01*
X1727200D01*
Y436948D01*
X1726508Y439532D01*
X1725170Y441848D01*
X1723278Y443740D01*
X1720962Y445078D01*
X1718378Y445770D01*
D02*
G37*
G36*
X1715770D02*
X1715702D01*
X1713118Y445078D01*
X1710802Y443740D01*
X1708910Y441848D01*
X1707572Y439532D01*
X1706880Y436948D01*
Y436880D01*
X1715770D01*
Y445770D01*
D02*
G37*
G36*
X1252696Y447516D02*
X1250163D01*
X1247717Y446860D01*
X1245523Y445594D01*
X1243732Y443803D01*
X1242466Y441609D01*
X1241810Y439162D01*
Y436629D01*
X1242466Y434183D01*
X1243732Y431989D01*
X1245523Y430198D01*
X1247717Y428932D01*
X1250163Y428276D01*
X1252696D01*
X1255143Y428932D01*
X1257337Y430198D01*
X1259128Y431989D01*
X1260394Y434183D01*
X1261050Y436629D01*
Y439162D01*
X1260394Y441609D01*
X1259128Y443803D01*
X1257337Y445594D01*
X1255143Y446860D01*
X1252696Y447516D01*
D02*
G37*
G36*
X1375890Y436626D02*
X1367000D01*
Y427736D01*
X1367068D01*
X1369651Y428428D01*
X1371968Y429766D01*
X1373860Y431658D01*
X1375197Y433974D01*
X1375890Y436558D01*
Y436626D01*
D02*
G37*
G36*
X1364460D02*
X1355570D01*
Y436558D01*
X1356262Y433974D01*
X1357600Y431658D01*
X1359491Y429766D01*
X1361808Y428428D01*
X1364392Y427736D01*
X1364460D01*
Y436626D01*
D02*
G37*
G36*
X1417796Y446246D02*
X1415263D01*
X1412817Y445590D01*
X1410623Y444324D01*
X1408832Y442533D01*
X1407565Y440339D01*
X1406910Y437892D01*
Y435359D01*
X1407565Y432913D01*
X1408832Y430719D01*
X1410623Y428928D01*
X1412817Y427662D01*
X1415263Y427006D01*
X1417796D01*
X1420243Y427662D01*
X1422437Y428928D01*
X1424228Y430719D01*
X1425494Y432913D01*
X1426150Y435359D01*
Y437892D01*
X1425494Y440339D01*
X1424228Y442533D01*
X1422437Y444324D01*
X1420243Y445590D01*
X1417796Y446246D01*
D02*
G37*
G36*
X1540990Y435356D02*
X1532100D01*
Y426466D01*
X1532168D01*
X1534751Y427158D01*
X1537068Y428496D01*
X1538960Y430388D01*
X1540298Y432704D01*
X1540990Y435288D01*
Y435356D01*
D02*
G37*
G36*
X1529560D02*
X1520670D01*
Y435288D01*
X1521362Y432704D01*
X1522700Y430388D01*
X1524592Y428496D01*
X1526908Y427158D01*
X1529492Y426466D01*
X1529560D01*
Y435356D01*
D02*
G37*
G36*
X1604007Y445230D02*
X1601474D01*
X1599027Y444574D01*
X1596833Y443308D01*
X1595042Y441517D01*
X1593776Y439323D01*
X1593120Y436876D01*
Y434343D01*
X1593776Y431897D01*
X1595042Y429703D01*
X1596833Y427912D01*
X1599027Y426646D01*
X1601474Y425990D01*
X1604007D01*
X1606453Y426646D01*
X1608647Y427912D01*
X1610438Y429703D01*
X1611704Y431897D01*
X1612360Y434343D01*
Y436876D01*
X1611704Y439323D01*
X1610438Y441517D01*
X1608647Y443308D01*
X1606453Y444574D01*
X1604007Y445230D01*
D02*
G37*
G36*
X1727200Y434340D02*
X1718310D01*
Y425450D01*
X1718378D01*
X1720962Y426142D01*
X1723278Y427480D01*
X1725170Y429372D01*
X1726508Y431688D01*
X1727200Y434272D01*
Y434340D01*
D02*
G37*
G36*
X1715770D02*
X1706880D01*
Y434272D01*
X1707572Y431688D01*
X1708910Y429372D01*
X1710802Y427480D01*
X1713118Y426142D01*
X1715702Y425450D01*
X1715770D01*
Y434340D01*
D02*
G37*
G36*
X899228Y429260D02*
X899160D01*
Y420370D01*
X908050D01*
Y420438D01*
X907358Y423022D01*
X906020Y425338D01*
X904128Y427230D01*
X901812Y428568D01*
X899228Y429260D01*
D02*
G37*
G36*
X896620D02*
X896552D01*
X893968Y428568D01*
X891652Y427230D01*
X889760Y425338D01*
X888422Y423022D01*
X887730Y420438D01*
Y420370D01*
X896620D01*
Y429260D01*
D02*
G37*
G36*
X980694Y421894D02*
X972820D01*
Y414020D01*
X980694D01*
Y421894D01*
D02*
G37*
G36*
X970280D02*
X962406D01*
Y414020D01*
X970280D01*
Y421894D01*
D02*
G37*
G36*
X1077072Y433410D02*
X1074308D01*
X1071637Y432694D01*
X1069243Y431312D01*
X1067288Y429357D01*
X1065906Y426963D01*
X1065190Y424292D01*
Y421528D01*
X1065906Y418857D01*
X1067288Y416463D01*
X1069243Y414508D01*
X1071637Y413126D01*
X1074308Y412410D01*
X1077072D01*
X1079743Y413126D01*
X1082137Y414508D01*
X1084092Y416463D01*
X1085474Y418857D01*
X1086190Y421528D01*
Y424292D01*
X1085474Y426963D01*
X1084092Y429357D01*
X1082137Y431312D01*
X1079743Y432694D01*
X1077072Y433410D01*
D02*
G37*
G36*
X784856Y428720D02*
X782324D01*
X779877Y428064D01*
X777683Y426798D01*
X775892Y425007D01*
X774626Y422813D01*
X773970Y420367D01*
Y417834D01*
X774626Y415387D01*
X775892Y413193D01*
X777683Y411402D01*
X779877Y410136D01*
X782324Y409480D01*
X784856D01*
X787303Y410136D01*
X789497Y411402D01*
X791288Y413193D01*
X792554Y415387D01*
X793210Y417834D01*
Y420367D01*
X792554Y422813D01*
X791288Y425007D01*
X789497Y426798D01*
X787303Y428064D01*
X784856Y428720D01*
D02*
G37*
G36*
X908050Y417830D02*
X899160D01*
Y408940D01*
X899228D01*
X901812Y409632D01*
X904128Y410970D01*
X906020Y412862D01*
X907358Y415178D01*
X908050Y417762D01*
Y417830D01*
D02*
G37*
G36*
X896620D02*
X887730D01*
Y417762D01*
X888422Y415178D01*
X889760Y412862D01*
X891652Y410970D01*
X893968Y409632D01*
X896552Y408940D01*
X896620D01*
Y417830D01*
D02*
G37*
G36*
X1022683Y421354D02*
X1020417D01*
X1018229Y420768D01*
X1016267Y419635D01*
X1014665Y418033D01*
X1013532Y416071D01*
X1012946Y413883D01*
Y411617D01*
X1013532Y409429D01*
X1014665Y407467D01*
X1016267Y405865D01*
X1018229Y404732D01*
X1020417Y404146D01*
X1022683D01*
X1024871Y404732D01*
X1026833Y405865D01*
X1028435Y407467D01*
X1029568Y409429D01*
X1030154Y411617D01*
Y413883D01*
X1029568Y416071D01*
X1028435Y418033D01*
X1026833Y419635D01*
X1024871Y420768D01*
X1022683Y421354D01*
D02*
G37*
G36*
X980694Y411480D02*
X972820D01*
Y403606D01*
X980694D01*
Y411480D01*
D02*
G37*
G36*
X970280D02*
X962406D01*
Y403606D01*
X970280D01*
Y411480D01*
D02*
G37*
G36*
X1077072Y408010D02*
X1074308D01*
X1071637Y407294D01*
X1069243Y405912D01*
X1067288Y403957D01*
X1065906Y401563D01*
X1065190Y398892D01*
Y396128D01*
X1065906Y393457D01*
X1067288Y391063D01*
X1069243Y389108D01*
X1071637Y387726D01*
X1074308Y387010D01*
X1077072D01*
X1079743Y387726D01*
X1082137Y389108D01*
X1084092Y391063D01*
X1085474Y393457D01*
X1086190Y396128D01*
Y398892D01*
X1085474Y401563D01*
X1084092Y403957D01*
X1082137Y405912D01*
X1079743Y407294D01*
X1077072Y408010D01*
D02*
G37*
G36*
X1650311Y394970D02*
X1650210D01*
Y385826D01*
X1659354D01*
Y385927D01*
X1658644Y388576D01*
X1657273Y390950D01*
X1655334Y392889D01*
X1652960Y394260D01*
X1650311Y394970D01*
D02*
G37*
G36*
X1489331D02*
X1489230D01*
Y385826D01*
X1498374D01*
Y385927D01*
X1497664Y388576D01*
X1496293Y390950D01*
X1494354Y392889D01*
X1491980Y394260D01*
X1489331Y394970D01*
D02*
G37*
G36*
X1486690D02*
X1486589D01*
X1483940Y394260D01*
X1481566Y392889D01*
X1479627Y390950D01*
X1478256Y388576D01*
X1477546Y385927D01*
Y385826D01*
X1486690D01*
Y394970D01*
D02*
G37*
G36*
X1647670D02*
X1647569D01*
X1644920Y394260D01*
X1642546Y392889D01*
X1640607Y390950D01*
X1639236Y388576D01*
X1638526Y385927D01*
Y385826D01*
X1647670D01*
Y394970D01*
D02*
G37*
G36*
X1329791Y394490D02*
X1329690D01*
Y385346D01*
X1338834D01*
Y385447D01*
X1338124Y388096D01*
X1336753Y390470D01*
X1334814Y392409D01*
X1332440Y393780D01*
X1329791Y394490D01*
D02*
G37*
G36*
X1327150D02*
X1327049D01*
X1324400Y393780D01*
X1322026Y392409D01*
X1320087Y390470D01*
X1318716Y388096D01*
X1318006Y385447D01*
Y385346D01*
X1327150D01*
Y394490D01*
D02*
G37*
G36*
X1175126Y398964D02*
X1172794D01*
X1170541Y398360D01*
X1168521Y397194D01*
X1166872Y395545D01*
X1165706Y393525D01*
X1165102Y391272D01*
Y388940D01*
X1165706Y386687D01*
X1166872Y384667D01*
X1168521Y383018D01*
X1170541Y381852D01*
X1172794Y381248D01*
X1175126D01*
X1177379Y381852D01*
X1179399Y383018D01*
X1181048Y384667D01*
X1182214Y386687D01*
X1182818Y388940D01*
Y391272D01*
X1182214Y393525D01*
X1181048Y395545D01*
X1179399Y397194D01*
X1177379Y398360D01*
X1175126Y398964D01*
D02*
G37*
G36*
X1620240Y394430D02*
X1617640D01*
X1615129Y393757D01*
X1612877Y392457D01*
X1611039Y390619D01*
X1609739Y388367D01*
X1609066Y385856D01*
Y383256D01*
X1609739Y380745D01*
X1611039Y378493D01*
X1612877Y376655D01*
X1615129Y375355D01*
X1617640Y374682D01*
X1620240D01*
X1622751Y375355D01*
X1625003Y376655D01*
X1626841Y378493D01*
X1628141Y380745D01*
X1628814Y383256D01*
Y385856D01*
X1628141Y388367D01*
X1626841Y390619D01*
X1625003Y392457D01*
X1622751Y393757D01*
X1620240Y394430D01*
D02*
G37*
G36*
X1590240D02*
X1587640D01*
X1585129Y393757D01*
X1582877Y392457D01*
X1581039Y390619D01*
X1579739Y388367D01*
X1579066Y385856D01*
Y383256D01*
X1579739Y380745D01*
X1581039Y378493D01*
X1582877Y376655D01*
X1585129Y375355D01*
X1587640Y374682D01*
X1590240D01*
X1592751Y375355D01*
X1595003Y376655D01*
X1596841Y378493D01*
X1598141Y380745D01*
X1598814Y383256D01*
Y385856D01*
X1598141Y388367D01*
X1596841Y390619D01*
X1595003Y392457D01*
X1592751Y393757D01*
X1590240Y394430D01*
D02*
G37*
G36*
X1459260D02*
X1456660D01*
X1454149Y393757D01*
X1451897Y392457D01*
X1450059Y390619D01*
X1448759Y388367D01*
X1448086Y385856D01*
Y383256D01*
X1448759Y380745D01*
X1450059Y378493D01*
X1451897Y376655D01*
X1454149Y375355D01*
X1456660Y374682D01*
X1459260D01*
X1461771Y375355D01*
X1464023Y376655D01*
X1465861Y378493D01*
X1467161Y380745D01*
X1467834Y383256D01*
Y385856D01*
X1467161Y388367D01*
X1465861Y390619D01*
X1464023Y392457D01*
X1461771Y393757D01*
X1459260Y394430D01*
D02*
G37*
G36*
X1429260D02*
X1426660D01*
X1424149Y393757D01*
X1421897Y392457D01*
X1420059Y390619D01*
X1418759Y388367D01*
X1418086Y385856D01*
Y383256D01*
X1418759Y380745D01*
X1420059Y378493D01*
X1421897Y376655D01*
X1424149Y375355D01*
X1426660Y374682D01*
X1429260D01*
X1431771Y375355D01*
X1434023Y376655D01*
X1435861Y378493D01*
X1437161Y380745D01*
X1437834Y383256D01*
Y385856D01*
X1437161Y388367D01*
X1435861Y390619D01*
X1434023Y392457D01*
X1431771Y393757D01*
X1429260Y394430D01*
D02*
G37*
G36*
X1299720Y393950D02*
X1297120D01*
X1294609Y393277D01*
X1292357Y391977D01*
X1290519Y390139D01*
X1289219Y387887D01*
X1288546Y385376D01*
Y382776D01*
X1289219Y380265D01*
X1290519Y378013D01*
X1292357Y376175D01*
X1294609Y374875D01*
X1297120Y374202D01*
X1299720D01*
X1302231Y374875D01*
X1304483Y376175D01*
X1306321Y378013D01*
X1307621Y380265D01*
X1308294Y382776D01*
Y385376D01*
X1307621Y387887D01*
X1306321Y390139D01*
X1304483Y391977D01*
X1302231Y393277D01*
X1299720Y393950D01*
D02*
G37*
G36*
X1269720D02*
X1267120D01*
X1264609Y393277D01*
X1262357Y391977D01*
X1260519Y390139D01*
X1259219Y387887D01*
X1258546Y385376D01*
Y382776D01*
X1259219Y380265D01*
X1260519Y378013D01*
X1262357Y376175D01*
X1264609Y374875D01*
X1267120Y374202D01*
X1269720D01*
X1272231Y374875D01*
X1274483Y376175D01*
X1276321Y378013D01*
X1277621Y380265D01*
X1278294Y382776D01*
Y385376D01*
X1277621Y387887D01*
X1276321Y390139D01*
X1274483Y391977D01*
X1272231Y393277D01*
X1269720Y393950D01*
D02*
G37*
G36*
X1659354Y383286D02*
X1650210D01*
Y374142D01*
X1650311D01*
X1652960Y374852D01*
X1655334Y376223D01*
X1657273Y378162D01*
X1658644Y380536D01*
X1659354Y383185D01*
Y383286D01*
D02*
G37*
G36*
X1647670D02*
X1638526D01*
Y383185D01*
X1639236Y380536D01*
X1640607Y378162D01*
X1642546Y376223D01*
X1644920Y374852D01*
X1647569Y374142D01*
X1647670D01*
Y383286D01*
D02*
G37*
G36*
X1498374D02*
X1489230D01*
Y374142D01*
X1489331D01*
X1491980Y374852D01*
X1494354Y376223D01*
X1496293Y378162D01*
X1497664Y380536D01*
X1498374Y383185D01*
Y383286D01*
D02*
G37*
G36*
X1486690D02*
X1477546D01*
Y383185D01*
X1478256Y380536D01*
X1479627Y378162D01*
X1481566Y376223D01*
X1483940Y374852D01*
X1486589Y374142D01*
X1486690D01*
Y383286D01*
D02*
G37*
G36*
X1338834Y382806D02*
X1329690D01*
Y373662D01*
X1329791D01*
X1332440Y374372D01*
X1334814Y375743D01*
X1336753Y377682D01*
X1338124Y380056D01*
X1338834Y382705D01*
Y382806D01*
D02*
G37*
G36*
X1327150D02*
X1318006D01*
Y382705D01*
X1318716Y380056D01*
X1320087Y377682D01*
X1322026Y375743D01*
X1324400Y374372D01*
X1327049Y373662D01*
X1327150D01*
Y382806D01*
D02*
G37*
G36*
X1077143Y370450D02*
X1076960D01*
Y360680D01*
X1086730D01*
Y360863D01*
X1085978Y363671D01*
X1084524Y366189D01*
X1082469Y368244D01*
X1079951Y369698D01*
X1077143Y370450D01*
D02*
G37*
G36*
X1074420D02*
X1074237D01*
X1071429Y369698D01*
X1068911Y368244D01*
X1066856Y366189D01*
X1065402Y363671D01*
X1064650Y360863D01*
Y360680D01*
X1074420D01*
Y370450D01*
D02*
G37*
G36*
X965552Y368310D02*
X965200D01*
Y357260D01*
X976250D01*
Y357612D01*
X975410Y360745D01*
X973788Y363555D01*
X971495Y365848D01*
X968685Y367470D01*
X965552Y368310D01*
D02*
G37*
G36*
X923552D02*
X923200D01*
Y357260D01*
X934250D01*
Y357612D01*
X933410Y360745D01*
X931788Y363555D01*
X929495Y365848D01*
X926685Y367470D01*
X923552Y368310D01*
D02*
G37*
G36*
X920660D02*
X920308D01*
X917175Y367470D01*
X914365Y365848D01*
X912072Y363555D01*
X910450Y360745D01*
X909610Y357612D01*
Y357260D01*
X920660D01*
Y368310D01*
D02*
G37*
G36*
X962660D02*
X962308D01*
X959175Y367470D01*
X956365Y365848D01*
X954072Y363555D01*
X952450Y360745D01*
X951610Y357612D01*
Y357260D01*
X962660D01*
Y368310D01*
D02*
G37*
G36*
X1429331Y364970D02*
X1429230D01*
Y355826D01*
X1438374D01*
Y355927D01*
X1437664Y358576D01*
X1436293Y360950D01*
X1434354Y362889D01*
X1431980Y364260D01*
X1429331Y364970D01*
D02*
G37*
G36*
X1590311D02*
X1590210D01*
Y355826D01*
X1599354D01*
Y355927D01*
X1598644Y358576D01*
X1597273Y360950D01*
X1595334Y362889D01*
X1592960Y364260D01*
X1590311Y364970D01*
D02*
G37*
G36*
X1587670D02*
X1587569D01*
X1584920Y364260D01*
X1582546Y362889D01*
X1580607Y360950D01*
X1579236Y358576D01*
X1578526Y355927D01*
Y355826D01*
X1587670D01*
Y364970D01*
D02*
G37*
G36*
X1426690D02*
X1426589D01*
X1423940Y364260D01*
X1421566Y362889D01*
X1419627Y360950D01*
X1418256Y358576D01*
X1417546Y355927D01*
Y355826D01*
X1426690D01*
Y364970D01*
D02*
G37*
G36*
X1269791Y364490D02*
X1269690D01*
Y355346D01*
X1278834D01*
Y355447D01*
X1278124Y358096D01*
X1276753Y360470D01*
X1274814Y362409D01*
X1272440Y363780D01*
X1269791Y364490D01*
D02*
G37*
G36*
X1267150D02*
X1267049D01*
X1264400Y363780D01*
X1262026Y362409D01*
X1260087Y360470D01*
X1258716Y358096D01*
X1258006Y355447D01*
Y355346D01*
X1267150D01*
Y364490D01*
D02*
G37*
G36*
X1086730Y358140D02*
X1076960D01*
Y348370D01*
X1077143D01*
X1079951Y349122D01*
X1082469Y350576D01*
X1084524Y352631D01*
X1085978Y355149D01*
X1086730Y357957D01*
Y358140D01*
D02*
G37*
G36*
X1074420D02*
X1064650D01*
Y357957D01*
X1065402Y355149D01*
X1066856Y352631D01*
X1068911Y350576D01*
X1071429Y349122D01*
X1074237Y348370D01*
X1074420D01*
Y358140D01*
D02*
G37*
G36*
X1650240Y364430D02*
X1647640D01*
X1645129Y363757D01*
X1642877Y362457D01*
X1641039Y360619D01*
X1639739Y358367D01*
X1639066Y355856D01*
Y353256D01*
X1639739Y350745D01*
X1641039Y348493D01*
X1642877Y346655D01*
X1645129Y345355D01*
X1647640Y344682D01*
X1650240D01*
X1652751Y345355D01*
X1655003Y346655D01*
X1656841Y348493D01*
X1658141Y350745D01*
X1658814Y353256D01*
Y355856D01*
X1658141Y358367D01*
X1656841Y360619D01*
X1655003Y362457D01*
X1652751Y363757D01*
X1650240Y364430D01*
D02*
G37*
G36*
X1620240D02*
X1617640D01*
X1615129Y363757D01*
X1612877Y362457D01*
X1611039Y360619D01*
X1609739Y358367D01*
X1609066Y355856D01*
Y353256D01*
X1609739Y350745D01*
X1611039Y348493D01*
X1612877Y346655D01*
X1615129Y345355D01*
X1617640Y344682D01*
X1620240D01*
X1622751Y345355D01*
X1625003Y346655D01*
X1626841Y348493D01*
X1628141Y350745D01*
X1628814Y353256D01*
Y355856D01*
X1628141Y358367D01*
X1626841Y360619D01*
X1625003Y362457D01*
X1622751Y363757D01*
X1620240Y364430D01*
D02*
G37*
G36*
X1489260D02*
X1486660D01*
X1484149Y363757D01*
X1481897Y362457D01*
X1480059Y360619D01*
X1478759Y358367D01*
X1478086Y355856D01*
Y353256D01*
X1478759Y350745D01*
X1480059Y348493D01*
X1481897Y346655D01*
X1484149Y345355D01*
X1486660Y344682D01*
X1489260D01*
X1491771Y345355D01*
X1494023Y346655D01*
X1495861Y348493D01*
X1497161Y350745D01*
X1497834Y353256D01*
Y355856D01*
X1497161Y358367D01*
X1495861Y360619D01*
X1494023Y362457D01*
X1491771Y363757D01*
X1489260Y364430D01*
D02*
G37*
G36*
X1459260D02*
X1456660D01*
X1454149Y363757D01*
X1451897Y362457D01*
X1450059Y360619D01*
X1448759Y358367D01*
X1448086Y355856D01*
Y353256D01*
X1448759Y350745D01*
X1450059Y348493D01*
X1451897Y346655D01*
X1454149Y345355D01*
X1456660Y344682D01*
X1459260D01*
X1461771Y345355D01*
X1464023Y346655D01*
X1465861Y348493D01*
X1467161Y350745D01*
X1467834Y353256D01*
Y355856D01*
X1467161Y358367D01*
X1465861Y360619D01*
X1464023Y362457D01*
X1461771Y363757D01*
X1459260Y364430D01*
D02*
G37*
G36*
X881481Y367770D02*
X878379D01*
X875383Y366967D01*
X872697Y365416D01*
X870504Y363223D01*
X868953Y360537D01*
X868150Y357541D01*
Y354439D01*
X868953Y351443D01*
X870504Y348757D01*
X872697Y346564D01*
X875383Y345013D01*
X878379Y344210D01*
X881481D01*
X884477Y345013D01*
X887163Y346564D01*
X889356Y348757D01*
X890907Y351443D01*
X891710Y354439D01*
Y357541D01*
X890907Y360537D01*
X889356Y363223D01*
X887163Y365416D01*
X884477Y366967D01*
X881481Y367770D01*
D02*
G37*
G36*
X839481D02*
X836379D01*
X833383Y366967D01*
X830697Y365416D01*
X828504Y363223D01*
X826953Y360537D01*
X826150Y357541D01*
Y354439D01*
X826953Y351443D01*
X828504Y348757D01*
X830697Y346564D01*
X833383Y345013D01*
X836379Y344210D01*
X839481D01*
X842477Y345013D01*
X845163Y346564D01*
X847356Y348757D01*
X848907Y351443D01*
X849710Y354439D01*
Y357541D01*
X848907Y360537D01*
X847356Y363223D01*
X845163Y365416D01*
X842477Y366967D01*
X839481Y367770D01*
D02*
G37*
G36*
X1329720Y363950D02*
X1327120D01*
X1324609Y363277D01*
X1322357Y361977D01*
X1320519Y360139D01*
X1319219Y357887D01*
X1318546Y355376D01*
Y352776D01*
X1319219Y350265D01*
X1320519Y348013D01*
X1322357Y346175D01*
X1324609Y344875D01*
X1327120Y344202D01*
X1329720D01*
X1332231Y344875D01*
X1334483Y346175D01*
X1336321Y348013D01*
X1337621Y350265D01*
X1338294Y352776D01*
Y355376D01*
X1337621Y357887D01*
X1336321Y360139D01*
X1334483Y361977D01*
X1332231Y363277D01*
X1329720Y363950D01*
D02*
G37*
G36*
X1299720D02*
X1297120D01*
X1294609Y363277D01*
X1292357Y361977D01*
X1290519Y360139D01*
X1289219Y357887D01*
X1288546Y355376D01*
Y352776D01*
X1289219Y350265D01*
X1290519Y348013D01*
X1292357Y346175D01*
X1294609Y344875D01*
X1297120Y344202D01*
X1299720D01*
X1302231Y344875D01*
X1304483Y346175D01*
X1306321Y348013D01*
X1307621Y350265D01*
X1308294Y352776D01*
Y355376D01*
X1307621Y357887D01*
X1306321Y360139D01*
X1304483Y361977D01*
X1302231Y363277D01*
X1299720Y363950D01*
D02*
G37*
G36*
X1599354Y353286D02*
X1590210D01*
Y344142D01*
X1590311D01*
X1592960Y344852D01*
X1595334Y346223D01*
X1597273Y348162D01*
X1598644Y350536D01*
X1599354Y353185D01*
Y353286D01*
D02*
G37*
G36*
X1587670D02*
X1578526D01*
Y353185D01*
X1579236Y350536D01*
X1580607Y348162D01*
X1582546Y346223D01*
X1584920Y344852D01*
X1587569Y344142D01*
X1587670D01*
Y353286D01*
D02*
G37*
G36*
X1438374D02*
X1429230D01*
Y344142D01*
X1429331D01*
X1431980Y344852D01*
X1434354Y346223D01*
X1436293Y348162D01*
X1437664Y350536D01*
X1438374Y353185D01*
Y353286D01*
D02*
G37*
G36*
X1426690D02*
X1417546D01*
Y353185D01*
X1418256Y350536D01*
X1419627Y348162D01*
X1421566Y346223D01*
X1423940Y344852D01*
X1426589Y344142D01*
X1426690D01*
Y353286D01*
D02*
G37*
G36*
X976250Y354720D02*
X965200D01*
Y343670D01*
X965552D01*
X968685Y344510D01*
X971495Y346132D01*
X973788Y348425D01*
X975410Y351235D01*
X976250Y354368D01*
Y354720D01*
D02*
G37*
G36*
X962660D02*
X951610D01*
Y354368D01*
X952450Y351235D01*
X954072Y348425D01*
X956365Y346132D01*
X959175Y344510D01*
X962308Y343670D01*
X962660D01*
Y354720D01*
D02*
G37*
G36*
X934250D02*
X923200D01*
Y343670D01*
X923552D01*
X926685Y344510D01*
X929495Y346132D01*
X931788Y348425D01*
X933410Y351235D01*
X934250Y354368D01*
Y354720D01*
D02*
G37*
G36*
X920660D02*
X909610D01*
Y354368D01*
X910450Y351235D01*
X912072Y348425D01*
X914365Y346132D01*
X917175Y344510D01*
X920308Y343670D01*
X920660D01*
Y354720D01*
D02*
G37*
G36*
X1278834Y352806D02*
X1269690D01*
Y343662D01*
X1269791D01*
X1272440Y344372D01*
X1274814Y345743D01*
X1276753Y347682D01*
X1278124Y350056D01*
X1278834Y352705D01*
Y352806D01*
D02*
G37*
G36*
X1267150D02*
X1258006D01*
Y352705D01*
X1258716Y350056D01*
X1260087Y347682D01*
X1262026Y345743D01*
X1264400Y344372D01*
X1267049Y343662D01*
X1267150D01*
Y352806D01*
D02*
G37*
G36*
X1175230Y349495D02*
Y341376D01*
X1183349D01*
X1182717Y343733D01*
X1181480Y345877D01*
X1179730Y347626D01*
X1177587Y348863D01*
X1175230Y349495D01*
D02*
G37*
G36*
X1172690Y349495D02*
X1170332Y348863D01*
X1168189Y347626D01*
X1166440Y345877D01*
X1165202Y343733D01*
X1164571Y341376D01*
X1172690D01*
Y349495D01*
D02*
G37*
G36*
X1679905Y352490D02*
X1677974D01*
X1676109Y351990D01*
X1674437Y351025D01*
X1673071Y349659D01*
X1672106Y347987D01*
X1671606Y346121D01*
Y344190D01*
X1672106Y342325D01*
X1673071Y340653D01*
X1674437Y339287D01*
X1676109Y338322D01*
X1677974Y337822D01*
X1679905D01*
X1681771Y338322D01*
X1683443Y339287D01*
X1684809Y340653D01*
X1685774Y342325D01*
X1686274Y344190D01*
Y346121D01*
X1685774Y347987D01*
X1684809Y349659D01*
X1683443Y351025D01*
X1681771Y351990D01*
X1679905Y352490D01*
D02*
G37*
G36*
X1559906D02*
X1557974D01*
X1556109Y351990D01*
X1554437Y351025D01*
X1553071Y349659D01*
X1552106Y347987D01*
X1551606Y346121D01*
Y344190D01*
X1552106Y342325D01*
X1553071Y340653D01*
X1554437Y339287D01*
X1556109Y338322D01*
X1557974Y337822D01*
X1559906D01*
X1561771Y338322D01*
X1563443Y339287D01*
X1564809Y340653D01*
X1565774Y342325D01*
X1566274Y344190D01*
Y346121D01*
X1565774Y347987D01*
X1564809Y349659D01*
X1563443Y351025D01*
X1561771Y351990D01*
X1559906Y352490D01*
D02*
G37*
G36*
X1518925D02*
X1516994D01*
X1515129Y351990D01*
X1513457Y351025D01*
X1512091Y349659D01*
X1511126Y347987D01*
X1510626Y346121D01*
Y344190D01*
X1511126Y342325D01*
X1512091Y340653D01*
X1513457Y339287D01*
X1515129Y338322D01*
X1516994Y337822D01*
X1518925D01*
X1520791Y338322D01*
X1522463Y339287D01*
X1523829Y340653D01*
X1524794Y342325D01*
X1525294Y344190D01*
Y346121D01*
X1524794Y347987D01*
X1523829Y349659D01*
X1522463Y351025D01*
X1520791Y351990D01*
X1518925Y352490D01*
D02*
G37*
G36*
X1398925D02*
X1396994D01*
X1395129Y351990D01*
X1393457Y351025D01*
X1392091Y349659D01*
X1391126Y347987D01*
X1390626Y346121D01*
Y344190D01*
X1391126Y342325D01*
X1392091Y340653D01*
X1393457Y339287D01*
X1395129Y338322D01*
X1396994Y337822D01*
X1398925D01*
X1400791Y338322D01*
X1402463Y339287D01*
X1403829Y340653D01*
X1404794Y342325D01*
X1405294Y344190D01*
Y346121D01*
X1404794Y347987D01*
X1403829Y349659D01*
X1402463Y351025D01*
X1400791Y351990D01*
X1398925Y352490D01*
D02*
G37*
G36*
X1359385Y352010D02*
X1357454D01*
X1355589Y351510D01*
X1353917Y350545D01*
X1352551Y349179D01*
X1351586Y347507D01*
X1351086Y345642D01*
Y343711D01*
X1351586Y341845D01*
X1352551Y340173D01*
X1353917Y338807D01*
X1355589Y337842D01*
X1357454Y337342D01*
X1359385D01*
X1361251Y337842D01*
X1362923Y338807D01*
X1364289Y340173D01*
X1365254Y341845D01*
X1365754Y343711D01*
Y345642D01*
X1365254Y347507D01*
X1364289Y349179D01*
X1362923Y350545D01*
X1361251Y351510D01*
X1359385Y352010D01*
D02*
G37*
G36*
X1239386D02*
X1237454D01*
X1235589Y351510D01*
X1233917Y350545D01*
X1232551Y349179D01*
X1231586Y347507D01*
X1231086Y345642D01*
Y343711D01*
X1231586Y341845D01*
X1232551Y340173D01*
X1233917Y338807D01*
X1235589Y337842D01*
X1237454Y337342D01*
X1239386D01*
X1241251Y337842D01*
X1242923Y338807D01*
X1244289Y340173D01*
X1245254Y341845D01*
X1245754Y343711D01*
Y345642D01*
X1245254Y347507D01*
X1244289Y349179D01*
X1242923Y350545D01*
X1241251Y351510D01*
X1239386Y352010D01*
D02*
G37*
G36*
X1183349Y338836D02*
X1175230D01*
Y330717D01*
X1177587Y331348D01*
X1179730Y332586D01*
X1181480Y334336D01*
X1182717Y336479D01*
X1183349Y338836D01*
D02*
G37*
G36*
X1172690D02*
X1164571D01*
X1165202Y336479D01*
X1166440Y334336D01*
X1168189Y332586D01*
X1170332Y331348D01*
X1172690Y330717D01*
Y338836D01*
D02*
G37*
G36*
X1077072Y344510D02*
X1074308D01*
X1071637Y343794D01*
X1069243Y342412D01*
X1067288Y340457D01*
X1065906Y338063D01*
X1065190Y335392D01*
Y332628D01*
X1065906Y329957D01*
X1067288Y327563D01*
X1069243Y325608D01*
X1071637Y324226D01*
X1074308Y323510D01*
X1077072D01*
X1079743Y324226D01*
X1082137Y325608D01*
X1084092Y327563D01*
X1085474Y329957D01*
X1086190Y332628D01*
Y335392D01*
X1085474Y338063D01*
X1084092Y340457D01*
X1082137Y342412D01*
X1079743Y343794D01*
X1077072Y344510D01*
D02*
G37*
G36*
X1057104Y316850D02*
X1056460D01*
Y303580D01*
X1069730D01*
Y304224D01*
X1068739Y307922D01*
X1066825Y311238D01*
X1064118Y313945D01*
X1060802Y315859D01*
X1057104Y316850D01*
D02*
G37*
G36*
X1053920D02*
X1053276D01*
X1049578Y315859D01*
X1046262Y313945D01*
X1043555Y311238D01*
X1041641Y307922D01*
X1040650Y304224D01*
Y303580D01*
X1053920D01*
Y316850D01*
D02*
G37*
G36*
X1471245Y310250D02*
X1469255D01*
X1467418Y309489D01*
X1466011Y308082D01*
X1465250Y306245D01*
Y304255D01*
X1466011Y302418D01*
X1467418Y301011D01*
X1469255Y300250D01*
X1471245D01*
X1473082Y301011D01*
X1474489Y302418D01*
X1475250Y304255D01*
Y306245D01*
X1474489Y308082D01*
X1473082Y309489D01*
X1471245Y310250D01*
D02*
G37*
G36*
X1621515Y309800D02*
X1619525D01*
X1617688Y309039D01*
X1616281Y307632D01*
X1615520Y305795D01*
Y303805D01*
X1616281Y301968D01*
X1617688Y300561D01*
X1619525Y299800D01*
X1621515D01*
X1623352Y300561D01*
X1624759Y301968D01*
X1625520Y303805D01*
Y305795D01*
X1624759Y307632D01*
X1623352Y309039D01*
X1621515Y309800D01*
D02*
G37*
G36*
X1551665D02*
X1549675D01*
X1547838Y309039D01*
X1546431Y307632D01*
X1545670Y305795D01*
Y303805D01*
X1546431Y301968D01*
X1547838Y300561D01*
X1549675Y299800D01*
X1551665D01*
X1553502Y300561D01*
X1554909Y301968D01*
X1555670Y303805D01*
Y305795D01*
X1554909Y307632D01*
X1553502Y309039D01*
X1551665Y309800D01*
D02*
G37*
G36*
X1408155D02*
X1406165D01*
X1404328Y309039D01*
X1402921Y307632D01*
X1402160Y305795D01*
Y303805D01*
X1402921Y301968D01*
X1404328Y300561D01*
X1406165Y299800D01*
X1408155D01*
X1409992Y300561D01*
X1411399Y301968D01*
X1412160Y303805D01*
Y305795D01*
X1411399Y307632D01*
X1409992Y309039D01*
X1408155Y309800D01*
D02*
G37*
G36*
X1290045Y307260D02*
X1288055D01*
X1286218Y306499D01*
X1284811Y305092D01*
X1284050Y303255D01*
Y301265D01*
X1284811Y299428D01*
X1286218Y298021D01*
X1288055Y297260D01*
X1290045D01*
X1291882Y298021D01*
X1293289Y299428D01*
X1294050Y301265D01*
Y303255D01*
X1293289Y305092D01*
X1291882Y306499D01*
X1290045Y307260D01*
D02*
G37*
G36*
X1174475D02*
X1172485D01*
X1170648Y306499D01*
X1169241Y305092D01*
X1168480Y303255D01*
Y301265D01*
X1169241Y299428D01*
X1170648Y298021D01*
X1172485Y297260D01*
X1174475D01*
X1176312Y298021D01*
X1177719Y299428D01*
X1178480Y301265D01*
Y303255D01*
X1177719Y305092D01*
X1176312Y306499D01*
X1174475Y307260D01*
D02*
G37*
G36*
X1230355Y305990D02*
X1228365D01*
X1226528Y305229D01*
X1225121Y303822D01*
X1224360Y301985D01*
Y299995D01*
X1225121Y298158D01*
X1226528Y296751D01*
X1228365Y295990D01*
X1230355D01*
X1232192Y296751D01*
X1233599Y298158D01*
X1234360Y299995D01*
Y301985D01*
X1233599Y303822D01*
X1232192Y305229D01*
X1230355Y305990D01*
D02*
G37*
G36*
X1356341Y313030D02*
X1353839D01*
X1351423Y312383D01*
X1349257Y311132D01*
X1347488Y309363D01*
X1346237Y307197D01*
X1345590Y304781D01*
Y302279D01*
X1346237Y299863D01*
X1347488Y297697D01*
X1349257Y295928D01*
X1351423Y294677D01*
X1353839Y294030D01*
X1356341D01*
X1358757Y294677D01*
X1360923Y295928D01*
X1362692Y297697D01*
X1363943Y299863D01*
X1364590Y302279D01*
Y304781D01*
X1363943Y307197D01*
X1362692Y309363D01*
X1360923Y311132D01*
X1358757Y312383D01*
X1356341Y313030D01*
D02*
G37*
G36*
X965481Y312770D02*
X962379D01*
X959383Y311967D01*
X956697Y310416D01*
X954504Y308223D01*
X952953Y305537D01*
X952150Y302541D01*
Y299439D01*
X952953Y296443D01*
X954504Y293757D01*
X956697Y291564D01*
X959383Y290013D01*
X962379Y289210D01*
X965481D01*
X968477Y290013D01*
X971163Y291564D01*
X973356Y293757D01*
X974907Y296443D01*
X975710Y299439D01*
Y302541D01*
X974907Y305537D01*
X973356Y308223D01*
X971163Y310416D01*
X968477Y311967D01*
X965481Y312770D01*
D02*
G37*
G36*
X923481D02*
X920379D01*
X917383Y311967D01*
X914697Y310416D01*
X912504Y308223D01*
X910953Y305537D01*
X910150Y302541D01*
Y299439D01*
X910953Y296443D01*
X912504Y293757D01*
X914697Y291564D01*
X917383Y290013D01*
X920379Y289210D01*
X923481D01*
X926477Y290013D01*
X929163Y291564D01*
X931356Y293757D01*
X932907Y296443D01*
X933710Y299439D01*
Y302541D01*
X932907Y305537D01*
X931356Y308223D01*
X929163Y310416D01*
X926477Y311967D01*
X923481Y312770D01*
D02*
G37*
G36*
X881481D02*
X878379D01*
X875383Y311967D01*
X872697Y310416D01*
X870504Y308223D01*
X868953Y305537D01*
X868150Y302541D01*
Y299439D01*
X868953Y296443D01*
X870504Y293757D01*
X872697Y291564D01*
X875383Y290013D01*
X878379Y289210D01*
X881481D01*
X884477Y290013D01*
X887163Y291564D01*
X889356Y293757D01*
X890907Y296443D01*
X891710Y299439D01*
Y302541D01*
X890907Y305537D01*
X889356Y308223D01*
X887163Y310416D01*
X884477Y311967D01*
X881481Y312770D01*
D02*
G37*
G36*
X839481D02*
X836379D01*
X833383Y311967D01*
X830697Y310416D01*
X828504Y308223D01*
X826953Y305537D01*
X826150Y302541D01*
Y299439D01*
X826953Y296443D01*
X828504Y293757D01*
X830697Y291564D01*
X833383Y290013D01*
X836379Y289210D01*
X839481D01*
X842477Y290013D01*
X845163Y291564D01*
X847356Y293757D01*
X848907Y296443D01*
X849710Y299439D01*
Y302541D01*
X848907Y305537D01*
X847356Y308223D01*
X845163Y310416D01*
X842477Y311967D01*
X839481Y312770D01*
D02*
G37*
G36*
X1069730Y301040D02*
X1056460D01*
Y287770D01*
X1057104D01*
X1060802Y288761D01*
X1064118Y290675D01*
X1066825Y293382D01*
X1068739Y296698D01*
X1069730Y300396D01*
Y301040D01*
D02*
G37*
G36*
X1053920D02*
X1040650D01*
Y300396D01*
X1041641Y296698D01*
X1043555Y293382D01*
X1046262Y290675D01*
X1049578Y288761D01*
X1053276Y287770D01*
X1053920D01*
Y301040D01*
D02*
G37*
G36*
X741421Y315250D02*
X737579D01*
X733812Y314501D01*
X730263Y313031D01*
X727069Y310897D01*
X724353Y308181D01*
X722219Y304987D01*
X720749Y301438D01*
X720000Y297671D01*
Y293829D01*
X720749Y290062D01*
X722219Y286513D01*
X724353Y283319D01*
X727069Y280603D01*
X730263Y278469D01*
X733812Y276999D01*
X737579Y276250D01*
X741421D01*
X745188Y276999D01*
X748737Y278469D01*
X751930Y280603D01*
X754647Y283319D01*
X756781Y286513D01*
X758251Y290062D01*
X759000Y293829D01*
Y297671D01*
X758251Y301438D01*
X756781Y304987D01*
X754647Y308181D01*
X751930Y310897D01*
X748737Y313031D01*
X745188Y314501D01*
X741421Y315250D01*
D02*
G37*
G36*
X1712171Y314250D02*
X1708329D01*
X1704562Y313501D01*
X1701013Y312031D01*
X1697820Y309897D01*
X1695103Y307181D01*
X1692969Y303987D01*
X1691499Y300438D01*
X1690750Y296671D01*
Y292829D01*
X1691499Y289062D01*
X1692969Y285513D01*
X1695103Y282320D01*
X1697820Y279603D01*
X1701013Y277469D01*
X1704562Y275999D01*
X1708329Y275250D01*
X1712171D01*
X1715938Y275999D01*
X1719487Y277469D01*
X1722681Y279603D01*
X1725397Y282320D01*
X1727531Y285513D01*
X1729001Y289062D01*
X1729750Y292829D01*
Y296671D01*
X1729001Y300438D01*
X1727531Y303987D01*
X1725397Y307181D01*
X1722681Y309897D01*
X1719487Y312031D01*
X1715938Y313501D01*
X1712171Y314250D01*
D02*
G37*
%LPD*%
D30*
X1098920Y1051060D02*
D03*
X1128920D02*
D03*
X1158920D02*
D03*
X1098920Y1021060D02*
D03*
X1128920D02*
D03*
X1158920D02*
D03*
X1703070Y590550D02*
D03*
Y560550D02*
D03*
Y530550D02*
D03*
X1673070Y590550D02*
D03*
Y560550D02*
D03*
Y530550D02*
D03*
X1664180Y906780D02*
D03*
Y936780D02*
D03*
Y966780D02*
D03*
X1694180Y906780D02*
D03*
Y936780D02*
D03*
Y966780D02*
D03*
X1588940Y384556D02*
D03*
X1618940D02*
D03*
X1648940D02*
D03*
X1588940Y354556D02*
D03*
X1618940D02*
D03*
X1648940D02*
D03*
X1427960Y384556D02*
D03*
X1457960D02*
D03*
X1487960D02*
D03*
X1427960Y354556D02*
D03*
X1457960D02*
D03*
X1487960D02*
D03*
X1268420Y384076D02*
D03*
X1298420D02*
D03*
X1328420D02*
D03*
X1268420Y354076D02*
D03*
X1298420D02*
D03*
X1328420D02*
D03*
X1702590Y772950D02*
D03*
Y742950D02*
D03*
Y712950D02*
D03*
X1672590Y772950D02*
D03*
Y742950D02*
D03*
Y712950D02*
D03*
D31*
X1188920Y1011660D02*
D03*
X1068920D02*
D03*
X1663670Y500550D02*
D03*
Y620550D02*
D03*
X1703580Y996780D02*
D03*
Y876780D02*
D03*
X1678940Y345156D02*
D03*
X1558940D02*
D03*
X1517960D02*
D03*
X1397960D02*
D03*
X1358420Y344676D02*
D03*
X1238420D02*
D03*
X1663190Y682950D02*
D03*
Y802950D02*
D03*
D32*
X1024890Y850100D02*
D03*
Y800100D02*
D03*
X946150Y850100D02*
D03*
Y800100D02*
D03*
X1173960Y390106D02*
D03*
Y340106D02*
D03*
D33*
X1278890Y715210D02*
D03*
Y740210D02*
D03*
X1121410Y887930D02*
D03*
Y912930D02*
D03*
X1238250Y715210D02*
D03*
Y740210D02*
D03*
D36*
X800369Y665713D02*
D03*
Y623713D02*
D03*
Y581713D02*
D03*
X745369Y665713D02*
D03*
Y623713D02*
D03*
Y581713D02*
D03*
D37*
X972820Y464820D02*
D03*
X971550Y412750D02*
D03*
D38*
X1022820Y464820D02*
D03*
X1021550Y412750D02*
D03*
D43*
X932180Y986790D02*
D03*
Y906790D02*
D03*
D44*
X924180Y946790D02*
D03*
D52*
X740770Y1109770D02*
D03*
X739500Y295750D02*
D03*
X1710611Y1110620D02*
D03*
X1710250Y294750D02*
D03*
D53*
X1283970Y825100D02*
D03*
Y775100D02*
D03*
X1400810Y626980D02*
D03*
Y576980D02*
D03*
X1464310Y626980D02*
D03*
Y576980D02*
D03*
X1397000Y781520D02*
D03*
Y731520D02*
D03*
X1405490Y699770D02*
D03*
X1355490D02*
D03*
X1363980Y804780D02*
D03*
Y754780D02*
D03*
X1551940Y626980D02*
D03*
Y576980D02*
D03*
X1522730Y626980D02*
D03*
Y576980D02*
D03*
X1534160Y781920D02*
D03*
Y731920D02*
D03*
X1494790Y626980D02*
D03*
Y576980D02*
D03*
X1433830Y626980D02*
D03*
Y576980D02*
D03*
X1438910Y820020D02*
D03*
Y770020D02*
D03*
D54*
X1075690Y600710D02*
D03*
Y575310D02*
D03*
Y473710D02*
D03*
Y448310D02*
D03*
Y422910D02*
D03*
Y397510D02*
D03*
Y359410D02*
D03*
Y334010D02*
D03*
D55*
X1055190Y645210D02*
D03*
Y302310D02*
D03*
D56*
X1407500Y670500D02*
D03*
X1396441Y677145D02*
D03*
X1409250Y682750D02*
D03*
X1390650Y647700D02*
D03*
X1369060Y618490D02*
D03*
X1377950Y629920D02*
D03*
X1420172Y666559D02*
D03*
X1200150Y455930D02*
D03*
X1385570Y604520D02*
D03*
X1200250Y499250D02*
D03*
X1305560Y923290D02*
D03*
X1087120Y934720D02*
D03*
X1054100Y901700D02*
D03*
X1041400Y955040D02*
D03*
X1071880Y919480D02*
D03*
X1026160Y941070D02*
D03*
X1365250Y562610D02*
D03*
X1377950Y589280D02*
D03*
X1325880Y792480D02*
D03*
X786130Y778510D02*
D03*
X783590Y742950D02*
D03*
X820420D02*
D03*
X861060Y744220D02*
D03*
X859790Y778510D02*
D03*
X861060Y812800D02*
D03*
X821690D02*
D03*
X788670D02*
D03*
X859790Y1026160D02*
D03*
Y1041400D02*
D03*
X889000Y1026160D02*
D03*
Y1041400D02*
D03*
X915670Y1026160D02*
D03*
Y1041400D02*
D03*
X1523250Y680000D02*
D03*
X1574800Y629920D02*
D03*
X1581150Y618490D02*
D03*
X1524000Y692150D02*
D03*
X1522136Y705960D02*
D03*
X1524000Y716280D02*
D03*
X1534160Y708660D02*
D03*
X1557020Y781050D02*
D03*
X1581150D02*
D03*
X1620520Y304800D02*
D03*
X1550670D02*
D03*
X1470250Y305250D02*
D03*
X1229360Y300990D02*
D03*
X1173480Y302260D02*
D03*
X1430020Y657860D02*
D03*
X1436370Y684530D02*
D03*
X1508189Y670480D02*
D03*
X1454150Y643890D02*
D03*
X1442720Y645160D02*
D03*
X1480820D02*
D03*
X1443990Y673100D02*
D03*
X1491000Y678250D02*
D03*
X1454150Y673100D02*
D03*
X1463040Y678180D02*
D03*
X1306830Y736600D02*
D03*
X1258570Y786130D02*
D03*
Y769620D02*
D03*
Y803910D02*
D03*
X1306830Y712470D02*
D03*
X1487250Y709250D02*
D03*
X1496060Y721280D02*
D03*
X1493500Y699750D02*
D03*
X1419860Y796290D02*
D03*
X1436370Y694690D02*
D03*
X1454150Y759460D02*
D03*
X1507490Y744220D02*
D03*
X1411750Y787500D02*
D03*
X1494790Y758190D02*
D03*
X1258570Y819150D02*
D03*
X1315250Y930500D02*
D03*
X1493750Y689250D02*
D03*
X1407160Y304800D02*
D03*
X1289050Y302260D02*
D03*
D57*
X1014730Y1033780D02*
D03*
X1203500Y681000D02*
D03*
X820420Y779780D02*
D03*
X949960Y1033780D02*
D03*
X1610360Y742950D02*
D03*
Y712470D02*
D03*
X1617230Y549730D02*
D03*
X1332230Y674370D02*
D03*
X1355090Y303530D02*
D03*
D58*
X1578610Y673100D02*
D03*
X1579880Y652780D02*
D03*
X1357007Y647054D02*
D03*
D59*
X1204040Y592210D02*
D03*
Y542210D02*
D03*
X1329040D02*
D03*
Y592210D02*
D03*
X1406040Y935710D02*
D03*
Y885710D02*
D03*
X1531040D02*
D03*
Y935710D02*
D03*
D60*
X1595710Y504500D02*
D03*
X1481410D02*
D03*
X1270000Y914400D02*
D03*
X1155700D02*
D03*
X1234440Y886460D02*
D03*
Y772160D02*
D03*
X869950Y453390D02*
D03*
X755650D02*
D03*
X1332500Y984160D02*
D03*
Y1098460D02*
D03*
X1586230Y808990D02*
D03*
X1471930D02*
D03*
X1664180Y467106D02*
D03*
X1549880D02*
D03*
X1717040Y435610D02*
D03*
X1602740D02*
D03*
X1168400Y655320D02*
D03*
Y541020D02*
D03*
X1365730Y437896D02*
D03*
X1251430D02*
D03*
X1346200Y474980D02*
D03*
X1231900D02*
D03*
X1288460Y1098530D02*
D03*
Y984230D02*
D03*
X1236390Y1097260D02*
D03*
Y982960D02*
D03*
X1379750Y982660D02*
D03*
Y1096960D02*
D03*
X1257300Y948690D02*
D03*
X1143000D02*
D03*
X1505430Y469646D02*
D03*
X1391130D02*
D03*
X822400Y1001500D02*
D03*
Y878100D02*
D03*
X897890Y419100D02*
D03*
X783590D02*
D03*
X1530830Y436626D02*
D03*
X1416530D02*
D03*
D61*
X1569600Y1019330D02*
D03*
X1527600D02*
D03*
X1485600D02*
D03*
X1443600D02*
D03*
X1569600Y1074330D02*
D03*
X1527600D02*
D03*
X1485600D02*
D03*
X1443600D02*
D03*
X963930Y300990D02*
D03*
X921930D02*
D03*
X879930D02*
D03*
X837930D02*
D03*
X963930Y355990D02*
D03*
X921930D02*
D03*
X879930D02*
D03*
X837930D02*
D03*
D62*
X762150Y939800D02*
D03*
X819150D02*
D03*
M02*
