G04*
G04 #@! TF.GenerationSoftware,Altium Limited,Altium Designer,26.10.1 (5)*
G04*
G04 Layer_Physical_Order=3*
G04 Layer_Color=16440176*
G04 Board_Origin=0|0*
%FSLAX44Y44*%
%MOMM*%
G71*
G04*
G04 #@! TF.SameCoordinates,1C1FC9D1-0847-4E34-B182-99CB99BC725A*
G04*
G04*
G04 #@! TF.FilePolarity,Positive*
G04*
G01*
G75*
%ADD15C,0.2540*%
%ADD30C,1.5748*%
%ADD31C,1.0668*%
%ADD32C,1.3716*%
%ADD33C,1.1176*%
%ADD36C,1.9558*%
%ADD37R,1.3208X1.3208*%
%ADD38C,1.3208*%
%ADD43C,2.1082*%
%ADD44C,2.7940*%
%ADD52C,3.5000*%
%ADD53C,1.1500*%
%ADD54C,1.7000*%
%ADD55C,2.4000*%
%ADD56C,0.6000*%
%ADD57C,1.5000*%
%ADD58C,1.2000*%
%ADD59C,1.8030*%
%ADD60C,1.5240*%
%ADD61C,1.9560*%
%ADD62C,2.3620*%
%ADD63C,0.7000*%
%ADD64C,0.3500*%
%ADD65C,3.0000*%
%ADD66C,1.0000*%
%ADD67C,1.5000*%
G36*
X971550Y965200D02*
X916940D01*
X852170Y916940D01*
X796290D01*
Y976630D01*
X834390D01*
X846455Y1026795D01*
X850900Y1049020D01*
X857072D01*
X857578Y1046480D01*
X856652Y1046097D01*
X855093Y1044538D01*
X854320Y1042670D01*
X865260D01*
X864487Y1044538D01*
X862928Y1046097D01*
X862002Y1046480D01*
X862508Y1049020D01*
X886282D01*
X886787Y1046480D01*
X885862Y1046097D01*
X884303Y1044538D01*
X883530Y1042670D01*
X894470D01*
X893697Y1044538D01*
X892138Y1046097D01*
X891212Y1046480D01*
X891718Y1049020D01*
X912952D01*
X913457Y1046480D01*
X912532Y1046097D01*
X910973Y1044538D01*
X910200Y1042670D01*
X921140D01*
X920367Y1044538D01*
X918808Y1046097D01*
X917883Y1046480D01*
X918388Y1049020D01*
X971550D01*
Y965200D01*
D02*
G37*
G36*
X1318260Y695960D02*
X1216660D01*
X1215390Y694690D01*
X1163320D01*
Y831850D01*
X1276168D01*
X1276802Y831061D01*
X1277452Y829310D01*
X1276748Y828091D01*
X1276220Y826120D01*
Y824080D01*
X1276748Y822109D01*
X1277768Y820341D01*
X1279211Y818898D01*
X1280979Y817878D01*
X1282950Y817350D01*
X1284990D01*
X1286961Y817878D01*
X1288729Y818898D01*
X1290172Y820341D01*
X1291192Y822109D01*
X1291720Y824080D01*
Y826120D01*
X1291192Y828091D01*
X1290488Y829310D01*
X1291138Y831061D01*
X1291772Y831850D01*
X1318260D01*
Y695960D01*
D02*
G37*
G36*
X1068070Y861060D02*
X1092200D01*
X1101090Y852170D01*
X1108710D01*
Y831850D01*
X1103630Y826770D01*
X1082040D01*
Y796290D01*
X1032510Y746760D01*
X1031240D01*
Y473710D01*
X1029051Y471521D01*
X1028435Y472137D01*
X1026349Y473341D01*
X1024090Y473946D01*
Y464820D01*
X1022820D01*
Y463550D01*
X1013694D01*
X1014299Y461291D01*
X1015503Y459206D01*
X1016119Y458589D01*
X1009650Y452120D01*
X961390D01*
X925830Y416560D01*
X923290Y417612D01*
Y506730D01*
X815340D01*
X764540Y557530D01*
Y838200D01*
X882650D01*
X883920Y839470D01*
Y928370D01*
X1000760D01*
X1068070Y861060D01*
D02*
G37*
G36*
X1671320Y278130D02*
X1670268Y275590D01*
X1055370D01*
Y288310D01*
X1057033D01*
X1060594Y289264D01*
X1063786Y291107D01*
X1066393Y293714D01*
X1068236Y296906D01*
X1069190Y300467D01*
Y304153D01*
X1068236Y307714D01*
X1066393Y310906D01*
X1063786Y313513D01*
X1060594Y315356D01*
X1057033Y316310D01*
X1055370D01*
Y369570D01*
X1057384Y370840D01*
X1069407D01*
X1070088Y368300D01*
X1069243Y367812D01*
X1067288Y365857D01*
X1065906Y363463D01*
X1065190Y360792D01*
Y358028D01*
X1065906Y355357D01*
X1067288Y352963D01*
X1069243Y351008D01*
X1071637Y349626D01*
X1074308Y348910D01*
X1077072D01*
X1079743Y349626D01*
X1082137Y351008D01*
X1084092Y352963D01*
X1085474Y355357D01*
X1086190Y358028D01*
Y360792D01*
X1085474Y363463D01*
X1084092Y365857D01*
X1082137Y367812D01*
X1081292Y368300D01*
X1081973Y370840D01*
X1141730D01*
X1162022Y391132D01*
X1164562Y390080D01*
Y388869D01*
X1165202Y386479D01*
X1166440Y384336D01*
X1168189Y382586D01*
X1170332Y381348D01*
X1172690Y380717D01*
Y390106D01*
X1173960D01*
Y391376D01*
X1183349D01*
X1182717Y393733D01*
X1181480Y395877D01*
X1179730Y397626D01*
X1177587Y398863D01*
X1175197Y399504D01*
X1173986D01*
X1172934Y402044D01*
X1181100Y410210D01*
X1671320D01*
Y278130D01*
D02*
G37*
%LPC*%
G36*
X921140Y1040130D02*
X916940D01*
Y1035930D01*
X918808Y1036703D01*
X920367Y1038262D01*
X921140Y1040130D01*
D02*
G37*
G36*
X914400D02*
X910200D01*
X910973Y1038262D01*
X912532Y1036703D01*
X914400Y1035930D01*
Y1040130D01*
D02*
G37*
G36*
X894470D02*
X890270D01*
Y1035930D01*
X892138Y1036703D01*
X893697Y1038262D01*
X894470Y1040130D01*
D02*
G37*
G36*
X887730D02*
X883530D01*
X884303Y1038262D01*
X885862Y1036703D01*
X887730Y1035930D01*
Y1040130D01*
D02*
G37*
G36*
X865260D02*
X861060D01*
Y1035930D01*
X862928Y1036703D01*
X864487Y1038262D01*
X865260Y1040130D01*
D02*
G37*
G36*
X858520D02*
X854320D01*
X855093Y1038262D01*
X856652Y1036703D01*
X858520Y1035930D01*
Y1040130D01*
D02*
G37*
G36*
X951282Y1043820D02*
X951230D01*
Y1035050D01*
X960000D01*
Y1035102D01*
X959316Y1037655D01*
X957994Y1039945D01*
X956125Y1041814D01*
X953835Y1043136D01*
X951282Y1043820D01*
D02*
G37*
G36*
X948690D02*
X948638D01*
X946085Y1043136D01*
X943795Y1041814D01*
X941926Y1039945D01*
X940604Y1037655D01*
X939920Y1035102D01*
Y1035050D01*
X948690D01*
Y1043820D01*
D02*
G37*
G36*
X916940Y1031630D02*
Y1027430D01*
X921140D01*
X920367Y1029298D01*
X918808Y1030857D01*
X916940Y1031630D01*
D02*
G37*
G36*
X914400D02*
X912532Y1030857D01*
X910973Y1029298D01*
X910200Y1027430D01*
X914400D01*
Y1031630D01*
D02*
G37*
G36*
X890270D02*
Y1027430D01*
X894470D01*
X893697Y1029298D01*
X892138Y1030857D01*
X890270Y1031630D01*
D02*
G37*
G36*
X887730D02*
X885862Y1030857D01*
X884303Y1029298D01*
X883530Y1027430D01*
X887730D01*
Y1031630D01*
D02*
G37*
G36*
X861060D02*
Y1027430D01*
X865260D01*
X864487Y1029298D01*
X862928Y1030857D01*
X861060Y1031630D01*
D02*
G37*
G36*
X858520D02*
X856652Y1030857D01*
X855093Y1029298D01*
X854320Y1027430D01*
X858520D01*
Y1031630D01*
D02*
G37*
G36*
X960000Y1032510D02*
X951230D01*
Y1023740D01*
X951282D01*
X953835Y1024424D01*
X956125Y1025746D01*
X957994Y1027615D01*
X959316Y1029905D01*
X960000Y1032458D01*
Y1032510D01*
D02*
G37*
G36*
X948690D02*
X939920D01*
Y1032458D01*
X940604Y1029905D01*
X941926Y1027615D01*
X943795Y1025746D01*
X946085Y1024424D01*
X948638Y1023740D01*
X948690D01*
Y1032510D01*
D02*
G37*
G36*
X921140Y1024890D02*
X916940D01*
Y1020690D01*
X918808Y1021463D01*
X920367Y1023022D01*
X921140Y1024890D01*
D02*
G37*
G36*
X914400D02*
X910200D01*
X910973Y1023022D01*
X912532Y1021463D01*
X914400Y1020690D01*
Y1024890D01*
D02*
G37*
G36*
X894470D02*
X890270D01*
Y1020690D01*
X892138Y1021463D01*
X893697Y1023022D01*
X894470Y1024890D01*
D02*
G37*
G36*
X887730D02*
X883530D01*
X884303Y1023022D01*
X885862Y1021463D01*
X887730Y1020690D01*
Y1024890D01*
D02*
G37*
G36*
X865260D02*
X861060D01*
Y1020690D01*
X862928Y1021463D01*
X864487Y1023022D01*
X865260Y1024890D01*
D02*
G37*
G36*
X858520D02*
X854320D01*
X855093Y1023022D01*
X856652Y1021463D01*
X858520Y1020690D01*
Y1024890D01*
D02*
G37*
G36*
X933902Y999871D02*
X933450D01*
Y988060D01*
X945261D01*
Y988512D01*
X944370Y991839D01*
X942647Y994822D01*
X940212Y997257D01*
X937229Y998980D01*
X933902Y999871D01*
D02*
G37*
G36*
X930910D02*
X930458D01*
X927131Y998980D01*
X924148Y997257D01*
X921713Y994822D01*
X919990Y991839D01*
X919099Y988512D01*
Y988060D01*
X930910D01*
Y999871D01*
D02*
G37*
G36*
X945261Y985520D02*
X933450D01*
Y973709D01*
X933902D01*
X937229Y974600D01*
X940212Y976323D01*
X942647Y978758D01*
X944370Y981741D01*
X945261Y985068D01*
Y985520D01*
D02*
G37*
G36*
X930910D02*
X919099D01*
Y985068D01*
X919990Y981741D01*
X921713Y978758D01*
X924148Y976323D01*
X927131Y974600D01*
X930458Y973709D01*
X930910D01*
Y985520D01*
D02*
G37*
G36*
X821039Y954150D02*
X820420D01*
Y941070D01*
X833500D01*
Y941689D01*
X832522Y945339D01*
X830633Y948611D01*
X827961Y951283D01*
X824689Y953172D01*
X821039Y954150D01*
D02*
G37*
G36*
X817880D02*
X817261D01*
X813611Y953172D01*
X810339Y951283D01*
X807667Y948611D01*
X805778Y945339D01*
X804800Y941689D01*
Y941070D01*
X817880D01*
Y954150D01*
D02*
G37*
G36*
X833500Y938530D02*
X820420D01*
Y925450D01*
X821039D01*
X824689Y926428D01*
X827961Y928317D01*
X830633Y930989D01*
X832522Y934261D01*
X833500Y937911D01*
Y938530D01*
D02*
G37*
G36*
X817880D02*
X804800D01*
Y937911D01*
X805778Y934261D01*
X807667Y930989D01*
X810339Y928317D01*
X813611Y926428D01*
X817261Y925450D01*
X817880D01*
Y938530D01*
D02*
G37*
G36*
X1259840Y824620D02*
Y820420D01*
X1264040D01*
X1263267Y822288D01*
X1261708Y823847D01*
X1259840Y824620D01*
D02*
G37*
G36*
X1257300D02*
X1255432Y823847D01*
X1253873Y822288D01*
X1253100Y820420D01*
X1257300D01*
Y824620D01*
D02*
G37*
G36*
X1264040Y817880D02*
X1259840D01*
Y813680D01*
X1261708Y814453D01*
X1263267Y816012D01*
X1264040Y817880D01*
D02*
G37*
G36*
X1257300D02*
X1253100D01*
X1253873Y816012D01*
X1255432Y814453D01*
X1257300Y813680D01*
Y817880D01*
D02*
G37*
G36*
X1259840Y809380D02*
Y805180D01*
X1264040D01*
X1263267Y807048D01*
X1261708Y808607D01*
X1259840Y809380D01*
D02*
G37*
G36*
X1257300D02*
X1255432Y808607D01*
X1253873Y807048D01*
X1253100Y805180D01*
X1257300D01*
Y809380D01*
D02*
G37*
G36*
X1264040Y802640D02*
X1259840D01*
Y798440D01*
X1261708Y799213D01*
X1263267Y800772D01*
X1264040Y802640D01*
D02*
G37*
G36*
X1257300D02*
X1253100D01*
X1253873Y800772D01*
X1255432Y799213D01*
X1257300Y798440D01*
Y802640D01*
D02*
G37*
G36*
X1259840Y791600D02*
Y787400D01*
X1264040D01*
X1263267Y789268D01*
X1261708Y790827D01*
X1259840Y791600D01*
D02*
G37*
G36*
X1257300D02*
X1255432Y790827D01*
X1253873Y789268D01*
X1253100Y787400D01*
X1257300D01*
Y791600D01*
D02*
G37*
G36*
X1264040Y784860D02*
X1259840D01*
Y780660D01*
X1261708Y781433D01*
X1263267Y782992D01*
X1264040Y784860D01*
D02*
G37*
G36*
X1257300D02*
X1253100D01*
X1253873Y782992D01*
X1255432Y781433D01*
X1257300Y780660D01*
Y784860D01*
D02*
G37*
G36*
X1259840Y775090D02*
Y770890D01*
X1264040D01*
X1263267Y772758D01*
X1261708Y774317D01*
X1259840Y775090D01*
D02*
G37*
G36*
X1257300D02*
X1255432Y774317D01*
X1253873Y772758D01*
X1253100Y770890D01*
X1257300D01*
Y775090D01*
D02*
G37*
G36*
X1264040Y768350D02*
X1259840D01*
Y764150D01*
X1261708Y764923D01*
X1263267Y766482D01*
X1264040Y768350D01*
D02*
G37*
G36*
X1257300D02*
X1253100D01*
X1253873Y766482D01*
X1255432Y764923D01*
X1257300Y764150D01*
Y768350D01*
D02*
G37*
G36*
X1308100Y742070D02*
Y737870D01*
X1312300D01*
X1311527Y739738D01*
X1309968Y741297D01*
X1308100Y742070D01*
D02*
G37*
G36*
X1305560D02*
X1303692Y741297D01*
X1302133Y739738D01*
X1301360Y737870D01*
X1305560D01*
Y742070D01*
D02*
G37*
G36*
X1312300Y735330D02*
X1308100D01*
Y731130D01*
X1309968Y731903D01*
X1311527Y733462D01*
X1312300Y735330D01*
D02*
G37*
G36*
X1305560D02*
X1301360D01*
X1302133Y733462D01*
X1303692Y731903D01*
X1305560Y731130D01*
Y735330D01*
D02*
G37*
G36*
X1308100Y717940D02*
Y713740D01*
X1312300D01*
X1311527Y715608D01*
X1309968Y717167D01*
X1308100Y717940D01*
D02*
G37*
G36*
X1305560D02*
X1303692Y717167D01*
X1302133Y715608D01*
X1301360Y713740D01*
X1305560D01*
Y717940D01*
D02*
G37*
G36*
X1279889Y722798D02*
X1277891D01*
X1275961Y722281D01*
X1274231Y721282D01*
X1272818Y719869D01*
X1271819Y718139D01*
X1271302Y716209D01*
Y714211D01*
X1271819Y712281D01*
X1272818Y710551D01*
X1274231Y709138D01*
X1275961Y708139D01*
X1277891Y707622D01*
X1279889D01*
X1281819Y708139D01*
X1283549Y709138D01*
X1284962Y710551D01*
X1285961Y712281D01*
X1286478Y714211D01*
Y716209D01*
X1285961Y718139D01*
X1284962Y719869D01*
X1283549Y721282D01*
X1281819Y722281D01*
X1279889Y722798D01*
D02*
G37*
G36*
X1239249D02*
X1237251D01*
X1235321Y722281D01*
X1233591Y721282D01*
X1232178Y719869D01*
X1231179Y718139D01*
X1230662Y716209D01*
Y714211D01*
X1231179Y712281D01*
X1232178Y710551D01*
X1233591Y709138D01*
X1235321Y708139D01*
X1237251Y707622D01*
X1239249D01*
X1241179Y708139D01*
X1242909Y709138D01*
X1244322Y710551D01*
X1245321Y712281D01*
X1245838Y714211D01*
Y716209D01*
X1245321Y718139D01*
X1244322Y719869D01*
X1242909Y721282D01*
X1241179Y722281D01*
X1239249Y722798D01*
D02*
G37*
G36*
X1312300Y711200D02*
X1308100D01*
Y707000D01*
X1309968Y707773D01*
X1311527Y709332D01*
X1312300Y711200D01*
D02*
G37*
G36*
X1305560D02*
X1301360D01*
X1302133Y709332D01*
X1303692Y707773D01*
X1305560Y707000D01*
Y711200D01*
D02*
G37*
G36*
X933902Y919871D02*
X933450D01*
Y908060D01*
X945261D01*
Y908512D01*
X944370Y911839D01*
X942647Y914822D01*
X940212Y917257D01*
X937229Y918980D01*
X933902Y919871D01*
D02*
G37*
G36*
X930910D02*
X930458D01*
X927131Y918980D01*
X924148Y917257D01*
X921713Y914822D01*
X919990Y911839D01*
X919099Y908512D01*
Y908060D01*
X930910D01*
Y919871D01*
D02*
G37*
G36*
X945261Y905520D02*
X933450D01*
Y893709D01*
X933902D01*
X937229Y894600D01*
X940212Y896323D01*
X942647Y898758D01*
X944370Y901741D01*
X945261Y905068D01*
Y905520D01*
D02*
G37*
G36*
X930910D02*
X919099D01*
Y905068D01*
X919990Y901741D01*
X921713Y898758D01*
X924148Y896323D01*
X927131Y894600D01*
X930458Y893709D01*
X930910D01*
Y905520D01*
D02*
G37*
G36*
X1026160Y859489D02*
Y851370D01*
X1034279D01*
X1033648Y853727D01*
X1032410Y855871D01*
X1030660Y857620D01*
X1028518Y858857D01*
X1026160Y859489D01*
D02*
G37*
G36*
X947420D02*
Y851370D01*
X955539D01*
X954908Y853727D01*
X953670Y855871D01*
X951920Y857620D01*
X949778Y858857D01*
X947420Y859489D01*
D02*
G37*
G36*
X1023620D02*
X1021263Y858857D01*
X1019119Y857620D01*
X1017370Y855871D01*
X1016133Y853727D01*
X1015501Y851370D01*
X1023620D01*
Y859489D01*
D02*
G37*
G36*
X944880D02*
X942523Y858857D01*
X940379Y857620D01*
X938630Y855871D01*
X937393Y853727D01*
X936761Y851370D01*
X944880D01*
Y859489D01*
D02*
G37*
G36*
X1034279Y848830D02*
X1026160D01*
Y840711D01*
X1028518Y841342D01*
X1030660Y842580D01*
X1032410Y844330D01*
X1033648Y846472D01*
X1034279Y848830D01*
D02*
G37*
G36*
X955539D02*
X947420D01*
Y840711D01*
X949778Y841342D01*
X951920Y842580D01*
X953670Y844330D01*
X954908Y846472D01*
X955539Y848830D01*
D02*
G37*
G36*
X1023620D02*
X1015501D01*
X1016133Y846472D01*
X1017370Y844330D01*
X1019119Y842580D01*
X1021263Y841342D01*
X1023620Y840711D01*
Y848830D01*
D02*
G37*
G36*
X944880D02*
X936761D01*
X937393Y846472D01*
X938630Y844330D01*
X940379Y842580D01*
X942523Y841342D01*
X944880Y840711D01*
Y848830D01*
D02*
G37*
G36*
X862330Y818270D02*
Y814070D01*
X866530D01*
X865757Y815938D01*
X864198Y817497D01*
X862330Y818270D01*
D02*
G37*
G36*
X859790D02*
X857922Y817497D01*
X856363Y815938D01*
X855590Y814070D01*
X859790D01*
Y818270D01*
D02*
G37*
G36*
X822960D02*
Y814070D01*
X827160D01*
X826387Y815938D01*
X824828Y817497D01*
X822960Y818270D01*
D02*
G37*
G36*
X820420D02*
X818552Y817497D01*
X816993Y815938D01*
X816220Y814070D01*
X820420D01*
Y818270D01*
D02*
G37*
G36*
X789940D02*
Y814070D01*
X794140D01*
X793367Y815938D01*
X791808Y817497D01*
X789940Y818270D01*
D02*
G37*
G36*
X787400D02*
X785532Y817497D01*
X783973Y815938D01*
X783200Y814070D01*
X787400D01*
Y818270D01*
D02*
G37*
G36*
X866530Y811530D02*
X862330D01*
Y807330D01*
X864198Y808103D01*
X865757Y809662D01*
X866530Y811530D01*
D02*
G37*
G36*
X859790D02*
X855590D01*
X856363Y809662D01*
X857922Y808103D01*
X859790Y807330D01*
Y811530D01*
D02*
G37*
G36*
X827160D02*
X822960D01*
Y807330D01*
X824828Y808103D01*
X826387Y809662D01*
X827160Y811530D01*
D02*
G37*
G36*
X820420D02*
X816220D01*
X816993Y809662D01*
X818552Y808103D01*
X820420Y807330D01*
Y811530D01*
D02*
G37*
G36*
X794140D02*
X789940D01*
Y807330D01*
X791808Y808103D01*
X793367Y809662D01*
X794140Y811530D01*
D02*
G37*
G36*
X787400D02*
X783200D01*
X783973Y809662D01*
X785532Y808103D01*
X787400Y807330D01*
Y811530D01*
D02*
G37*
G36*
X1026056Y808958D02*
X1023724D01*
X1021471Y808354D01*
X1019451Y807188D01*
X1017802Y805539D01*
X1016636Y803519D01*
X1016032Y801266D01*
Y798934D01*
X1016636Y796681D01*
X1017802Y794661D01*
X1019451Y793012D01*
X1021471Y791846D01*
X1023724Y791242D01*
X1026056D01*
X1028309Y791846D01*
X1030329Y793012D01*
X1031978Y794661D01*
X1033144Y796681D01*
X1033748Y798934D01*
Y801266D01*
X1033144Y803519D01*
X1031978Y805539D01*
X1030329Y807188D01*
X1028309Y808354D01*
X1026056Y808958D01*
D02*
G37*
G36*
X947316D02*
X944984D01*
X942731Y808354D01*
X940711Y807188D01*
X939062Y805539D01*
X937896Y803519D01*
X937292Y801266D01*
Y798934D01*
X937896Y796681D01*
X939062Y794661D01*
X940711Y793012D01*
X942731Y791846D01*
X944984Y791242D01*
X947316D01*
X949569Y791846D01*
X951589Y793012D01*
X953238Y794661D01*
X954404Y796681D01*
X955008Y798934D01*
Y801266D01*
X954404Y803519D01*
X953238Y805539D01*
X951589Y807188D01*
X949569Y808354D01*
X947316Y808958D01*
D02*
G37*
G36*
X821742Y789820D02*
X821690D01*
Y781050D01*
X830460D01*
Y781102D01*
X829776Y783655D01*
X828454Y785945D01*
X826585Y787814D01*
X824295Y789136D01*
X821742Y789820D01*
D02*
G37*
G36*
X819150D02*
X819098D01*
X816545Y789136D01*
X814255Y787814D01*
X812386Y785945D01*
X811064Y783655D01*
X810380Y781102D01*
Y781050D01*
X819150D01*
Y789820D01*
D02*
G37*
G36*
X861060Y783980D02*
Y779780D01*
X865260D01*
X864487Y781648D01*
X862928Y783207D01*
X861060Y783980D01*
D02*
G37*
G36*
X858520D02*
X856652Y783207D01*
X855093Y781648D01*
X854320Y779780D01*
X858520D01*
Y783980D01*
D02*
G37*
G36*
X787400D02*
Y779780D01*
X791600D01*
X790827Y781648D01*
X789268Y783207D01*
X787400Y783980D01*
D02*
G37*
G36*
X784860D02*
X782992Y783207D01*
X781433Y781648D01*
X780660Y779780D01*
X784860D01*
Y783980D01*
D02*
G37*
G36*
X865260Y777240D02*
X861060D01*
Y773040D01*
X862928Y773813D01*
X864487Y775372D01*
X865260Y777240D01*
D02*
G37*
G36*
X858520D02*
X854320D01*
X855093Y775372D01*
X856652Y773813D01*
X858520Y773040D01*
Y777240D01*
D02*
G37*
G36*
X791600D02*
X787400D01*
Y773040D01*
X789268Y773813D01*
X790827Y775372D01*
X791600Y777240D01*
D02*
G37*
G36*
X784860D02*
X780660D01*
X781433Y775372D01*
X782992Y773813D01*
X784860Y773040D01*
Y777240D01*
D02*
G37*
G36*
X830460Y778510D02*
X821690D01*
Y769740D01*
X821742D01*
X824295Y770424D01*
X826585Y771746D01*
X828454Y773615D01*
X829776Y775905D01*
X830460Y778458D01*
Y778510D01*
D02*
G37*
G36*
X819150D02*
X810380D01*
Y778458D01*
X811064Y775905D01*
X812386Y773615D01*
X814255Y771746D01*
X816545Y770424D01*
X819098Y769740D01*
X819150D01*
Y778510D01*
D02*
G37*
G36*
X862330Y749690D02*
Y745490D01*
X866530D01*
X865757Y747358D01*
X864198Y748917D01*
X862330Y749690D01*
D02*
G37*
G36*
X859790D02*
X857922Y748917D01*
X856363Y747358D01*
X855590Y745490D01*
X859790D01*
Y749690D01*
D02*
G37*
G36*
X821690Y748420D02*
Y744220D01*
X825890D01*
X825117Y746088D01*
X823558Y747647D01*
X821690Y748420D01*
D02*
G37*
G36*
X819150D02*
X817282Y747647D01*
X815723Y746088D01*
X814950Y744220D01*
X819150D01*
Y748420D01*
D02*
G37*
G36*
X784860D02*
Y744220D01*
X789060D01*
X788287Y746088D01*
X786728Y747647D01*
X784860Y748420D01*
D02*
G37*
G36*
X782320D02*
X780452Y747647D01*
X778893Y746088D01*
X778120Y744220D01*
X782320D01*
Y748420D01*
D02*
G37*
G36*
X866530Y742950D02*
X862330D01*
Y738750D01*
X864198Y739523D01*
X865757Y741082D01*
X866530Y742950D01*
D02*
G37*
G36*
X859790D02*
X855590D01*
X856363Y741082D01*
X857922Y739523D01*
X859790Y738750D01*
Y742950D01*
D02*
G37*
G36*
X825890Y741680D02*
X821690D01*
Y737480D01*
X823558Y738253D01*
X825117Y739812D01*
X825890Y741680D01*
D02*
G37*
G36*
X819150D02*
X814950D01*
X815723Y739812D01*
X817282Y738253D01*
X819150Y737480D01*
Y741680D01*
D02*
G37*
G36*
X789060D02*
X784860D01*
Y737480D01*
X786728Y738253D01*
X788287Y739812D01*
X789060Y741680D01*
D02*
G37*
G36*
X782320D02*
X778120D01*
X778893Y739812D01*
X780452Y738253D01*
X782320Y737480D01*
Y741680D01*
D02*
G37*
G36*
X801991Y678032D02*
X801639D01*
Y666983D01*
X812688D01*
Y667335D01*
X811848Y670468D01*
X810227Y673277D01*
X807933Y675571D01*
X805124Y677192D01*
X801991Y678032D01*
D02*
G37*
G36*
X799099D02*
X798747D01*
X795614Y677192D01*
X792805Y675571D01*
X790511Y673277D01*
X788889Y670468D01*
X788050Y667335D01*
Y666983D01*
X799099D01*
Y678032D01*
D02*
G37*
G36*
X812688Y664443D02*
X801639D01*
Y653394D01*
X801991D01*
X805124Y654233D01*
X807933Y655855D01*
X810227Y658149D01*
X811848Y660958D01*
X812688Y664091D01*
Y664443D01*
D02*
G37*
G36*
X799099D02*
X788050D01*
Y664091D01*
X788889Y660958D01*
X790511Y658149D01*
X792805Y655855D01*
X795614Y654233D01*
X798747Y653394D01*
X799099D01*
Y664443D01*
D02*
G37*
G36*
X801920Y635492D02*
X798818D01*
X795822Y634689D01*
X793136Y633138D01*
X790943Y630945D01*
X789393Y628259D01*
X788590Y625264D01*
Y622162D01*
X789393Y619166D01*
X790943Y616480D01*
X793136Y614287D01*
X795822Y612737D01*
X798818Y611934D01*
X801920D01*
X804915Y612737D01*
X807601Y614287D01*
X809794Y616480D01*
X811345Y619166D01*
X812148Y622162D01*
Y625264D01*
X811345Y628259D01*
X809794Y630945D01*
X807601Y633138D01*
X804915Y634689D01*
X801920Y635492D01*
D02*
G37*
G36*
X801991Y594032D02*
X801639D01*
Y582983D01*
X812688D01*
Y583335D01*
X811848Y586468D01*
X810227Y589277D01*
X807933Y591571D01*
X805124Y593192D01*
X801991Y594032D01*
D02*
G37*
G36*
X799099D02*
X798747D01*
X795614Y593192D01*
X792805Y591571D01*
X790511Y589277D01*
X788889Y586468D01*
X788050Y583335D01*
Y582983D01*
X799099D01*
Y594032D01*
D02*
G37*
G36*
X812688Y580443D02*
X801639D01*
Y569394D01*
X801991D01*
X805124Y570233D01*
X807933Y571855D01*
X810227Y574149D01*
X811848Y576958D01*
X812688Y580091D01*
Y580443D01*
D02*
G37*
G36*
X799099D02*
X788050D01*
Y580091D01*
X788889Y576958D01*
X790511Y574149D01*
X792805Y571855D01*
X795614Y570233D01*
X798747Y569394D01*
X799099D01*
Y580443D01*
D02*
G37*
G36*
X1021550Y473946D02*
X1019290Y473341D01*
X1017206Y472137D01*
X1015503Y470434D01*
X1014299Y468349D01*
X1013694Y466090D01*
X1021550D01*
Y473946D01*
D02*
G37*
G36*
X981424Y473424D02*
X964216D01*
Y456216D01*
X981424D01*
Y473424D01*
D02*
G37*
G36*
X1183349Y388836D02*
X1175230D01*
Y380717D01*
X1177587Y381348D01*
X1179730Y382586D01*
X1181480Y384336D01*
X1182717Y386479D01*
X1183349Y388836D01*
D02*
G37*
G36*
X1650240Y394430D02*
X1647640D01*
X1645129Y393757D01*
X1642877Y392457D01*
X1641039Y390619D01*
X1639739Y388367D01*
X1639066Y385856D01*
Y383256D01*
X1639739Y380745D01*
X1641039Y378493D01*
X1642877Y376655D01*
X1645129Y375355D01*
X1647640Y374682D01*
X1650240D01*
X1652751Y375355D01*
X1655003Y376655D01*
X1656841Y378493D01*
X1658141Y380745D01*
X1658814Y383256D01*
Y385856D01*
X1658141Y388367D01*
X1656841Y390619D01*
X1655003Y392457D01*
X1652751Y393757D01*
X1650240Y394430D01*
D02*
G37*
G36*
X1620240D02*
X1617640D01*
X1615129Y393757D01*
X1612877Y392457D01*
X1611039Y390619D01*
X1609739Y388367D01*
X1609066Y385856D01*
Y383256D01*
X1609739Y380745D01*
X1611039Y378493D01*
X1612877Y376655D01*
X1615129Y375355D01*
X1617640Y374682D01*
X1620240D01*
X1622751Y375355D01*
X1625003Y376655D01*
X1626841Y378493D01*
X1628141Y380745D01*
X1628814Y383256D01*
Y385856D01*
X1628141Y388367D01*
X1626841Y390619D01*
X1625003Y392457D01*
X1622751Y393757D01*
X1620240Y394430D01*
D02*
G37*
G36*
X1590240D02*
X1587640D01*
X1585129Y393757D01*
X1582877Y392457D01*
X1581039Y390619D01*
X1579739Y388367D01*
X1579066Y385856D01*
Y383256D01*
X1579739Y380745D01*
X1581039Y378493D01*
X1582877Y376655D01*
X1585129Y375355D01*
X1587640Y374682D01*
X1590240D01*
X1592751Y375355D01*
X1595003Y376655D01*
X1596841Y378493D01*
X1598141Y380745D01*
X1598814Y383256D01*
Y385856D01*
X1598141Y388367D01*
X1596841Y390619D01*
X1595003Y392457D01*
X1592751Y393757D01*
X1590240Y394430D01*
D02*
G37*
G36*
X1489260D02*
X1486660D01*
X1484149Y393757D01*
X1481897Y392457D01*
X1480059Y390619D01*
X1478759Y388367D01*
X1478086Y385856D01*
Y383256D01*
X1478759Y380745D01*
X1480059Y378493D01*
X1481897Y376655D01*
X1484149Y375355D01*
X1486660Y374682D01*
X1489260D01*
X1491771Y375355D01*
X1494023Y376655D01*
X1495861Y378493D01*
X1497161Y380745D01*
X1497834Y383256D01*
Y385856D01*
X1497161Y388367D01*
X1495861Y390619D01*
X1494023Y392457D01*
X1491771Y393757D01*
X1489260Y394430D01*
D02*
G37*
G36*
X1459260D02*
X1456660D01*
X1454149Y393757D01*
X1451897Y392457D01*
X1450059Y390619D01*
X1448759Y388367D01*
X1448086Y385856D01*
Y383256D01*
X1448759Y380745D01*
X1450059Y378493D01*
X1451897Y376655D01*
X1454149Y375355D01*
X1456660Y374682D01*
X1459260D01*
X1461771Y375355D01*
X1464023Y376655D01*
X1465861Y378493D01*
X1467161Y380745D01*
X1467834Y383256D01*
Y385856D01*
X1467161Y388367D01*
X1465861Y390619D01*
X1464023Y392457D01*
X1461771Y393757D01*
X1459260Y394430D01*
D02*
G37*
G36*
X1429260D02*
X1426660D01*
X1424149Y393757D01*
X1421897Y392457D01*
X1420059Y390619D01*
X1418759Y388367D01*
X1418086Y385856D01*
Y383256D01*
X1418759Y380745D01*
X1420059Y378493D01*
X1421897Y376655D01*
X1424149Y375355D01*
X1426660Y374682D01*
X1429260D01*
X1431771Y375355D01*
X1434023Y376655D01*
X1435861Y378493D01*
X1437161Y380745D01*
X1437834Y383256D01*
Y385856D01*
X1437161Y388367D01*
X1435861Y390619D01*
X1434023Y392457D01*
X1431771Y393757D01*
X1429260Y394430D01*
D02*
G37*
G36*
X1329720Y393950D02*
X1327120D01*
X1324609Y393277D01*
X1322357Y391977D01*
X1320519Y390139D01*
X1319219Y387887D01*
X1318546Y385376D01*
Y382776D01*
X1319219Y380265D01*
X1320519Y378013D01*
X1322357Y376175D01*
X1324609Y374875D01*
X1327120Y374202D01*
X1329720D01*
X1332231Y374875D01*
X1334483Y376175D01*
X1336321Y378013D01*
X1337621Y380265D01*
X1338294Y382776D01*
Y385376D01*
X1337621Y387887D01*
X1336321Y390139D01*
X1334483Y391977D01*
X1332231Y393277D01*
X1329720Y393950D01*
D02*
G37*
G36*
X1299720D02*
X1297120D01*
X1294609Y393277D01*
X1292357Y391977D01*
X1290519Y390139D01*
X1289219Y387887D01*
X1288546Y385376D01*
Y382776D01*
X1289219Y380265D01*
X1290519Y378013D01*
X1292357Y376175D01*
X1294609Y374875D01*
X1297120Y374202D01*
X1299720D01*
X1302231Y374875D01*
X1304483Y376175D01*
X1306321Y378013D01*
X1307621Y380265D01*
X1308294Y382776D01*
Y385376D01*
X1307621Y387887D01*
X1306321Y390139D01*
X1304483Y391977D01*
X1302231Y393277D01*
X1299720Y393950D01*
D02*
G37*
G36*
X1269720D02*
X1267120D01*
X1264609Y393277D01*
X1262357Y391977D01*
X1260519Y390139D01*
X1259219Y387887D01*
X1258546Y385376D01*
Y382776D01*
X1259219Y380265D01*
X1260519Y378013D01*
X1262357Y376175D01*
X1264609Y374875D01*
X1267120Y374202D01*
X1269720D01*
X1272231Y374875D01*
X1274483Y376175D01*
X1276321Y378013D01*
X1277621Y380265D01*
X1278294Y382776D01*
Y385376D01*
X1277621Y387887D01*
X1276321Y390139D01*
X1274483Y391977D01*
X1272231Y393277D01*
X1269720Y393950D01*
D02*
G37*
G36*
X1650311Y364970D02*
X1650210D01*
Y355826D01*
X1659354D01*
Y355927D01*
X1658644Y358576D01*
X1657273Y360950D01*
X1655334Y362889D01*
X1652960Y364260D01*
X1650311Y364970D01*
D02*
G37*
G36*
X1620311D02*
X1620210D01*
Y355826D01*
X1629354D01*
Y355927D01*
X1628644Y358576D01*
X1627273Y360950D01*
X1625334Y362889D01*
X1622960Y364260D01*
X1620311Y364970D01*
D02*
G37*
G36*
X1459331D02*
X1459230D01*
Y355826D01*
X1468374D01*
Y355927D01*
X1467664Y358576D01*
X1466293Y360950D01*
X1464354Y362889D01*
X1461980Y364260D01*
X1459331Y364970D01*
D02*
G37*
G36*
X1489331D02*
X1489230D01*
Y355826D01*
X1498374D01*
Y355927D01*
X1497664Y358576D01*
X1496293Y360950D01*
X1494354Y362889D01*
X1491980Y364260D01*
X1489331Y364970D01*
D02*
G37*
G36*
X1486690D02*
X1486589D01*
X1483940Y364260D01*
X1481566Y362889D01*
X1479627Y360950D01*
X1478256Y358576D01*
X1477546Y355927D01*
Y355826D01*
X1486690D01*
Y364970D01*
D02*
G37*
G36*
X1617670D02*
X1617569D01*
X1614920Y364260D01*
X1612546Y362889D01*
X1610607Y360950D01*
X1609236Y358576D01*
X1608526Y355927D01*
Y355826D01*
X1617670D01*
Y364970D01*
D02*
G37*
G36*
X1456690D02*
X1456589D01*
X1453940Y364260D01*
X1451566Y362889D01*
X1449627Y360950D01*
X1448256Y358576D01*
X1447546Y355927D01*
Y355826D01*
X1456690D01*
Y364970D01*
D02*
G37*
G36*
X1647670D02*
X1647569D01*
X1644920Y364260D01*
X1642546Y362889D01*
X1640607Y360950D01*
X1639236Y358576D01*
X1638526Y355927D01*
Y355826D01*
X1647670D01*
Y364970D01*
D02*
G37*
G36*
X1299791Y364490D02*
X1299690D01*
Y355346D01*
X1308834D01*
Y355447D01*
X1308124Y358096D01*
X1306753Y360470D01*
X1304814Y362409D01*
X1302440Y363780D01*
X1299791Y364490D01*
D02*
G37*
G36*
X1329791D02*
X1329690D01*
Y355346D01*
X1338834D01*
Y355447D01*
X1338124Y358096D01*
X1336753Y360470D01*
X1334814Y362409D01*
X1332440Y363780D01*
X1329791Y364490D01*
D02*
G37*
G36*
X1327150D02*
X1327049D01*
X1324400Y363780D01*
X1322026Y362409D01*
X1320087Y360470D01*
X1318716Y358096D01*
X1318006Y355447D01*
Y355346D01*
X1327150D01*
Y364490D01*
D02*
G37*
G36*
X1297150D02*
X1297049D01*
X1294400Y363780D01*
X1292026Y362409D01*
X1290087Y360470D01*
X1288716Y358096D01*
X1288006Y355447D01*
Y355346D01*
X1297150D01*
Y364490D01*
D02*
G37*
G36*
X1590240Y364430D02*
X1587640D01*
X1585129Y363757D01*
X1582877Y362457D01*
X1581039Y360619D01*
X1579739Y358367D01*
X1579066Y355856D01*
Y353256D01*
X1579739Y350745D01*
X1581039Y348493D01*
X1582877Y346655D01*
X1585129Y345355D01*
X1587640Y344682D01*
X1590240D01*
X1592751Y345355D01*
X1595003Y346655D01*
X1596841Y348493D01*
X1598141Y350745D01*
X1598814Y353256D01*
Y355856D01*
X1598141Y358367D01*
X1596841Y360619D01*
X1595003Y362457D01*
X1592751Y363757D01*
X1590240Y364430D01*
D02*
G37*
G36*
X1429260D02*
X1426660D01*
X1424149Y363757D01*
X1421897Y362457D01*
X1420059Y360619D01*
X1418759Y358367D01*
X1418086Y355856D01*
Y353256D01*
X1418759Y350745D01*
X1420059Y348493D01*
X1421897Y346655D01*
X1424149Y345355D01*
X1426660Y344682D01*
X1429260D01*
X1431771Y345355D01*
X1434023Y346655D01*
X1435861Y348493D01*
X1437161Y350745D01*
X1437834Y353256D01*
Y355856D01*
X1437161Y358367D01*
X1435861Y360619D01*
X1434023Y362457D01*
X1431771Y363757D01*
X1429260Y364430D01*
D02*
G37*
G36*
X1269720Y363950D02*
X1267120D01*
X1264609Y363277D01*
X1262357Y361977D01*
X1260519Y360139D01*
X1259219Y357887D01*
X1258546Y355376D01*
Y352776D01*
X1259219Y350265D01*
X1260519Y348013D01*
X1262357Y346175D01*
X1264609Y344875D01*
X1267120Y344202D01*
X1269720D01*
X1272231Y344875D01*
X1274483Y346175D01*
X1276321Y348013D01*
X1277621Y350265D01*
X1278294Y352776D01*
Y355376D01*
X1277621Y357887D01*
X1276321Y360139D01*
X1274483Y361977D01*
X1272231Y363277D01*
X1269720Y363950D01*
D02*
G37*
G36*
X1659354Y353286D02*
X1650210D01*
Y344142D01*
X1650311D01*
X1652960Y344852D01*
X1655334Y346223D01*
X1657273Y348162D01*
X1658644Y350536D01*
X1659354Y353185D01*
Y353286D01*
D02*
G37*
G36*
X1647670D02*
X1638526D01*
Y353185D01*
X1639236Y350536D01*
X1640607Y348162D01*
X1642546Y346223D01*
X1644920Y344852D01*
X1647569Y344142D01*
X1647670D01*
Y353286D01*
D02*
G37*
G36*
X1629354D02*
X1620210D01*
Y344142D01*
X1620311D01*
X1622960Y344852D01*
X1625334Y346223D01*
X1627273Y348162D01*
X1628644Y350536D01*
X1629354Y353185D01*
Y353286D01*
D02*
G37*
G36*
X1617670D02*
X1608526D01*
Y353185D01*
X1609236Y350536D01*
X1610607Y348162D01*
X1612546Y346223D01*
X1614920Y344852D01*
X1617569Y344142D01*
X1617670D01*
Y353286D01*
D02*
G37*
G36*
X1498374D02*
X1489230D01*
Y344142D01*
X1489331D01*
X1491980Y344852D01*
X1494354Y346223D01*
X1496293Y348162D01*
X1497664Y350536D01*
X1498374Y353185D01*
Y353286D01*
D02*
G37*
G36*
X1486690D02*
X1477546D01*
Y353185D01*
X1478256Y350536D01*
X1479627Y348162D01*
X1481566Y346223D01*
X1483940Y344852D01*
X1486589Y344142D01*
X1486690D01*
Y353286D01*
D02*
G37*
G36*
X1468374D02*
X1459230D01*
Y344142D01*
X1459331D01*
X1461980Y344852D01*
X1464354Y346223D01*
X1466293Y348162D01*
X1467664Y350536D01*
X1468374Y353185D01*
Y353286D01*
D02*
G37*
G36*
X1456690D02*
X1447546D01*
Y353185D01*
X1448256Y350536D01*
X1449627Y348162D01*
X1451566Y346223D01*
X1453940Y344852D01*
X1456589Y344142D01*
X1456690D01*
Y353286D01*
D02*
G37*
G36*
X1338834Y352806D02*
X1329690D01*
Y343662D01*
X1329791D01*
X1332440Y344372D01*
X1334814Y345743D01*
X1336753Y347682D01*
X1338124Y350056D01*
X1338834Y352705D01*
Y352806D01*
D02*
G37*
G36*
X1327150D02*
X1318006D01*
Y352705D01*
X1318716Y350056D01*
X1320087Y347682D01*
X1322026Y345743D01*
X1324400Y344372D01*
X1327049Y343662D01*
X1327150D01*
Y352806D01*
D02*
G37*
G36*
X1308834D02*
X1299690D01*
Y343662D01*
X1299791D01*
X1302440Y344372D01*
X1304814Y345743D01*
X1306753Y347682D01*
X1308124Y350056D01*
X1308834Y352705D01*
Y352806D01*
D02*
G37*
G36*
X1297150D02*
X1288006D01*
Y352705D01*
X1288716Y350056D01*
X1290087Y347682D01*
X1292026Y345743D01*
X1294400Y344372D01*
X1297049Y343662D01*
X1297150D01*
Y352806D01*
D02*
G37*
G36*
X1559906Y352490D02*
X1557974D01*
X1556109Y351990D01*
X1554437Y351025D01*
X1553071Y349659D01*
X1552106Y347987D01*
X1551606Y346121D01*
Y344190D01*
X1552106Y342325D01*
X1553071Y340653D01*
X1554437Y339287D01*
X1556109Y338322D01*
X1557974Y337822D01*
X1559906D01*
X1561771Y338322D01*
X1563443Y339287D01*
X1564809Y340653D01*
X1565774Y342325D01*
X1566274Y344190D01*
Y346121D01*
X1565774Y347987D01*
X1564809Y349659D01*
X1563443Y351025D01*
X1561771Y351990D01*
X1559906Y352490D01*
D02*
G37*
G36*
X1518925D02*
X1516994D01*
X1515129Y351990D01*
X1513457Y351025D01*
X1512091Y349659D01*
X1511126Y347987D01*
X1510626Y346121D01*
Y344190D01*
X1511126Y342325D01*
X1512091Y340653D01*
X1513457Y339287D01*
X1515129Y338322D01*
X1516994Y337822D01*
X1518925D01*
X1520791Y338322D01*
X1522463Y339287D01*
X1523829Y340653D01*
X1524794Y342325D01*
X1525294Y344190D01*
Y346121D01*
X1524794Y347987D01*
X1523829Y349659D01*
X1522463Y351025D01*
X1520791Y351990D01*
X1518925Y352490D01*
D02*
G37*
G36*
X1398925D02*
X1396994D01*
X1395129Y351990D01*
X1393457Y351025D01*
X1392091Y349659D01*
X1391126Y347987D01*
X1390626Y346121D01*
Y344190D01*
X1391126Y342325D01*
X1392091Y340653D01*
X1393457Y339287D01*
X1395129Y338322D01*
X1396994Y337822D01*
X1398925D01*
X1400791Y338322D01*
X1402463Y339287D01*
X1403829Y340653D01*
X1404794Y342325D01*
X1405294Y344190D01*
Y346121D01*
X1404794Y347987D01*
X1403829Y349659D01*
X1402463Y351025D01*
X1400791Y351990D01*
X1398925Y352490D01*
D02*
G37*
G36*
X1359385Y352010D02*
X1357454D01*
X1355589Y351510D01*
X1353917Y350545D01*
X1352551Y349179D01*
X1351586Y347507D01*
X1351086Y345642D01*
Y343711D01*
X1351586Y341845D01*
X1352551Y340173D01*
X1353917Y338807D01*
X1355589Y337842D01*
X1357454Y337342D01*
X1359385D01*
X1361251Y337842D01*
X1362923Y338807D01*
X1364289Y340173D01*
X1365254Y341845D01*
X1365754Y343711D01*
Y345642D01*
X1365254Y347507D01*
X1364289Y349179D01*
X1362923Y350545D01*
X1361251Y351510D01*
X1359385Y352010D01*
D02*
G37*
G36*
X1239386D02*
X1237454D01*
X1235589Y351510D01*
X1233917Y350545D01*
X1232551Y349179D01*
X1231586Y347507D01*
X1231086Y345642D01*
Y343711D01*
X1231586Y341845D01*
X1232551Y340173D01*
X1233917Y338807D01*
X1235589Y337842D01*
X1237454Y337342D01*
X1239386D01*
X1241251Y337842D01*
X1242923Y338807D01*
X1244289Y340173D01*
X1245254Y341845D01*
X1245754Y343711D01*
Y345642D01*
X1245254Y347507D01*
X1244289Y349179D01*
X1242923Y350545D01*
X1241251Y351510D01*
X1239386Y352010D01*
D02*
G37*
G36*
X1077143Y345050D02*
X1076960D01*
Y335280D01*
X1086730D01*
Y335463D01*
X1085978Y338271D01*
X1084524Y340789D01*
X1082469Y342844D01*
X1079951Y344298D01*
X1077143Y345050D01*
D02*
G37*
G36*
X1074420D02*
X1074237D01*
X1071429Y344298D01*
X1068911Y342844D01*
X1066856Y340789D01*
X1065402Y338271D01*
X1064650Y335463D01*
Y335280D01*
X1074420D01*
Y345050D01*
D02*
G37*
G36*
X1175126Y348964D02*
X1172794D01*
X1170541Y348360D01*
X1168521Y347194D01*
X1166872Y345545D01*
X1165706Y343525D01*
X1165102Y341272D01*
Y338940D01*
X1165706Y336687D01*
X1166872Y334667D01*
X1168521Y333018D01*
X1170541Y331852D01*
X1172794Y331248D01*
X1175126D01*
X1177379Y331852D01*
X1179399Y333018D01*
X1181048Y334667D01*
X1182214Y336687D01*
X1182818Y338940D01*
Y341272D01*
X1182214Y343525D01*
X1181048Y345545D01*
X1179399Y347194D01*
X1177379Y348360D01*
X1175126Y348964D01*
D02*
G37*
G36*
X1086730Y332740D02*
X1076960D01*
Y322970D01*
X1077143D01*
X1079951Y323722D01*
X1082469Y325176D01*
X1084524Y327231D01*
X1085978Y329749D01*
X1086730Y332557D01*
Y332740D01*
D02*
G37*
G36*
X1074420D02*
X1064650D01*
Y332557D01*
X1065402Y329749D01*
X1066856Y327231D01*
X1068911Y325176D01*
X1071429Y323722D01*
X1074237Y322970D01*
X1074420D01*
Y332740D01*
D02*
G37*
G36*
X1471520Y310720D02*
Y306520D01*
X1475720D01*
X1474947Y308388D01*
X1473388Y309947D01*
X1471520Y310720D01*
D02*
G37*
G36*
X1468980D02*
X1467112Y309947D01*
X1465553Y308388D01*
X1464780Y306520D01*
X1468980D01*
Y310720D01*
D02*
G37*
G36*
X1621790Y310270D02*
Y306070D01*
X1625990D01*
X1625217Y307938D01*
X1623658Y309497D01*
X1621790Y310270D01*
D02*
G37*
G36*
X1619250D02*
X1617382Y309497D01*
X1615823Y307938D01*
X1615050Y306070D01*
X1619250D01*
Y310270D01*
D02*
G37*
G36*
X1551940D02*
Y306070D01*
X1556140D01*
X1555367Y307938D01*
X1553808Y309497D01*
X1551940Y310270D01*
D02*
G37*
G36*
X1549400D02*
X1547532Y309497D01*
X1545973Y307938D01*
X1545200Y306070D01*
X1549400D01*
Y310270D01*
D02*
G37*
G36*
X1408430D02*
Y306070D01*
X1412630D01*
X1411857Y307938D01*
X1410298Y309497D01*
X1408430Y310270D01*
D02*
G37*
G36*
X1405890D02*
X1404022Y309497D01*
X1402463Y307938D01*
X1401690Y306070D01*
X1405890D01*
Y310270D01*
D02*
G37*
G36*
X1356412Y313570D02*
X1356360D01*
Y304800D01*
X1365130D01*
Y304852D01*
X1364446Y307405D01*
X1363124Y309695D01*
X1361255Y311564D01*
X1358965Y312886D01*
X1356412Y313570D01*
D02*
G37*
G36*
X1353820D02*
X1353768D01*
X1351215Y312886D01*
X1348925Y311564D01*
X1347056Y309695D01*
X1345734Y307405D01*
X1345050Y304852D01*
Y304800D01*
X1353820D01*
Y313570D01*
D02*
G37*
G36*
X1290320Y307730D02*
Y303530D01*
X1294520D01*
X1293747Y305398D01*
X1292188Y306957D01*
X1290320Y307730D01*
D02*
G37*
G36*
X1287780D02*
X1285912Y306957D01*
X1284353Y305398D01*
X1283580Y303530D01*
X1287780D01*
Y307730D01*
D02*
G37*
G36*
X1174750D02*
Y303530D01*
X1178950D01*
X1178177Y305398D01*
X1176618Y306957D01*
X1174750Y307730D01*
D02*
G37*
G36*
X1172210D02*
X1170342Y306957D01*
X1168783Y305398D01*
X1168010Y303530D01*
X1172210D01*
Y307730D01*
D02*
G37*
G36*
X1230630Y306460D02*
Y302260D01*
X1234830D01*
X1234057Y304128D01*
X1232498Y305687D01*
X1230630Y306460D01*
D02*
G37*
G36*
X1228090D02*
X1226222Y305687D01*
X1224663Y304128D01*
X1223890Y302260D01*
X1228090D01*
Y306460D01*
D02*
G37*
G36*
X1475720Y303980D02*
X1471520D01*
Y299780D01*
X1473388Y300553D01*
X1474947Y302112D01*
X1475720Y303980D01*
D02*
G37*
G36*
X1468980D02*
X1464780D01*
X1465553Y302112D01*
X1467112Y300553D01*
X1468980Y299780D01*
Y303980D01*
D02*
G37*
G36*
X1625990Y303530D02*
X1621790D01*
Y299330D01*
X1623658Y300103D01*
X1625217Y301662D01*
X1625990Y303530D01*
D02*
G37*
G36*
X1619250D02*
X1615050D01*
X1615823Y301662D01*
X1617382Y300103D01*
X1619250Y299330D01*
Y303530D01*
D02*
G37*
G36*
X1556140D02*
X1551940D01*
Y299330D01*
X1553808Y300103D01*
X1555367Y301662D01*
X1556140Y303530D01*
D02*
G37*
G36*
X1549400D02*
X1545200D01*
X1545973Y301662D01*
X1547532Y300103D01*
X1549400Y299330D01*
Y303530D01*
D02*
G37*
G36*
X1412630D02*
X1408430D01*
Y299330D01*
X1410298Y300103D01*
X1411857Y301662D01*
X1412630Y303530D01*
D02*
G37*
G36*
X1405890D02*
X1401690D01*
X1402463Y301662D01*
X1404022Y300103D01*
X1405890Y299330D01*
Y303530D01*
D02*
G37*
G36*
X1294520Y300990D02*
X1290320D01*
Y296790D01*
X1292188Y297563D01*
X1293747Y299122D01*
X1294520Y300990D01*
D02*
G37*
G36*
X1287780D02*
X1283580D01*
X1284353Y299122D01*
X1285912Y297563D01*
X1287780Y296790D01*
Y300990D01*
D02*
G37*
G36*
X1178950D02*
X1174750D01*
Y296790D01*
X1176618Y297563D01*
X1178177Y299122D01*
X1178950Y300990D01*
D02*
G37*
G36*
X1172210D02*
X1168010D01*
X1168783Y299122D01*
X1170342Y297563D01*
X1172210Y296790D01*
Y300990D01*
D02*
G37*
G36*
X1234830Y299720D02*
X1230630D01*
Y295520D01*
X1232498Y296293D01*
X1234057Y297852D01*
X1234830Y299720D01*
D02*
G37*
G36*
X1228090D02*
X1223890D01*
X1224663Y297852D01*
X1226222Y296293D01*
X1228090Y295520D01*
Y299720D01*
D02*
G37*
G36*
X1365130Y302260D02*
X1356360D01*
Y293490D01*
X1356412D01*
X1358965Y294174D01*
X1361255Y295496D01*
X1363124Y297365D01*
X1364446Y299655D01*
X1365130Y302208D01*
Y302260D01*
D02*
G37*
G36*
X1353820D02*
X1345050D01*
Y302208D01*
X1345734Y299655D01*
X1347056Y297365D01*
X1348925Y295496D01*
X1351215Y294174D01*
X1353768Y293490D01*
X1353820D01*
Y302260D01*
D02*
G37*
%LPD*%
D15*
X1308250Y574500D02*
X1332500D01*
X1343750Y610000D02*
X1401230Y667480D01*
X1332500Y574500D02*
X1343750Y585750D01*
Y610000D01*
X1396441Y676988D02*
Y677145D01*
X1391705Y670455D02*
Y672251D01*
X1396441Y676988D01*
X1402711Y674579D02*
Y676211D01*
X1390650Y647700D02*
X1406838Y663888D01*
X1401230Y673097D02*
X1402711Y674579D01*
X1366277Y645026D02*
X1391705Y670455D01*
X1401230Y667480D02*
Y673097D01*
X1402711Y676211D02*
X1409250Y682750D01*
X1406838Y663888D02*
Y669838D01*
X1407500Y670500D01*
X1366277Y639010D02*
Y645026D01*
X1331000Y603734D02*
X1366277Y639010D01*
X1331000Y600420D02*
Y603734D01*
X1322790Y592210D02*
X1331000Y600420D01*
X1118020Y384270D02*
X1308250Y574500D01*
X1026270Y384270D02*
X1118020D01*
X1123950Y379730D02*
X1200150Y455930D01*
X1035050Y379730D02*
X1123950D01*
X1391520Y604520D02*
X1436370Y649370D01*
X1385570Y604520D02*
X1391520D01*
X1200250Y499250D02*
Y508636D01*
X1400404Y708790D01*
X1453526Y790586D02*
X1471930Y808990D01*
X1581150Y618490D02*
Y635000D01*
X1514047Y653866D02*
X1550854D01*
X1524000Y692150D02*
X1581150Y635000D01*
X1550854Y653866D02*
X1574800Y629920D01*
X1579880Y652780D02*
X1581991D01*
X1588770Y659559D01*
Y720161D01*
X1578610Y673100D02*
Y723900D01*
X1550011Y758920D02*
X1588770Y720161D01*
X1507490Y744220D02*
X1517650Y754380D01*
X1496456Y758920D02*
X1550011D01*
X1517650Y754380D02*
X1548130D01*
X1578610Y723900D01*
X1557020Y781050D02*
X1581150D01*
X1500270Y667643D02*
Y682097D01*
Y667643D02*
X1514047Y653866D01*
X1495726Y758190D02*
X1496456Y758920D01*
X1494790Y758190D02*
X1495726D01*
X1493750Y688617D02*
Y689250D01*
X1422270Y708790D02*
X1436370Y694690D01*
X1401010Y693096D02*
X1405490Y699770D01*
X1400404Y708790D02*
X1422270D01*
X1453526Y760083D02*
X1454150Y759460D01*
X1453526Y760083D02*
Y790586D01*
X1432549Y612943D02*
X1445527Y625921D01*
X1436370Y649370D02*
Y684530D01*
X1456690Y670560D02*
X1459230D01*
X1454150Y673100D02*
X1456690Y670560D01*
X1459230D02*
X1473330Y656460D01*
Y621330D02*
Y656460D01*
X1445527Y625921D02*
Y635267D01*
X1454150Y643890D01*
X1411317Y612943D02*
X1432549D01*
X1493750Y688617D02*
X1500270Y682097D01*
X967186Y304246D02*
Y311866D01*
X963930Y300990D02*
X967186Y304246D01*
X921930Y300990D02*
X942990D01*
X967186Y311866D02*
X1035050Y379730D01*
X942990Y300990D02*
X1026270Y384270D01*
X1394624Y596250D02*
X1411317Y612943D01*
X1365250Y562610D02*
X1389890Y587250D01*
X1357007Y647054D02*
X1401010Y693096D01*
X1384920Y596250D02*
X1394624D01*
X1377950Y589280D02*
X1384920Y596250D01*
X1418644Y587250D02*
X1431002Y599608D01*
X1451608D02*
X1473330Y621330D01*
X1431002Y599608D02*
X1451608D01*
X1389890Y587250D02*
X1418644D01*
D30*
X1098920Y1051060D02*
D03*
X1128920D02*
D03*
X1158920D02*
D03*
X1098920Y1021060D02*
D03*
X1128920D02*
D03*
X1158920D02*
D03*
X1703070Y590550D02*
D03*
Y560550D02*
D03*
Y530550D02*
D03*
X1673070Y590550D02*
D03*
Y560550D02*
D03*
Y530550D02*
D03*
X1664180Y906780D02*
D03*
Y936780D02*
D03*
Y966780D02*
D03*
X1694180Y906780D02*
D03*
Y936780D02*
D03*
Y966780D02*
D03*
X1588940Y384556D02*
D03*
X1618940D02*
D03*
X1648940D02*
D03*
X1588940Y354556D02*
D03*
X1618940D02*
D03*
X1648940D02*
D03*
X1427960Y384556D02*
D03*
X1457960D02*
D03*
X1487960D02*
D03*
X1427960Y354556D02*
D03*
X1457960D02*
D03*
X1487960D02*
D03*
X1268420Y384076D02*
D03*
X1298420D02*
D03*
X1328420D02*
D03*
X1268420Y354076D02*
D03*
X1298420D02*
D03*
X1328420D02*
D03*
X1702590Y772950D02*
D03*
Y742950D02*
D03*
Y712950D02*
D03*
X1672590Y772950D02*
D03*
Y742950D02*
D03*
Y712950D02*
D03*
D31*
X1188920Y1011660D02*
D03*
X1068920D02*
D03*
X1663670Y500550D02*
D03*
Y620550D02*
D03*
X1703580Y996780D02*
D03*
Y876780D02*
D03*
X1678940Y345156D02*
D03*
X1558940D02*
D03*
X1517960D02*
D03*
X1397960D02*
D03*
X1358420Y344676D02*
D03*
X1238420D02*
D03*
X1663190Y682950D02*
D03*
Y802950D02*
D03*
D32*
X1024890Y850100D02*
D03*
Y800100D02*
D03*
X946150Y850100D02*
D03*
Y800100D02*
D03*
X1173960Y390106D02*
D03*
Y340106D02*
D03*
D33*
X1278890Y715210D02*
D03*
Y740210D02*
D03*
X1121410Y887930D02*
D03*
Y912930D02*
D03*
X1238250Y715210D02*
D03*
Y740210D02*
D03*
D36*
X800369Y665713D02*
D03*
Y623713D02*
D03*
Y581713D02*
D03*
X745369Y665713D02*
D03*
Y623713D02*
D03*
Y581713D02*
D03*
D37*
X972820Y464820D02*
D03*
X971550Y412750D02*
D03*
D38*
X1022820Y464820D02*
D03*
X1021550Y412750D02*
D03*
D43*
X932180Y986790D02*
D03*
Y906790D02*
D03*
D44*
X924180Y946790D02*
D03*
D52*
X740770Y1109770D02*
D03*
X739500Y295750D02*
D03*
X1710611Y1110620D02*
D03*
X1710250Y294750D02*
D03*
D53*
X1283970Y825100D02*
D03*
Y775100D02*
D03*
X1400810Y626980D02*
D03*
Y576980D02*
D03*
X1464310Y626980D02*
D03*
Y576980D02*
D03*
X1397000Y781520D02*
D03*
Y731520D02*
D03*
X1405490Y699770D02*
D03*
X1355490D02*
D03*
X1363980Y804780D02*
D03*
Y754780D02*
D03*
X1551940Y626980D02*
D03*
Y576980D02*
D03*
X1522730Y626980D02*
D03*
Y576980D02*
D03*
X1534160Y781920D02*
D03*
Y731920D02*
D03*
X1494790Y626980D02*
D03*
Y576980D02*
D03*
X1433830Y626980D02*
D03*
Y576980D02*
D03*
X1438910Y820020D02*
D03*
Y770020D02*
D03*
D54*
X1075690Y600710D02*
D03*
Y575310D02*
D03*
Y473710D02*
D03*
Y448310D02*
D03*
Y422910D02*
D03*
Y397510D02*
D03*
Y359410D02*
D03*
Y334010D02*
D03*
D55*
X1055190Y645210D02*
D03*
Y302310D02*
D03*
D56*
X1407500Y670500D02*
D03*
X1396441Y677145D02*
D03*
X1409250Y682750D02*
D03*
X1390650Y647700D02*
D03*
X1369060Y618490D02*
D03*
X1377950Y629920D02*
D03*
X1420172Y666559D02*
D03*
X1200150Y455930D02*
D03*
X1385570Y604520D02*
D03*
X1200250Y499250D02*
D03*
X1305560Y923290D02*
D03*
X1087120Y934720D02*
D03*
X1054100Y901700D02*
D03*
X1041400Y955040D02*
D03*
X1071880Y919480D02*
D03*
X1026160Y941070D02*
D03*
X1365250Y562610D02*
D03*
X1377950Y589280D02*
D03*
X1325880Y792480D02*
D03*
X786130Y778510D02*
D03*
X783590Y742950D02*
D03*
X820420D02*
D03*
X861060Y744220D02*
D03*
X859790Y778510D02*
D03*
X861060Y812800D02*
D03*
X821690D02*
D03*
X788670D02*
D03*
X859790Y1026160D02*
D03*
Y1041400D02*
D03*
X889000Y1026160D02*
D03*
Y1041400D02*
D03*
X915670Y1026160D02*
D03*
Y1041400D02*
D03*
X1523250Y680000D02*
D03*
X1574800Y629920D02*
D03*
X1581150Y618490D02*
D03*
X1524000Y692150D02*
D03*
X1522136Y705960D02*
D03*
X1524000Y716280D02*
D03*
X1534160Y708660D02*
D03*
X1557020Y781050D02*
D03*
X1581150D02*
D03*
X1620520Y304800D02*
D03*
X1550670D02*
D03*
X1470250Y305250D02*
D03*
X1229360Y300990D02*
D03*
X1173480Y302260D02*
D03*
X1430020Y657860D02*
D03*
X1436370Y684530D02*
D03*
X1508189Y670480D02*
D03*
X1454150Y643890D02*
D03*
X1442720Y645160D02*
D03*
X1480820D02*
D03*
X1443990Y673100D02*
D03*
X1491000Y678250D02*
D03*
X1454150Y673100D02*
D03*
X1463040Y678180D02*
D03*
X1306830Y736600D02*
D03*
X1258570Y786130D02*
D03*
Y769620D02*
D03*
Y803910D02*
D03*
X1306830Y712470D02*
D03*
X1487250Y709250D02*
D03*
X1496060Y721280D02*
D03*
X1493500Y699750D02*
D03*
X1419860Y796290D02*
D03*
X1436370Y694690D02*
D03*
X1454150Y759460D02*
D03*
X1507490Y744220D02*
D03*
X1411750Y787500D02*
D03*
X1494790Y758190D02*
D03*
X1258570Y819150D02*
D03*
X1315250Y930500D02*
D03*
X1493750Y689250D02*
D03*
X1407160Y304800D02*
D03*
X1289050Y302260D02*
D03*
D57*
X1014730Y1033780D02*
D03*
X1203500Y681000D02*
D03*
X820420Y779780D02*
D03*
X949960Y1033780D02*
D03*
X1610360Y742950D02*
D03*
Y712470D02*
D03*
X1617230Y549730D02*
D03*
X1332230Y674370D02*
D03*
X1355090Y303530D02*
D03*
D58*
X1578610Y673100D02*
D03*
X1579880Y652780D02*
D03*
X1357007Y647054D02*
D03*
D59*
X1204040Y592210D02*
D03*
Y542210D02*
D03*
X1329040D02*
D03*
Y592210D02*
D03*
X1406040Y935710D02*
D03*
Y885710D02*
D03*
X1531040D02*
D03*
Y935710D02*
D03*
D60*
X1595710Y504500D02*
D03*
X1481410D02*
D03*
X1270000Y914400D02*
D03*
X1155700D02*
D03*
X1234440Y886460D02*
D03*
Y772160D02*
D03*
X869950Y453390D02*
D03*
X755650D02*
D03*
X1332500Y984160D02*
D03*
Y1098460D02*
D03*
X1586230Y808990D02*
D03*
X1471930D02*
D03*
X1664180Y467106D02*
D03*
X1549880D02*
D03*
X1717040Y435610D02*
D03*
X1602740D02*
D03*
X1168400Y655320D02*
D03*
Y541020D02*
D03*
X1365730Y437896D02*
D03*
X1251430D02*
D03*
X1346200Y474980D02*
D03*
X1231900D02*
D03*
X1288460Y1098530D02*
D03*
Y984230D02*
D03*
X1236390Y1097260D02*
D03*
Y982960D02*
D03*
X1379750Y982660D02*
D03*
Y1096960D02*
D03*
X1257300Y948690D02*
D03*
X1143000D02*
D03*
X1505430Y469646D02*
D03*
X1391130D02*
D03*
X822400Y1001500D02*
D03*
Y878100D02*
D03*
X897890Y419100D02*
D03*
X783590D02*
D03*
X1530830Y436626D02*
D03*
X1416530D02*
D03*
D61*
X1569600Y1019330D02*
D03*
X1527600D02*
D03*
X1485600D02*
D03*
X1443600D02*
D03*
X1569600Y1074330D02*
D03*
X1527600D02*
D03*
X1485600D02*
D03*
X1443600D02*
D03*
X963930Y300990D02*
D03*
X921930D02*
D03*
X879930D02*
D03*
X837930D02*
D03*
X963930Y355990D02*
D03*
X921930D02*
D03*
X879930D02*
D03*
X837930D02*
D03*
D62*
X762150Y939800D02*
D03*
X819150D02*
D03*
D63*
X972335Y390154D02*
X1227162Y644981D01*
Y719803D01*
X1237451Y739411D02*
X1238250Y740210D01*
X1237451Y730092D02*
Y739411D01*
X926801Y390154D02*
X972335D01*
X1227162Y719803D02*
X1237451Y730092D01*
X879930Y355990D02*
X880916Y356976D01*
X893624D01*
X926801Y390154D01*
D64*
X1481410Y613600D02*
X1494790Y626980D01*
X1481410Y504500D02*
Y613600D01*
D65*
X1243700Y1028700D02*
X1397970D01*
X1443600Y1074330D01*
X1090150Y973310D02*
X1188310D01*
X1243700Y1028700D01*
X1024890Y908050D02*
X1090150Y973310D01*
X1024890Y850100D02*
Y908050D01*
D66*
X1659751Y903906D02*
X1664180Y908335D01*
Y936780D01*
Y906780D02*
Y908335D01*
X1601470Y845820D02*
X1659556Y903906D01*
X1659751D01*
D67*
X1702590Y772950D02*
X1702733Y772807D01*
X1702447Y773093D02*
X1702590Y772950D01*
X1354690Y845820D02*
X1601470D01*
X1283970Y775100D02*
X1354690Y845820D01*
X1702447Y773093D02*
Y786753D01*
X1724660Y735020D02*
Y759460D01*
X1711313Y772807D02*
X1724660Y759460D01*
X1702733Y772807D02*
X1711313D01*
X1702590Y712950D02*
X1724660Y735020D01*
X1643380Y845820D02*
X1702447Y786753D01*
X1601470Y845820D02*
X1643380D01*
M02*
