G04*
G04 #@! TF.GenerationSoftware,Altium Limited,Altium Designer,26.10.1 (5)*
G04*
G04 Layer_Color=16711935*
G04 Board_Origin=0|0*
%FSLAX44Y44*%
%MOMM*%
G71*
G04*
G04 #@! TF.SameCoordinates,1C1FC9D1-0847-4E34-B182-99CB99BC725A*
G04*
G04*
G04 #@! TF.FilePolarity,Negative*
G04*
G01*
G75*
%ADD25R,1.8034X1.8034*%
%ADD26C,1.8034*%
%ADD27R,1.3970X1.3970*%
%ADD28C,1.3970*%
%ADD29C,3.7032*%
%ADD30C,1.5748*%
%ADD31C,1.0668*%
%ADD32C,1.3716*%
%ADD33C,1.1176*%
%ADD34R,1.3970X1.3970*%
%ADD35C,1.3532*%
%ADD36C,1.9558*%
%ADD37R,1.3208X1.3208*%
%ADD38C,1.3208*%
%ADD39C,1.9032*%
%ADD40C,2.6032*%
%ADD41C,2.3622*%
%ADD42C,3.0480*%
%ADD43C,2.1082*%
%ADD44C,2.7940*%
%ADD45C,0.8032*%
%ADD46C,1.7032*%
%ADD47C,1.4032*%
%ADD68C,1.7100*%
D25*
X1204040Y592210D02*
D03*
X1406040Y935710D02*
D03*
D26*
X1204040Y542210D02*
D03*
X1329040D02*
D03*
Y592210D02*
D03*
X1406040Y885710D02*
D03*
X1531040D02*
D03*
Y935710D02*
D03*
D27*
X1595710Y504500D02*
D03*
X1270000Y914400D02*
D03*
X869950Y453390D02*
D03*
X1586230Y808990D02*
D03*
X1664180Y467106D02*
D03*
X1717040Y435610D02*
D03*
X1365730Y437896D02*
D03*
X1346200Y474980D02*
D03*
X1143000Y948690D02*
D03*
X1505430Y469646D02*
D03*
X897890Y419100D02*
D03*
X1530830Y436626D02*
D03*
D28*
X1481410Y504500D02*
D03*
X1155700Y914400D02*
D03*
X1234440Y772160D02*
D03*
X755650Y453390D02*
D03*
X1332500Y984160D02*
D03*
X1471930Y808990D02*
D03*
X1549880Y467106D02*
D03*
X1602740Y435610D02*
D03*
X1168400Y655320D02*
D03*
X1251430Y437896D02*
D03*
X1231900Y474980D02*
D03*
X1288460Y984230D02*
D03*
X1236390Y982960D02*
D03*
X1379750Y982660D02*
D03*
X1257300Y948690D02*
D03*
X1391130Y469646D02*
D03*
X783590Y419100D02*
D03*
X1416530Y436626D02*
D03*
D29*
X740770Y1109770D02*
D03*
X739500Y295750D02*
D03*
X1710611Y1110620D02*
D03*
X1710250Y294750D02*
D03*
D30*
X1098920Y1051060D02*
D03*
X1128920D02*
D03*
X1158920D02*
D03*
X1098920Y1021060D02*
D03*
X1128920D02*
D03*
X1158920D02*
D03*
X1703070Y590550D02*
D03*
Y560550D02*
D03*
Y530550D02*
D03*
X1673070Y590550D02*
D03*
Y560550D02*
D03*
Y530550D02*
D03*
X1664180Y906780D02*
D03*
Y936780D02*
D03*
Y966780D02*
D03*
X1694180Y906780D02*
D03*
Y936780D02*
D03*
Y966780D02*
D03*
X1588940Y384556D02*
D03*
X1618940D02*
D03*
X1648940D02*
D03*
X1588940Y354556D02*
D03*
X1618940D02*
D03*
X1648940D02*
D03*
X1427960Y384556D02*
D03*
X1457960D02*
D03*
X1487960D02*
D03*
X1427960Y354556D02*
D03*
X1457960D02*
D03*
X1487960D02*
D03*
X1268420Y384076D02*
D03*
X1298420D02*
D03*
X1328420D02*
D03*
X1268420Y354076D02*
D03*
X1298420D02*
D03*
X1328420D02*
D03*
X1702590Y772950D02*
D03*
Y742950D02*
D03*
Y712950D02*
D03*
X1672590Y772950D02*
D03*
Y742950D02*
D03*
Y712950D02*
D03*
D31*
X1188920Y1011660D02*
D03*
X1068920D02*
D03*
X1663670Y500550D02*
D03*
Y620550D02*
D03*
X1703580Y996780D02*
D03*
Y876780D02*
D03*
X1678940Y345156D02*
D03*
X1558940D02*
D03*
X1517960D02*
D03*
X1397960D02*
D03*
X1358420Y344676D02*
D03*
X1238420D02*
D03*
X1663190Y682950D02*
D03*
Y802950D02*
D03*
D32*
X1024890Y850100D02*
D03*
Y800100D02*
D03*
X946150Y850100D02*
D03*
Y800100D02*
D03*
X1173960Y390106D02*
D03*
Y340106D02*
D03*
D33*
X1278890Y715210D02*
D03*
Y740210D02*
D03*
X1121410Y887930D02*
D03*
Y912930D02*
D03*
X1238250Y715210D02*
D03*
Y740210D02*
D03*
D34*
X1234440Y886460D02*
D03*
X1332500Y1098460D02*
D03*
X1168400Y541020D02*
D03*
X1288460Y1098530D02*
D03*
X1236390Y1097260D02*
D03*
X1379750Y1096960D02*
D03*
D35*
X1283970Y825100D02*
D03*
Y775100D02*
D03*
X1400810Y626980D02*
D03*
Y576980D02*
D03*
X1464310Y626980D02*
D03*
Y576980D02*
D03*
X1397000Y781520D02*
D03*
Y731520D02*
D03*
X1405490Y699770D02*
D03*
X1355490D02*
D03*
X1363980Y804780D02*
D03*
Y754780D02*
D03*
X1551940Y626980D02*
D03*
Y576980D02*
D03*
X1522730Y626980D02*
D03*
Y576980D02*
D03*
X1534160Y781920D02*
D03*
Y731920D02*
D03*
X1494790Y626980D02*
D03*
Y576980D02*
D03*
X1433830Y626980D02*
D03*
Y576980D02*
D03*
X1438910Y820020D02*
D03*
Y770020D02*
D03*
D36*
X800369Y665713D02*
D03*
Y623713D02*
D03*
Y581713D02*
D03*
X745369Y665713D02*
D03*
Y623713D02*
D03*
Y581713D02*
D03*
X1569600Y1019330D02*
D03*
X1527600D02*
D03*
X1485600D02*
D03*
X1443600D02*
D03*
X1569600Y1074330D02*
D03*
X1527600D02*
D03*
X1485600D02*
D03*
X1443600D02*
D03*
X963930Y300990D02*
D03*
X921930D02*
D03*
X879930D02*
D03*
X837930D02*
D03*
X963930Y355990D02*
D03*
X921930D02*
D03*
X879930D02*
D03*
X837930D02*
D03*
D37*
X972820Y464820D02*
D03*
X971550Y412750D02*
D03*
D38*
X1022820Y464820D02*
D03*
X1021550Y412750D02*
D03*
D39*
X1075690Y600710D02*
D03*
Y575310D02*
D03*
Y473710D02*
D03*
Y448310D02*
D03*
Y422910D02*
D03*
Y397510D02*
D03*
Y359410D02*
D03*
Y334010D02*
D03*
D40*
X1055190Y645210D02*
D03*
Y302310D02*
D03*
D41*
X762150Y939800D02*
D03*
X819150D02*
D03*
D42*
X822400Y1001500D02*
D03*
Y878100D02*
D03*
D43*
X932180Y986790D02*
D03*
Y906790D02*
D03*
D44*
X924180Y946790D02*
D03*
D45*
X1407500Y670500D02*
D03*
X1396441Y677145D02*
D03*
X1409250Y682750D02*
D03*
X1390650Y647700D02*
D03*
X1369060Y618490D02*
D03*
X1377950Y629920D02*
D03*
X1420172Y666559D02*
D03*
X1200150Y455930D02*
D03*
X1385570Y604520D02*
D03*
X1200250Y499250D02*
D03*
X1305560Y923290D02*
D03*
X1087120Y934720D02*
D03*
X1054100Y901700D02*
D03*
X1041400Y955040D02*
D03*
X1071880Y919480D02*
D03*
X1026160Y941070D02*
D03*
X1365250Y562610D02*
D03*
X1377950Y589280D02*
D03*
X1325880Y792480D02*
D03*
X786130Y778510D02*
D03*
X783590Y742950D02*
D03*
X820420D02*
D03*
X861060Y744220D02*
D03*
X859790Y778510D02*
D03*
X861060Y812800D02*
D03*
X821690D02*
D03*
X788670D02*
D03*
X859790Y1026160D02*
D03*
Y1041400D02*
D03*
X889000Y1026160D02*
D03*
Y1041400D02*
D03*
X915670Y1026160D02*
D03*
Y1041400D02*
D03*
X1523250Y680000D02*
D03*
X1574800Y629920D02*
D03*
X1581150Y618490D02*
D03*
X1524000Y692150D02*
D03*
X1522136Y705960D02*
D03*
X1524000Y716280D02*
D03*
X1534160Y708660D02*
D03*
X1557020Y781050D02*
D03*
X1581150D02*
D03*
X1620520Y304800D02*
D03*
X1550670D02*
D03*
X1470250Y305250D02*
D03*
X1229360Y300990D02*
D03*
X1173480Y302260D02*
D03*
X1430020Y657860D02*
D03*
X1436370Y684530D02*
D03*
X1508189Y670480D02*
D03*
X1454150Y643890D02*
D03*
X1442720Y645160D02*
D03*
X1480820D02*
D03*
X1443990Y673100D02*
D03*
X1491000Y678250D02*
D03*
X1454150Y673100D02*
D03*
X1463040Y678180D02*
D03*
X1306830Y736600D02*
D03*
X1258570Y786130D02*
D03*
Y769620D02*
D03*
Y803910D02*
D03*
X1306830Y712470D02*
D03*
X1487250Y709250D02*
D03*
X1496060Y721280D02*
D03*
X1493500Y699750D02*
D03*
X1419860Y796290D02*
D03*
X1436370Y694690D02*
D03*
X1454150Y759460D02*
D03*
X1507490Y744220D02*
D03*
X1411750Y787500D02*
D03*
X1494790Y758190D02*
D03*
X1258570Y819150D02*
D03*
X1315250Y930500D02*
D03*
X1493750Y689250D02*
D03*
X1407160Y304800D02*
D03*
X1289050Y302260D02*
D03*
D46*
X1014730Y1033780D02*
D03*
X1203500Y681000D02*
D03*
X949960Y1033780D02*
D03*
X1610360Y742950D02*
D03*
Y712470D02*
D03*
X1617230Y549730D02*
D03*
X1332230Y674370D02*
D03*
X1355090Y303530D02*
D03*
D47*
X1578610Y673100D02*
D03*
X1579880Y652780D02*
D03*
X1357007Y647054D02*
D03*
D68*
X820420Y779780D02*
D03*
M02*
