G04*
G04 #@! TF.GenerationSoftware,Altium Limited,Altium Designer,26.10.1 (5)*
G04*
G04 Layer_Color=8421504*
G04 Board_Origin=0|0*
%FSLAX44Y44*%
%MOMM*%
G71*
G04*
G04 #@! TF.SameCoordinates,1C1FC9D1-0847-4E34-B182-99CB99BC725A*
G04*
G04*
G04 #@! TF.FilePolarity,Positive*
G04*
G01*
G75*
%ADD18R,0.9398X0.5588*%
%ADD19R,1.1938X0.3048*%
%ADD20R,0.3048X1.1938*%
%ADD21R,0.8080X0.2548*%
%ADD22R,1.6002X2.5908*%
G36*
X1089150Y769620D02*
X1104390D01*
Y754380D01*
X1089150D01*
Y769620D01*
D02*
G37*
G36*
X1110599Y835136D02*
X1124601D01*
Y846090D01*
X1110599D01*
Y835136D01*
D02*
G37*
G36*
Y848090D02*
X1124601D01*
Y859044D01*
X1110599D01*
Y848090D01*
D02*
G37*
D18*
X1150620Y834771D02*
D03*
Y854329D02*
D03*
X1089660Y852551D02*
D03*
Y872109D02*
D03*
D19*
X1508760Y729770D02*
D03*
Y704770D02*
D03*
Y709770D02*
D03*
Y699770D02*
D03*
Y719770D02*
D03*
Y724770D02*
D03*
Y714770D02*
D03*
Y679770D02*
D03*
Y689770D02*
D03*
Y694770D02*
D03*
Y684770D02*
D03*
Y674770D02*
D03*
X1423760Y724770D02*
D03*
Y719770D02*
D03*
Y729770D02*
D03*
Y699770D02*
D03*
Y704770D02*
D03*
Y694770D02*
D03*
Y714770D02*
D03*
Y709770D02*
D03*
Y679770D02*
D03*
Y684770D02*
D03*
Y689770D02*
D03*
Y674770D02*
D03*
D20*
X1468760Y744770D02*
D03*
X1458760D02*
D03*
X1453760D02*
D03*
X1463760D02*
D03*
X1488760D02*
D03*
X1483760D02*
D03*
X1493760D02*
D03*
X1473760D02*
D03*
X1478760D02*
D03*
X1473760Y659770D02*
D03*
X1478760D02*
D03*
X1463760D02*
D03*
X1458760D02*
D03*
X1468760D02*
D03*
X1493760D02*
D03*
X1488760D02*
D03*
X1483760D02*
D03*
X1443760Y744770D02*
D03*
X1438760D02*
D03*
X1448760D02*
D03*
X1438760Y659770D02*
D03*
X1448760D02*
D03*
X1443760D02*
D03*
X1453760D02*
D03*
D21*
X1132054Y834587D02*
D03*
Y839588D02*
D03*
Y844589D02*
D03*
Y849591D02*
D03*
Y854592D02*
D03*
Y859593D02*
D03*
X1103146D02*
D03*
Y854592D02*
D03*
Y849591D02*
D03*
Y844589D02*
D03*
Y839588D02*
D03*
Y834587D02*
D03*
D22*
X1117600Y847090D02*
D03*
M02*
