M48
;Layer_Color=9474304
;FILE_FORMAT=2:5
INCH
;TYPE=PLATED
T01F00S00C0.01181
T02F00S00C0.01968
T03F00S00C0.02400
T04F00S00C0.03150
T05F00S00C0.03200
T06F00S00C0.03400
T07F00S00C0.03500
T08F00S00C0.04200
T09F00S00C0.04724
T10F00S00C0.05100
T11F00S00C0.05700
T12F00S00C0.06300
T13F00S00C0.07300
%
T01
X0462000Y0119000
X0484000Y0118500
X0507500Y0119000
X0554000Y0120000
X0578839Y0120177
X0610500Y0120000
X0638000
X0622500Y0243500
X0620000Y0248000
X0599705Y0267717
X0600000Y0272500
X0599266Y0277937
X0600000Y0282000
X0604000Y0279000
X0585532Y0279232
X0587992Y0275492
X0588091Y0271358
X0587008Y0267028
X0593775Y0263968
X0583000Y0254000
X0572500Y0253500
X0568000Y0254000
X0563000Y0259000
X0559123Y0262425
X0554134Y0263976
X0554823Y0268799
X0549780Y0266592
X0547500Y0255000
X0542500Y0248000
X0539000Y0243500
X0545500Y0238000
X0542500Y0232000
X0537500Y0221500
X0568500Y0265000
X0572500
X0576000Y0267000
X0565500Y0269500
Y0273500
X0572500Y0299000
X0588500Y0298500
X0593500Y0293000
X0589000Y0283968
X0613000Y0307500
X0622500
X0555807Y0310039
X0522000Y0312000
X0495500Y0309500
Y0303000
X0514500Y0290000
Y0280500
X0472539Y0196555
X0472500Y0179500
X0339000Y0293000
X0338500Y0306500
X0323000Y0292500
X0308500
X0309500Y0306500
X0310500Y0320000
X0323500
X0339000
X0338500Y0404000
Y0410000
X0350000
Y0404000
X0360500
Y0410000
X0404000Y0370500
X0410000Y0376000
X0428000Y0368000
X0422000Y0362000
X0415000Y0355000
X0514000Y0363500
X0517815Y0366339
X0495500Y0322500
Y0316500
X0559000Y0313500
T02
X0533500Y0119500
X0636705Y0216429
X0634000Y0280500
Y0292500
X0621500Y0265000
X0622000Y0257000
X0534255Y0254746
X0524500Y0265500
X0473819Y0268110
X0323000Y0307000
X0374000Y0407000
X0399500
T03
X0487500Y0281579
Y0291421
X0503500
Y0281579
X0441500Y0349579
Y0359421
T04
X0423500Y0131500
Y0141500
X0551500Y0227157
X0564500
X0576500
X0588500
X0599500
X0611000
Y0246843
X0599500
X0588500
X0576500
X0564500
X0551500
X0553342Y0275500
X0550000Y0288000
Y0307685
X0566500Y0303157
X0537000Y0297158
X0533658Y0275500
X0505500Y0305157
X0604000Y0307842
Y0288158
X0423500Y0236500
Y0226500
Y0186500
Y0176500
Y0166500
Y0156500
X0505500Y0324843
X0537000Y0316843
X0566500Y0322843
T05
X0382500Y0162500
X0402185
X0402685Y0183000
X0383000
T06
X0462189Y0133900
Y0153585
X0403500Y0315000
Y0334685
X0372500
Y0315000
T07
X0631000Y0171500
X0628232Y0198622
X0655189Y0183900
X0676000Y0171500
X0602689Y0171900
X0610189Y0183900
X0592689Y0184900
X0583232Y0198622
X0547689Y0184900
X0530000Y0187000
X0537689Y0172400
X0557689Y0171900
X0492689Y0172400
X0485000Y0187000
X0486000Y0304000
X0460000Y0258000
Y0213000
X0342500Y0178500
X0353500Y0165000
X0308500
X0297500Y0178500
X0455000Y0360000
X0450000Y0373500
X0495000
X0500000Y0360000
X0486000Y0349000
X0486768Y0386992
X0507268Y0387492
X0524606Y0387465
X0543209Y0386874
Y0431874
X0524606Y0432465
X0507268Y0432492
X0486768Y0431992
X0579500Y0318500
X0624500
T08
X0499378Y0139400
Y0151211
X0511189
X0523000
Y0139400
X0511189
X0562189Y0139589
Y0151400
X0574000
X0585811
Y0139589
X0574000
X0625567
Y0151400
X0637378
X0649189
Y0139589
X0637378
X0658689Y0208878
X0670500
Y0220689
Y0232500
X0658689
Y0220689
X0658500Y0280689
X0670311
Y0292500
Y0304311
X0658500
Y0292500
X0456268Y0401992
Y0413803
X0444457
X0432646
Y0401992
X0444457
X0655189Y0380622
Y0368811
Y0357000
X0667000
Y0368811
Y0380622
T09
X0415429Y0119020
Y0254020
T10
X0474031Y0213469
Y0233154
X0523244
Y0213469
X0553559Y0348705
Y0368390
X0602772
Y0348705
T11
X0329894Y0118500
X0346429
X0362965
X0379500
Y0140154
X0362965
X0346429
X0329894
X0315106Y0229021
Y0245556
Y0262092
X0293452
Y0245556
Y0229021
X0568347Y0401311
X0584882
X0601417
X0617953
Y0422965
X0601417
X0584882
X0568347
T12
X0367000Y0357004
Y0388500
T13
X0300059Y0370000
X0322500
M30
