M48
;Layer_Color=9474304
;FILE_FORMAT=2:5
INCH
;TYPE=NON_PLATED
T14F00S00C0.04200
T15F00S00C0.11000
T16F00S00C0.12000
T17F00S00C0.12598
%
T14
X0487567Y0135699
X0534811
X0550378Y0135888
X0597622
X0613756
X0661000
X0654988Y0197067
Y0244311
X0654799Y0268878
X0468079Y0398291
X0420835
X0670701Y0392433
Y0345189
X0654799Y0316122
T15
X0363850Y0372752
T16
X0323780Y0345709
Y0394291
T17
X0291142Y0116437
X0673327Y0116043
X0291642Y0436917
X0673469Y0437252
M30
