G04*
G04 #@! TF.GenerationSoftware,Altium Limited,Altium Designer,26.10.1 (5)*
G04*
G04 Layer_Physical_Order=1*
G04 Layer_Color=255*
G04 Board_Origin=0|0*
%FSLAX44Y44*%
%MOMM*%
G71*
G04*
G04 #@! TF.SameCoordinates,1C1FC9D1-0847-4E34-B182-99CB99BC725A*
G04*
G04*
G04 #@! TF.FilePolarity,Positive*
G04*
G01*
G75*
%ADD12C,0.4000*%
%ADD15C,0.2540*%
%ADD18R,0.9398X0.5588*%
%ADD19R,1.1938X0.3048*%
%ADD20R,0.3048X1.1938*%
%ADD21R,0.8080X0.2548*%
%ADD22R,1.6002X2.5908*%
%ADD24R,4.1000X3.5000*%
%ADD25R,1.8034X1.8034*%
%ADD26C,1.8034*%
%ADD27R,1.3970X1.3970*%
%ADD28C,1.3970*%
%ADD30C,1.5748*%
%ADD31C,1.0668*%
%ADD32C,1.3716*%
%ADD33C,1.1176*%
%ADD34R,1.3970X1.3970*%
%ADD36C,1.9558*%
%ADD37R,1.3208X1.3208*%
%ADD38C,1.3208*%
%ADD41C,2.3622*%
%ADD42C,3.0480*%
%ADD43C,2.1082*%
%ADD44C,2.7940*%
%ADD48R,1.5748X0.5588*%
%ADD49C,0.5000*%
%ADD50C,0.3000*%
%ADD51C,2.0000*%
%ADD52C,3.5000*%
%ADD53C,1.1500*%
%ADD54C,1.7000*%
%ADD55C,2.4000*%
%ADD56C,0.6000*%
%ADD57C,1.5000*%
%ADD58C,1.2000*%
G36*
X1743691Y1124333D02*
X1741151Y1123828D01*
X1740347Y1125771D01*
X1737610Y1130236D01*
X1734209Y1134218D01*
X1730227Y1137619D01*
X1725762Y1140355D01*
X1722029Y1141901D01*
X1722534Y1144441D01*
X1743691D01*
Y1124333D01*
D02*
G37*
G36*
X732089Y1141901D02*
X730457Y1141509D01*
X725619Y1139505D01*
X721154Y1136769D01*
X717172Y1133368D01*
X713771Y1129386D01*
X711035Y1124921D01*
X709031Y1120083D01*
X706559Y1120667D01*
Y1144441D01*
X731789D01*
X732089Y1141901D01*
D02*
G37*
G36*
X1714786Y1136976D02*
X1718857Y1135999D01*
X1722726Y1134396D01*
X1726296Y1132208D01*
X1729481Y1129489D01*
X1732200Y1126305D01*
X1734388Y1122735D01*
X1735990Y1118866D01*
X1736968Y1114794D01*
X1737296Y1110620D01*
X1736968Y1106445D01*
X1735990Y1102374D01*
X1734388Y1098505D01*
X1732200Y1094934D01*
X1729481Y1091750D01*
X1726296Y1089031D01*
X1722726Y1086843D01*
X1718857Y1085240D01*
X1714786Y1084263D01*
X1710611Y1083934D01*
X1706437Y1084263D01*
X1702365Y1085240D01*
X1698496Y1086843D01*
X1694926Y1089031D01*
X1691742Y1091750D01*
X1689022Y1094934D01*
X1686835Y1098505D01*
X1685232Y1102374D01*
X1684254Y1106445D01*
X1683926Y1110620D01*
X1684254Y1114794D01*
X1685232Y1118866D01*
X1686835Y1122735D01*
X1689022Y1126305D01*
X1691742Y1129489D01*
X1694926Y1132208D01*
X1698496Y1134396D01*
X1702365Y1135999D01*
X1706437Y1136976D01*
X1710611Y1137305D01*
X1714786Y1136976D01*
D02*
G37*
G36*
X744945Y1136127D02*
X749016Y1135149D01*
X752885Y1133547D01*
X756455Y1131359D01*
X759639Y1128639D01*
X762359Y1125455D01*
X764547Y1121885D01*
X766149Y1118016D01*
X767127Y1113944D01*
X767455Y1109770D01*
X767127Y1105595D01*
X766149Y1101524D01*
X764547Y1097655D01*
X762359Y1094085D01*
X759639Y1090901D01*
X756455Y1088181D01*
X752885Y1085993D01*
X749016Y1084391D01*
X744945Y1083413D01*
X740770Y1083085D01*
X736596Y1083413D01*
X732524Y1084391D01*
X728655Y1085993D01*
X725085Y1088181D01*
X721901Y1090901D01*
X719181Y1094085D01*
X716993Y1097655D01*
X715391Y1101524D01*
X714413Y1105595D01*
X714085Y1109770D01*
X714413Y1113944D01*
X715391Y1118016D01*
X716993Y1121885D01*
X719181Y1125455D01*
X721901Y1128639D01*
X725085Y1131359D01*
X728655Y1133547D01*
X732524Y1135149D01*
X736596Y1136127D01*
X740770Y1136455D01*
X744945Y1136127D01*
D02*
G37*
G36*
X1699193Y1141901D02*
X1695460Y1140355D01*
X1690995Y1137619D01*
X1687013Y1134218D01*
X1683612Y1130236D01*
X1680876Y1125771D01*
X1678872Y1120932D01*
X1677649Y1115840D01*
X1677238Y1110620D01*
X1677649Y1105399D01*
X1678872Y1100307D01*
X1680876Y1095469D01*
X1683612Y1091004D01*
X1687013Y1087021D01*
X1690995Y1083621D01*
X1695460Y1080884D01*
X1700298Y1078880D01*
X1705391Y1077658D01*
X1710611Y1077247D01*
X1715832Y1077658D01*
X1720924Y1078880D01*
X1725762Y1080884D01*
X1730227Y1083621D01*
X1734209Y1087021D01*
X1737610Y1091004D01*
X1740347Y1095469D01*
X1741151Y1097411D01*
X1743691Y1096906D01*
X1743691Y307591D01*
X1741151Y307086D01*
X1739985Y309901D01*
X1737249Y314366D01*
X1733848Y318348D01*
X1729866Y321749D01*
X1725401Y324485D01*
X1720563Y326489D01*
X1715471Y327712D01*
X1710250Y328123D01*
X1705029Y327712D01*
X1699937Y326489D01*
X1695099Y324485D01*
X1690634Y321749D01*
X1686652Y318348D01*
X1683251Y314366D01*
X1680515Y309901D01*
X1678510Y305063D01*
X1677288Y299971D01*
X1676877Y294750D01*
X1677288Y289529D01*
X1678510Y284437D01*
X1680515Y279599D01*
X1683251Y275134D01*
X1686652Y271152D01*
X1690634Y267751D01*
X1694554Y265349D01*
X1694054Y262942D01*
X1693986Y262809D01*
X753549D01*
X753043Y265349D01*
X754651Y266015D01*
X759116Y268751D01*
X763098Y272152D01*
X766499Y276134D01*
X769235Y280599D01*
X771239Y285437D01*
X772462Y290529D01*
X772873Y295750D01*
X772462Y300971D01*
X771239Y306063D01*
X769235Y310901D01*
X766499Y315366D01*
X763098Y319348D01*
X759116Y322749D01*
X754651Y325485D01*
X749813Y327490D01*
X744721Y328712D01*
X739500Y329123D01*
X734279Y328712D01*
X729187Y327490D01*
X724349Y325485D01*
X719884Y322749D01*
X715902Y319348D01*
X712501Y315366D01*
X709765Y310901D01*
X709099Y309293D01*
X706559Y309799D01*
Y1098873D01*
X709031Y1099457D01*
X711035Y1094619D01*
X713771Y1090154D01*
X717172Y1086172D01*
X721154Y1082771D01*
X725619Y1080035D01*
X730457Y1078030D01*
X735549Y1076808D01*
X740770Y1076397D01*
X745991Y1076808D01*
X751083Y1078030D01*
X755921Y1080035D01*
X760386Y1082771D01*
X764368Y1086172D01*
X767769Y1090154D01*
X770505Y1094619D01*
X772510Y1099457D01*
X773732Y1104549D01*
X774143Y1109770D01*
X773732Y1114991D01*
X772510Y1120083D01*
X770505Y1124921D01*
X767769Y1129386D01*
X764368Y1133368D01*
X760386Y1136769D01*
X755921Y1139505D01*
X751083Y1141509D01*
X749451Y1141901D01*
X749751Y1144441D01*
X1698688D01*
X1699193Y1141901D01*
D02*
G37*
G36*
X743674Y322107D02*
X747746Y321129D01*
X751615Y319527D01*
X755185Y317339D01*
X758369Y314619D01*
X761089Y311435D01*
X763277Y307865D01*
X764879Y303996D01*
X765857Y299925D01*
X766185Y295750D01*
X765857Y291576D01*
X764879Y287504D01*
X763277Y283635D01*
X761089Y280065D01*
X758369Y276881D01*
X755185Y274161D01*
X751615Y271973D01*
X747746Y270371D01*
X743674Y269393D01*
X739500Y269065D01*
X735325Y269393D01*
X731254Y270371D01*
X727385Y271973D01*
X723815Y274161D01*
X720631Y276881D01*
X717911Y280065D01*
X715723Y283635D01*
X714121Y287504D01*
X713143Y291576D01*
X712815Y295750D01*
X713143Y299925D01*
X714121Y303996D01*
X715723Y307865D01*
X717911Y311435D01*
X720631Y314619D01*
X723815Y317339D01*
X727385Y319527D01*
X731254Y321129D01*
X735325Y322107D01*
X739500Y322435D01*
X743674Y322107D01*
D02*
G37*
G36*
X1714424Y321107D02*
X1718496Y320129D01*
X1722365Y318527D01*
X1725935Y316339D01*
X1729119Y313619D01*
X1731839Y310435D01*
X1734027Y306865D01*
X1735629Y302996D01*
X1736607Y298925D01*
X1736935Y294750D01*
X1736607Y290576D01*
X1735629Y286504D01*
X1734027Y282635D01*
X1731839Y279065D01*
X1729119Y275881D01*
X1725935Y273161D01*
X1722365Y270973D01*
X1718496Y269371D01*
X1714424Y268393D01*
X1710250Y268065D01*
X1706075Y268393D01*
X1702004Y269371D01*
X1698135Y270973D01*
X1694565Y273161D01*
X1691381Y275881D01*
X1688661Y279065D01*
X1686473Y282635D01*
X1684871Y286504D01*
X1683893Y290576D01*
X1683565Y294750D01*
X1683893Y298925D01*
X1684871Y302996D01*
X1686473Y306865D01*
X1688661Y310435D01*
X1691381Y313619D01*
X1694565Y316339D01*
X1698135Y318527D01*
X1702004Y320129D01*
X1706075Y321107D01*
X1710250Y321435D01*
X1714424Y321107D01*
D02*
G37*
G36*
X1743691Y281909D02*
Y262809D01*
X1726514D01*
X1726446Y262942D01*
X1725946Y265349D01*
X1729866Y267751D01*
X1733848Y271152D01*
X1737249Y275134D01*
X1739985Y279599D01*
X1741151Y282414D01*
X1743691Y281909D01*
D02*
G37*
G36*
X709765Y280599D02*
X712501Y276134D01*
X715902Y272152D01*
X719884Y268751D01*
X724349Y266015D01*
X725957Y265349D01*
X725452Y262809D01*
X706559D01*
Y281702D01*
X709099Y282207D01*
X709765Y280599D01*
D02*
G37*
%LPC*%
G36*
X1712532Y1130120D02*
X1708691D01*
X1704923Y1129370D01*
X1701375Y1127900D01*
X1698181Y1125766D01*
X1695465Y1123050D01*
X1693331Y1119856D01*
X1691861Y1116308D01*
X1691111Y1112540D01*
Y1108699D01*
X1691861Y1104932D01*
X1693331Y1101383D01*
X1695465Y1098189D01*
X1698181Y1095473D01*
X1701375Y1093339D01*
X1704923Y1091869D01*
X1708691Y1091120D01*
X1712532D01*
X1716299Y1091869D01*
X1719848Y1093339D01*
X1723042Y1095473D01*
X1725758Y1098189D01*
X1727892Y1101383D01*
X1729362Y1104932D01*
X1730111Y1108699D01*
Y1112540D01*
X1729362Y1116308D01*
X1727892Y1119856D01*
X1725758Y1123050D01*
X1723042Y1125766D01*
X1719848Y1127900D01*
X1716299Y1129370D01*
X1712532Y1130120D01*
D02*
G37*
G36*
X742691Y1129270D02*
X738849D01*
X735082Y1128521D01*
X731533Y1127051D01*
X728339Y1124917D01*
X725623Y1122200D01*
X723489Y1119007D01*
X722019Y1115458D01*
X721270Y1111691D01*
Y1107849D01*
X722019Y1104082D01*
X723489Y1100533D01*
X725623Y1097339D01*
X728339Y1094623D01*
X731533Y1092489D01*
X735082Y1091019D01*
X738849Y1090270D01*
X742691D01*
X746458Y1091019D01*
X750007Y1092489D01*
X753201Y1094623D01*
X755917Y1097339D01*
X758051Y1100533D01*
X759521Y1104082D01*
X760270Y1107849D01*
Y1111691D01*
X759521Y1115458D01*
X758051Y1119007D01*
X755917Y1122200D01*
X753201Y1124917D01*
X750007Y1127051D01*
X746458Y1128521D01*
X742691Y1129270D01*
D02*
G37*
G36*
X1297985Y1108055D02*
X1289730D01*
Y1099800D01*
X1297985D01*
Y1108055D01*
D02*
G37*
G36*
X1287190D02*
X1278935D01*
Y1099800D01*
X1287190D01*
Y1108055D01*
D02*
G37*
G36*
X1342025Y1107985D02*
X1333770D01*
Y1099730D01*
X1342025D01*
Y1107985D01*
D02*
G37*
G36*
X1331230D02*
X1322975D01*
Y1099730D01*
X1331230D01*
Y1107985D01*
D02*
G37*
G36*
X1245915Y1106785D02*
X1237660D01*
Y1098530D01*
X1245915D01*
Y1106785D01*
D02*
G37*
G36*
X1235120D02*
X1226865D01*
Y1098530D01*
X1235120D01*
Y1106785D01*
D02*
G37*
G36*
X1389275Y1106485D02*
X1381020D01*
Y1098230D01*
X1389275D01*
Y1106485D01*
D02*
G37*
G36*
X1378480D02*
X1370225D01*
Y1098230D01*
X1378480D01*
Y1106485D01*
D02*
G37*
G36*
X1297985Y1097260D02*
X1289730D01*
Y1089005D01*
X1297985D01*
Y1097260D01*
D02*
G37*
G36*
X1287190D02*
X1278935D01*
Y1089005D01*
X1287190D01*
Y1097260D01*
D02*
G37*
G36*
X1342025Y1097190D02*
X1333770D01*
Y1088935D01*
X1342025D01*
Y1097190D01*
D02*
G37*
G36*
X1331230D02*
X1322975D01*
Y1088935D01*
X1331230D01*
Y1097190D01*
D02*
G37*
G36*
X1245915Y1095990D02*
X1237660D01*
Y1087735D01*
X1245915D01*
Y1095990D01*
D02*
G37*
G36*
X1235120D02*
X1226865D01*
Y1087735D01*
X1235120D01*
Y1095990D01*
D02*
G37*
G36*
X1389275Y1095690D02*
X1381020D01*
Y1087435D01*
X1389275D01*
Y1095690D01*
D02*
G37*
G36*
X1378480D02*
X1370225D01*
Y1087435D01*
X1378480D01*
Y1095690D01*
D02*
G37*
G36*
X1529222Y1086649D02*
X1528870D01*
Y1075600D01*
X1539919D01*
Y1075952D01*
X1539079Y1079085D01*
X1537458Y1081894D01*
X1535164Y1084188D01*
X1532355Y1085809D01*
X1529222Y1086649D01*
D02*
G37*
G36*
X1571222D02*
X1570870D01*
Y1075600D01*
X1581919D01*
Y1075952D01*
X1581080Y1079085D01*
X1579458Y1081894D01*
X1577164Y1084188D01*
X1574355Y1085809D01*
X1571222Y1086649D01*
D02*
G37*
G36*
X1568330D02*
X1567978D01*
X1564845Y1085809D01*
X1562036Y1084188D01*
X1559742Y1081894D01*
X1558121Y1079085D01*
X1557281Y1075952D01*
Y1075600D01*
X1568330D01*
Y1086649D01*
D02*
G37*
G36*
X1526330D02*
X1525978D01*
X1522845Y1085809D01*
X1520036Y1084188D01*
X1517742Y1081894D01*
X1516121Y1079085D01*
X1515281Y1075952D01*
Y1075600D01*
X1526330D01*
Y1086649D01*
D02*
G37*
G36*
X1487151Y1086109D02*
X1484049D01*
X1481053Y1085306D01*
X1478368Y1083755D01*
X1476174Y1081562D01*
X1474648Y1078918D01*
X1471080D01*
X1469324Y1078569D01*
X1467836Y1077574D01*
X1424359Y1034097D01*
X1404796D01*
X1403040Y1033748D01*
X1401552Y1032753D01*
X1322077Y953278D01*
X1265026D01*
X1264490Y954207D01*
X1262817Y955880D01*
X1260768Y957063D01*
X1258483Y957675D01*
X1256117D01*
X1253832Y957063D01*
X1251783Y955880D01*
X1250110Y954207D01*
X1249574Y953278D01*
X1235029D01*
X1186119Y1002188D01*
X1187433Y1004466D01*
X1187954Y1004326D01*
X1189885D01*
X1191751Y1004826D01*
X1193423Y1005791D01*
X1194789Y1007157D01*
X1195754Y1008829D01*
X1196254Y1010694D01*
Y1012626D01*
X1195754Y1014491D01*
X1194789Y1016163D01*
X1193423Y1017529D01*
X1191751Y1018494D01*
X1189885Y1018994D01*
X1187954D01*
X1186089Y1018494D01*
X1184417Y1017529D01*
X1183051Y1016163D01*
X1182086Y1014491D01*
X1181586Y1012626D01*
Y1010694D01*
X1181726Y1010173D01*
X1179448Y1008859D01*
X1168742Y1019565D01*
X1168794Y1019760D01*
Y1022360D01*
X1168121Y1024871D01*
X1166821Y1027123D01*
X1166038Y1027906D01*
X1167090Y1030446D01*
X1184211D01*
X1228095Y986562D01*
X1228017Y986428D01*
X1227405Y984143D01*
Y981777D01*
X1228017Y979492D01*
X1229200Y977443D01*
X1230873Y975770D01*
X1232922Y974587D01*
X1235207Y973975D01*
X1237573D01*
X1239858Y974587D01*
X1241907Y975770D01*
X1243580Y977443D01*
X1244763Y979492D01*
X1245375Y981777D01*
Y984143D01*
X1244763Y986428D01*
X1243580Y988477D01*
X1241907Y990150D01*
X1239858Y991333D01*
X1237573Y991945D01*
X1235207D01*
X1232922Y991333D01*
X1232816Y991271D01*
X1187950Y1036137D01*
X1186868Y1036860D01*
X1185592Y1037114D01*
X1111640D01*
X1110364Y1036860D01*
X1109283Y1036137D01*
X1103159Y1030014D01*
X1102731Y1030261D01*
X1100220Y1030934D01*
X1097620D01*
X1095109Y1030261D01*
X1092857Y1028961D01*
X1091019Y1027123D01*
X1089719Y1024871D01*
X1089046Y1022360D01*
Y1019760D01*
X1089719Y1017249D01*
X1090433Y1016013D01*
X1090406Y1015880D01*
X1090660Y1014604D01*
X1091383Y1013523D01*
X1092465Y1012800D01*
X1093740Y1012546D01*
X1093873Y1012573D01*
X1095109Y1011859D01*
X1097620Y1011186D01*
X1100220D01*
X1102731Y1011859D01*
X1104983Y1013159D01*
X1106821Y1014997D01*
X1108121Y1017249D01*
X1108794Y1019760D01*
Y1022360D01*
X1108121Y1024871D01*
X1107874Y1025299D01*
X1113021Y1030446D01*
X1119986D01*
X1121038Y1027906D01*
X1120587Y1027454D01*
X1119216Y1025080D01*
X1118506Y1022431D01*
Y1022330D01*
X1128920D01*
X1139334D01*
Y1022431D01*
X1138624Y1025080D01*
X1137253Y1027454D01*
X1136802Y1027906D01*
X1137854Y1030446D01*
X1150750D01*
X1151802Y1027906D01*
X1151019Y1027123D01*
X1149719Y1024871D01*
X1149046Y1022360D01*
Y1019760D01*
X1149719Y1017249D01*
X1151019Y1014997D01*
X1152857Y1013159D01*
X1155109Y1011859D01*
X1157620Y1011186D01*
X1160220D01*
X1162731Y1011859D01*
X1163200Y1012130D01*
X1229884Y945446D01*
X1231373Y944451D01*
X1233128Y944102D01*
X1244604D01*
X1246419Y941562D01*
X1246362Y941276D01*
Y833254D01*
X1168400D01*
X1167620Y833099D01*
X1166958Y832657D01*
X1166516Y831995D01*
X1166361Y831215D01*
Y784443D01*
X1166388Y784306D01*
X1166380Y784166D01*
X1166710Y781763D01*
X1166795Y781516D01*
X1166846Y781260D01*
X1166924Y781143D01*
X1166970Y781011D01*
X1167143Y780815D01*
X1167288Y780598D01*
X1167405Y780520D01*
X1167498Y780415D01*
X1167732Y780301D01*
X1167950Y780156D01*
X1168087Y780129D01*
X1168213Y780067D01*
X1168474Y780052D01*
X1168730Y780001D01*
X1169270D01*
Y743999D01*
X1168730D01*
X1168474Y743948D01*
X1168213Y743933D01*
X1168087Y743871D01*
X1167950Y743844D01*
X1167732Y743699D01*
X1167498Y743585D01*
X1167405Y743480D01*
X1167288Y743402D01*
X1167143Y743185D01*
X1166970Y742989D01*
X1166924Y742857D01*
X1166846Y742740D01*
X1166795Y742484D01*
X1166710Y742237D01*
X1166380Y739834D01*
X1166388Y739694D01*
X1166361Y739557D01*
Y694055D01*
X1166371Y694004D01*
X1166363Y693953D01*
X1166448Y693616D01*
X1166516Y693275D01*
X1166545Y693232D01*
X1166557Y693182D01*
X1166765Y692902D01*
X1166958Y692613D01*
X1167001Y692584D01*
X1167032Y692543D01*
X1235812Y630313D01*
X1236111Y630134D01*
X1236400Y629941D01*
X1236451Y629931D01*
X1236495Y629904D01*
X1236840Y629854D01*
X1237180Y629786D01*
X1319530D01*
X1320310Y629941D01*
X1320972Y630383D01*
X1321414Y631045D01*
X1321569Y631825D01*
Y668755D01*
X1324109Y669436D01*
X1324628Y668537D01*
X1326397Y666768D01*
X1328563Y665517D01*
X1330979Y664870D01*
X1333481D01*
X1335897Y665517D01*
X1338063Y666768D01*
X1339832Y668537D01*
X1341083Y670703D01*
X1341438Y672030D01*
X1344011Y672902D01*
X1344173Y672886D01*
X1359859Y657201D01*
X1358544Y654924D01*
X1358060Y655053D01*
X1355953D01*
X1353919Y654508D01*
X1352094Y653455D01*
X1350605Y651966D01*
X1349552Y650141D01*
X1349007Y648107D01*
Y646000D01*
X1349552Y643966D01*
X1350605Y642141D01*
X1352094Y640652D01*
X1353919Y639599D01*
X1354453Y639456D01*
X1354550Y638968D01*
X1355272Y637886D01*
X1355566Y637593D01*
Y593090D01*
X1355820Y591814D01*
X1356543Y590732D01*
X1392103Y555173D01*
X1393184Y554450D01*
X1394460Y554196D01*
X1549589D01*
X1587953Y515832D01*
X1586981Y513485D01*
X1586725D01*
Y495515D01*
X1604695D01*
Y501166D01*
X1647020D01*
X1648296Y501420D01*
X1649377Y502142D01*
X1668831Y521596D01*
X1669259Y521349D01*
X1671770Y520676D01*
X1674370D01*
X1676881Y521349D01*
X1679133Y522649D01*
X1680971Y524487D01*
X1682271Y526739D01*
X1682944Y529250D01*
Y531850D01*
X1682271Y534361D01*
X1680971Y536613D01*
X1679133Y538451D01*
X1676881Y539751D01*
X1674370Y540424D01*
X1671770D01*
X1669259Y539751D01*
X1667007Y538451D01*
X1665169Y536613D01*
X1663869Y534361D01*
X1663196Y531850D01*
Y529250D01*
X1663869Y526739D01*
X1664116Y526311D01*
X1645639Y507834D01*
X1604695D01*
Y513485D01*
X1598027D01*
Y513807D01*
X1597773Y515083D01*
X1597050Y516165D01*
X1553328Y559888D01*
X1552246Y560610D01*
X1550970Y560864D01*
X1395841D01*
X1373558Y583147D01*
X1375118Y585041D01*
X1375530Y584870D01*
X1376955Y584280D01*
X1378945D01*
X1380782Y585041D01*
X1382189Y586448D01*
X1382950Y588285D01*
Y590275D01*
X1382189Y592112D01*
X1380782Y593519D01*
X1378945Y594280D01*
X1376955D01*
X1375118Y593519D01*
X1373711Y592112D01*
X1372950Y590275D01*
Y588285D01*
X1373540Y586860D01*
X1373711Y586448D01*
X1371817Y584888D01*
X1362234Y594471D01*
Y615266D01*
X1364774Y615771D01*
X1364821Y615658D01*
X1366228Y614251D01*
X1368065Y613490D01*
X1369345D01*
X1373052Y609782D01*
X1374134Y609060D01*
X1375410Y608806D01*
X1379393D01*
X1379518Y608712D01*
X1380881Y606266D01*
X1380570Y605515D01*
Y603525D01*
X1381331Y601688D01*
X1382738Y600281D01*
X1384575Y599520D01*
X1386565D01*
X1388402Y600281D01*
X1389809Y601688D01*
X1390570Y603525D01*
Y605515D01*
X1390259Y606266D01*
X1391622Y608712D01*
X1391747Y608806D01*
X1574800D01*
X1576076Y609060D01*
X1577157Y609782D01*
X1580865Y613490D01*
X1582145D01*
X1583982Y614251D01*
X1585389Y615658D01*
X1586150Y617495D01*
Y619485D01*
X1585389Y621322D01*
X1583982Y622729D01*
X1582145Y623490D01*
X1580155D01*
X1578318Y622729D01*
X1576911Y621322D01*
X1576150Y619485D01*
Y618205D01*
X1573419Y615474D01*
X1568388D01*
X1567416Y617821D01*
X1574515Y624920D01*
X1575795D01*
X1577632Y625681D01*
X1579039Y627088D01*
X1579800Y628925D01*
Y630915D01*
X1579039Y632752D01*
X1578839Y632952D01*
X1579891Y635492D01*
X1660529D01*
X1665827Y630194D01*
X1664747Y628101D01*
X1664545Y627884D01*
X1662704D01*
X1660839Y627384D01*
X1659167Y626419D01*
X1657801Y625053D01*
X1656836Y623381D01*
X1656336Y621516D01*
Y619585D01*
X1656836Y617719D01*
X1657801Y616047D01*
X1659167Y614681D01*
X1660839Y613716D01*
X1662704Y613216D01*
X1664635D01*
X1666501Y613716D01*
X1668173Y614681D01*
X1669539Y616047D01*
X1670504Y617719D01*
X1671004Y619585D01*
Y621425D01*
X1671221Y621628D01*
X1673314Y622707D01*
X1695578Y600443D01*
X1697007Y598451D01*
X1695169Y596613D01*
X1693869Y594361D01*
X1693196Y591850D01*
Y589250D01*
X1693869Y586739D01*
X1695169Y584487D01*
X1697007Y582649D01*
X1699259Y581349D01*
X1701770Y580676D01*
X1704370D01*
X1706881Y581349D01*
X1709133Y582649D01*
X1710971Y584487D01*
X1712271Y586739D01*
X1712944Y589250D01*
Y591850D01*
X1712271Y594361D01*
X1710971Y596613D01*
X1709133Y598451D01*
X1706881Y599751D01*
X1706381Y599885D01*
Y600717D01*
X1706032Y602473D01*
X1705038Y603961D01*
X1665674Y643324D01*
X1664186Y644319D01*
X1662430Y644668D01*
X1586674D01*
X1585622Y647208D01*
X1586282Y647868D01*
X1587335Y649692D01*
X1587880Y651727D01*
Y653833D01*
X1587335Y655868D01*
X1586282Y657692D01*
X1584792Y659182D01*
X1582968Y660235D01*
X1580933Y660780D01*
X1578827D01*
X1576792Y660235D01*
X1574968Y659182D01*
X1573478Y657692D01*
X1572425Y655868D01*
X1571880Y653833D01*
Y651727D01*
X1572425Y649692D01*
X1573478Y647868D01*
X1574138Y647208D01*
X1573086Y644668D01*
X1565040D01*
X1563284Y644319D01*
X1561796Y643324D01*
X1553150Y634679D01*
X1552960Y634730D01*
X1550920D01*
X1548949Y634202D01*
X1547181Y633181D01*
X1545739Y631739D01*
X1545640Y631568D01*
X1529030D01*
X1528931Y631739D01*
X1527489Y633181D01*
X1525721Y634202D01*
X1523750Y634730D01*
X1521710D01*
X1519739Y634202D01*
X1517971Y633181D01*
X1516528Y631739D01*
X1516430Y631568D01*
X1501090D01*
X1500992Y631739D01*
X1499549Y633181D01*
X1497781Y634202D01*
X1497094Y634386D01*
Y651801D01*
X1497284D01*
Y667739D01*
X1492824D01*
Y668279D01*
X1490030D01*
Y659770D01*
Y651261D01*
X1490426D01*
Y633409D01*
X1490031Y633181D01*
X1488589Y631739D01*
X1488490Y631568D01*
X1470610D01*
X1470511Y631739D01*
X1469069Y633181D01*
X1467644Y634004D01*
Y638299D01*
X1473347Y644002D01*
X1473778Y644031D01*
X1476196Y643259D01*
X1476581Y642328D01*
X1477988Y640921D01*
X1479825Y640160D01*
X1481815D01*
X1483652Y640921D01*
X1485059Y642328D01*
X1485820Y644165D01*
Y646155D01*
X1485754Y646315D01*
X1486118Y646679D01*
X1486840Y647760D01*
X1487094Y649036D01*
Y651261D01*
X1487490D01*
Y659770D01*
Y668279D01*
X1484696D01*
Y667739D01*
X1472824D01*
Y668279D01*
X1470030D01*
Y659770D01*
X1467490D01*
Y668279D01*
X1464696D01*
Y667739D01*
X1459452D01*
X1458389Y670268D01*
X1458802Y671265D01*
X1461104Y672596D01*
X1461690Y672743D01*
X1461770Y672710D01*
Y678180D01*
Y683650D01*
X1459902Y682877D01*
X1458343Y681318D01*
X1457500Y679282D01*
X1455145Y678100D01*
X1453155D01*
X1451318Y677339D01*
X1450666Y676687D01*
X1449070Y676193D01*
X1447474Y676687D01*
X1446822Y677339D01*
X1444985Y678100D01*
X1442995D01*
X1441158Y677339D01*
X1439751Y675932D01*
X1438990Y674095D01*
Y672105D01*
X1439751Y670268D01*
X1438688Y667739D01*
X1435236D01*
Y663144D01*
X1432906D01*
X1431630Y662890D01*
X1431367Y662714D01*
X1431015Y662860D01*
X1429025D01*
X1427188Y662099D01*
X1425781Y660692D01*
X1425020Y658855D01*
Y656865D01*
X1425781Y655028D01*
X1427188Y653621D01*
X1429025Y652860D01*
X1431015D01*
X1432852Y653621D01*
X1435236Y652413D01*
Y651801D01*
X1439050D01*
X1439698Y649944D01*
X1439750Y649261D01*
X1438481Y647992D01*
X1437720Y646155D01*
Y644165D01*
X1438481Y642328D01*
X1439888Y640921D01*
X1441725Y640160D01*
X1443715D01*
X1445552Y640921D01*
X1446803Y642172D01*
X1447939Y642180D01*
X1449547Y641938D01*
X1449911Y641058D01*
X1451318Y639651D01*
X1453155Y638890D01*
X1455145D01*
X1456982Y639651D01*
X1458389Y641058D01*
X1459150Y642895D01*
Y644175D01*
X1461118Y646143D01*
X1461840Y647224D01*
X1462094Y648500D01*
Y651801D01*
X1464696D01*
Y651261D01*
X1467584D01*
X1468636Y648721D01*
X1461953Y642038D01*
X1461230Y640956D01*
X1460976Y639680D01*
Y634004D01*
X1459551Y633181D01*
X1458109Y631739D01*
X1458010Y631568D01*
X1440130D01*
X1440031Y631739D01*
X1438589Y633181D01*
X1436821Y634202D01*
X1434850Y634730D01*
X1432810D01*
X1430839Y634202D01*
X1429071Y633181D01*
X1427628Y631739D01*
X1427530Y631568D01*
X1407110D01*
X1407012Y631739D01*
X1405569Y633181D01*
X1403801Y634202D01*
X1401830Y634730D01*
X1399790D01*
X1399600Y634679D01*
X1393542Y640737D01*
X1393493Y642950D01*
X1393836Y643815D01*
X1394889Y644868D01*
X1395650Y646705D01*
Y648695D01*
X1394889Y650532D01*
X1393482Y651939D01*
X1391645Y652700D01*
X1389655D01*
X1387818Y651939D01*
X1386411Y650532D01*
X1385650Y648695D01*
Y647979D01*
X1383110Y646927D01*
X1346978Y683059D01*
Y693082D01*
X1349518Y694018D01*
X1350400Y693136D01*
X1352290Y692045D01*
X1354220Y691528D01*
Y699770D01*
Y708012D01*
X1352290Y707495D01*
X1350698Y706576D01*
X1349464Y706856D01*
X1347978Y707574D01*
X1347787Y708839D01*
X1365880Y726932D01*
X1390700D01*
X1390798Y726761D01*
X1392241Y725319D01*
X1394009Y724298D01*
X1395980Y723770D01*
X1398020D01*
X1399991Y724298D01*
X1401759Y725319D01*
X1403201Y726761D01*
X1404024Y728186D01*
X1415791D01*
Y721246D01*
Y711246D01*
Y704997D01*
X1414513Y704083D01*
X1411691Y704529D01*
X1410249Y705972D01*
X1408481Y706992D01*
X1406510Y707520D01*
X1404470D01*
X1402499Y706992D01*
X1400731Y705972D01*
X1399288Y704529D01*
X1398268Y702761D01*
X1397740Y700790D01*
Y698750D01*
X1398268Y696779D01*
X1399288Y695011D01*
X1400731Y693568D01*
X1402103Y692777D01*
X1402624Y691277D01*
X1402765Y689847D01*
X1398965Y686048D01*
X1398243Y684966D01*
X1397989Y683690D01*
Y683407D01*
X1396726Y682145D01*
X1395447D01*
X1393609Y681384D01*
X1392203Y679977D01*
X1391441Y678139D01*
Y676150D01*
X1392203Y674312D01*
X1393609Y672906D01*
X1395447Y672145D01*
X1397436D01*
X1399274Y672906D01*
X1400680Y674312D01*
X1401441Y676150D01*
Y677430D01*
X1402811Y678799D01*
X1404173Y679492D01*
X1406145Y678784D01*
X1406418Y678511D01*
X1406435Y678504D01*
X1406999Y676111D01*
X1406505Y675500D01*
X1404668Y674739D01*
X1403261Y673332D01*
X1402500Y671495D01*
Y669505D01*
X1403261Y667668D01*
X1404668Y666261D01*
X1406505Y665500D01*
X1408495D01*
X1410332Y666261D01*
X1411739Y667668D01*
X1412500Y669505D01*
Y669710D01*
X1413199Y670223D01*
X1415677Y668891D01*
X1415670Y668756D01*
X1415172Y667554D01*
Y665565D01*
X1415934Y663727D01*
X1417340Y662320D01*
X1419178Y661559D01*
X1421167D01*
X1423005Y662320D01*
X1424411Y663727D01*
X1425172Y665565D01*
Y667014D01*
X1426454Y668295D01*
X1427176Y669376D01*
X1427430Y670652D01*
Y671246D01*
X1431729D01*
Y678508D01*
X1432264Y679036D01*
X1434269Y679988D01*
X1435375Y679530D01*
X1437365D01*
X1439202Y680291D01*
X1440609Y681698D01*
X1441370Y683535D01*
Y685525D01*
X1440609Y687362D01*
X1439957Y688014D01*
X1439463Y689610D01*
X1439957Y691206D01*
X1440609Y691858D01*
X1441370Y693695D01*
Y695685D01*
X1440609Y697522D01*
X1439202Y698929D01*
X1437365Y699690D01*
X1435375D01*
X1434269Y699232D01*
X1432264Y700184D01*
X1431729Y700712D01*
Y711246D01*
Y721246D01*
Y733294D01*
X1421136D01*
X1420553Y733877D01*
X1419471Y734600D01*
X1418195Y734854D01*
X1406605D01*
X1405553Y737394D01*
X1431365Y763206D01*
X1433158Y763600D01*
X1435473Y761879D01*
Y752739D01*
X1435236D01*
Y736801D01*
X1439696D01*
Y736261D01*
X1442490D01*
Y744770D01*
X1445030D01*
Y736261D01*
X1447824D01*
Y736801D01*
X1497284D01*
Y740886D01*
X1503753D01*
X1504658Y739981D01*
X1506495Y739220D01*
X1508485D01*
X1510322Y739981D01*
X1511729Y741388D01*
X1512490Y743225D01*
Y743509D01*
X1515030Y744561D01*
X1521991Y737601D01*
X1521019Y735254D01*
X1515905D01*
X1514629Y735000D01*
X1513548Y734277D01*
X1512564Y733294D01*
X1500791D01*
Y728834D01*
X1500251D01*
Y727479D01*
X1497711Y726008D01*
X1497055Y726280D01*
X1495065D01*
X1493228Y725519D01*
X1491821Y724112D01*
X1491060Y722275D01*
Y720285D01*
X1491821Y718448D01*
X1493228Y717041D01*
X1495065Y716280D01*
X1497055D01*
X1497832Y716602D01*
X1498466Y716476D01*
X1500791D01*
Y713144D01*
X1490427D01*
X1490082Y713489D01*
X1488245Y714250D01*
X1486255D01*
X1484418Y713489D01*
X1483011Y712082D01*
X1482250Y710245D01*
Y708255D01*
X1483011Y706418D01*
X1484418Y705011D01*
X1486255Y704250D01*
X1487412D01*
X1487885Y703823D01*
X1488845Y702333D01*
X1488980Y701903D01*
X1488500Y700745D01*
Y698755D01*
X1489261Y696918D01*
X1490227Y695952D01*
X1490568Y694737D01*
X1490331Y692902D01*
X1489511Y692082D01*
X1488750Y690245D01*
Y688255D01*
X1489511Y686418D01*
X1490139Y685790D01*
X1490089Y684831D01*
X1489521Y683049D01*
X1488168Y682489D01*
X1486761Y681082D01*
X1486000Y679245D01*
Y677255D01*
X1486761Y675418D01*
X1488168Y674011D01*
X1490005Y673250D01*
X1491995D01*
X1493832Y674011D01*
X1495239Y675418D01*
X1495661Y676436D01*
X1500791D01*
Y671246D01*
X1503189D01*
Y669485D01*
X1503950Y667648D01*
X1505357Y666241D01*
X1507194Y665480D01*
X1509183D01*
X1511021Y666241D01*
X1512428Y667648D01*
X1513189Y669485D01*
Y671246D01*
X1516729D01*
Y676246D01*
X1517879Y676710D01*
X1519269Y676910D01*
X1520418Y675761D01*
X1522255Y675000D01*
X1524245D01*
X1526082Y675761D01*
X1527489Y677168D01*
X1528250Y679005D01*
Y680995D01*
X1527489Y682832D01*
X1526082Y684239D01*
X1525090Y684650D01*
X1525036Y686068D01*
X1525343Y687294D01*
X1526832Y687911D01*
X1528239Y689318D01*
X1529000Y691155D01*
Y693145D01*
X1528239Y694982D01*
X1526832Y696389D01*
X1524995Y697150D01*
X1523005D01*
X1522845Y697084D01*
X1522761Y697168D01*
X1521680Y697890D01*
X1520404Y698144D01*
X1516729D01*
Y701476D01*
X1519896D01*
X1521142Y700960D01*
X1523131D01*
X1524969Y701721D01*
X1526375Y703128D01*
X1527136Y704965D01*
Y705714D01*
X1527136Y705913D01*
X1529676Y706419D01*
X1529738Y706270D01*
X1529921Y705828D01*
X1531328Y704421D01*
X1533165Y703660D01*
X1535155D01*
X1536992Y704421D01*
X1538399Y705828D01*
X1539160Y707665D01*
Y708945D01*
X1571537Y741322D01*
X1572260Y742404D01*
X1572514Y743680D01*
Y1007916D01*
X1574147Y1008354D01*
X1576832Y1009904D01*
X1579026Y1012097D01*
X1580576Y1014783D01*
X1581379Y1017779D01*
Y1020881D01*
X1580576Y1023876D01*
X1579026Y1026562D01*
X1576832Y1028755D01*
X1574147Y1030306D01*
X1571151Y1031109D01*
X1568049D01*
X1565054Y1030306D01*
X1562368Y1028755D01*
X1560175Y1026562D01*
X1558624Y1023876D01*
X1557821Y1020881D01*
Y1017779D01*
X1558624Y1014783D01*
X1560175Y1012097D01*
X1562368Y1009904D01*
X1565054Y1008354D01*
X1565846Y1008141D01*
Y989118D01*
X1563499Y988146D01*
X1537949Y1013696D01*
X1538576Y1014783D01*
X1539379Y1017779D01*
Y1020881D01*
X1538576Y1023876D01*
X1537026Y1026562D01*
X1534832Y1028755D01*
X1532147Y1030306D01*
X1529151Y1031109D01*
X1526049D01*
X1523053Y1030306D01*
X1520368Y1028755D01*
X1518174Y1026562D01*
X1516624Y1023876D01*
X1515821Y1020881D01*
Y1017779D01*
X1516624Y1014783D01*
X1518174Y1012097D01*
X1520368Y1009904D01*
X1523053Y1008354D01*
X1526049Y1007551D01*
X1529151D01*
X1532147Y1008354D01*
X1533234Y1008981D01*
X1561306Y980909D01*
Y787227D01*
X1561212Y787102D01*
X1558766Y785739D01*
X1558015Y786050D01*
X1556025D01*
X1554188Y785289D01*
X1552781Y783882D01*
X1552020Y782045D01*
Y780055D01*
X1552781Y778218D01*
X1554188Y776811D01*
X1556025Y776050D01*
X1558015D01*
X1558766Y776361D01*
X1561212Y774998D01*
X1561306Y774873D01*
Y748212D01*
X1544450Y731356D01*
X1541910Y732408D01*
Y732940D01*
X1541382Y734911D01*
X1540361Y736679D01*
X1538919Y738121D01*
X1537151Y739142D01*
X1535180Y739670D01*
X1533140D01*
X1532950Y739619D01*
X1499304Y773264D01*
X1497816Y774259D01*
X1497533Y774315D01*
Y895714D01*
X1527162Y925343D01*
X1529590Y924693D01*
X1532490D01*
X1535292Y925444D01*
X1537805Y926894D01*
X1539856Y928945D01*
X1541306Y931458D01*
X1542057Y934260D01*
Y937160D01*
X1541306Y939962D01*
X1539856Y942475D01*
X1537805Y944526D01*
X1535292Y945976D01*
X1532490Y946727D01*
X1529590D01*
X1526788Y945976D01*
X1524275Y944526D01*
X1522224Y942475D01*
X1520774Y939962D01*
X1520023Y937160D01*
Y934260D01*
X1520674Y931832D01*
X1489700Y900859D01*
X1488705Y899370D01*
X1488356Y897614D01*
Y774608D01*
X1445210D01*
X1445112Y774779D01*
X1443669Y776221D01*
X1441901Y777242D01*
X1439930Y777770D01*
X1437890D01*
X1435919Y777242D01*
X1434151Y776221D01*
X1432708Y774779D01*
X1432172Y773849D01*
X1430931D01*
X1429175Y773500D01*
X1427687Y772505D01*
X1395095Y739914D01*
X1376984Y758024D01*
X1375496Y759019D01*
X1373740Y759368D01*
X1370280D01*
X1370181Y759539D01*
X1368739Y760982D01*
X1366971Y762002D01*
X1365000Y762530D01*
X1363183D01*
X1344898Y780815D01*
Y783914D01*
X1325150D01*
Y774326D01*
X1338409D01*
X1345553Y767183D01*
X1344229Y764914D01*
X1342635Y764914D01*
X1325150D01*
Y755326D01*
X1344898D01*
Y762474D01*
X1344898Y764245D01*
X1347167Y765568D01*
X1356379Y756356D01*
X1356230Y755800D01*
Y753760D01*
X1356758Y751789D01*
X1357778Y750021D01*
X1359221Y748578D01*
X1360989Y747558D01*
X1362960Y747030D01*
X1365000D01*
X1366971Y747558D01*
X1368739Y748578D01*
X1370181Y750021D01*
X1372553Y749478D01*
X1383577Y738455D01*
X1382605Y736108D01*
X1363980D01*
X1362224Y735759D01*
X1360736Y734764D01*
X1339146Y713174D01*
X1338151Y711686D01*
X1337802Y709930D01*
Y685056D01*
X1337036Y684319D01*
X1335262Y683393D01*
X1333481Y683870D01*
X1330979D01*
X1328563Y683223D01*
X1326397Y681972D01*
X1324628Y680203D01*
X1324109Y679304D01*
X1321569Y679985D01*
Y754786D01*
X1321475Y755259D01*
X1321530Y755326D01*
X1321530D01*
Y764286D01*
X1322070D01*
Y768350D01*
X1311656D01*
Y770890D01*
X1322070D01*
Y774954D01*
X1321530D01*
Y783914D01*
X1321530D01*
X1321530Y783914D01*
X1322245Y785763D01*
X1324610Y786909D01*
Y792480D01*
Y797950D01*
X1324109Y797743D01*
X1321569Y799323D01*
Y831215D01*
X1321414Y831995D01*
X1320972Y832657D01*
X1320310Y833099D01*
X1319530Y833254D01*
X1292259D01*
X1291979Y833198D01*
X1291694Y833175D01*
X1291591Y833121D01*
X1291478Y833099D01*
X1291241Y832940D01*
X1290987Y832809D01*
X1289992Y832254D01*
X1287736Y832498D01*
X1287170Y832825D01*
X1285240Y833342D01*
Y825100D01*
X1282700D01*
Y833342D01*
X1280770Y832825D01*
X1280204Y832498D01*
X1277948Y832254D01*
X1276953Y832809D01*
X1276699Y832940D01*
X1276462Y833099D01*
X1276348Y833121D01*
X1276246Y833175D01*
X1275961Y833198D01*
X1275681Y833254D01*
X1255538D01*
Y937262D01*
X1256117Y939705D01*
X1258483D01*
X1260768Y940317D01*
X1262817Y941500D01*
X1264490Y943173D01*
X1265026Y944102D01*
X1323977D01*
X1325733Y944451D01*
X1327222Y945446D01*
X1369183Y987407D01*
X1371377Y986128D01*
X1370765Y983843D01*
Y981477D01*
X1371377Y979192D01*
X1372560Y977143D01*
X1374233Y975470D01*
X1376282Y974287D01*
X1378567Y973675D01*
X1380933D01*
X1383218Y974287D01*
X1385267Y975470D01*
X1386940Y977143D01*
X1388123Y979192D01*
X1388735Y981477D01*
Y983843D01*
X1388123Y986128D01*
X1386940Y988177D01*
X1385267Y989850D01*
X1383218Y991033D01*
X1380933Y991645D01*
X1378567D01*
X1376282Y991033D01*
X1375003Y993227D01*
X1406697Y1024921D01*
X1426259D01*
X1428015Y1025270D01*
X1429503Y1026265D01*
X1472362Y1069124D01*
X1475156Y1068862D01*
X1476174Y1067097D01*
X1478368Y1064904D01*
X1481053Y1063354D01*
X1484049Y1062551D01*
X1487151D01*
X1490147Y1063354D01*
X1492832Y1064904D01*
X1495026Y1067097D01*
X1496576Y1069783D01*
X1497379Y1072779D01*
Y1075881D01*
X1496576Y1078876D01*
X1495026Y1081562D01*
X1492832Y1083755D01*
X1490147Y1085306D01*
X1487151Y1086109D01*
D02*
G37*
G36*
X1445151D02*
X1442049D01*
X1439053Y1085306D01*
X1436368Y1083755D01*
X1434174Y1081562D01*
X1432624Y1078876D01*
X1431821Y1075881D01*
Y1072779D01*
X1432624Y1069783D01*
X1434174Y1067097D01*
X1436368Y1064904D01*
X1439053Y1063354D01*
X1442049Y1062551D01*
X1445151D01*
X1448147Y1063354D01*
X1450833Y1064904D01*
X1453026Y1067097D01*
X1454576Y1069783D01*
X1455379Y1072779D01*
Y1075881D01*
X1454576Y1078876D01*
X1453026Y1081562D01*
X1450833Y1083755D01*
X1448147Y1085306D01*
X1445151Y1086109D01*
D02*
G37*
G36*
X1581919Y1073060D02*
X1570870D01*
Y1062011D01*
X1571222D01*
X1574355Y1062850D01*
X1577164Y1064472D01*
X1579458Y1066766D01*
X1581080Y1069575D01*
X1581919Y1072708D01*
Y1073060D01*
D02*
G37*
G36*
X1568330D02*
X1557281D01*
Y1072708D01*
X1558121Y1069575D01*
X1559742Y1066766D01*
X1562036Y1064472D01*
X1564845Y1062850D01*
X1567978Y1062011D01*
X1568330D01*
Y1073060D01*
D02*
G37*
G36*
X1539919D02*
X1528870D01*
Y1062011D01*
X1529222D01*
X1532355Y1062850D01*
X1535164Y1064472D01*
X1537458Y1066766D01*
X1539079Y1069575D01*
X1539919Y1072708D01*
Y1073060D01*
D02*
G37*
G36*
X1526330D02*
X1515281D01*
Y1072708D01*
X1516121Y1069575D01*
X1517742Y1066766D01*
X1520036Y1064472D01*
X1522845Y1062850D01*
X1525978Y1062011D01*
X1526330D01*
Y1073060D01*
D02*
G37*
G36*
X970280Y1057539D02*
X854808D01*
X854643Y1057506D01*
X854474Y1057512D01*
X854256Y1057429D01*
X854028Y1057384D01*
X853888Y1057290D01*
X853730Y1057231D01*
X853560Y1057071D01*
X853366Y1056942D01*
X853272Y1056802D01*
X853149Y1056686D01*
X853054Y1056474D01*
X852924Y1056280D01*
X852891Y1056115D01*
X852822Y1055961D01*
X850174Y1044556D01*
X850164Y1044241D01*
X850128Y1043928D01*
X850152Y1043846D01*
X850149Y1043761D01*
X850241Y1043518D01*
X850051Y1043340D01*
X850003Y1043233D01*
X849927Y1043144D01*
X849840Y1042874D01*
X849724Y1042615D01*
X841463Y1007032D01*
X839854Y1006706D01*
X838825Y1006898D01*
X837678Y1009666D01*
X835791Y1012490D01*
X833390Y1014891D01*
X830566Y1016778D01*
X827429Y1018077D01*
X824098Y1018740D01*
X820702D01*
X817371Y1018077D01*
X814234Y1016778D01*
X811410Y1014891D01*
X809009Y1012490D01*
X807122Y1009666D01*
X805823Y1006529D01*
X805160Y1003198D01*
Y999802D01*
X805823Y996471D01*
X807122Y993334D01*
X809009Y990510D01*
X811410Y988109D01*
X814234Y986222D01*
X817371Y984922D01*
X820702Y984260D01*
X824098D01*
X827429Y984922D01*
X830566Y986222D01*
X833390Y988109D01*
X834787Y989506D01*
X837097Y988224D01*
X834584Y977399D01*
X797560D01*
X796780Y977244D01*
X796118Y976802D01*
X795676Y976140D01*
X795521Y975360D01*
Y918210D01*
X795676Y917430D01*
X796118Y916768D01*
X796780Y916326D01*
X797560Y916171D01*
X850900D01*
X851148Y916220D01*
X851400Y916233D01*
X851534Y916297D01*
X851680Y916326D01*
X851890Y916466D01*
X852118Y916575D01*
X915948Y964134D01*
X917095Y963891D01*
X917339Y961242D01*
X916615Y960942D01*
X914000Y959195D01*
X911775Y956970D01*
X910028Y954355D01*
X908824Y951448D01*
X908210Y948363D01*
Y945217D01*
X908824Y942132D01*
X910028Y939225D01*
X911775Y936610D01*
X914000Y934385D01*
X916615Y932638D01*
X918929Y931679D01*
X918424Y929139D01*
X885190D01*
X884410Y928984D01*
X883748Y928542D01*
X883306Y927880D01*
X883151Y927100D01*
Y840239D01*
X767080D01*
X766300Y840084D01*
X765638Y839642D01*
X765196Y838980D01*
X765041Y838200D01*
Y660502D01*
X736810Y632271D01*
X734887Y629765D01*
X733678Y626846D01*
X733265Y623713D01*
X733678Y620580D01*
X734887Y617661D01*
X736810Y615154D01*
X765041Y586924D01*
Y557530D01*
X765196Y556750D01*
X765638Y556088D01*
X848188Y473538D01*
X848850Y473096D01*
X849630Y472941D01*
X922521D01*
Y392289D01*
X872562D01*
X869429Y391876D01*
X866510Y390667D01*
X864003Y388744D01*
X843353Y368093D01*
X837930D01*
X834797Y367681D01*
X831878Y366472D01*
X829371Y364548D01*
X827448Y362042D01*
X826239Y359123D01*
X826018Y357443D01*
X823336Y356533D01*
X786924Y392944D01*
Y410691D01*
X787058Y410727D01*
X789107Y411910D01*
X790780Y413583D01*
X791963Y415632D01*
X792575Y417917D01*
Y420283D01*
X791963Y422568D01*
X790780Y424617D01*
X789107Y426290D01*
X787058Y427473D01*
X784773Y428085D01*
X782407D01*
X780122Y427473D01*
X778073Y426290D01*
X776400Y424617D01*
X775217Y422568D01*
X774605Y420283D01*
Y417917D01*
X775217Y415632D01*
X776400Y413583D01*
X778073Y411910D01*
X780122Y410727D01*
X780256Y410691D01*
Y391563D01*
X780510Y390288D01*
X781233Y389206D01*
X845426Y325012D01*
X846508Y324290D01*
X847784Y324036D01*
X852169D01*
X869581Y306624D01*
X868954Y305536D01*
X868151Y302541D01*
Y299439D01*
X868954Y296444D01*
X870505Y293757D01*
X872698Y291564D01*
X875384Y290014D01*
X878379Y289211D01*
X881481D01*
X884477Y290014D01*
X887162Y291564D01*
X889356Y293757D01*
X890906Y296444D01*
X891709Y299439D01*
Y302541D01*
X890906Y305536D01*
X889356Y308223D01*
X887162Y310416D01*
X884477Y311966D01*
X881481Y312769D01*
X878379D01*
X875384Y311966D01*
X874296Y311339D01*
X855908Y329727D01*
X854826Y330450D01*
X853550Y330704D01*
X849165D01*
X838522Y341346D01*
X839574Y343886D01*
X848366D01*
X851499Y344299D01*
X854418Y345508D01*
X856925Y347431D01*
X865611Y356118D01*
X868151Y355066D01*
Y354439D01*
X868954Y351443D01*
X870505Y348758D01*
X872698Y346564D01*
X875384Y345014D01*
X878379Y344211D01*
X881481D01*
X884477Y345014D01*
X887162Y346564D01*
X889356Y348758D01*
X890906Y351443D01*
X891709Y354439D01*
Y357541D01*
X890906Y360536D01*
X889356Y363223D01*
X887162Y365416D01*
X886944Y365542D01*
X887624Y368082D01*
X913156D01*
X913844Y366811D01*
X914060Y365542D01*
X912072Y363554D01*
X910451Y360745D01*
X909611Y357612D01*
Y357260D01*
X921930D01*
X934249D01*
Y357612D01*
X933410Y360745D01*
X931788Y363554D01*
X929800Y365542D01*
X930016Y366811D01*
X930704Y368082D01*
X955156D01*
X955844Y366811D01*
X956060Y365542D01*
X954072Y363554D01*
X952450Y360745D01*
X951611Y357612D01*
Y357260D01*
X963930D01*
Y355990D01*
D01*
Y357260D01*
X976249D01*
Y357612D01*
X975409Y360745D01*
X973788Y363554D01*
X971800Y365542D01*
X972016Y366811D01*
X972704Y368082D01*
X988985D01*
X992118Y368494D01*
X995037Y369703D01*
X997544Y371627D01*
X1011228Y385311D01*
X1029970D01*
X1030750Y385466D01*
X1031412Y385908D01*
X1031854Y386570D01*
X1032009Y387350D01*
Y404615D01*
X1031993Y404697D01*
X1032002Y404780D01*
X1031916Y405084D01*
X1031854Y405395D01*
X1031808Y405465D01*
X1031785Y405545D01*
X1031642Y405725D01*
X1036723Y410806D01*
X1055521D01*
X1055860Y408284D01*
X1055198Y407842D01*
X1055198Y407842D01*
X1053928Y406572D01*
X1053486Y405910D01*
X1053331Y405130D01*
Y316850D01*
X1053276D01*
X1049578Y315859D01*
X1046262Y313945D01*
X1043555Y311238D01*
X1041641Y307922D01*
X1040650Y304224D01*
Y303580D01*
X1055190D01*
Y301040D01*
X1040650D01*
Y300396D01*
X1041641Y296698D01*
X1043555Y293382D01*
X1046262Y290675D01*
X1049578Y288761D01*
X1053276Y287770D01*
X1053331D01*
Y278130D01*
X1053486Y277350D01*
X1053928Y276688D01*
X1054590Y276246D01*
X1055370Y276091D01*
X1671320D01*
X1672100Y276246D01*
X1672762Y276688D01*
X1673204Y277350D01*
X1673359Y278130D01*
Y336977D01*
X1675899Y338443D01*
X1676109Y338322D01*
X1677974Y337822D01*
X1679905D01*
X1681771Y338322D01*
X1683443Y339287D01*
X1684809Y340653D01*
X1685774Y342325D01*
X1686274Y344190D01*
Y346121D01*
X1685774Y347987D01*
X1684809Y349659D01*
X1683443Y351025D01*
X1681771Y351990D01*
X1679905Y352490D01*
X1677974D01*
X1676109Y351990D01*
X1675899Y351869D01*
X1673359Y353335D01*
Y373380D01*
X1673204Y374160D01*
X1672762Y374822D01*
X1672100Y375264D01*
X1671320Y375419D01*
X1658123D01*
X1657071Y377959D01*
X1657273Y378162D01*
X1658644Y380536D01*
X1659354Y383185D01*
Y383286D01*
X1648940D01*
X1638526D01*
Y383185D01*
X1639236Y380536D01*
X1640607Y378162D01*
X1640809Y377959D01*
X1639757Y375419D01*
X1627359D01*
X1626307Y377959D01*
X1626841Y378493D01*
X1628141Y380745D01*
X1628814Y383256D01*
Y385856D01*
X1628141Y388367D01*
X1626841Y390619D01*
X1625003Y392457D01*
X1622751Y393757D01*
X1620240Y394430D01*
X1617640D01*
X1615129Y393757D01*
X1614593Y393448D01*
X1606074Y401967D01*
Y427201D01*
X1606208Y427237D01*
X1608257Y428420D01*
X1609930Y430093D01*
X1611113Y432142D01*
X1611725Y434427D01*
Y436793D01*
X1611113Y439078D01*
X1609930Y441127D01*
X1608257Y442800D01*
X1606208Y443983D01*
X1603923Y444595D01*
X1601557D01*
X1599272Y443983D01*
X1597223Y442800D01*
X1595550Y441127D01*
X1594367Y439078D01*
X1593755Y436793D01*
Y434427D01*
X1594367Y432142D01*
X1595550Y430093D01*
X1597223Y428420D01*
X1599272Y427237D01*
X1599406Y427201D01*
Y400586D01*
X1599660Y399310D01*
X1600383Y398228D01*
X1609924Y388687D01*
X1609739Y388367D01*
X1609066Y385856D01*
Y383256D01*
X1609739Y380745D01*
X1611039Y378493D01*
X1611573Y377959D01*
X1610521Y375419D01*
X1597359D01*
X1596307Y377959D01*
X1596841Y378493D01*
X1598141Y380745D01*
X1598814Y383256D01*
Y385856D01*
X1598141Y388367D01*
X1596841Y390619D01*
X1595003Y392457D01*
X1592751Y393757D01*
X1590240Y394430D01*
X1587640D01*
X1585129Y393757D01*
X1584593Y393448D01*
X1553214Y424827D01*
Y458697D01*
X1553348Y458733D01*
X1555397Y459916D01*
X1557070Y461589D01*
X1558253Y463638D01*
X1558865Y465923D01*
Y468289D01*
X1558253Y470574D01*
X1557070Y472623D01*
X1555397Y474296D01*
X1553348Y475479D01*
X1551063Y476091D01*
X1548697D01*
X1546412Y475479D01*
X1544363Y474296D01*
X1542690Y472623D01*
X1541507Y470574D01*
X1540895Y468289D01*
Y465923D01*
X1541507Y463638D01*
X1542690Y461589D01*
X1544363Y459916D01*
X1546412Y458733D01*
X1546546Y458697D01*
Y423446D01*
X1546800Y422170D01*
X1547522Y421088D01*
X1579924Y388687D01*
X1579739Y388367D01*
X1579066Y385856D01*
Y383256D01*
X1579739Y380745D01*
X1581039Y378493D01*
X1581573Y377959D01*
X1580521Y375419D01*
X1497143D01*
X1496091Y377959D01*
X1496293Y378162D01*
X1497664Y380536D01*
X1498374Y383185D01*
Y383286D01*
X1487960D01*
X1477546D01*
Y383185D01*
X1478256Y380536D01*
X1479627Y378162D01*
X1479829Y377959D01*
X1478777Y375419D01*
X1466379D01*
X1465327Y377959D01*
X1465861Y378493D01*
X1467161Y380745D01*
X1467834Y383256D01*
Y385856D01*
X1467161Y388367D01*
X1465861Y390619D01*
X1464023Y392457D01*
X1461771Y393757D01*
X1459260Y394430D01*
X1456660D01*
X1454149Y393757D01*
X1453721Y393510D01*
X1421180Y426051D01*
X1421518Y429131D01*
X1422047Y429436D01*
X1423720Y431109D01*
X1424903Y433158D01*
X1425515Y435443D01*
Y437809D01*
X1424903Y440094D01*
X1423720Y442143D01*
X1422047Y443816D01*
X1419998Y444999D01*
X1417713Y445611D01*
X1415347D01*
X1413062Y444999D01*
X1411013Y443816D01*
X1409340Y442143D01*
X1408157Y440094D01*
X1407545Y437809D01*
Y435443D01*
X1408157Y433158D01*
X1409340Y431109D01*
X1411013Y429436D01*
X1413062Y428253D01*
X1413351Y428176D01*
Y425831D01*
X1413605Y424555D01*
X1414327Y423474D01*
X1449006Y388795D01*
X1448759Y388367D01*
X1448086Y385856D01*
Y383256D01*
X1448759Y380745D01*
X1450059Y378493D01*
X1450593Y377959D01*
X1449541Y375419D01*
X1436379D01*
X1435327Y377959D01*
X1435861Y378493D01*
X1437161Y380745D01*
X1437834Y383256D01*
Y385856D01*
X1437161Y388367D01*
X1435861Y390619D01*
X1434023Y392457D01*
X1431771Y393757D01*
X1429260Y394430D01*
X1426660D01*
X1424149Y393757D01*
X1423721Y393510D01*
X1394464Y422767D01*
Y461237D01*
X1394598Y461273D01*
X1396647Y462456D01*
X1398320Y464129D01*
X1399503Y466178D01*
X1400115Y468463D01*
Y470829D01*
X1399503Y473114D01*
X1398320Y475163D01*
X1396647Y476836D01*
X1394598Y478019D01*
X1392313Y478631D01*
X1389947D01*
X1387662Y478019D01*
X1385613Y476836D01*
X1383940Y475163D01*
X1382757Y473114D01*
X1382145Y470829D01*
Y468463D01*
X1382757Y466178D01*
X1383940Y464129D01*
X1385613Y462456D01*
X1387662Y461273D01*
X1387796Y461237D01*
Y421386D01*
X1388050Y420110D01*
X1388772Y419029D01*
X1419006Y388795D01*
X1418759Y388367D01*
X1418086Y385856D01*
Y383256D01*
X1418759Y380745D01*
X1420059Y378493D01*
X1420593Y377959D01*
X1419541Y375419D01*
X1338083D01*
X1337236Y376859D01*
X1336913Y377959D01*
X1338124Y380056D01*
X1338834Y382705D01*
Y382806D01*
X1328420D01*
X1318006D01*
Y382705D01*
X1318716Y380056D01*
X1319926Y377959D01*
X1319603Y376859D01*
X1318757Y375419D01*
X1307319D01*
X1306267Y377959D01*
X1306321Y378013D01*
X1307621Y380265D01*
X1308294Y382776D01*
Y385376D01*
X1307621Y387887D01*
X1306321Y390139D01*
X1304483Y391977D01*
X1302231Y393277D01*
X1299720Y393950D01*
X1297120D01*
X1294609Y393277D01*
X1294181Y393030D01*
X1256951Y430260D01*
Y430710D01*
X1258620Y432379D01*
X1259803Y434428D01*
X1260415Y436713D01*
Y439079D01*
X1259803Y441364D01*
X1258620Y443413D01*
X1256947Y445086D01*
X1254898Y446269D01*
X1252613Y446881D01*
X1250247D01*
X1247962Y446269D01*
X1245913Y445086D01*
X1244240Y443413D01*
X1243057Y441364D01*
X1242445Y439079D01*
Y436713D01*
X1243057Y434428D01*
X1244240Y432379D01*
X1245913Y430706D01*
X1247962Y429523D01*
X1250247Y428911D01*
X1250283D01*
Y428879D01*
X1250537Y427603D01*
X1251259Y426521D01*
X1289466Y388315D01*
X1289219Y387887D01*
X1288546Y385376D01*
Y382776D01*
X1289219Y380265D01*
X1290519Y378013D01*
X1290573Y377959D01*
X1289521Y375419D01*
X1277319D01*
X1276267Y377959D01*
X1276321Y378013D01*
X1277621Y380265D01*
X1278294Y382776D01*
Y385376D01*
X1277621Y387887D01*
X1276321Y390139D01*
X1274483Y391977D01*
X1272231Y393277D01*
X1269720Y393950D01*
X1267120D01*
X1264609Y393277D01*
X1264181Y393030D01*
X1235234Y421977D01*
Y466571D01*
X1235368Y466607D01*
X1237417Y467790D01*
X1239090Y469463D01*
X1240273Y471512D01*
X1240885Y473797D01*
Y476163D01*
X1240273Y478448D01*
X1239090Y480497D01*
X1237417Y482170D01*
X1235368Y483353D01*
X1233083Y483965D01*
X1230717D01*
X1228432Y483353D01*
X1226383Y482170D01*
X1224710Y480497D01*
X1223527Y478448D01*
X1222915Y476163D01*
Y473797D01*
X1223527Y471512D01*
X1224710Y469463D01*
X1226383Y467790D01*
X1228432Y466607D01*
X1228566Y466571D01*
Y420596D01*
X1228820Y419320D01*
X1229542Y418238D01*
X1259466Y388315D01*
X1259219Y387887D01*
X1258546Y385376D01*
Y382776D01*
X1259219Y380265D01*
X1260519Y378013D01*
X1260573Y377959D01*
X1259521Y375419D01*
X1212425D01*
X1180002Y407842D01*
X1179340Y408284D01*
X1178560Y408439D01*
X1086005D01*
X1085831Y408405D01*
X1085653Y408409D01*
X1085444Y408328D01*
X1085225Y408284D01*
X1085077Y408185D01*
X1084911Y408121D01*
X1084749Y407966D01*
X1084563Y407842D01*
X1084464Y407694D01*
X1084336Y407571D01*
X1084226Y407415D01*
X1082985Y406522D01*
X1081503Y406490D01*
X1081442Y406497D01*
X1080876Y406640D01*
X1079743Y407294D01*
X1077072Y408010D01*
X1074308D01*
X1071637Y407294D01*
X1070504Y406640D01*
X1069938Y406497D01*
X1069876Y406490D01*
X1068395Y406522D01*
X1067154Y407415D01*
X1067044Y407571D01*
X1066916Y407694D01*
X1066817Y407842D01*
X1066631Y407966D01*
X1066469Y408121D01*
X1066303Y408185D01*
X1066155Y408284D01*
X1066494Y410806D01*
X1075690D01*
X1078823Y411219D01*
X1081742Y412428D01*
X1084249Y414352D01*
X1086172Y416858D01*
X1087381Y419777D01*
X1087794Y422910D01*
X1087381Y426043D01*
X1086172Y428962D01*
X1084249Y431469D01*
X1081742Y433392D01*
X1078823Y434601D01*
X1075690Y435014D01*
X1032009D01*
Y455579D01*
X1031945Y455904D01*
X1031901Y456233D01*
X1031867Y456292D01*
X1031854Y456359D01*
X1031670Y456635D01*
X1031504Y456923D01*
X1031450Y456964D01*
X1031412Y457021D01*
X1031136Y457205D01*
X1031040Y457280D01*
X1030789Y457607D01*
X1030280Y460533D01*
X1030838Y461499D01*
X1031424Y463687D01*
Y465953D01*
X1030838Y468141D01*
X1030280Y469107D01*
X1030789Y472033D01*
X1031040Y472360D01*
X1031136Y472435D01*
X1031412Y472619D01*
X1031450Y472676D01*
X1031504Y472717D01*
X1031670Y473005D01*
X1031854Y473281D01*
X1031867Y473348D01*
X1031901Y473407D01*
X1031945Y473736D01*
X1032009Y474061D01*
Y744645D01*
X1070782Y783418D01*
X1070792Y783433D01*
X1070807Y783443D01*
X1071012Y783763D01*
X1071224Y784080D01*
X1071227Y784097D01*
X1071237Y784113D01*
X1087329Y824960D01*
X1106524Y828348D01*
X1106732Y828428D01*
X1106950Y828472D01*
X1107099Y828571D01*
X1107266Y828636D01*
X1107427Y828790D01*
X1107612Y828914D01*
X1107711Y829063D01*
X1107841Y829186D01*
X1107930Y829390D01*
X1108054Y829576D01*
X1108089Y829751D01*
X1108161Y829915D01*
X1108166Y830137D01*
X1108209Y830356D01*
Y831313D01*
X1109186D01*
Y831596D01*
X1116330D01*
Y847090D01*
Y862584D01*
X1114171D01*
X1113199Y864931D01*
X1123767Y875500D01*
X1124490Y876581D01*
X1124744Y877857D01*
Y881093D01*
X1126069Y881858D01*
X1127482Y883271D01*
X1128481Y885001D01*
X1128998Y886931D01*
Y888929D01*
X1128602Y890407D01*
X1147074Y908879D01*
X1148514D01*
X1150183Y907210D01*
X1152232Y906027D01*
X1154517Y905415D01*
X1156883D01*
X1159168Y906027D01*
X1161217Y907210D01*
X1162890Y908883D01*
X1164073Y910932D01*
X1164109Y911066D01*
X1205119D01*
X1225455Y890730D01*
Y877475D01*
X1243425D01*
Y895445D01*
X1230170D01*
X1208857Y916758D01*
X1207776Y917480D01*
X1206500Y917734D01*
X1164109D01*
X1164073Y917868D01*
X1162890Y919917D01*
X1161217Y921590D01*
X1159168Y922773D01*
X1156883Y923385D01*
X1154517D01*
X1152232Y922773D01*
X1150183Y921590D01*
X1148510Y919917D01*
X1147327Y917868D01*
X1146715Y915583D01*
Y915547D01*
X1145693D01*
X1144417Y915293D01*
X1143335Y914570D01*
X1123887Y895122D01*
X1122409Y895518D01*
X1120411D01*
X1118481Y895001D01*
X1116751Y894002D01*
X1115338Y892589D01*
X1114339Y890859D01*
X1113822Y888929D01*
Y886931D01*
X1114339Y885001D01*
X1115338Y883271D01*
X1116751Y881858D01*
X1117385Y881492D01*
X1117624Y878786D01*
X1101705Y862867D01*
X1098106D01*
X1096470Y865144D01*
X1096899Y866775D01*
X1096899D01*
Y870839D01*
X1089660D01*
X1082421D01*
Y866775D01*
X1082909D01*
X1083430Y866140D01*
Y863054D01*
X1081180Y861876D01*
X1045227Y886779D01*
X1000889Y928584D01*
X1000577Y928779D01*
X1000270Y928984D01*
X1000240Y928990D01*
X1000215Y929006D01*
X999851Y929067D01*
X999490Y929139D01*
X929936D01*
X929431Y931679D01*
X931745Y932638D01*
X934360Y934385D01*
X936585Y936610D01*
X938332Y939225D01*
X939536Y942132D01*
X940150Y945217D01*
Y948363D01*
X939536Y951448D01*
X938332Y954355D01*
X936585Y956970D01*
X934360Y959195D01*
X931745Y960942D01*
X929455Y961891D01*
X929960Y964431D01*
X970280D01*
X971060Y964586D01*
X971722Y965028D01*
X972164Y965690D01*
X972319Y966470D01*
Y1055500D01*
X972164Y1056280D01*
X971722Y1056942D01*
X971060Y1057384D01*
X970280Y1057539D01*
D02*
G37*
G36*
X1130220Y1060934D02*
X1127620D01*
X1125109Y1060261D01*
X1122857Y1058961D01*
X1121019Y1057123D01*
X1119719Y1054871D01*
X1119046Y1052360D01*
Y1049760D01*
X1119719Y1047249D01*
X1121019Y1044997D01*
X1122857Y1043159D01*
X1125109Y1041859D01*
X1127620Y1041186D01*
X1130220D01*
X1132731Y1041859D01*
X1134983Y1043159D01*
X1136821Y1044997D01*
X1138121Y1047249D01*
X1138794Y1049760D01*
Y1052360D01*
X1138121Y1054871D01*
X1136821Y1057123D01*
X1134983Y1058961D01*
X1132731Y1060261D01*
X1130220Y1060934D01*
D02*
G37*
G36*
X1100220D02*
X1097620D01*
X1095109Y1060261D01*
X1092857Y1058961D01*
X1091019Y1057123D01*
X1089719Y1054871D01*
X1089046Y1052360D01*
Y1049760D01*
X1089719Y1047249D01*
X1091019Y1044997D01*
X1092857Y1043159D01*
X1095109Y1041859D01*
X1097620Y1041186D01*
X1100220D01*
X1102731Y1041859D01*
X1104983Y1043159D01*
X1106821Y1044997D01*
X1108121Y1047249D01*
X1108794Y1049760D01*
Y1052360D01*
X1108121Y1054871D01*
X1106821Y1057123D01*
X1104983Y1058961D01*
X1102731Y1060261D01*
X1100220Y1060934D01*
D02*
G37*
G36*
X1016052Y1043820D02*
X1016000D01*
Y1035050D01*
X1024770D01*
Y1035102D01*
X1024086Y1037655D01*
X1022764Y1039945D01*
X1020895Y1041814D01*
X1018605Y1043136D01*
X1016052Y1043820D01*
D02*
G37*
G36*
X1013460D02*
X1013408D01*
X1010855Y1043136D01*
X1008565Y1041814D01*
X1006696Y1039945D01*
X1005374Y1037655D01*
X1004690Y1035102D01*
Y1035050D01*
X1013460D01*
Y1043820D01*
D02*
G37*
G36*
X1024770Y1032510D02*
X1016000D01*
Y1023740D01*
X1016052D01*
X1018605Y1024424D01*
X1020895Y1025746D01*
X1022764Y1027615D01*
X1024086Y1029905D01*
X1024770Y1032458D01*
Y1032510D01*
D02*
G37*
G36*
X1013460D02*
X1004690D01*
Y1032458D01*
X1005374Y1029905D01*
X1006696Y1027615D01*
X1008565Y1025746D01*
X1010855Y1024424D01*
X1013408Y1023740D01*
X1013460D01*
Y1032510D01*
D02*
G37*
G36*
X1139334Y1019790D02*
X1130190D01*
Y1010646D01*
X1130291D01*
X1132940Y1011356D01*
X1135314Y1012727D01*
X1137253Y1014666D01*
X1138624Y1017040D01*
X1139334Y1019689D01*
Y1019790D01*
D02*
G37*
G36*
X1127650D02*
X1118506D01*
Y1019689D01*
X1119216Y1017040D01*
X1120587Y1014666D01*
X1122526Y1012727D01*
X1124900Y1011356D01*
X1127549Y1010646D01*
X1127650D01*
Y1019790D01*
D02*
G37*
G36*
X1487151Y1031109D02*
X1484049D01*
X1481053Y1030306D01*
X1478368Y1028755D01*
X1476174Y1026562D01*
X1474624Y1023876D01*
X1473821Y1020881D01*
Y1017779D01*
X1474624Y1014783D01*
X1476174Y1012097D01*
X1478368Y1009904D01*
X1481053Y1008354D01*
X1484049Y1007551D01*
X1487151D01*
X1490147Y1008354D01*
X1492832Y1009904D01*
X1495026Y1012097D01*
X1496576Y1014783D01*
X1497379Y1017779D01*
Y1020881D01*
X1496576Y1023876D01*
X1495026Y1026562D01*
X1492832Y1028755D01*
X1490147Y1030306D01*
X1487151Y1031109D01*
D02*
G37*
G36*
X1445151D02*
X1442049D01*
X1439053Y1030306D01*
X1436368Y1028755D01*
X1434174Y1026562D01*
X1432624Y1023876D01*
X1431821Y1020881D01*
Y1017779D01*
X1432624Y1014783D01*
X1434174Y1012097D01*
X1436368Y1009904D01*
X1439053Y1008354D01*
X1442049Y1007551D01*
X1445151D01*
X1448147Y1008354D01*
X1450833Y1009904D01*
X1453026Y1012097D01*
X1454576Y1014783D01*
X1455379Y1017779D01*
Y1020881D01*
X1454576Y1023876D01*
X1453026Y1026562D01*
X1450833Y1028755D01*
X1448147Y1030306D01*
X1445151Y1031109D01*
D02*
G37*
G36*
X1069885Y1018994D02*
X1067954D01*
X1066089Y1018494D01*
X1064417Y1017529D01*
X1063051Y1016163D01*
X1062086Y1014491D01*
X1061586Y1012626D01*
Y1010694D01*
X1062086Y1008829D01*
X1063051Y1007157D01*
X1064417Y1005791D01*
X1066089Y1004826D01*
X1067954Y1004326D01*
X1069885D01*
X1071751Y1004826D01*
X1073423Y1005791D01*
X1074789Y1007157D01*
X1075754Y1008829D01*
X1076254Y1010694D01*
Y1012626D01*
X1075754Y1014491D01*
X1074789Y1016163D01*
X1073423Y1017529D01*
X1071751Y1018494D01*
X1069885Y1018994D01*
D02*
G37*
G36*
X1704545Y1004114D02*
X1702614D01*
X1700749Y1003614D01*
X1699077Y1002649D01*
X1697711Y1001283D01*
X1696746Y999611D01*
X1696246Y997746D01*
Y995814D01*
X1696746Y993949D01*
X1697711Y992277D01*
X1699077Y990911D01*
X1700749Y989946D01*
X1702614Y989446D01*
X1704545D01*
X1706411Y989946D01*
X1708083Y990911D01*
X1709449Y992277D01*
X1710414Y993949D01*
X1710914Y995814D01*
Y997746D01*
X1710414Y999611D01*
X1709449Y1001283D01*
X1708083Y1002649D01*
X1706411Y1003614D01*
X1704545Y1004114D01*
D02*
G37*
G36*
X1160220Y1060934D02*
X1157620D01*
X1155109Y1060261D01*
X1152857Y1058961D01*
X1151019Y1057123D01*
X1149719Y1054871D01*
X1149046Y1052360D01*
Y1049760D01*
X1149719Y1047249D01*
X1151019Y1044997D01*
X1152857Y1043159D01*
X1155109Y1041859D01*
X1157620Y1041186D01*
X1160220D01*
X1162731Y1041859D01*
X1164983Y1043159D01*
X1166821Y1044997D01*
X1168121Y1047249D01*
X1168249Y1047726D01*
X1220249D01*
X1280157Y987818D01*
X1280087Y987698D01*
X1279475Y985413D01*
Y983047D01*
X1280087Y980762D01*
X1281270Y978713D01*
X1282943Y977040D01*
X1284992Y975857D01*
X1287277Y975245D01*
X1289643D01*
X1291928Y975857D01*
X1293977Y977040D01*
X1295650Y978713D01*
X1296833Y980762D01*
X1297445Y983047D01*
Y985413D01*
X1296833Y987698D01*
X1295650Y989747D01*
X1293977Y991420D01*
X1291928Y992603D01*
X1289643Y993215D01*
X1287277D01*
X1284992Y992603D01*
X1284872Y992533D01*
X1223988Y1053418D01*
X1222906Y1054140D01*
X1221630Y1054394D01*
X1168249D01*
X1168121Y1054871D01*
X1166821Y1057123D01*
X1164983Y1058961D01*
X1162731Y1060261D01*
X1160220Y1060934D01*
D02*
G37*
G36*
X1333683Y993145D02*
X1331317D01*
X1329032Y992533D01*
X1326983Y991350D01*
X1325310Y989677D01*
X1324127Y987628D01*
X1323515Y985343D01*
Y982977D01*
X1324127Y980692D01*
X1325310Y978643D01*
X1326983Y976970D01*
X1329032Y975787D01*
X1331317Y975175D01*
X1333683D01*
X1335968Y975787D01*
X1338017Y976970D01*
X1339690Y978643D01*
X1340873Y980692D01*
X1341485Y982977D01*
Y985343D01*
X1340873Y987628D01*
X1339690Y989677D01*
X1338017Y991350D01*
X1335968Y992533D01*
X1333683Y993145D01*
D02*
G37*
G36*
X1665551Y977194D02*
X1665450D01*
Y968050D01*
X1674594D01*
Y968151D01*
X1673884Y970800D01*
X1672513Y973174D01*
X1670574Y975113D01*
X1668200Y976484D01*
X1665551Y977194D01*
D02*
G37*
G36*
X1662910D02*
X1662809D01*
X1660160Y976484D01*
X1657786Y975113D01*
X1655847Y973174D01*
X1654476Y970800D01*
X1653766Y968151D01*
Y968050D01*
X1662910D01*
Y977194D01*
D02*
G37*
G36*
X1695480Y976654D02*
X1692880D01*
X1690369Y975981D01*
X1688117Y974681D01*
X1686279Y972843D01*
X1684979Y970591D01*
X1684306Y968080D01*
Y965480D01*
X1684979Y962969D01*
X1686279Y960717D01*
X1688117Y958879D01*
X1690369Y957579D01*
X1692880Y956906D01*
X1695480D01*
X1697991Y957579D01*
X1700243Y958879D01*
X1702081Y960717D01*
X1703381Y962969D01*
X1704054Y965480D01*
Y968080D01*
X1703381Y970591D01*
X1702081Y972843D01*
X1700243Y974681D01*
X1697991Y975981D01*
X1695480Y976654D01*
D02*
G37*
G36*
X1674594Y965510D02*
X1665450D01*
Y956366D01*
X1665551D01*
X1668200Y957076D01*
X1670574Y958447D01*
X1672513Y960386D01*
X1673884Y962760D01*
X1674594Y965409D01*
Y965510D01*
D02*
G37*
G36*
X1662910D02*
X1653766D01*
Y965409D01*
X1654476Y962760D01*
X1655847Y960386D01*
X1657786Y958447D01*
X1660160Y957076D01*
X1662809Y956366D01*
X1662910D01*
Y965510D01*
D02*
G37*
G36*
X1042670Y960510D02*
Y956310D01*
X1046870D01*
X1046097Y958178D01*
X1044538Y959737D01*
X1042670Y960510D01*
D02*
G37*
G36*
X1040130D02*
X1038262Y959737D01*
X1036703Y958178D01*
X1035930Y956310D01*
X1040130D01*
Y960510D01*
D02*
G37*
G36*
X1046870Y953770D02*
X1042670D01*
Y949570D01*
X1044538Y950343D01*
X1046097Y951902D01*
X1046870Y953770D01*
D02*
G37*
G36*
X1040130D02*
X1035930D01*
X1036703Y951902D01*
X1038262Y950343D01*
X1040130Y949570D01*
Y953770D01*
D02*
G37*
G36*
X1027430Y946540D02*
Y942340D01*
X1031630D01*
X1030857Y944208D01*
X1029298Y945767D01*
X1027430Y946540D01*
D02*
G37*
G36*
X1024890D02*
X1023022Y945767D01*
X1021463Y944208D01*
X1020690Y942340D01*
X1024890D01*
Y946540D01*
D02*
G37*
G36*
X764039Y954151D02*
X763420D01*
Y941070D01*
X776501D01*
Y941689D01*
X775523Y945339D01*
X773634Y948612D01*
X770962Y951284D01*
X767689Y953173D01*
X764039Y954151D01*
D02*
G37*
G36*
X760880D02*
X760261D01*
X756611Y953173D01*
X753338Y951284D01*
X750666Y948612D01*
X748777Y945339D01*
X747799Y941689D01*
Y941070D01*
X760880D01*
Y954151D01*
D02*
G37*
G36*
X1088390Y940190D02*
Y935990D01*
X1092590D01*
X1091817Y937858D01*
X1090258Y939417D01*
X1088390Y940190D01*
D02*
G37*
G36*
X1085850D02*
X1083982Y939417D01*
X1082423Y937858D01*
X1081650Y935990D01*
X1085850D01*
Y940190D01*
D02*
G37*
G36*
X1031630Y939800D02*
X1027430D01*
Y935600D01*
X1029298Y936373D01*
X1030857Y937932D01*
X1031630Y939800D01*
D02*
G37*
G36*
X1024890D02*
X1020690D01*
X1021463Y937932D01*
X1023022Y936373D01*
X1024890Y935600D01*
Y939800D01*
D02*
G37*
G36*
X1092590Y933450D02*
X1088390D01*
Y929250D01*
X1090258Y930023D01*
X1091817Y931582D01*
X1092590Y933450D01*
D02*
G37*
G36*
X1085850D02*
X1081650D01*
X1082423Y931582D01*
X1083982Y930023D01*
X1085850Y929250D01*
Y933450D01*
D02*
G37*
G36*
X1316245Y935500D02*
X1314255D01*
X1312418Y934739D01*
X1311011Y933332D01*
X1310250Y931495D01*
Y929505D01*
X1310421Y929092D01*
X1308638Y927719D01*
X1308304Y927565D01*
X1306555Y928290D01*
X1304565D01*
X1302728Y927529D01*
X1301321Y926122D01*
X1300560Y924285D01*
Y922295D01*
X1301321Y920458D01*
X1302728Y919051D01*
X1304565Y918290D01*
X1305845D01*
X1408906Y815229D01*
Y791727D01*
X1407511Y790332D01*
X1406750Y788495D01*
Y786505D01*
X1407511Y784668D01*
X1408918Y783261D01*
X1410755Y782500D01*
X1412745D01*
X1414582Y783261D01*
X1415989Y784668D01*
X1416750Y786505D01*
Y788495D01*
X1416289Y789608D01*
X1417874Y791520D01*
X1418114Y791601D01*
X1418865Y791290D01*
X1420855D01*
X1422692Y792051D01*
X1424099Y793458D01*
X1424860Y795295D01*
Y797285D01*
X1424099Y799122D01*
X1423194Y800027D01*
Y825890D01*
X1422940Y827166D01*
X1422218Y828248D01*
X1320250Y930215D01*
Y931495D01*
X1319489Y933332D01*
X1318082Y934739D01*
X1316245Y935500D01*
D02*
G37*
G36*
X1695480Y946654D02*
X1692880D01*
X1690369Y945981D01*
X1688117Y944681D01*
X1686279Y942843D01*
X1684979Y940591D01*
X1684306Y938080D01*
Y935480D01*
X1684979Y932969D01*
X1686279Y930717D01*
X1688117Y928879D01*
X1690369Y927579D01*
X1692880Y926906D01*
X1695480D01*
X1697991Y927579D01*
X1700243Y928879D01*
X1702081Y930717D01*
X1703381Y932969D01*
X1704054Y935480D01*
Y938080D01*
X1703381Y940591D01*
X1702081Y942843D01*
X1700243Y944681D01*
X1697991Y945981D01*
X1695480Y946654D01*
D02*
G37*
G36*
X1665480D02*
X1662880D01*
X1660369Y945981D01*
X1658117Y944681D01*
X1656279Y942843D01*
X1654979Y940591D01*
X1654306Y938080D01*
Y935480D01*
X1654979Y932969D01*
X1656279Y930717D01*
X1658117Y928879D01*
X1660369Y927579D01*
X1662880Y926906D01*
X1665480D01*
X1667991Y927579D01*
X1670243Y928879D01*
X1672081Y930717D01*
X1673381Y932969D01*
X1674054Y935480D01*
Y938080D01*
X1673381Y940591D01*
X1672081Y942843D01*
X1670243Y944681D01*
X1667991Y945981D01*
X1665480Y946654D01*
D02*
G37*
G36*
X776501Y938530D02*
X763420D01*
Y925449D01*
X764039D01*
X767689Y926427D01*
X770962Y928316D01*
X773634Y930988D01*
X775523Y934261D01*
X776501Y937911D01*
Y938530D01*
D02*
G37*
G36*
X760880D02*
X747799D01*
Y937911D01*
X748777Y934261D01*
X750666Y930988D01*
X753338Y928316D01*
X756611Y926427D01*
X760261Y925449D01*
X760880D01*
Y938530D01*
D02*
G37*
G36*
X1417057Y946727D02*
X1395023D01*
Y924693D01*
X1417057D01*
Y946727D01*
D02*
G37*
G36*
X1073150Y924950D02*
Y920750D01*
X1077350D01*
X1076577Y922618D01*
X1075018Y924177D01*
X1073150Y924950D01*
D02*
G37*
G36*
X1070610D02*
X1068742Y924177D01*
X1067183Y922618D01*
X1066410Y920750D01*
X1070610D01*
Y924950D01*
D02*
G37*
G36*
X1279525Y923925D02*
X1271270D01*
Y915670D01*
X1279525D01*
Y923925D01*
D02*
G37*
G36*
X1268730D02*
X1260475D01*
Y915670D01*
X1268730D01*
Y923925D01*
D02*
G37*
G36*
X1077350Y918210D02*
X1073150D01*
Y914010D01*
X1075018Y914783D01*
X1076577Y916342D01*
X1077350Y918210D01*
D02*
G37*
G36*
X1070610D02*
X1066410D01*
X1067183Y916342D01*
X1068742Y914783D01*
X1070610Y914010D01*
Y918210D01*
D02*
G37*
G36*
X1695551Y917194D02*
X1695450D01*
Y908050D01*
X1704594D01*
Y908151D01*
X1703884Y910800D01*
X1702513Y913174D01*
X1700574Y915113D01*
X1698200Y916484D01*
X1695551Y917194D01*
D02*
G37*
G36*
X1692910D02*
X1692809D01*
X1690160Y916484D01*
X1687786Y915113D01*
X1685847Y913174D01*
X1684476Y910800D01*
X1683766Y908151D01*
Y908050D01*
X1692910D01*
Y917194D01*
D02*
G37*
G36*
X1151985Y957675D02*
X1134015D01*
Y944420D01*
X1119053Y929457D01*
X1118330Y928376D01*
X1118076Y927100D01*
Y919767D01*
X1116751Y919002D01*
X1115338Y917589D01*
X1114339Y915859D01*
X1113822Y913929D01*
Y911931D01*
X1114339Y910001D01*
X1115338Y908271D01*
X1116751Y906858D01*
X1118481Y905859D01*
X1120411Y905342D01*
X1122409D01*
X1124339Y905859D01*
X1126069Y906858D01*
X1127482Y908271D01*
X1128481Y910001D01*
X1128998Y911931D01*
Y913929D01*
X1128481Y915859D01*
X1127482Y917589D01*
X1126069Y919002D01*
X1124744Y919767D01*
Y925719D01*
X1138730Y939705D01*
X1151985D01*
Y957675D01*
D02*
G37*
G36*
X1279525Y913130D02*
X1271270D01*
Y904875D01*
X1279525D01*
Y913130D01*
D02*
G37*
G36*
X1268730D02*
X1260475D01*
Y904875D01*
X1268730D01*
Y913130D01*
D02*
G37*
G36*
X1055370Y907170D02*
Y902970D01*
X1059570D01*
X1058797Y904838D01*
X1057238Y906397D01*
X1055370Y907170D01*
D02*
G37*
G36*
X1052830D02*
X1050962Y906397D01*
X1049403Y904838D01*
X1048630Y902970D01*
X1052830D01*
Y907170D01*
D02*
G37*
G36*
X1665480Y916654D02*
X1662880D01*
X1660369Y915981D01*
X1658117Y914681D01*
X1656279Y912843D01*
X1654979Y910591D01*
X1654306Y908080D01*
Y905480D01*
X1654979Y902969D01*
X1656279Y900717D01*
X1658117Y898879D01*
X1660369Y897579D01*
X1662880Y896906D01*
X1665480D01*
X1667991Y897579D01*
X1670243Y898879D01*
X1672081Y900717D01*
X1673381Y902969D01*
X1674054Y905480D01*
Y908080D01*
X1673381Y910591D01*
X1672081Y912843D01*
X1670243Y914681D01*
X1667991Y915981D01*
X1665480Y916654D01*
D02*
G37*
G36*
X1704594Y905510D02*
X1695450D01*
Y896366D01*
X1695551D01*
X1698200Y897076D01*
X1700574Y898447D01*
X1702513Y900386D01*
X1703884Y902760D01*
X1704594Y905409D01*
Y905510D01*
D02*
G37*
G36*
X1692910D02*
X1683766D01*
Y905409D01*
X1684476Y902760D01*
X1685847Y900386D01*
X1687786Y898447D01*
X1690160Y897076D01*
X1692809Y896366D01*
X1692910D01*
Y905510D01*
D02*
G37*
G36*
X1059570Y900430D02*
X1055370D01*
Y896230D01*
X1057238Y897003D01*
X1058797Y898562D01*
X1059570Y900430D01*
D02*
G37*
G36*
X1052830D02*
X1048630D01*
X1049403Y898562D01*
X1050962Y897003D01*
X1052830Y896230D01*
Y900430D01*
D02*
G37*
G36*
X1532490Y896727D02*
X1529590D01*
X1526788Y895976D01*
X1524275Y894526D01*
X1522224Y892475D01*
X1520774Y889962D01*
X1520023Y887160D01*
Y884260D01*
X1520774Y881458D01*
X1522224Y878945D01*
X1524275Y876894D01*
X1526788Y875444D01*
X1529590Y874693D01*
X1532490D01*
X1535292Y875444D01*
X1537805Y876894D01*
X1539856Y878945D01*
X1541306Y881458D01*
X1542057Y884260D01*
Y887160D01*
X1541306Y889962D01*
X1539856Y892475D01*
X1537805Y894526D01*
X1535292Y895976D01*
X1532490Y896727D01*
D02*
G37*
G36*
X1407490D02*
X1404590D01*
X1401788Y895976D01*
X1399275Y894526D01*
X1397224Y892475D01*
X1395774Y889962D01*
X1395023Y887160D01*
Y884260D01*
X1395774Y881458D01*
X1397224Y878945D01*
X1399275Y876894D01*
X1401788Y875444D01*
X1404590Y874693D01*
X1407490D01*
X1410292Y875444D01*
X1412805Y876894D01*
X1414856Y878945D01*
X1416306Y881458D01*
X1417057Y884260D01*
Y887160D01*
X1416306Y889962D01*
X1414856Y892475D01*
X1412805Y894526D01*
X1410292Y895976D01*
X1407490Y896727D01*
D02*
G37*
G36*
X1096899Y877443D02*
X1090930D01*
Y873379D01*
X1096899D01*
Y877443D01*
D02*
G37*
G36*
X1088390D02*
X1082421D01*
Y873379D01*
X1088390D01*
Y877443D01*
D02*
G37*
G36*
X1704545Y884114D02*
X1702614D01*
X1700749Y883614D01*
X1699077Y882649D01*
X1697711Y881283D01*
X1696746Y879611D01*
X1696246Y877746D01*
Y875815D01*
X1696746Y873949D01*
X1697711Y872277D01*
X1699077Y870911D01*
X1700749Y869946D01*
X1702614Y869446D01*
X1704545D01*
X1706411Y869946D01*
X1708083Y870911D01*
X1709449Y872277D01*
X1710414Y873949D01*
X1710914Y875815D01*
Y877746D01*
X1710414Y879611D01*
X1709449Y881283D01*
X1708083Y882649D01*
X1706411Y883614D01*
X1704545Y884114D01*
D02*
G37*
G36*
X824098Y895340D02*
X820702D01*
X817371Y894678D01*
X814234Y893378D01*
X811410Y891491D01*
X809009Y889090D01*
X807122Y886266D01*
X805823Y883129D01*
X805160Y879798D01*
Y876402D01*
X805823Y873071D01*
X807122Y869934D01*
X809009Y867110D01*
X811410Y864709D01*
X814234Y862822D01*
X817371Y861523D01*
X820702Y860860D01*
X824098D01*
X827429Y861523D01*
X830566Y862822D01*
X833390Y864709D01*
X835791Y867110D01*
X837678Y869934D01*
X838977Y873071D01*
X839640Y876402D01*
Y879798D01*
X838977Y883129D01*
X837678Y886266D01*
X835791Y889090D01*
X833390Y891491D01*
X830566Y893378D01*
X827429Y894678D01*
X824098Y895340D01*
D02*
G37*
G36*
X1440180Y828262D02*
Y821290D01*
X1447152D01*
X1446635Y823220D01*
X1445544Y825110D01*
X1444000Y826654D01*
X1442110Y827745D01*
X1440180Y828262D01*
D02*
G37*
G36*
X1437640D02*
X1435710Y827745D01*
X1433820Y826654D01*
X1432276Y825110D01*
X1431185Y823220D01*
X1430668Y821290D01*
X1437640D01*
Y828262D01*
D02*
G37*
G36*
X1447152Y818750D02*
X1440180D01*
Y811778D01*
X1442110Y812295D01*
X1444000Y813386D01*
X1445544Y814930D01*
X1446635Y816820D01*
X1447152Y818750D01*
D02*
G37*
G36*
X1437640D02*
X1430668D01*
X1431185Y816820D01*
X1432276Y814930D01*
X1433820Y813386D01*
X1435710Y812295D01*
X1437640Y811778D01*
Y818750D01*
D02*
G37*
G36*
X1595755Y818515D02*
X1587500D01*
Y810260D01*
X1595755D01*
Y818515D01*
D02*
G37*
G36*
X1584960D02*
X1576705D01*
Y810260D01*
X1584960D01*
Y818515D01*
D02*
G37*
G36*
X1365250Y813022D02*
Y806050D01*
X1372222D01*
X1371705Y807980D01*
X1370614Y809870D01*
X1369070Y811414D01*
X1367180Y812505D01*
X1365250Y813022D01*
D02*
G37*
G36*
X1362710D02*
X1360780Y812505D01*
X1358890Y811414D01*
X1357346Y809870D01*
X1356255Y807980D01*
X1355738Y806050D01*
X1362710D01*
Y813022D01*
D02*
G37*
G36*
X1473113Y817975D02*
X1470747D01*
X1468462Y817363D01*
X1466413Y816180D01*
X1464740Y814507D01*
X1463557Y812458D01*
X1462945Y810173D01*
Y807807D01*
X1463557Y805522D01*
X1464740Y803473D01*
X1466413Y801800D01*
X1468462Y800617D01*
X1470747Y800005D01*
X1473113D01*
X1475398Y800617D01*
X1477447Y801800D01*
X1479120Y803473D01*
X1480303Y805522D01*
X1480915Y807807D01*
Y810173D01*
X1480303Y812458D01*
X1479120Y814507D01*
X1477447Y816180D01*
X1475398Y817363D01*
X1473113Y817975D01*
D02*
G37*
G36*
X1595755Y807720D02*
X1587500D01*
Y799465D01*
X1595755D01*
Y807720D01*
D02*
G37*
G36*
X1584960D02*
X1576705D01*
Y799465D01*
X1584960D01*
Y807720D01*
D02*
G37*
G36*
X1372222Y803510D02*
X1365250D01*
Y796538D01*
X1367180Y797055D01*
X1369070Y798146D01*
X1370614Y799690D01*
X1371705Y801580D01*
X1372222Y803510D01*
D02*
G37*
G36*
X1362710D02*
X1355738D01*
X1356255Y801580D01*
X1357346Y799690D01*
X1358890Y798146D01*
X1360780Y797055D01*
X1362710Y796538D01*
Y803510D01*
D02*
G37*
G36*
X1664155Y810284D02*
X1662224D01*
X1660359Y809784D01*
X1658687Y808819D01*
X1657321Y807453D01*
X1656356Y805781D01*
X1655856Y803915D01*
Y801984D01*
X1656356Y800119D01*
X1657321Y798447D01*
X1658687Y797081D01*
X1660359Y796116D01*
X1662224Y795616D01*
X1664155D01*
X1666021Y796116D01*
X1667693Y797081D01*
X1669059Y798447D01*
X1670024Y800119D01*
X1670524Y801984D01*
Y803915D01*
X1670024Y805781D01*
X1669059Y807453D01*
X1667693Y808819D01*
X1666021Y809784D01*
X1664155Y810284D01*
D02*
G37*
G36*
X1327150Y797950D02*
Y793750D01*
X1331350D01*
X1330577Y795618D01*
X1329018Y797177D01*
X1327150Y797950D01*
D02*
G37*
G36*
X1331350Y791210D02*
X1327150D01*
Y787010D01*
X1329018Y787783D01*
X1330577Y789342D01*
X1331350Y791210D01*
D02*
G37*
G36*
X1535430Y790162D02*
Y783190D01*
X1542402D01*
X1541885Y785120D01*
X1540794Y787010D01*
X1539250Y788554D01*
X1537360Y789645D01*
X1535430Y790162D01*
D02*
G37*
G36*
X1532890D02*
X1530960Y789645D01*
X1529070Y788554D01*
X1527526Y787010D01*
X1526435Y785120D01*
X1525918Y783190D01*
X1532890D01*
Y790162D01*
D02*
G37*
G36*
X1398270Y789762D02*
Y782790D01*
X1405242D01*
X1404725Y784720D01*
X1403634Y786610D01*
X1402090Y788154D01*
X1400200Y789245D01*
X1398270Y789762D01*
D02*
G37*
G36*
X1395730D02*
X1393800Y789245D01*
X1391910Y788154D01*
X1390366Y786610D01*
X1389275Y784720D01*
X1388758Y782790D01*
X1395730D01*
Y789762D01*
D02*
G37*
G36*
X1582145Y786050D02*
X1580155D01*
X1578318Y785289D01*
X1576911Y783882D01*
X1576150Y782045D01*
Y780055D01*
X1576911Y778218D01*
X1578318Y776811D01*
X1580155Y776050D01*
X1582145D01*
X1583982Y776811D01*
X1585389Y778218D01*
X1586150Y780055D01*
Y782045D01*
X1585389Y783882D01*
X1583982Y785289D01*
X1582145Y786050D01*
D02*
G37*
G36*
X1673961Y783364D02*
X1673860D01*
Y774220D01*
X1683004D01*
Y774321D01*
X1682294Y776970D01*
X1680923Y779344D01*
X1678984Y781283D01*
X1676610Y782654D01*
X1673961Y783364D01*
D02*
G37*
G36*
X1671320D02*
X1671219D01*
X1668570Y782654D01*
X1666196Y781283D01*
X1664257Y779344D01*
X1662886Y776970D01*
X1662176Y774321D01*
Y774220D01*
X1671320D01*
Y783364D01*
D02*
G37*
G36*
X1542402Y780650D02*
X1535430D01*
Y773678D01*
X1537360Y774195D01*
X1539250Y775286D01*
X1540794Y776830D01*
X1541885Y778720D01*
X1542402Y780650D01*
D02*
G37*
G36*
X1532890D02*
X1525918D01*
X1526435Y778720D01*
X1527526Y776830D01*
X1529070Y775286D01*
X1530960Y774195D01*
X1532890Y773678D01*
Y780650D01*
D02*
G37*
G36*
X1405242Y780250D02*
X1398270D01*
Y773278D01*
X1400200Y773795D01*
X1402090Y774886D01*
X1403634Y776430D01*
X1404725Y778320D01*
X1405242Y780250D01*
D02*
G37*
G36*
X1395730D02*
X1388758D01*
X1389275Y778320D01*
X1390366Y776430D01*
X1391910Y774886D01*
X1393800Y773795D01*
X1395730Y773278D01*
Y780250D01*
D02*
G37*
G36*
X1703890Y782824D02*
X1701290D01*
X1698779Y782151D01*
X1696527Y780851D01*
X1694689Y779013D01*
X1693389Y776761D01*
X1692716Y774250D01*
Y771650D01*
X1693389Y769139D01*
X1694689Y766887D01*
X1696527Y765049D01*
X1698779Y763749D01*
X1701290Y763076D01*
X1703890D01*
X1706401Y763749D01*
X1708653Y765049D01*
X1710491Y766887D01*
X1711791Y769139D01*
X1712464Y771650D01*
Y774250D01*
X1711791Y776761D01*
X1710491Y779013D01*
X1708653Y780851D01*
X1706401Y782151D01*
X1703890Y782824D01*
D02*
G37*
G36*
X1683004Y771680D02*
X1673860D01*
Y762536D01*
X1673961D01*
X1676610Y763246D01*
X1678984Y764617D01*
X1680923Y766556D01*
X1682294Y768930D01*
X1683004Y771579D01*
Y771680D01*
D02*
G37*
G36*
X1671320D02*
X1662176D01*
Y771579D01*
X1662886Y768930D01*
X1664257Y766556D01*
X1666196Y764617D01*
X1668570Y763246D01*
X1671219Y762536D01*
X1671320D01*
Y771680D01*
D02*
G37*
G36*
X1703961Y753364D02*
X1703860D01*
Y744220D01*
X1713004D01*
Y744321D01*
X1712294Y746970D01*
X1710923Y749344D01*
X1708984Y751283D01*
X1706610Y752654D01*
X1703961Y753364D01*
D02*
G37*
G36*
X1701320D02*
X1701219D01*
X1698570Y752654D01*
X1696196Y751283D01*
X1694257Y749344D01*
X1692886Y746970D01*
X1692176Y744321D01*
Y744220D01*
X1701320D01*
Y753364D01*
D02*
G37*
G36*
X1138094Y862867D02*
X1126014D01*
Y862584D01*
X1118870D01*
Y847090D01*
Y831596D01*
X1126014D01*
Y831313D01*
X1126991D01*
Y822482D01*
X1102888Y781500D01*
X1074270D01*
Y742500D01*
X1119270D01*
Y776792D01*
X1158617Y830647D01*
X1158719Y830867D01*
X1158854Y831070D01*
X1158885Y831225D01*
X1158952Y831369D01*
X1158962Y831612D01*
X1159009Y831850D01*
Y845820D01*
X1158854Y846600D01*
X1158412Y847262D01*
X1158298Y847338D01*
X1157319Y849535D01*
X1157319Y849535D01*
X1157319Y849535D01*
Y859123D01*
X1143921D01*
Y858831D01*
X1142782Y858605D01*
X1141459Y857721D01*
X1140591Y856422D01*
X1140520Y856409D01*
X1139215Y856678D01*
X1138094Y857227D01*
Y862867D01*
D02*
G37*
G36*
X1611611Y752450D02*
X1609109D01*
X1606693Y751803D01*
X1604527Y750552D01*
X1602758Y748783D01*
X1601507Y746617D01*
X1600860Y744201D01*
Y741699D01*
X1601507Y739283D01*
X1602758Y737117D01*
X1604527Y735348D01*
X1606693Y734097D01*
X1609109Y733450D01*
X1611611D01*
X1614027Y734097D01*
X1616193Y735348D01*
X1617962Y737117D01*
X1619213Y739283D01*
X1619860Y741699D01*
Y744201D01*
X1619213Y746617D01*
X1617962Y748783D01*
X1616193Y750552D01*
X1614027Y751803D01*
X1611611Y752450D01*
D02*
G37*
G36*
X1673890Y752824D02*
X1671290D01*
X1668779Y752151D01*
X1666527Y750851D01*
X1664689Y749013D01*
X1663389Y746761D01*
X1662716Y744250D01*
Y741650D01*
X1663389Y739139D01*
X1664689Y736887D01*
X1666527Y735049D01*
X1668779Y733749D01*
X1671290Y733076D01*
X1673890D01*
X1676401Y733749D01*
X1678653Y735049D01*
X1680491Y736887D01*
X1681791Y739139D01*
X1682464Y741650D01*
Y744250D01*
X1681791Y746761D01*
X1680491Y749013D01*
X1678653Y750851D01*
X1676401Y752151D01*
X1673890Y752824D01*
D02*
G37*
G36*
X1713004Y741680D02*
X1703860D01*
Y732536D01*
X1703961D01*
X1706610Y733246D01*
X1708984Y734617D01*
X1710923Y736556D01*
X1712294Y738930D01*
X1713004Y741579D01*
Y741680D01*
D02*
G37*
G36*
X1701320D02*
X1692176D01*
Y741579D01*
X1692886Y738930D01*
X1694257Y736556D01*
X1696196Y734617D01*
X1698570Y733246D01*
X1701219Y732536D01*
X1701320D01*
Y741680D01*
D02*
G37*
G36*
X1703890Y722824D02*
X1701290D01*
X1698779Y722151D01*
X1696527Y720851D01*
X1694689Y719013D01*
X1693389Y716761D01*
X1692716Y714250D01*
Y711650D01*
X1693389Y709139D01*
X1694689Y706887D01*
X1696527Y705049D01*
X1698779Y703749D01*
X1701290Y703076D01*
X1703890D01*
X1706401Y703749D01*
X1708653Y705049D01*
X1710491Y706887D01*
X1711791Y709139D01*
X1712464Y711650D01*
Y714250D01*
X1711791Y716761D01*
X1710491Y719013D01*
X1708653Y720851D01*
X1706401Y722151D01*
X1703890Y722824D01*
D02*
G37*
G36*
X1673890D02*
X1671290D01*
X1668779Y722151D01*
X1666527Y720851D01*
X1664689Y719013D01*
X1663389Y716761D01*
X1662716Y714250D01*
Y711650D01*
X1663389Y709139D01*
X1664689Y706887D01*
X1666527Y705049D01*
X1668779Y703749D01*
X1671290Y703076D01*
X1673890D01*
X1676401Y703749D01*
X1678653Y705049D01*
X1680491Y706887D01*
X1681791Y709139D01*
X1682464Y711650D01*
Y714250D01*
X1681791Y716761D01*
X1680491Y719013D01*
X1678653Y720851D01*
X1676401Y722151D01*
X1673890Y722824D01*
D02*
G37*
G36*
X1611611Y721970D02*
X1609109D01*
X1606693Y721323D01*
X1604527Y720072D01*
X1602758Y718303D01*
X1601507Y716137D01*
X1600860Y713721D01*
Y711219D01*
X1601507Y708803D01*
X1602758Y706637D01*
X1604527Y704868D01*
X1606693Y703617D01*
X1609109Y702970D01*
X1611611D01*
X1614027Y703617D01*
X1616193Y704868D01*
X1617962Y706637D01*
X1619213Y708803D01*
X1619860Y711219D01*
Y713721D01*
X1619213Y716137D01*
X1617962Y718303D01*
X1616193Y720072D01*
X1614027Y721323D01*
X1611611Y721970D01*
D02*
G37*
G36*
X1356760Y708012D02*
Y701040D01*
X1363732D01*
X1363215Y702970D01*
X1362124Y704860D01*
X1360580Y706404D01*
X1358690Y707495D01*
X1356760Y708012D01*
D02*
G37*
G36*
X1363732Y698500D02*
X1356760D01*
Y691528D01*
X1358690Y692045D01*
X1360580Y693136D01*
X1362124Y694680D01*
X1363215Y696570D01*
X1363732Y698500D01*
D02*
G37*
G36*
X1464310Y683650D02*
Y679450D01*
X1468510D01*
X1467737Y681318D01*
X1466178Y682877D01*
X1464310Y683650D01*
D02*
G37*
G36*
X1664155Y690284D02*
X1662224D01*
X1660359Y689784D01*
X1658687Y688819D01*
X1657321Y687453D01*
X1656356Y685781D01*
X1655856Y683915D01*
Y681984D01*
X1656356Y680119D01*
X1657321Y678447D01*
X1658687Y677081D01*
X1660359Y676116D01*
X1662224Y675616D01*
X1664155D01*
X1666021Y676116D01*
X1667693Y677081D01*
X1669059Y678447D01*
X1670024Y680119D01*
X1670524Y681984D01*
Y683915D01*
X1670024Y685781D01*
X1669059Y687453D01*
X1667693Y688819D01*
X1666021Y689784D01*
X1664155Y690284D01*
D02*
G37*
G36*
X1468510Y676910D02*
X1464310D01*
Y672710D01*
X1466178Y673483D01*
X1467737Y675042D01*
X1468510Y676910D01*
D02*
G37*
G36*
X746991Y678032D02*
X746639D01*
Y666983D01*
X757688D01*
Y667335D01*
X756848Y670468D01*
X755227Y673277D01*
X752933Y675571D01*
X750124Y677192D01*
X746991Y678032D01*
D02*
G37*
G36*
X744099D02*
X743747D01*
X740614Y677192D01*
X737805Y675571D01*
X735511Y673277D01*
X733889Y670468D01*
X733050Y667335D01*
Y666983D01*
X744099D01*
Y678032D01*
D02*
G37*
G36*
X1579663Y681100D02*
X1577557D01*
X1575522Y680555D01*
X1573698Y679502D01*
X1572208Y678012D01*
X1571155Y676188D01*
X1570610Y674153D01*
Y672047D01*
X1571155Y670012D01*
X1572208Y668188D01*
X1573698Y666698D01*
X1575522Y665645D01*
X1577557Y665100D01*
X1579663D01*
X1581698Y665645D01*
X1583522Y666698D01*
X1585012Y668188D01*
X1586065Y670012D01*
X1586610Y672047D01*
Y674153D01*
X1586065Y676188D01*
X1585012Y678012D01*
X1583522Y679502D01*
X1581698Y680555D01*
X1579663Y681100D01*
D02*
G37*
G36*
X757688Y664443D02*
X746639D01*
Y653394D01*
X746991D01*
X750124Y654233D01*
X752933Y655855D01*
X755227Y658149D01*
X756848Y660958D01*
X757688Y664091D01*
Y664443D01*
D02*
G37*
G36*
X744099D02*
X733050D01*
Y664091D01*
X733889Y660958D01*
X735511Y658149D01*
X737805Y655855D01*
X740614Y654233D01*
X743747Y653394D01*
X744099D01*
Y664443D01*
D02*
G37*
G36*
X1169583Y664305D02*
X1167217D01*
X1164932Y663693D01*
X1162883Y662510D01*
X1161210Y660837D01*
X1160027Y658788D01*
X1159415Y656503D01*
Y654137D01*
X1160027Y651852D01*
X1160097Y651732D01*
X1156909Y648544D01*
X1068791D01*
X1068236Y650614D01*
X1066393Y653806D01*
X1063786Y656413D01*
X1060594Y658256D01*
X1057033Y659210D01*
X1053347D01*
X1049786Y658256D01*
X1046594Y656413D01*
X1043987Y653806D01*
X1042144Y650614D01*
X1041190Y647053D01*
Y643367D01*
X1042144Y639806D01*
X1043987Y636614D01*
X1046594Y634007D01*
X1049786Y632164D01*
X1053347Y631210D01*
X1057033D01*
X1060594Y632164D01*
X1063786Y634007D01*
X1066393Y636614D01*
X1068236Y639806D01*
X1068791Y641876D01*
X1158290D01*
X1159566Y642130D01*
X1160648Y642852D01*
X1164812Y647017D01*
X1164932Y646947D01*
X1167217Y646335D01*
X1169583D01*
X1171868Y646947D01*
X1173917Y648130D01*
X1175590Y649803D01*
X1176773Y651852D01*
X1177385Y654137D01*
Y656503D01*
X1176773Y658788D01*
X1175590Y660837D01*
X1173917Y662510D01*
X1171868Y663693D01*
X1169583Y664305D01*
D02*
G37*
G36*
X746991Y594032D02*
X746639D01*
Y582983D01*
X757688D01*
Y583335D01*
X756848Y586468D01*
X755227Y589277D01*
X752933Y591571D01*
X750124Y593192D01*
X746991Y594032D01*
D02*
G37*
G36*
X744099D02*
X743747D01*
X740614Y593192D01*
X737805Y591571D01*
X735511Y589277D01*
X733889Y586468D01*
X733050Y583335D01*
Y582983D01*
X744099D01*
Y594032D01*
D02*
G37*
G36*
X1330490Y603227D02*
X1327590D01*
X1324788Y602476D01*
X1322275Y601026D01*
X1320224Y598975D01*
X1318774Y596462D01*
X1318023Y593660D01*
Y590760D01*
X1318774Y587958D01*
X1320224Y585445D01*
X1322275Y583394D01*
X1324788Y581944D01*
X1327590Y581193D01*
X1330490D01*
X1333292Y581944D01*
X1335805Y583394D01*
X1337856Y585445D01*
X1339306Y587958D01*
X1340057Y590760D01*
Y593660D01*
X1339306Y596462D01*
X1337856Y598975D01*
X1335805Y601026D01*
X1333292Y602476D01*
X1330490Y603227D01*
D02*
G37*
G36*
X1215057D02*
X1193023D01*
Y581193D01*
X1215057D01*
Y603227D01*
D02*
G37*
G36*
X1674370Y600424D02*
X1671770D01*
X1669259Y599751D01*
X1667007Y598451D01*
X1665169Y596613D01*
X1663869Y594361D01*
X1663196Y591850D01*
Y589250D01*
X1663869Y586739D01*
X1665169Y584487D01*
X1667007Y582649D01*
X1669259Y581349D01*
X1671770Y580676D01*
X1674370D01*
X1676881Y581349D01*
X1679133Y582649D01*
X1680971Y584487D01*
X1682271Y586739D01*
X1682944Y589250D01*
Y591850D01*
X1682271Y594361D01*
X1680971Y596613D01*
X1679133Y598451D01*
X1676881Y599751D01*
X1674370Y600424D01*
D02*
G37*
G36*
X1553210Y585222D02*
Y578250D01*
X1560182D01*
X1559665Y580180D01*
X1558574Y582070D01*
X1557030Y583614D01*
X1555140Y584705D01*
X1553210Y585222D01*
D02*
G37*
G36*
X1524000D02*
Y578250D01*
X1530972D01*
X1530455Y580180D01*
X1529364Y582070D01*
X1527820Y583614D01*
X1525930Y584705D01*
X1524000Y585222D01*
D02*
G37*
G36*
X1496060D02*
Y578250D01*
X1503032D01*
X1502515Y580180D01*
X1501424Y582070D01*
X1499880Y583614D01*
X1497990Y584705D01*
X1496060Y585222D01*
D02*
G37*
G36*
X1465580D02*
Y578250D01*
X1472552D01*
X1472035Y580180D01*
X1470944Y582070D01*
X1469400Y583614D01*
X1467510Y584705D01*
X1465580Y585222D01*
D02*
G37*
G36*
X1435100D02*
Y578250D01*
X1442072D01*
X1441555Y580180D01*
X1440464Y582070D01*
X1438920Y583614D01*
X1437030Y584705D01*
X1435100Y585222D01*
D02*
G37*
G36*
X1402080D02*
Y578250D01*
X1409052D01*
X1408535Y580180D01*
X1407444Y582070D01*
X1405900Y583614D01*
X1404010Y584705D01*
X1402080Y585222D01*
D02*
G37*
G36*
X1550670D02*
X1548740Y584705D01*
X1546850Y583614D01*
X1545306Y582070D01*
X1544215Y580180D01*
X1543698Y578250D01*
X1550670D01*
Y585222D01*
D02*
G37*
G36*
X1521460D02*
X1519530Y584705D01*
X1517640Y583614D01*
X1516096Y582070D01*
X1515005Y580180D01*
X1514488Y578250D01*
X1521460D01*
Y585222D01*
D02*
G37*
G36*
X1493520D02*
X1491590Y584705D01*
X1489700Y583614D01*
X1488156Y582070D01*
X1487065Y580180D01*
X1486548Y578250D01*
X1493520D01*
Y585222D01*
D02*
G37*
G36*
X1463040D02*
X1461110Y584705D01*
X1459220Y583614D01*
X1457676Y582070D01*
X1456585Y580180D01*
X1456068Y578250D01*
X1463040D01*
Y585222D01*
D02*
G37*
G36*
X1432560D02*
X1430630Y584705D01*
X1428740Y583614D01*
X1427196Y582070D01*
X1426105Y580180D01*
X1425588Y578250D01*
X1432560D01*
Y585222D01*
D02*
G37*
G36*
X1399540D02*
X1397610Y584705D01*
X1395720Y583614D01*
X1394176Y582070D01*
X1393085Y580180D01*
X1392568Y578250D01*
X1399540D01*
Y585222D01*
D02*
G37*
G36*
X1077143Y586350D02*
X1076960D01*
Y576580D01*
X1086730D01*
Y576763D01*
X1085978Y579571D01*
X1084524Y582089D01*
X1082469Y584144D01*
X1079951Y585598D01*
X1077143Y586350D01*
D02*
G37*
G36*
X1074420D02*
X1074237D01*
X1071429Y585598D01*
X1068911Y584144D01*
X1066856Y582089D01*
X1065402Y579571D01*
X1064650Y576763D01*
Y576580D01*
X1074420D01*
Y586350D01*
D02*
G37*
G36*
X757688Y580443D02*
X746639D01*
Y569394D01*
X746991D01*
X750124Y570233D01*
X752933Y571855D01*
X755227Y574149D01*
X756848Y576958D01*
X757688Y580091D01*
Y580443D01*
D02*
G37*
G36*
X744099D02*
X733050D01*
Y580091D01*
X733889Y576958D01*
X735511Y574149D01*
X737805Y571855D01*
X740614Y570233D01*
X743747Y569394D01*
X744099D01*
Y580443D01*
D02*
G37*
G36*
X1560182Y575710D02*
X1553210D01*
Y568738D01*
X1555140Y569255D01*
X1557030Y570346D01*
X1558574Y571890D01*
X1559665Y573780D01*
X1560182Y575710D01*
D02*
G37*
G36*
X1530972D02*
X1524000D01*
Y568738D01*
X1525930Y569255D01*
X1527820Y570346D01*
X1529364Y571890D01*
X1530455Y573780D01*
X1530972Y575710D01*
D02*
G37*
G36*
X1503032D02*
X1496060D01*
Y568738D01*
X1497990Y569255D01*
X1499880Y570346D01*
X1501424Y571890D01*
X1502515Y573780D01*
X1503032Y575710D01*
D02*
G37*
G36*
X1472552D02*
X1465580D01*
Y568738D01*
X1467510Y569255D01*
X1469400Y570346D01*
X1470944Y571890D01*
X1472035Y573780D01*
X1472552Y575710D01*
D02*
G37*
G36*
X1442072D02*
X1435100D01*
Y568738D01*
X1437030Y569255D01*
X1438920Y570346D01*
X1440464Y571890D01*
X1441555Y573780D01*
X1442072Y575710D01*
D02*
G37*
G36*
X1409052D02*
X1402080D01*
Y568738D01*
X1404010Y569255D01*
X1405900Y570346D01*
X1407444Y571890D01*
X1408535Y573780D01*
X1409052Y575710D01*
D02*
G37*
G36*
X1493520D02*
X1486548D01*
X1487065Y573780D01*
X1488156Y571890D01*
X1489700Y570346D01*
X1491590Y569255D01*
X1493520Y568738D01*
Y575710D01*
D02*
G37*
G36*
X1463040D02*
X1456068D01*
X1456585Y573780D01*
X1457676Y571890D01*
X1459220Y570346D01*
X1461110Y569255D01*
X1463040Y568738D01*
Y575710D01*
D02*
G37*
G36*
X1432560D02*
X1425588D01*
X1426105Y573780D01*
X1427196Y571890D01*
X1428740Y570346D01*
X1430630Y569255D01*
X1432560Y568738D01*
Y575710D01*
D02*
G37*
G36*
X1399540D02*
X1392568D01*
X1393085Y573780D01*
X1394176Y571890D01*
X1395720Y570346D01*
X1397610Y569255D01*
X1399540Y568738D01*
Y575710D01*
D02*
G37*
G36*
X1550670D02*
X1543698D01*
X1544215Y573780D01*
X1545306Y571890D01*
X1546850Y570346D01*
X1548740Y569255D01*
X1550670Y568738D01*
Y575710D01*
D02*
G37*
G36*
X1521460D02*
X1514488D01*
X1515005Y573780D01*
X1516096Y571890D01*
X1517640Y570346D01*
X1519530Y569255D01*
X1521460Y568738D01*
Y575710D01*
D02*
G37*
G36*
X1086730Y574040D02*
X1076960D01*
Y564270D01*
X1077143D01*
X1079951Y565022D01*
X1082469Y566476D01*
X1084524Y568531D01*
X1085978Y571049D01*
X1086730Y573857D01*
Y574040D01*
D02*
G37*
G36*
X1074420D02*
X1064650D01*
Y573857D01*
X1065402Y571049D01*
X1066856Y568531D01*
X1068911Y566476D01*
X1071429Y565022D01*
X1074237Y564270D01*
X1074420D01*
Y574040D01*
D02*
G37*
G36*
X1704441Y570964D02*
X1704340D01*
Y561820D01*
X1713484D01*
Y561921D01*
X1712774Y564570D01*
X1711403Y566944D01*
X1709464Y568883D01*
X1707090Y570254D01*
X1704441Y570964D01*
D02*
G37*
G36*
X1701800D02*
X1701699D01*
X1699050Y570254D01*
X1696676Y568883D01*
X1694737Y566944D01*
X1693366Y564570D01*
X1692656Y561921D01*
Y561820D01*
X1701800D01*
Y570964D01*
D02*
G37*
G36*
X1366245Y567610D02*
X1364255D01*
X1362418Y566849D01*
X1361011Y565442D01*
X1360250Y563605D01*
Y561615D01*
X1361011Y559778D01*
X1362418Y558371D01*
X1364255Y557610D01*
X1366245D01*
X1368082Y558371D01*
X1369489Y559778D01*
X1370250Y561615D01*
Y563605D01*
X1369489Y565442D01*
X1368082Y566849D01*
X1366245Y567610D01*
D02*
G37*
G36*
X1618552Y559770D02*
X1618500D01*
Y551000D01*
X1627270D01*
Y551052D01*
X1626586Y553605D01*
X1625264Y555895D01*
X1623395Y557764D01*
X1621105Y559086D01*
X1618552Y559770D01*
D02*
G37*
G36*
X1615960D02*
X1615908D01*
X1613355Y559086D01*
X1611065Y557764D01*
X1609196Y555895D01*
X1607874Y553605D01*
X1607190Y551052D01*
Y551000D01*
X1615960D01*
Y559770D01*
D02*
G37*
G36*
X1674370Y570424D02*
X1671770D01*
X1669259Y569751D01*
X1667007Y568451D01*
X1665169Y566613D01*
X1663869Y564361D01*
X1663196Y561850D01*
Y559250D01*
X1663869Y556739D01*
X1665169Y554487D01*
X1667007Y552649D01*
X1669259Y551349D01*
X1671770Y550676D01*
X1674370D01*
X1676881Y551349D01*
X1679133Y552649D01*
X1680971Y554487D01*
X1682271Y556739D01*
X1682944Y559250D01*
Y561850D01*
X1682271Y564361D01*
X1680971Y566613D01*
X1679133Y568451D01*
X1676881Y569751D01*
X1674370Y570424D01*
D02*
G37*
G36*
X1713484Y559280D02*
X1704340D01*
Y550136D01*
X1704441D01*
X1707090Y550846D01*
X1709464Y552217D01*
X1711403Y554156D01*
X1712774Y556530D01*
X1713484Y559179D01*
Y559280D01*
D02*
G37*
G36*
X1701800D02*
X1692656D01*
Y559179D01*
X1693366Y556530D01*
X1694737Y554156D01*
X1696676Y552217D01*
X1699050Y550846D01*
X1701699Y550136D01*
X1701800D01*
Y559280D01*
D02*
G37*
G36*
X1330562Y553767D02*
X1330310D01*
Y543480D01*
X1340597D01*
Y543731D01*
X1339809Y546671D01*
X1338288Y549306D01*
X1336136Y551458D01*
X1333501Y552979D01*
X1330562Y553767D01*
D02*
G37*
G36*
X1327770D02*
X1327518D01*
X1324579Y552979D01*
X1321944Y551458D01*
X1319792Y549306D01*
X1318271Y546671D01*
X1317483Y543731D01*
Y543480D01*
X1327770D01*
Y553767D01*
D02*
G37*
G36*
X1627270Y548460D02*
X1618500D01*
Y539690D01*
X1618552D01*
X1621105Y540374D01*
X1623395Y541696D01*
X1625264Y543565D01*
X1626586Y545855D01*
X1627270Y548408D01*
Y548460D01*
D02*
G37*
G36*
X1615960D02*
X1607190D01*
Y548408D01*
X1607874Y545855D01*
X1609196Y543565D01*
X1611065Y541696D01*
X1613355Y540374D01*
X1615908Y539690D01*
X1615960D01*
Y548460D01*
D02*
G37*
G36*
X1077072Y611210D02*
X1074308D01*
X1071637Y610494D01*
X1069243Y609112D01*
X1067288Y607157D01*
X1065906Y604763D01*
X1065190Y602092D01*
Y599328D01*
X1065906Y596657D01*
X1067288Y594263D01*
X1069243Y592308D01*
X1071637Y590926D01*
X1074308Y590210D01*
X1077072D01*
X1079743Y590926D01*
X1082137Y592308D01*
X1084092Y594263D01*
X1085474Y596657D01*
X1085667Y597376D01*
X1107329D01*
X1159415Y545290D01*
Y532035D01*
X1177385D01*
Y550005D01*
X1164130D01*
X1111068Y603068D01*
X1109986Y603790D01*
X1108710Y604044D01*
X1085667D01*
X1085474Y604763D01*
X1084092Y607157D01*
X1082137Y609112D01*
X1079743Y610494D01*
X1077072Y611210D01*
D02*
G37*
G36*
X1704441Y540964D02*
X1704340D01*
Y531820D01*
X1713484D01*
Y531921D01*
X1712774Y534570D01*
X1711403Y536944D01*
X1709464Y538883D01*
X1707090Y540254D01*
X1704441Y540964D01*
D02*
G37*
G36*
X1701800D02*
X1701699D01*
X1699050Y540254D01*
X1696676Y538883D01*
X1694737Y536944D01*
X1693366Y534570D01*
X1692656Y531921D01*
Y531820D01*
X1701800D01*
Y540964D01*
D02*
G37*
G36*
X1205490Y553227D02*
X1202590D01*
X1199788Y552476D01*
X1197275Y551026D01*
X1195224Y548975D01*
X1193774Y546462D01*
X1193023Y543660D01*
Y540760D01*
X1193774Y537958D01*
X1195224Y535445D01*
X1197275Y533394D01*
X1199788Y531944D01*
X1202590Y531193D01*
X1205490D01*
X1208292Y531944D01*
X1210805Y533394D01*
X1212856Y535445D01*
X1214306Y537958D01*
X1215057Y540760D01*
Y543660D01*
X1214306Y546462D01*
X1212856Y548975D01*
X1210805Y551026D01*
X1208292Y552476D01*
X1205490Y553227D01*
D02*
G37*
G36*
X1340597Y540940D02*
X1330310D01*
Y530653D01*
X1330562D01*
X1333501Y531441D01*
X1336136Y532962D01*
X1338288Y535114D01*
X1339809Y537749D01*
X1340597Y540689D01*
Y540940D01*
D02*
G37*
G36*
X1327770D02*
X1317483D01*
Y540689D01*
X1318271Y537749D01*
X1319792Y535114D01*
X1321944Y532962D01*
X1324579Y531441D01*
X1327518Y530653D01*
X1327770D01*
Y540940D01*
D02*
G37*
G36*
X1713484Y529280D02*
X1704340D01*
Y520136D01*
X1704441D01*
X1707090Y520846D01*
X1709464Y522217D01*
X1711403Y524156D01*
X1712774Y526530D01*
X1713484Y529179D01*
Y529280D01*
D02*
G37*
G36*
X1701800D02*
X1692656D01*
Y529179D01*
X1693366Y526530D01*
X1694737Y524156D01*
X1696676Y522217D01*
X1699050Y520846D01*
X1701699Y520136D01*
X1701800D01*
Y529280D01*
D02*
G37*
G36*
X1482593Y513485D02*
X1480227D01*
X1477942Y512873D01*
X1475893Y511690D01*
X1474220Y510017D01*
X1473037Y507968D01*
X1472425Y505683D01*
Y503317D01*
X1473037Y501032D01*
X1474220Y498983D01*
X1475893Y497310D01*
X1477942Y496127D01*
X1480227Y495515D01*
X1482593D01*
X1484878Y496127D01*
X1486927Y497310D01*
X1488600Y498983D01*
X1489783Y501032D01*
X1490395Y503317D01*
Y505683D01*
X1489783Y507968D01*
X1488600Y510017D01*
X1486927Y511690D01*
X1484878Y512873D01*
X1482593Y513485D01*
D02*
G37*
G36*
X1664635Y507884D02*
X1662704D01*
X1660839Y507384D01*
X1659167Y506419D01*
X1657801Y505053D01*
X1656836Y503381D01*
X1656336Y501516D01*
Y499585D01*
X1656836Y497719D01*
X1657801Y496047D01*
X1659167Y494681D01*
X1660839Y493716D01*
X1662704Y493216D01*
X1664635D01*
X1666501Y493716D01*
X1668173Y494681D01*
X1669539Y496047D01*
X1670504Y497719D01*
X1671004Y499585D01*
Y501516D01*
X1670504Y503381D01*
X1669539Y505053D01*
X1668173Y506419D01*
X1666501Y507384D01*
X1664635Y507884D01*
D02*
G37*
G36*
X1355725Y484505D02*
X1347470D01*
Y476250D01*
X1355725D01*
Y484505D01*
D02*
G37*
G36*
X1344930D02*
X1336675D01*
Y476250D01*
X1344930D01*
Y484505D01*
D02*
G37*
G36*
X1514955Y479171D02*
X1506700D01*
Y470916D01*
X1514955D01*
Y479171D01*
D02*
G37*
G36*
X1504160D02*
X1495905D01*
Y470916D01*
X1504160D01*
Y479171D01*
D02*
G37*
G36*
X1673705Y476631D02*
X1665450D01*
Y468376D01*
X1673705D01*
Y476631D01*
D02*
G37*
G36*
X1662910D02*
X1654655D01*
Y468376D01*
X1662910D01*
Y476631D01*
D02*
G37*
G36*
X1355725Y473710D02*
X1347470D01*
Y465455D01*
X1355725D01*
Y473710D01*
D02*
G37*
G36*
X1344930D02*
X1336675D01*
Y465455D01*
X1344930D01*
Y473710D01*
D02*
G37*
G36*
X1077072Y484210D02*
X1074308D01*
X1071637Y483494D01*
X1069243Y482112D01*
X1067288Y480157D01*
X1065906Y477763D01*
X1065190Y475092D01*
Y472328D01*
X1065906Y469657D01*
X1067288Y467263D01*
X1069243Y465308D01*
X1071637Y463926D01*
X1074308Y463210D01*
X1077072D01*
X1079743Y463926D01*
X1082137Y465308D01*
X1084092Y467263D01*
X1085474Y469657D01*
X1086190Y472328D01*
Y475092D01*
X1085474Y477763D01*
X1084092Y480157D01*
X1082137Y482112D01*
X1079743Y483494D01*
X1077072Y484210D01*
D02*
G37*
G36*
X1514955Y468376D02*
X1506700D01*
Y460121D01*
X1514955D01*
Y468376D01*
D02*
G37*
G36*
X1504160D02*
X1495905D01*
Y460121D01*
X1504160D01*
Y468376D01*
D02*
G37*
G36*
X1673705Y465836D02*
X1665450D01*
Y457581D01*
X1673705D01*
Y465836D01*
D02*
G37*
G36*
X1662910D02*
X1654655D01*
Y457581D01*
X1662910D01*
Y465836D01*
D02*
G37*
G36*
X879475Y462915D02*
X871220D01*
Y454660D01*
X879475D01*
Y462915D01*
D02*
G37*
G36*
X868680D02*
X860425D01*
Y454660D01*
X868680D01*
Y462915D01*
D02*
G37*
G36*
X1201245Y504250D02*
X1199255D01*
X1197418Y503489D01*
X1196011Y502082D01*
X1195250Y500245D01*
Y498255D01*
X1196011Y496418D01*
X1196866Y495563D01*
Y459717D01*
X1195911Y458762D01*
X1195150Y456925D01*
Y454935D01*
X1195911Y453098D01*
X1197318Y451691D01*
X1199155Y450930D01*
X1201145D01*
X1202982Y451691D01*
X1204389Y453098D01*
X1205150Y454935D01*
Y456925D01*
X1204389Y458762D01*
X1203534Y459617D01*
Y495463D01*
X1204489Y496418D01*
X1205250Y498255D01*
Y500245D01*
X1204489Y502082D01*
X1203082Y503489D01*
X1201245Y504250D01*
D02*
G37*
G36*
X879475Y452120D02*
X871220D01*
Y443865D01*
X879475D01*
Y452120D01*
D02*
G37*
G36*
X868680D02*
X860425D01*
Y443865D01*
X868680D01*
Y452120D01*
D02*
G37*
G36*
X1375255Y447421D02*
X1367000D01*
Y439166D01*
X1375255D01*
Y447421D01*
D02*
G37*
G36*
X1364460D02*
X1356205D01*
Y439166D01*
X1364460D01*
Y447421D01*
D02*
G37*
G36*
X1540355Y446151D02*
X1532100D01*
Y437896D01*
X1540355D01*
Y446151D01*
D02*
G37*
G36*
X1529560D02*
X1521305D01*
Y437896D01*
X1529560D01*
Y446151D01*
D02*
G37*
G36*
X1077072Y458810D02*
X1074308D01*
X1071637Y458094D01*
X1069243Y456712D01*
X1067288Y454757D01*
X1065906Y452363D01*
X1065190Y449692D01*
Y446928D01*
X1065906Y444257D01*
X1067288Y441863D01*
X1069243Y439908D01*
X1071637Y438526D01*
X1074308Y437810D01*
X1077072D01*
X1079743Y438526D01*
X1082137Y439908D01*
X1084092Y441863D01*
X1085474Y444257D01*
X1086190Y446928D01*
Y449692D01*
X1085474Y452363D01*
X1084092Y454757D01*
X1082137Y456712D01*
X1079743Y458094D01*
X1077072Y458810D01*
D02*
G37*
G36*
X1726565Y445135D02*
X1718310D01*
Y436880D01*
X1726565D01*
Y445135D01*
D02*
G37*
G36*
X1715770D02*
X1707515D01*
Y436880D01*
X1715770D01*
Y445135D01*
D02*
G37*
G36*
X1375255Y436626D02*
X1367000D01*
Y428371D01*
X1375255D01*
Y436626D01*
D02*
G37*
G36*
X1364460D02*
X1356205D01*
Y428371D01*
X1364460D01*
Y436626D01*
D02*
G37*
G36*
X1540355Y435356D02*
X1532100D01*
Y427101D01*
X1540355D01*
Y435356D01*
D02*
G37*
G36*
X1529560D02*
X1521305D01*
Y427101D01*
X1529560D01*
Y435356D01*
D02*
G37*
G36*
X1726565Y434340D02*
X1718310D01*
Y426085D01*
X1726565D01*
Y434340D01*
D02*
G37*
G36*
X1715770D02*
X1707515D01*
Y426085D01*
X1715770D01*
Y434340D01*
D02*
G37*
G36*
X907415Y428625D02*
X899160D01*
Y420370D01*
X907415D01*
Y428625D01*
D02*
G37*
G36*
X896620D02*
X888365D01*
Y420370D01*
X896620D01*
Y428625D01*
D02*
G37*
G36*
X907415Y417830D02*
X899160D01*
Y409575D01*
X907415D01*
Y417830D01*
D02*
G37*
G36*
X896620D02*
X888365D01*
Y409575D01*
X896620D01*
Y417830D01*
D02*
G37*
G36*
X1650311Y394970D02*
X1650210D01*
Y385826D01*
X1659354D01*
Y385927D01*
X1658644Y388576D01*
X1657273Y390950D01*
X1655334Y392889D01*
X1652960Y394260D01*
X1650311Y394970D01*
D02*
G37*
G36*
X1489331D02*
X1489230D01*
Y385826D01*
X1498374D01*
Y385927D01*
X1497664Y388576D01*
X1496293Y390950D01*
X1494354Y392889D01*
X1491980Y394260D01*
X1489331Y394970D01*
D02*
G37*
G36*
X1486690D02*
X1486589D01*
X1483940Y394260D01*
X1481566Y392889D01*
X1479627Y390950D01*
X1478256Y388576D01*
X1477546Y385927D01*
Y385826D01*
X1486690D01*
Y394970D01*
D02*
G37*
G36*
X1647670D02*
X1647569D01*
X1644920Y394260D01*
X1642546Y392889D01*
X1640607Y390950D01*
X1639236Y388576D01*
X1638526Y385927D01*
Y385826D01*
X1647670D01*
Y394970D01*
D02*
G37*
G36*
X1329791Y394490D02*
X1329690D01*
Y385346D01*
X1338834D01*
Y385447D01*
X1338124Y388096D01*
X1336753Y390470D01*
X1334814Y392409D01*
X1332440Y393780D01*
X1329791Y394490D01*
D02*
G37*
G36*
X1327150D02*
X1327049D01*
X1324400Y393780D01*
X1322026Y392409D01*
X1320087Y390470D01*
X1318716Y388096D01*
X1318006Y385447D01*
Y385346D01*
X1327150D01*
Y394490D01*
D02*
G37*
G36*
X976249Y354720D02*
X965200D01*
Y343671D01*
X965552D01*
X968685Y344510D01*
X971494Y346132D01*
X973788Y348426D01*
X975409Y351235D01*
X976249Y354368D01*
Y354720D01*
D02*
G37*
G36*
X962660D02*
X951611D01*
Y354368D01*
X952450Y351235D01*
X954072Y348426D01*
X956366Y346132D01*
X959175Y344510D01*
X962308Y343671D01*
X962660D01*
Y354720D01*
D02*
G37*
G36*
X934249D02*
X923200D01*
Y343671D01*
X923552D01*
X926685Y344510D01*
X929494Y346132D01*
X931788Y348426D01*
X933410Y351235D01*
X934249Y354368D01*
Y354720D01*
D02*
G37*
G36*
X920660D02*
X909611D01*
Y354368D01*
X910451Y351235D01*
X912072Y348426D01*
X914366Y346132D01*
X917175Y344510D01*
X920308Y343671D01*
X920660D01*
Y354720D01*
D02*
G37*
G36*
X965481Y312769D02*
X962379D01*
X959383Y311966D01*
X956697Y310416D01*
X954504Y308223D01*
X952954Y305536D01*
X952151Y302541D01*
Y299439D01*
X952954Y296444D01*
X954504Y293757D01*
X956697Y291564D01*
X959383Y290014D01*
X962379Y289211D01*
X965481D01*
X968476Y290014D01*
X971162Y291564D01*
X973356Y293757D01*
X974906Y296444D01*
X975709Y299439D01*
Y302541D01*
X974906Y305536D01*
X973356Y308223D01*
X971162Y310416D01*
X968476Y311966D01*
X965481Y312769D01*
D02*
G37*
G36*
X923481D02*
X920379D01*
X917383Y311966D01*
X914698Y310416D01*
X912505Y308223D01*
X910954Y305536D01*
X910151Y302541D01*
Y299439D01*
X910954Y296444D01*
X912505Y293757D01*
X914698Y291564D01*
X917383Y290014D01*
X920379Y289211D01*
X923481D01*
X926477Y290014D01*
X929163Y291564D01*
X931356Y293757D01*
X932906Y296444D01*
X933709Y299439D01*
Y302541D01*
X932906Y305536D01*
X931356Y308223D01*
X929163Y310416D01*
X926477Y311966D01*
X923481Y312769D01*
D02*
G37*
G36*
X756833Y462375D02*
X754467D01*
X752182Y461763D01*
X750133Y460580D01*
X748460Y458907D01*
X747277Y456858D01*
X746665Y454573D01*
Y452207D01*
X747277Y449922D01*
X748460Y447873D01*
X750133Y446200D01*
X752182Y445017D01*
X752316Y444981D01*
Y383270D01*
X752570Y381994D01*
X753292Y380913D01*
X827581Y306624D01*
X826954Y305536D01*
X826151Y302541D01*
Y299439D01*
X826954Y296444D01*
X828504Y293757D01*
X830698Y291564D01*
X833383Y290014D01*
X836379Y289211D01*
X839481D01*
X842477Y290014D01*
X845163Y291564D01*
X847356Y293757D01*
X848906Y296444D01*
X849709Y299439D01*
Y302541D01*
X848906Y305536D01*
X847356Y308223D01*
X845163Y310416D01*
X842477Y311966D01*
X839481Y312769D01*
X836379D01*
X833383Y311966D01*
X832297Y311339D01*
X758984Y384651D01*
Y444981D01*
X759118Y445017D01*
X761167Y446200D01*
X762840Y447873D01*
X764023Y449922D01*
X764635Y452207D01*
Y454573D01*
X764023Y456858D01*
X762840Y458907D01*
X761167Y460580D01*
X759118Y461763D01*
X756833Y462375D01*
D02*
G37*
%LPD*%
G36*
X1319530Y784454D02*
X1312926D01*
Y779120D01*
X1311656D01*
Y777850D01*
X1301242D01*
Y773786D01*
X1301782D01*
Y765454D01*
X1301242D01*
Y761390D01*
X1311656D01*
Y760120D01*
X1312926D01*
Y754786D01*
X1319530D01*
Y631825D01*
X1237180D01*
X1168400Y694055D01*
Y739557D01*
X1168730Y741960D01*
X1170940Y741960D01*
X1190500D01*
Y762000D01*
Y782040D01*
X1170940D01*
X1168730Y782040D01*
X1168400Y784443D01*
Y831215D01*
X1275681D01*
X1277085Y828675D01*
X1276748Y828091D01*
X1276220Y826120D01*
Y824080D01*
X1276748Y822109D01*
X1277768Y820341D01*
X1279211Y818898D01*
X1280979Y817878D01*
X1282950Y817350D01*
X1284990D01*
X1286961Y817878D01*
X1288729Y818898D01*
X1290172Y820341D01*
X1291192Y822109D01*
X1291720Y824080D01*
Y826120D01*
X1291192Y828091D01*
X1290855Y828675D01*
X1292259Y831215D01*
X1319530D01*
Y784454D01*
D02*
G37*
G36*
X1493076Y762892D02*
X1491958Y762429D01*
X1490551Y761022D01*
X1489790Y759185D01*
Y757905D01*
X1486608Y754723D01*
X1485885Y753642D01*
X1485706Y752739D01*
X1457278D01*
Y755517D01*
X1458389Y756628D01*
X1459150Y758465D01*
Y760455D01*
X1458389Y762292D01*
X1457789Y762892D01*
X1458841Y765432D01*
X1492570D01*
X1493076Y762892D01*
D02*
G37*
G36*
X1379793Y637267D02*
X1379335Y635998D01*
X1378548Y634920D01*
X1376955D01*
X1375118Y634159D01*
X1373711Y632752D01*
X1372950Y630915D01*
Y628925D01*
X1373711Y627088D01*
X1375118Y625681D01*
X1376955Y624920D01*
X1378235D01*
X1385334Y617821D01*
X1384362Y615474D01*
X1376791D01*
X1374060Y618205D01*
Y619485D01*
X1373299Y621322D01*
X1371892Y622729D01*
X1370055Y623490D01*
X1368065D01*
X1366228Y622729D01*
X1364821Y621322D01*
X1364774Y621208D01*
X1362234Y621714D01*
Y638974D01*
X1361980Y640249D01*
X1361865Y640422D01*
X1361919Y640652D01*
X1363408Y642141D01*
X1364461Y643966D01*
X1365006Y646000D01*
Y648107D01*
X1364877Y648591D01*
X1367154Y649906D01*
X1379793Y637267D01*
D02*
G37*
%LPC*%
G36*
X1259840Y824620D02*
Y820420D01*
X1264040D01*
X1263267Y822288D01*
X1261708Y823847D01*
X1259840Y824620D01*
D02*
G37*
G36*
X1257300D02*
X1255432Y823847D01*
X1253873Y822288D01*
X1253100Y820420D01*
X1257300D01*
Y824620D01*
D02*
G37*
G36*
X1264040Y817880D02*
X1259840D01*
Y813680D01*
X1261708Y814453D01*
X1263267Y816012D01*
X1264040Y817880D01*
D02*
G37*
G36*
X1257300D02*
X1253100D01*
X1253873Y816012D01*
X1255432Y814453D01*
X1257300Y813680D01*
Y817880D01*
D02*
G37*
G36*
X1259840Y809380D02*
Y805180D01*
X1264040D01*
X1263267Y807048D01*
X1261708Y808607D01*
X1259840Y809380D01*
D02*
G37*
G36*
X1257300D02*
X1255432Y808607D01*
X1253873Y807048D01*
X1253100Y805180D01*
X1257300D01*
Y809380D01*
D02*
G37*
G36*
X1264040Y802640D02*
X1259840D01*
Y798440D01*
X1261708Y799213D01*
X1263267Y800772D01*
X1264040Y802640D01*
D02*
G37*
G36*
X1257300D02*
X1253100D01*
X1253873Y800772D01*
X1255432Y799213D01*
X1257300Y798440D01*
Y802640D01*
D02*
G37*
G36*
X1259840Y791600D02*
Y787400D01*
X1264040D01*
X1263267Y789268D01*
X1261708Y790827D01*
X1259840Y791600D01*
D02*
G37*
G36*
X1257300D02*
X1255432Y790827D01*
X1253873Y789268D01*
X1253100Y787400D01*
X1257300D01*
Y791600D01*
D02*
G37*
G36*
X1264040Y784860D02*
X1259840D01*
Y780660D01*
X1261708Y781433D01*
X1263267Y782992D01*
X1264040Y784860D01*
D02*
G37*
G36*
X1257300D02*
X1253100D01*
X1253873Y782992D01*
X1255432Y781433D01*
X1257300Y780660D01*
Y784860D01*
D02*
G37*
G36*
X1310386Y784454D02*
X1301242D01*
Y780390D01*
X1310386D01*
Y784454D01*
D02*
G37*
G36*
X1259840Y775090D02*
Y770890D01*
X1264040D01*
X1263267Y772758D01*
X1261708Y774317D01*
X1259840Y775090D01*
D02*
G37*
G36*
X1257300D02*
X1255432Y774317D01*
X1253873Y772758D01*
X1253100Y770890D01*
X1257300D01*
Y775090D01*
D02*
G37*
G36*
X1264040Y768350D02*
X1259840D01*
Y764150D01*
X1261708Y764923D01*
X1263267Y766482D01*
X1264040Y768350D01*
D02*
G37*
G36*
X1257300D02*
X1253100D01*
X1253873Y766482D01*
X1255432Y764923D01*
X1257300Y764150D01*
Y768350D01*
D02*
G37*
G36*
X1193040Y782040D02*
Y763270D01*
X1214810D01*
Y782040D01*
X1193040D01*
D02*
G37*
G36*
X1310386Y758850D02*
X1301242D01*
Y754786D01*
X1310386D01*
Y758850D01*
D02*
G37*
G36*
X1214810Y760730D02*
X1193040D01*
Y741960D01*
X1214810D01*
Y760730D01*
D02*
G37*
G36*
X1308100Y742070D02*
Y737870D01*
X1312300D01*
X1311527Y739738D01*
X1309968Y741297D01*
X1308100Y742070D01*
D02*
G37*
G36*
X1305560D02*
X1303692Y741297D01*
X1302133Y739738D01*
X1301360Y737870D01*
X1305560D01*
Y742070D01*
D02*
G37*
G36*
X1312300Y735330D02*
X1308100D01*
Y731130D01*
X1309968Y731903D01*
X1311527Y733462D01*
X1312300Y735330D01*
D02*
G37*
G36*
X1305560D02*
X1301360D01*
X1302133Y733462D01*
X1303692Y731903D01*
X1305560Y731130D01*
Y735330D01*
D02*
G37*
G36*
X1308100Y717940D02*
Y713740D01*
X1312300D01*
X1311527Y715608D01*
X1309968Y717167D01*
X1308100Y717940D01*
D02*
G37*
G36*
X1305560D02*
X1303692Y717167D01*
X1302133Y715608D01*
X1301360Y713740D01*
X1305560D01*
Y717940D01*
D02*
G37*
G36*
X1279889Y722798D02*
X1277891D01*
X1275961Y722281D01*
X1274231Y721282D01*
X1272818Y719869D01*
X1271819Y718139D01*
X1271302Y716209D01*
Y714211D01*
X1271819Y712281D01*
X1272818Y710551D01*
X1274231Y709138D01*
X1275961Y708139D01*
X1277891Y707622D01*
X1279889D01*
X1281819Y708139D01*
X1283549Y709138D01*
X1284962Y710551D01*
X1285961Y712281D01*
X1286478Y714211D01*
Y716209D01*
X1285961Y718139D01*
X1284962Y719869D01*
X1283549Y721282D01*
X1281819Y722281D01*
X1279889Y722798D01*
D02*
G37*
G36*
X1239249D02*
X1237251D01*
X1235321Y722281D01*
X1233591Y721282D01*
X1232178Y719869D01*
X1231179Y718139D01*
X1230662Y716209D01*
Y714211D01*
X1231179Y712281D01*
X1232178Y710551D01*
X1233591Y709138D01*
X1235321Y708139D01*
X1237251Y707622D01*
X1239249D01*
X1241179Y708139D01*
X1242909Y709138D01*
X1244322Y710551D01*
X1245321Y712281D01*
X1245838Y714211D01*
Y716209D01*
X1245321Y718139D01*
X1244322Y719869D01*
X1242909Y721282D01*
X1241179Y722281D01*
X1239249Y722798D01*
D02*
G37*
G36*
X1312300Y711200D02*
X1308100D01*
Y707000D01*
X1309968Y707773D01*
X1311527Y709332D01*
X1312300Y711200D01*
D02*
G37*
G36*
X1305560D02*
X1301360D01*
X1302133Y709332D01*
X1303692Y707773D01*
X1305560Y707000D01*
Y711200D01*
D02*
G37*
G36*
X1204822Y691040D02*
X1204770D01*
Y682270D01*
X1213540D01*
Y682322D01*
X1212856Y684875D01*
X1211534Y687165D01*
X1209665Y689034D01*
X1207375Y690356D01*
X1204822Y691040D01*
D02*
G37*
G36*
X1202230D02*
X1202178D01*
X1199625Y690356D01*
X1197335Y689034D01*
X1195466Y687165D01*
X1194144Y684875D01*
X1193460Y682322D01*
Y682270D01*
X1202230D01*
Y691040D01*
D02*
G37*
G36*
X1213540Y679730D02*
X1204770D01*
Y670960D01*
X1204822D01*
X1207375Y671644D01*
X1209665Y672966D01*
X1211534Y674835D01*
X1212856Y677125D01*
X1213540Y679678D01*
Y679730D01*
D02*
G37*
G36*
X1202230D02*
X1193460D01*
Y679678D01*
X1194144Y677125D01*
X1195466Y674835D01*
X1197335Y672966D01*
X1199625Y671644D01*
X1202178Y670960D01*
X1202230D01*
Y679730D01*
D02*
G37*
%LPD*%
G36*
X970280Y966470D02*
X915670D01*
X850900Y918210D01*
X797560D01*
Y975360D01*
X836204D01*
X851710Y1042154D01*
X854250Y1041863D01*
X854250Y1040298D01*
X855093Y1038262D01*
X856652Y1036703D01*
X858520Y1035930D01*
Y1041400D01*
Y1046870D01*
X856652Y1046097D01*
X855093Y1044538D01*
X854587Y1043317D01*
X852161Y1044095D01*
X854808Y1055500D01*
X970280D01*
Y966470D01*
D02*
G37*
G36*
X1043940Y885190D02*
X1082993Y858139D01*
X1083532Y858007D01*
X1083585Y857740D01*
X1084027Y857078D01*
X1084689Y856636D01*
X1085469Y856481D01*
X1089784D01*
X1097106Y854693D01*
Y851318D01*
X1102844D01*
X1103146Y851258D01*
X1106170D01*
Y830356D01*
X1085850Y826770D01*
X1069340Y784860D01*
X1029970Y745490D01*
Y474061D01*
X1027431Y472807D01*
X1025207Y473729D01*
X1024090Y473876D01*
Y464820D01*
Y455764D01*
X1025207Y455911D01*
X1027431Y456833D01*
X1029970Y455579D01*
Y420885D01*
X1029545Y420524D01*
X1027430Y419764D01*
X1026161Y420737D01*
X1023937Y421659D01*
X1022820Y421806D01*
Y412750D01*
Y403694D01*
X1023937Y403841D01*
X1026161Y404763D01*
X1027430Y405736D01*
X1029545Y404976D01*
X1029970Y404615D01*
Y387350D01*
X924560D01*
Y474980D01*
X849630D01*
X767080Y557530D01*
Y838200D01*
X885190D01*
Y927100D01*
X999490D01*
X1043940Y885190D01*
D02*
G37*
G36*
X1211580Y373380D02*
X1671320D01*
Y278130D01*
X1055370D01*
Y288310D01*
X1057033D01*
X1060594Y289264D01*
X1063786Y291107D01*
X1066393Y293714D01*
X1068236Y296906D01*
X1069190Y300467D01*
Y304153D01*
X1068236Y307714D01*
X1066393Y310906D01*
X1063786Y313513D01*
X1060594Y315356D01*
X1057033Y316310D01*
X1055370D01*
Y405130D01*
X1056640Y406400D01*
X1065375D01*
X1066101Y405364D01*
X1066608Y403860D01*
X1065402Y401771D01*
X1064650Y398963D01*
Y398780D01*
X1075690D01*
X1086730D01*
Y398963D01*
X1085978Y401771D01*
X1084772Y403860D01*
X1085279Y405364D01*
X1086005Y406400D01*
X1178560D01*
X1211580Y373380D01*
D02*
G37*
%LPC*%
G36*
X916940Y1046870D02*
Y1042670D01*
X921140D01*
X920367Y1044538D01*
X918808Y1046097D01*
X916940Y1046870D01*
D02*
G37*
G36*
X914400D02*
X912532Y1046097D01*
X910973Y1044538D01*
X910200Y1042670D01*
X914400D01*
Y1046870D01*
D02*
G37*
G36*
X890270D02*
Y1042670D01*
X894470D01*
X893697Y1044538D01*
X892138Y1046097D01*
X890270Y1046870D01*
D02*
G37*
G36*
X887730D02*
X885862Y1046097D01*
X884303Y1044538D01*
X883530Y1042670D01*
X887730D01*
Y1046870D01*
D02*
G37*
G36*
X861060D02*
Y1042670D01*
X865260D01*
X864487Y1044538D01*
X862928Y1046097D01*
X861060Y1046870D01*
D02*
G37*
G36*
X921140Y1040130D02*
X916940D01*
Y1035930D01*
X918808Y1036703D01*
X920367Y1038262D01*
X921140Y1040130D01*
D02*
G37*
G36*
X914400D02*
X910200D01*
X910973Y1038262D01*
X912532Y1036703D01*
X914400Y1035930D01*
Y1040130D01*
D02*
G37*
G36*
X894470D02*
X890270D01*
Y1035930D01*
X892138Y1036703D01*
X893697Y1038262D01*
X894470Y1040130D01*
D02*
G37*
G36*
X887730D02*
X883530D01*
X884303Y1038262D01*
X885862Y1036703D01*
X887730Y1035930D01*
Y1040130D01*
D02*
G37*
G36*
X865260D02*
X861060D01*
Y1035930D01*
X862928Y1036703D01*
X864487Y1038262D01*
X865260Y1040130D01*
D02*
G37*
G36*
X951282Y1043820D02*
X951230D01*
Y1035050D01*
X960000D01*
Y1035102D01*
X959316Y1037655D01*
X957994Y1039945D01*
X956125Y1041814D01*
X953835Y1043136D01*
X951282Y1043820D01*
D02*
G37*
G36*
X948690D02*
X948638D01*
X946085Y1043136D01*
X943795Y1041814D01*
X941926Y1039945D01*
X940604Y1037655D01*
X939920Y1035102D01*
Y1035050D01*
X948690D01*
Y1043820D01*
D02*
G37*
G36*
X916940Y1031630D02*
Y1027430D01*
X921140D01*
X920367Y1029298D01*
X918808Y1030857D01*
X916940Y1031630D01*
D02*
G37*
G36*
X914400D02*
X912532Y1030857D01*
X910973Y1029298D01*
X910200Y1027430D01*
X914400D01*
Y1031630D01*
D02*
G37*
G36*
X890270D02*
Y1027430D01*
X894470D01*
X893697Y1029298D01*
X892138Y1030857D01*
X890270Y1031630D01*
D02*
G37*
G36*
X887730D02*
X885862Y1030857D01*
X884303Y1029298D01*
X883530Y1027430D01*
X887730D01*
Y1031630D01*
D02*
G37*
G36*
X861060D02*
Y1027430D01*
X865260D01*
X864487Y1029298D01*
X862928Y1030857D01*
X861060Y1031630D01*
D02*
G37*
G36*
X858520D02*
X856652Y1030857D01*
X855093Y1029298D01*
X854320Y1027430D01*
X858520D01*
Y1031630D01*
D02*
G37*
G36*
X960000Y1032510D02*
X951230D01*
Y1023740D01*
X951282D01*
X953835Y1024424D01*
X956125Y1025746D01*
X957994Y1027615D01*
X959316Y1029905D01*
X960000Y1032458D01*
Y1032510D01*
D02*
G37*
G36*
X948690D02*
X939920D01*
Y1032458D01*
X940604Y1029905D01*
X941926Y1027615D01*
X943795Y1025746D01*
X946085Y1024424D01*
X948638Y1023740D01*
X948690D01*
Y1032510D01*
D02*
G37*
G36*
X921140Y1024890D02*
X916940D01*
Y1020690D01*
X918808Y1021463D01*
X920367Y1023022D01*
X921140Y1024890D01*
D02*
G37*
G36*
X914400D02*
X910200D01*
X910973Y1023022D01*
X912532Y1021463D01*
X914400Y1020690D01*
Y1024890D01*
D02*
G37*
G36*
X894470D02*
X890270D01*
Y1020690D01*
X892138Y1021463D01*
X893697Y1023022D01*
X894470Y1024890D01*
D02*
G37*
G36*
X887730D02*
X883530D01*
X884303Y1023022D01*
X885862Y1021463D01*
X887730Y1020690D01*
Y1024890D01*
D02*
G37*
G36*
X865260D02*
X861060D01*
Y1020690D01*
X862928Y1021463D01*
X864487Y1023022D01*
X865260Y1024890D01*
D02*
G37*
G36*
X858520D02*
X854320D01*
X855093Y1023022D01*
X856652Y1021463D01*
X858520Y1020690D01*
Y1024890D01*
D02*
G37*
G36*
X933902Y999871D02*
X933450D01*
Y988060D01*
X945261D01*
Y988512D01*
X944370Y991839D01*
X942647Y994822D01*
X940212Y997257D01*
X937229Y998980D01*
X933902Y999871D01*
D02*
G37*
G36*
X930910D02*
X930458D01*
X927131Y998980D01*
X924148Y997257D01*
X921713Y994822D01*
X919990Y991839D01*
X919099Y988512D01*
Y988060D01*
X930910D01*
Y999871D01*
D02*
G37*
G36*
X945261Y985520D02*
X933450D01*
Y973709D01*
X933902D01*
X937229Y974600D01*
X940212Y976323D01*
X942647Y978758D01*
X944370Y981741D01*
X945261Y985068D01*
Y985520D01*
D02*
G37*
G36*
X930910D02*
X919099D01*
Y985068D01*
X919990Y981741D01*
X921713Y978758D01*
X924148Y976323D01*
X927131Y974600D01*
X930458Y973709D01*
X930910D01*
Y985520D01*
D02*
G37*
G36*
X821039Y954151D02*
X820420D01*
Y941070D01*
X833501D01*
Y941689D01*
X832523Y945339D01*
X830634Y948612D01*
X827962Y951284D01*
X824689Y953173D01*
X821039Y954151D01*
D02*
G37*
G36*
X817880D02*
X817261D01*
X813611Y953173D01*
X810338Y951284D01*
X807666Y948612D01*
X805777Y945339D01*
X804799Y941689D01*
Y941070D01*
X817880D01*
Y954151D01*
D02*
G37*
G36*
X833501Y938530D02*
X820420D01*
Y925449D01*
X821039D01*
X824689Y926427D01*
X827962Y928316D01*
X830634Y930988D01*
X832523Y934261D01*
X833501Y937911D01*
Y938530D01*
D02*
G37*
G36*
X817880D02*
X804799D01*
Y937911D01*
X805777Y934261D01*
X807666Y930988D01*
X810338Y928316D01*
X813611Y926427D01*
X817261Y925449D01*
X817880D01*
Y938530D01*
D02*
G37*
G36*
X933450Y919817D02*
Y908060D01*
X945207D01*
X944924Y910205D01*
X943606Y913387D01*
X941509Y916120D01*
X938777Y918216D01*
X935595Y919534D01*
X933450Y919817D01*
D02*
G37*
G36*
X930910D02*
X928765Y919534D01*
X925583Y918216D01*
X922850Y916120D01*
X920754Y913387D01*
X919436Y910205D01*
X919153Y908060D01*
X930910D01*
Y919817D01*
D02*
G37*
G36*
X945207Y905520D02*
X933450D01*
Y893763D01*
X935595Y894046D01*
X938777Y895364D01*
X941509Y897460D01*
X943606Y900193D01*
X944924Y903375D01*
X945207Y905520D01*
D02*
G37*
G36*
X930910D02*
X919153D01*
X919436Y903375D01*
X920754Y900193D01*
X922850Y897460D01*
X925583Y895364D01*
X928765Y894046D01*
X930910Y893763D01*
Y905520D01*
D02*
G37*
G36*
X1026160Y859412D02*
Y851370D01*
X1034202D01*
X1034046Y852553D01*
X1033099Y854839D01*
X1031593Y856803D01*
X1029630Y858309D01*
X1027343Y859256D01*
X1026160Y859412D01*
D02*
G37*
G36*
X947420D02*
Y851370D01*
X955462D01*
X955306Y852553D01*
X954359Y854839D01*
X952853Y856803D01*
X950890Y858309D01*
X948603Y859256D01*
X947420Y859412D01*
D02*
G37*
G36*
X1023620D02*
X1022437Y859256D01*
X1020151Y858309D01*
X1018187Y856803D01*
X1016681Y854839D01*
X1015734Y852553D01*
X1015578Y851370D01*
X1023620D01*
Y859412D01*
D02*
G37*
G36*
X944880D02*
X943697Y859256D01*
X941411Y858309D01*
X939447Y856803D01*
X937941Y854839D01*
X936994Y852553D01*
X936838Y851370D01*
X944880D01*
Y859412D01*
D02*
G37*
G36*
X1034202Y848830D02*
X1026160D01*
Y840788D01*
X1027343Y840944D01*
X1029630Y841891D01*
X1031593Y843397D01*
X1033099Y845360D01*
X1034046Y847647D01*
X1034202Y848830D01*
D02*
G37*
G36*
X955462D02*
X947420D01*
Y840788D01*
X948603Y840944D01*
X950890Y841891D01*
X952853Y843397D01*
X954359Y845360D01*
X955306Y847647D01*
X955462Y848830D01*
D02*
G37*
G36*
X1023620D02*
X1015578D01*
X1015734Y847647D01*
X1016681Y845360D01*
X1018187Y843397D01*
X1020151Y841891D01*
X1022437Y840944D01*
X1023620Y840788D01*
Y848830D01*
D02*
G37*
G36*
X944880D02*
X936838D01*
X936994Y847647D01*
X937941Y845360D01*
X939447Y843397D01*
X941411Y841891D01*
X943697Y840944D01*
X944880Y840788D01*
Y848830D01*
D02*
G37*
G36*
X862330Y818196D02*
Y814070D01*
X866456D01*
X866279Y814962D01*
X865054Y816794D01*
X863222Y818019D01*
X862330Y818196D01*
D02*
G37*
G36*
X859790D02*
X858898Y818019D01*
X857066Y816794D01*
X855841Y814962D01*
X855664Y814070D01*
X859790D01*
Y818196D01*
D02*
G37*
G36*
X822960D02*
Y814070D01*
X827086D01*
X826909Y814962D01*
X825684Y816794D01*
X823852Y818019D01*
X822960Y818196D01*
D02*
G37*
G36*
X820420D02*
X819528Y818019D01*
X817696Y816794D01*
X816471Y814962D01*
X816294Y814070D01*
X820420D01*
Y818196D01*
D02*
G37*
G36*
X789940D02*
Y814070D01*
X794066D01*
X793889Y814962D01*
X792664Y816794D01*
X790832Y818019D01*
X789940Y818196D01*
D02*
G37*
G36*
X787400D02*
X786508Y818019D01*
X784676Y816794D01*
X783451Y814962D01*
X783274Y814070D01*
X787400D01*
Y818196D01*
D02*
G37*
G36*
X866456Y811530D02*
X862330D01*
Y807404D01*
X863222Y807581D01*
X865054Y808806D01*
X866279Y810638D01*
X866456Y811530D01*
D02*
G37*
G36*
X859790D02*
X855664D01*
X855841Y810638D01*
X857066Y808806D01*
X858898Y807581D01*
X859790Y807404D01*
Y811530D01*
D02*
G37*
G36*
X827086D02*
X822960D01*
Y807404D01*
X823852Y807581D01*
X825684Y808806D01*
X826909Y810638D01*
X827086Y811530D01*
D02*
G37*
G36*
X820420D02*
X816294D01*
X816471Y810638D01*
X817696Y808806D01*
X819528Y807581D01*
X820420Y807404D01*
Y811530D01*
D02*
G37*
G36*
X794066D02*
X789940D01*
Y807404D01*
X790832Y807581D01*
X792664Y808806D01*
X793889Y810638D01*
X794066Y811530D01*
D02*
G37*
G36*
X787400D02*
X783274D01*
X783451Y810638D01*
X784676Y808806D01*
X786508Y807581D01*
X787400Y807404D01*
Y811530D01*
D02*
G37*
G36*
X1024890Y809034D02*
X1022578Y808730D01*
X1020423Y807837D01*
X1018572Y806418D01*
X1017153Y804567D01*
X1016260Y802412D01*
X1015956Y800100D01*
X1016260Y797788D01*
X1017153Y795633D01*
X1018572Y793782D01*
X1020423Y792363D01*
X1022578Y791470D01*
X1024890Y791166D01*
X1027202Y791470D01*
X1029357Y792363D01*
X1031208Y793782D01*
X1032627Y795633D01*
X1033520Y797788D01*
X1033824Y800100D01*
X1033520Y802412D01*
X1032627Y804567D01*
X1031208Y806418D01*
X1029357Y807837D01*
X1027202Y808730D01*
X1024890Y809034D01*
D02*
G37*
G36*
X946150D02*
X943838Y808730D01*
X941683Y807837D01*
X939832Y806418D01*
X938413Y804567D01*
X937520Y802412D01*
X937216Y800100D01*
X937520Y797788D01*
X938413Y795633D01*
X939832Y793782D01*
X941683Y792363D01*
X943838Y791470D01*
X946150Y791166D01*
X948462Y791470D01*
X950617Y792363D01*
X952468Y793782D01*
X953887Y795633D01*
X954780Y797788D01*
X955084Y800100D01*
X954780Y802412D01*
X953887Y804567D01*
X952468Y806418D01*
X950617Y807837D01*
X948462Y808730D01*
X946150Y809034D01*
D02*
G37*
G36*
X821690Y789739D02*
Y781050D01*
X830379D01*
X830202Y782401D01*
X829190Y784843D01*
X827581Y786941D01*
X825483Y788550D01*
X823041Y789562D01*
X821690Y789739D01*
D02*
G37*
G36*
X819150D02*
X817799Y789562D01*
X815357Y788550D01*
X813259Y786941D01*
X811650Y784843D01*
X810638Y782401D01*
X810461Y781050D01*
X819150D01*
Y789739D01*
D02*
G37*
G36*
X861060Y783906D02*
Y779780D01*
X865186D01*
X865009Y780672D01*
X863784Y782504D01*
X861952Y783729D01*
X861060Y783906D01*
D02*
G37*
G36*
X858520D02*
X857628Y783729D01*
X855796Y782504D01*
X854571Y780672D01*
X854394Y779780D01*
X858520D01*
Y783906D01*
D02*
G37*
G36*
X787400D02*
Y779780D01*
X791526D01*
X791349Y780672D01*
X790124Y782504D01*
X788292Y783729D01*
X787400Y783906D01*
D02*
G37*
G36*
X784860D02*
X783968Y783729D01*
X782136Y782504D01*
X780911Y780672D01*
X780734Y779780D01*
X784860D01*
Y783906D01*
D02*
G37*
G36*
X865186Y777240D02*
X861060D01*
Y773114D01*
X861952Y773291D01*
X863784Y774516D01*
X865009Y776348D01*
X865186Y777240D01*
D02*
G37*
G36*
X858520D02*
X854394D01*
X854571Y776348D01*
X855796Y774516D01*
X857628Y773291D01*
X858520Y773114D01*
Y777240D01*
D02*
G37*
G36*
X791526D02*
X787400D01*
Y773114D01*
X788292Y773291D01*
X790124Y774516D01*
X791349Y776348D01*
X791526Y777240D01*
D02*
G37*
G36*
X784860D02*
X780734D01*
X780911Y776348D01*
X782136Y774516D01*
X783968Y773291D01*
X784860Y773114D01*
Y777240D01*
D02*
G37*
G36*
X830379Y778510D02*
X821690D01*
Y769821D01*
X823041Y769998D01*
X825483Y771010D01*
X827581Y772619D01*
X829190Y774717D01*
X830202Y777159D01*
X830379Y778510D01*
D02*
G37*
G36*
X819150D02*
X810461D01*
X810638Y777159D01*
X811650Y774717D01*
X813259Y772619D01*
X815357Y771010D01*
X817799Y769998D01*
X819150Y769821D01*
Y778510D01*
D02*
G37*
G36*
X862330Y749616D02*
Y745490D01*
X866456D01*
X866279Y746382D01*
X865054Y748214D01*
X863222Y749439D01*
X862330Y749616D01*
D02*
G37*
G36*
X859790D02*
X858898Y749439D01*
X857066Y748214D01*
X855841Y746382D01*
X855664Y745490D01*
X859790D01*
Y749616D01*
D02*
G37*
G36*
X821690Y748346D02*
Y744220D01*
X825816D01*
X825639Y745112D01*
X824414Y746944D01*
X822582Y748169D01*
X821690Y748346D01*
D02*
G37*
G36*
X819150D02*
X818258Y748169D01*
X816426Y746944D01*
X815201Y745112D01*
X815024Y744220D01*
X819150D01*
Y748346D01*
D02*
G37*
G36*
X784860D02*
Y744220D01*
X788986D01*
X788809Y745112D01*
X787584Y746944D01*
X785752Y748169D01*
X784860Y748346D01*
D02*
G37*
G36*
X782320D02*
X781428Y748169D01*
X779596Y746944D01*
X778371Y745112D01*
X778194Y744220D01*
X782320D01*
Y748346D01*
D02*
G37*
G36*
X866456Y742950D02*
X862330D01*
Y738824D01*
X863222Y739001D01*
X865054Y740226D01*
X866279Y742058D01*
X866456Y742950D01*
D02*
G37*
G36*
X859790D02*
X855664D01*
X855841Y742058D01*
X857066Y740226D01*
X858898Y739001D01*
X859790Y738824D01*
Y742950D01*
D02*
G37*
G36*
X825816Y741680D02*
X821690D01*
Y737554D01*
X822582Y737731D01*
X824414Y738956D01*
X825639Y740788D01*
X825816Y741680D01*
D02*
G37*
G36*
X819150D02*
X815024D01*
X815201Y740788D01*
X816426Y738956D01*
X818258Y737731D01*
X819150Y737554D01*
Y741680D01*
D02*
G37*
G36*
X788986D02*
X784860D01*
Y737554D01*
X785752Y737731D01*
X787584Y738956D01*
X788809Y740788D01*
X788986Y741680D01*
D02*
G37*
G36*
X782320D02*
X778194D01*
X778371Y740788D01*
X779596Y738956D01*
X781428Y737731D01*
X782320Y737554D01*
Y741680D01*
D02*
G37*
G36*
X801639Y677971D02*
Y666983D01*
X812627D01*
X812371Y668929D01*
X811130Y671926D01*
X809155Y674499D01*
X806581Y676473D01*
X803585Y677715D01*
X801639Y677971D01*
D02*
G37*
G36*
X799099D02*
X797153Y677715D01*
X794156Y676473D01*
X791583Y674499D01*
X789608Y671926D01*
X788367Y668929D01*
X788111Y666983D01*
X799099D01*
Y677971D01*
D02*
G37*
G36*
X812627Y664443D02*
X801639D01*
Y653455D01*
X803585Y653711D01*
X806581Y654952D01*
X809155Y656927D01*
X811130Y659500D01*
X812371Y662497D01*
X812627Y664443D01*
D02*
G37*
G36*
X799099D02*
X788111D01*
X788367Y662497D01*
X789608Y659500D01*
X791583Y656927D01*
X794156Y654952D01*
X797153Y653711D01*
X799099Y653455D01*
Y664443D01*
D02*
G37*
G36*
X800369Y635593D02*
X797294Y635189D01*
X794429Y634002D01*
X791968Y632114D01*
X790080Y629653D01*
X788893Y626788D01*
X788488Y623713D01*
X788893Y620638D01*
X790080Y617772D01*
X791968Y615312D01*
X794429Y613424D01*
X797294Y612237D01*
X800369Y611832D01*
X803444Y612237D01*
X806309Y613424D01*
X808770Y615312D01*
X810658Y617772D01*
X811845Y620638D01*
X812250Y623713D01*
X811845Y626788D01*
X810658Y629653D01*
X808770Y632114D01*
X806309Y634002D01*
X803444Y635189D01*
X800369Y635593D01*
D02*
G37*
G36*
X801639Y593971D02*
Y582983D01*
X812627D01*
X812371Y584929D01*
X811130Y587925D01*
X809155Y590499D01*
X806581Y592473D01*
X803585Y593715D01*
X801639Y593971D01*
D02*
G37*
G36*
X799099D02*
X797153Y593715D01*
X794156Y592473D01*
X791583Y590499D01*
X789608Y587925D01*
X788367Y584929D01*
X788111Y582983D01*
X799099D01*
Y593971D01*
D02*
G37*
G36*
X812627Y580443D02*
X801639D01*
Y569455D01*
X803585Y569711D01*
X806581Y570952D01*
X809155Y572927D01*
X811130Y575500D01*
X812371Y578497D01*
X812627Y580443D01*
D02*
G37*
G36*
X799099D02*
X788111D01*
X788367Y578497D01*
X789608Y575500D01*
X791583Y572927D01*
X794156Y570952D01*
X797153Y569711D01*
X799099Y569455D01*
Y580443D01*
D02*
G37*
G36*
X1021550Y473876D02*
X1020433Y473729D01*
X1018209Y472807D01*
X1016298Y471342D01*
X1014833Y469431D01*
X1013911Y467207D01*
X1013764Y466090D01*
X1021550D01*
Y473876D01*
D02*
G37*
G36*
X981424Y473424D02*
X964216D01*
Y456216D01*
X981424D01*
Y473424D01*
D02*
G37*
G36*
X1021550Y463550D02*
X1013764D01*
X1013911Y462433D01*
X1014833Y460209D01*
X1016298Y458298D01*
X1018209Y456833D01*
X1020433Y455911D01*
X1021550Y455764D01*
Y463550D01*
D02*
G37*
G36*
X1020280Y421806D02*
X1019163Y421659D01*
X1016939Y420737D01*
X1015028Y419272D01*
X1013563Y417361D01*
X1012641Y415137D01*
X1012494Y414020D01*
X1020280D01*
Y421806D01*
D02*
G37*
G36*
X980154Y421354D02*
X962946D01*
Y404146D01*
X980154D01*
Y421354D01*
D02*
G37*
G36*
X1020280Y411480D02*
X1012494D01*
X1012641Y410363D01*
X1013563Y408139D01*
X1015028Y406228D01*
X1016939Y404763D01*
X1019163Y403841D01*
X1020280Y403694D01*
Y411480D01*
D02*
G37*
G36*
X1175230Y399495D02*
Y391376D01*
X1183349D01*
X1182717Y393733D01*
X1181480Y395877D01*
X1179730Y397626D01*
X1177587Y398863D01*
X1175230Y399495D01*
D02*
G37*
G36*
X1172690Y399495D02*
X1170332Y398863D01*
X1168189Y397626D01*
X1166440Y395877D01*
X1165202Y393733D01*
X1164571Y391376D01*
X1172690D01*
Y399495D01*
D02*
G37*
G36*
X1086730Y396240D02*
X1076960D01*
Y386470D01*
X1077143D01*
X1079951Y387222D01*
X1082469Y388676D01*
X1084524Y390731D01*
X1085978Y393249D01*
X1086730Y396057D01*
Y396240D01*
D02*
G37*
G36*
X1074420D02*
X1064650D01*
Y396057D01*
X1065402Y393249D01*
X1066856Y390731D01*
X1068911Y388676D01*
X1071429Y387222D01*
X1074237Y386470D01*
X1074420D01*
Y396240D01*
D02*
G37*
G36*
X1183349Y388836D02*
X1175230D01*
Y380717D01*
X1177587Y381348D01*
X1179730Y382586D01*
X1181480Y384336D01*
X1182717Y386479D01*
X1183349Y388836D01*
D02*
G37*
G36*
X1172690D02*
X1164571D01*
X1165202Y386479D01*
X1166440Y384336D01*
X1168189Y382586D01*
X1170332Y381348D01*
X1172690Y380717D01*
Y388836D01*
D02*
G37*
G36*
X1650311Y364970D02*
X1650210D01*
Y355826D01*
X1659354D01*
Y355927D01*
X1658644Y358576D01*
X1657273Y360950D01*
X1655334Y362889D01*
X1652960Y364260D01*
X1650311Y364970D01*
D02*
G37*
G36*
X1620311D02*
X1620210D01*
Y355826D01*
X1629354D01*
Y355927D01*
X1628644Y358576D01*
X1627273Y360950D01*
X1625334Y362889D01*
X1622960Y364260D01*
X1620311Y364970D01*
D02*
G37*
G36*
X1459331D02*
X1459230D01*
Y355826D01*
X1468374D01*
Y355927D01*
X1467664Y358576D01*
X1466293Y360950D01*
X1464354Y362889D01*
X1461980Y364260D01*
X1459331Y364970D01*
D02*
G37*
G36*
X1489331D02*
X1489230D01*
Y355826D01*
X1498374D01*
Y355927D01*
X1497664Y358576D01*
X1496293Y360950D01*
X1494354Y362889D01*
X1491980Y364260D01*
X1489331Y364970D01*
D02*
G37*
G36*
X1486690D02*
X1486589D01*
X1483940Y364260D01*
X1481566Y362889D01*
X1479627Y360950D01*
X1478256Y358576D01*
X1477546Y355927D01*
Y355826D01*
X1486690D01*
Y364970D01*
D02*
G37*
G36*
X1617670D02*
X1617569D01*
X1614920Y364260D01*
X1612546Y362889D01*
X1610607Y360950D01*
X1609236Y358576D01*
X1608526Y355927D01*
Y355826D01*
X1617670D01*
Y364970D01*
D02*
G37*
G36*
X1456690D02*
X1456589D01*
X1453940Y364260D01*
X1451566Y362889D01*
X1449627Y360950D01*
X1448256Y358576D01*
X1447546Y355927D01*
Y355826D01*
X1456690D01*
Y364970D01*
D02*
G37*
G36*
X1647670D02*
X1647569D01*
X1644920Y364260D01*
X1642546Y362889D01*
X1640607Y360950D01*
X1639236Y358576D01*
X1638526Y355927D01*
Y355826D01*
X1647670D01*
Y364970D01*
D02*
G37*
G36*
X1299791Y364490D02*
X1299690D01*
Y355346D01*
X1308834D01*
Y355447D01*
X1308124Y358096D01*
X1306753Y360470D01*
X1304814Y362409D01*
X1302440Y363780D01*
X1299791Y364490D01*
D02*
G37*
G36*
X1329791D02*
X1329690D01*
Y355346D01*
X1338834D01*
Y355447D01*
X1338124Y358096D01*
X1336753Y360470D01*
X1334814Y362409D01*
X1332440Y363780D01*
X1329791Y364490D01*
D02*
G37*
G36*
X1327150D02*
X1327049D01*
X1324400Y363780D01*
X1322026Y362409D01*
X1320087Y360470D01*
X1318716Y358096D01*
X1318006Y355447D01*
Y355346D01*
X1327150D01*
Y364490D01*
D02*
G37*
G36*
X1297150D02*
X1297049D01*
X1294400Y363780D01*
X1292026Y362409D01*
X1290087Y360470D01*
X1288716Y358096D01*
X1288006Y355447D01*
Y355346D01*
X1297150D01*
Y364490D01*
D02*
G37*
G36*
X1077072Y369910D02*
X1074308D01*
X1071637Y369194D01*
X1069243Y367812D01*
X1067288Y365857D01*
X1065906Y363463D01*
X1065190Y360792D01*
Y358028D01*
X1065906Y355357D01*
X1067288Y352963D01*
X1069243Y351008D01*
X1071637Y349626D01*
X1074308Y348910D01*
X1077072D01*
X1079743Y349626D01*
X1082137Y351008D01*
X1084092Y352963D01*
X1085474Y355357D01*
X1086190Y358028D01*
Y360792D01*
X1085474Y363463D01*
X1084092Y365857D01*
X1082137Y367812D01*
X1079743Y369194D01*
X1077072Y369910D01*
D02*
G37*
G36*
X1590240Y364430D02*
X1587640D01*
X1585129Y363757D01*
X1582877Y362457D01*
X1581039Y360619D01*
X1579739Y358367D01*
X1579066Y355856D01*
Y353256D01*
X1579739Y350745D01*
X1581039Y348493D01*
X1582877Y346655D01*
X1585129Y345355D01*
X1587640Y344682D01*
X1590240D01*
X1592751Y345355D01*
X1595003Y346655D01*
X1596841Y348493D01*
X1598141Y350745D01*
X1598814Y353256D01*
Y355856D01*
X1598141Y358367D01*
X1596841Y360619D01*
X1595003Y362457D01*
X1592751Y363757D01*
X1590240Y364430D01*
D02*
G37*
G36*
X1429260D02*
X1426660D01*
X1424149Y363757D01*
X1421897Y362457D01*
X1420059Y360619D01*
X1418759Y358367D01*
X1418086Y355856D01*
Y353256D01*
X1418759Y350745D01*
X1420059Y348493D01*
X1421897Y346655D01*
X1424149Y345355D01*
X1426660Y344682D01*
X1429260D01*
X1431771Y345355D01*
X1434023Y346655D01*
X1435861Y348493D01*
X1437161Y350745D01*
X1437834Y353256D01*
Y355856D01*
X1437161Y358367D01*
X1435861Y360619D01*
X1434023Y362457D01*
X1431771Y363757D01*
X1429260Y364430D01*
D02*
G37*
G36*
X1269720Y363950D02*
X1267120D01*
X1264609Y363277D01*
X1262357Y361977D01*
X1260519Y360139D01*
X1259219Y357887D01*
X1258546Y355376D01*
Y352776D01*
X1259219Y350265D01*
X1260519Y348013D01*
X1262357Y346175D01*
X1264609Y344875D01*
X1267120Y344202D01*
X1269720D01*
X1272231Y344875D01*
X1274483Y346175D01*
X1276321Y348013D01*
X1277621Y350265D01*
X1278294Y352776D01*
Y355376D01*
X1277621Y357887D01*
X1276321Y360139D01*
X1274483Y361977D01*
X1272231Y363277D01*
X1269720Y363950D01*
D02*
G37*
G36*
X1659354Y353286D02*
X1650210D01*
Y344142D01*
X1650311D01*
X1652960Y344852D01*
X1655334Y346223D01*
X1657273Y348162D01*
X1658644Y350536D01*
X1659354Y353185D01*
Y353286D01*
D02*
G37*
G36*
X1647670D02*
X1638526D01*
Y353185D01*
X1639236Y350536D01*
X1640607Y348162D01*
X1642546Y346223D01*
X1644920Y344852D01*
X1647569Y344142D01*
X1647670D01*
Y353286D01*
D02*
G37*
G36*
X1629354D02*
X1620210D01*
Y344142D01*
X1620311D01*
X1622960Y344852D01*
X1625334Y346223D01*
X1627273Y348162D01*
X1628644Y350536D01*
X1629354Y353185D01*
Y353286D01*
D02*
G37*
G36*
X1617670D02*
X1608526D01*
Y353185D01*
X1609236Y350536D01*
X1610607Y348162D01*
X1612546Y346223D01*
X1614920Y344852D01*
X1617569Y344142D01*
X1617670D01*
Y353286D01*
D02*
G37*
G36*
X1498374D02*
X1489230D01*
Y344142D01*
X1489331D01*
X1491980Y344852D01*
X1494354Y346223D01*
X1496293Y348162D01*
X1497664Y350536D01*
X1498374Y353185D01*
Y353286D01*
D02*
G37*
G36*
X1486690D02*
X1477546D01*
Y353185D01*
X1478256Y350536D01*
X1479627Y348162D01*
X1481566Y346223D01*
X1483940Y344852D01*
X1486589Y344142D01*
X1486690D01*
Y353286D01*
D02*
G37*
G36*
X1468374D02*
X1459230D01*
Y344142D01*
X1459331D01*
X1461980Y344852D01*
X1464354Y346223D01*
X1466293Y348162D01*
X1467664Y350536D01*
X1468374Y353185D01*
Y353286D01*
D02*
G37*
G36*
X1456690D02*
X1447546D01*
Y353185D01*
X1448256Y350536D01*
X1449627Y348162D01*
X1451566Y346223D01*
X1453940Y344852D01*
X1456589Y344142D01*
X1456690D01*
Y353286D01*
D02*
G37*
G36*
X1338834Y352806D02*
X1329690D01*
Y343662D01*
X1329791D01*
X1332440Y344372D01*
X1334814Y345743D01*
X1336753Y347682D01*
X1338124Y350056D01*
X1338834Y352705D01*
Y352806D01*
D02*
G37*
G36*
X1327150D02*
X1318006D01*
Y352705D01*
X1318716Y350056D01*
X1320087Y347682D01*
X1322026Y345743D01*
X1324400Y344372D01*
X1327049Y343662D01*
X1327150D01*
Y352806D01*
D02*
G37*
G36*
X1308834D02*
X1299690D01*
Y343662D01*
X1299791D01*
X1302440Y344372D01*
X1304814Y345743D01*
X1306753Y347682D01*
X1308124Y350056D01*
X1308834Y352705D01*
Y352806D01*
D02*
G37*
G36*
X1297150D02*
X1288006D01*
Y352705D01*
X1288716Y350056D01*
X1290087Y347682D01*
X1292026Y345743D01*
X1294400Y344372D01*
X1297049Y343662D01*
X1297150D01*
Y352806D01*
D02*
G37*
G36*
X1559906Y352490D02*
X1557974D01*
X1556109Y351990D01*
X1554437Y351025D01*
X1553071Y349659D01*
X1552106Y347987D01*
X1551606Y346121D01*
Y344190D01*
X1552106Y342325D01*
X1553071Y340653D01*
X1554437Y339287D01*
X1556109Y338322D01*
X1557974Y337822D01*
X1559906D01*
X1561771Y338322D01*
X1563443Y339287D01*
X1564809Y340653D01*
X1565774Y342325D01*
X1566274Y344190D01*
Y346121D01*
X1565774Y347987D01*
X1564809Y349659D01*
X1563443Y351025D01*
X1561771Y351990D01*
X1559906Y352490D01*
D02*
G37*
G36*
X1518925D02*
X1516994D01*
X1515129Y351990D01*
X1513457Y351025D01*
X1512091Y349659D01*
X1511126Y347987D01*
X1510626Y346121D01*
Y344190D01*
X1511126Y342325D01*
X1512091Y340653D01*
X1513457Y339287D01*
X1515129Y338322D01*
X1516994Y337822D01*
X1518925D01*
X1520791Y338322D01*
X1522463Y339287D01*
X1523829Y340653D01*
X1524794Y342325D01*
X1525294Y344190D01*
Y346121D01*
X1524794Y347987D01*
X1523829Y349659D01*
X1522463Y351025D01*
X1520791Y351990D01*
X1518925Y352490D01*
D02*
G37*
G36*
X1398925D02*
X1396994D01*
X1395129Y351990D01*
X1393457Y351025D01*
X1392091Y349659D01*
X1391126Y347987D01*
X1390626Y346121D01*
Y344190D01*
X1391126Y342325D01*
X1392091Y340653D01*
X1393457Y339287D01*
X1395129Y338322D01*
X1396994Y337822D01*
X1398925D01*
X1400791Y338322D01*
X1402463Y339287D01*
X1403829Y340653D01*
X1404794Y342325D01*
X1405294Y344190D01*
Y346121D01*
X1404794Y347987D01*
X1403829Y349659D01*
X1402463Y351025D01*
X1400791Y351990D01*
X1398925Y352490D01*
D02*
G37*
G36*
X1359385Y352010D02*
X1357454D01*
X1355589Y351510D01*
X1353917Y350545D01*
X1352551Y349179D01*
X1351586Y347507D01*
X1351086Y345642D01*
Y343711D01*
X1351586Y341845D01*
X1352551Y340173D01*
X1353917Y338807D01*
X1355589Y337842D01*
X1357454Y337342D01*
X1359385D01*
X1361251Y337842D01*
X1362923Y338807D01*
X1364289Y340173D01*
X1365254Y341845D01*
X1365754Y343711D01*
Y345642D01*
X1365254Y347507D01*
X1364289Y349179D01*
X1362923Y350545D01*
X1361251Y351510D01*
X1359385Y352010D01*
D02*
G37*
G36*
X1239386D02*
X1237454D01*
X1235589Y351510D01*
X1233917Y350545D01*
X1232551Y349179D01*
X1231586Y347507D01*
X1231086Y345642D01*
Y343711D01*
X1231586Y341845D01*
X1232551Y340173D01*
X1233917Y338807D01*
X1235589Y337842D01*
X1237454Y337342D01*
X1239386D01*
X1241251Y337842D01*
X1242923Y338807D01*
X1244289Y340173D01*
X1245254Y341845D01*
X1245754Y343711D01*
Y345642D01*
X1245254Y347507D01*
X1244289Y349179D01*
X1242923Y350545D01*
X1241251Y351510D01*
X1239386Y352010D01*
D02*
G37*
G36*
X1077143Y345050D02*
X1076960D01*
Y335280D01*
X1086730D01*
Y335463D01*
X1085978Y338271D01*
X1084524Y340789D01*
X1082469Y342844D01*
X1079951Y344298D01*
X1077143Y345050D01*
D02*
G37*
G36*
X1074420D02*
X1074237D01*
X1071429Y344298D01*
X1068911Y342844D01*
X1066856Y340789D01*
X1065402Y338271D01*
X1064650Y335463D01*
Y335280D01*
X1074420D01*
Y345050D01*
D02*
G37*
G36*
X1175126Y348964D02*
X1172794D01*
X1170541Y348360D01*
X1168521Y347194D01*
X1166872Y345545D01*
X1165706Y343525D01*
X1165102Y341272D01*
Y338940D01*
X1165706Y336687D01*
X1166872Y334667D01*
X1168521Y333018D01*
X1170541Y331852D01*
X1172794Y331248D01*
X1175126D01*
X1177379Y331852D01*
X1179399Y333018D01*
X1181048Y334667D01*
X1182214Y336687D01*
X1182818Y338940D01*
Y341272D01*
X1182214Y343525D01*
X1181048Y345545D01*
X1179399Y347194D01*
X1177379Y348360D01*
X1175126Y348964D01*
D02*
G37*
G36*
X1086730Y332740D02*
X1076960D01*
Y322970D01*
X1077143D01*
X1079951Y323722D01*
X1082469Y325176D01*
X1084524Y327231D01*
X1085978Y329749D01*
X1086730Y332557D01*
Y332740D01*
D02*
G37*
G36*
X1074420D02*
X1064650D01*
Y332557D01*
X1065402Y329749D01*
X1066856Y327231D01*
X1068911Y325176D01*
X1071429Y323722D01*
X1074237Y322970D01*
X1074420D01*
Y332740D01*
D02*
G37*
G36*
X1471520Y310720D02*
Y306520D01*
X1475720D01*
X1474947Y308388D01*
X1473388Y309947D01*
X1471520Y310720D01*
D02*
G37*
G36*
X1468980D02*
X1467112Y309947D01*
X1465553Y308388D01*
X1464780Y306520D01*
X1468980D01*
Y310720D01*
D02*
G37*
G36*
X1621790Y310270D02*
Y306070D01*
X1625990D01*
X1625217Y307938D01*
X1623658Y309497D01*
X1621790Y310270D01*
D02*
G37*
G36*
X1619250D02*
X1617382Y309497D01*
X1615823Y307938D01*
X1615050Y306070D01*
X1619250D01*
Y310270D01*
D02*
G37*
G36*
X1551940D02*
Y306070D01*
X1556140D01*
X1555367Y307938D01*
X1553808Y309497D01*
X1551940Y310270D01*
D02*
G37*
G36*
X1549400D02*
X1547532Y309497D01*
X1545973Y307938D01*
X1545200Y306070D01*
X1549400D01*
Y310270D01*
D02*
G37*
G36*
X1408430D02*
Y306070D01*
X1412630D01*
X1411857Y307938D01*
X1410298Y309497D01*
X1408430Y310270D01*
D02*
G37*
G36*
X1405890D02*
X1404022Y309497D01*
X1402463Y307938D01*
X1401690Y306070D01*
X1405890D01*
Y310270D01*
D02*
G37*
G36*
X1356412Y313570D02*
X1356360D01*
Y304800D01*
X1365130D01*
Y304852D01*
X1364446Y307405D01*
X1363124Y309695D01*
X1361255Y311564D01*
X1358965Y312886D01*
X1356412Y313570D01*
D02*
G37*
G36*
X1353820D02*
X1353768D01*
X1351215Y312886D01*
X1348925Y311564D01*
X1347056Y309695D01*
X1345734Y307405D01*
X1345050Y304852D01*
Y304800D01*
X1353820D01*
Y313570D01*
D02*
G37*
G36*
X1290320Y307730D02*
Y303530D01*
X1294520D01*
X1293747Y305398D01*
X1292188Y306957D01*
X1290320Y307730D01*
D02*
G37*
G36*
X1287780D02*
X1285912Y306957D01*
X1284353Y305398D01*
X1283580Y303530D01*
X1287780D01*
Y307730D01*
D02*
G37*
G36*
X1174750D02*
Y303530D01*
X1178950D01*
X1178177Y305398D01*
X1176618Y306957D01*
X1174750Y307730D01*
D02*
G37*
G36*
X1172210D02*
X1170342Y306957D01*
X1168783Y305398D01*
X1168010Y303530D01*
X1172210D01*
Y307730D01*
D02*
G37*
G36*
X1230630Y306460D02*
Y302260D01*
X1234830D01*
X1234057Y304128D01*
X1232498Y305687D01*
X1230630Y306460D01*
D02*
G37*
G36*
X1228090D02*
X1226222Y305687D01*
X1224663Y304128D01*
X1223890Y302260D01*
X1228090D01*
Y306460D01*
D02*
G37*
G36*
X1475720Y303980D02*
X1471520D01*
Y299780D01*
X1473388Y300553D01*
X1474947Y302112D01*
X1475720Y303980D01*
D02*
G37*
G36*
X1468980D02*
X1464780D01*
X1465553Y302112D01*
X1467112Y300553D01*
X1468980Y299780D01*
Y303980D01*
D02*
G37*
G36*
X1625990Y303530D02*
X1621790D01*
Y299330D01*
X1623658Y300103D01*
X1625217Y301662D01*
X1625990Y303530D01*
D02*
G37*
G36*
X1619250D02*
X1615050D01*
X1615823Y301662D01*
X1617382Y300103D01*
X1619250Y299330D01*
Y303530D01*
D02*
G37*
G36*
X1556140D02*
X1551940D01*
Y299330D01*
X1553808Y300103D01*
X1555367Y301662D01*
X1556140Y303530D01*
D02*
G37*
G36*
X1549400D02*
X1545200D01*
X1545973Y301662D01*
X1547532Y300103D01*
X1549400Y299330D01*
Y303530D01*
D02*
G37*
G36*
X1412630D02*
X1408430D01*
Y299330D01*
X1410298Y300103D01*
X1411857Y301662D01*
X1412630Y303530D01*
D02*
G37*
G36*
X1405890D02*
X1401690D01*
X1402463Y301662D01*
X1404022Y300103D01*
X1405890Y299330D01*
Y303530D01*
D02*
G37*
G36*
X1294520Y300990D02*
X1290320D01*
Y296790D01*
X1292188Y297563D01*
X1293747Y299122D01*
X1294520Y300990D01*
D02*
G37*
G36*
X1287780D02*
X1283580D01*
X1284353Y299122D01*
X1285912Y297563D01*
X1287780Y296790D01*
Y300990D01*
D02*
G37*
G36*
X1178950D02*
X1174750D01*
Y296790D01*
X1176618Y297563D01*
X1178177Y299122D01*
X1178950Y300990D01*
D02*
G37*
G36*
X1172210D02*
X1168010D01*
X1168783Y299122D01*
X1170342Y297563D01*
X1172210Y296790D01*
Y300990D01*
D02*
G37*
G36*
X1234830Y299720D02*
X1230630D01*
Y295520D01*
X1232498Y296293D01*
X1234057Y297852D01*
X1234830Y299720D01*
D02*
G37*
G36*
X1228090D02*
X1223890D01*
X1224663Y297852D01*
X1226222Y296293D01*
X1228090Y295520D01*
Y299720D01*
D02*
G37*
G36*
X1365130Y302260D02*
X1356360D01*
Y293490D01*
X1356412D01*
X1358965Y294174D01*
X1361255Y295496D01*
X1363124Y297365D01*
X1364446Y299655D01*
X1365130Y302208D01*
Y302260D01*
D02*
G37*
G36*
X1353820D02*
X1345050D01*
Y302208D01*
X1345734Y299655D01*
X1347056Y297365D01*
X1348925Y295496D01*
X1351215Y294174D01*
X1353768Y293490D01*
X1353820D01*
Y302260D01*
D02*
G37*
%LPD*%
G36*
X1314255Y925500D02*
X1315535D01*
X1416526Y824509D01*
Y820501D01*
X1416400Y820401D01*
X1413986Y819579D01*
X1311104Y922461D01*
X1311142Y924269D01*
X1313477Y925823D01*
X1314255Y925500D01*
D02*
G37*
G36*
X1156970Y831850D02*
X1099253Y752850D01*
X1092421Y759681D01*
X1129030Y821926D01*
Y845820D01*
X1136650Y845820D01*
X1156970D01*
Y831850D01*
D02*
G37*
%LPC*%
G36*
X741421Y315250D02*
X737579D01*
X733812Y314501D01*
X730263Y313031D01*
X727069Y310897D01*
X724353Y308181D01*
X722219Y304987D01*
X720749Y301438D01*
X720000Y297671D01*
Y293829D01*
X720749Y290062D01*
X722219Y286513D01*
X724353Y283319D01*
X727069Y280603D01*
X730263Y278469D01*
X733812Y276999D01*
X737579Y276250D01*
X741421D01*
X745188Y276999D01*
X748737Y278469D01*
X751930Y280603D01*
X754647Y283319D01*
X756781Y286513D01*
X758251Y290062D01*
X759000Y293829D01*
Y297671D01*
X758251Y301438D01*
X756781Y304987D01*
X754647Y308181D01*
X751930Y310897D01*
X748737Y313031D01*
X745188Y314501D01*
X741421Y315250D01*
D02*
G37*
G36*
X1712171Y314250D02*
X1708329D01*
X1704562Y313501D01*
X1701013Y312031D01*
X1697820Y309897D01*
X1695103Y307181D01*
X1692969Y303987D01*
X1691499Y300438D01*
X1690750Y296671D01*
Y292829D01*
X1691499Y289062D01*
X1692969Y285513D01*
X1695103Y282320D01*
X1697820Y279603D01*
X1701013Y277469D01*
X1704562Y275999D01*
X1708329Y275250D01*
X1712171D01*
X1715938Y275999D01*
X1719487Y277469D01*
X1722681Y279603D01*
X1725397Y282320D01*
X1727531Y285513D01*
X1729001Y289062D01*
X1729750Y292829D01*
Y296671D01*
X1729001Y300438D01*
X1727531Y303987D01*
X1725397Y307181D01*
X1722681Y309897D01*
X1719487Y312031D01*
X1715938Y313501D01*
X1712171Y314250D01*
D02*
G37*
%LPD*%
D12*
X1144343Y854837D02*
X1150620D01*
D15*
X1412912Y676515D02*
Y677545D01*
X1401323Y683690D02*
X1406653Y689020D01*
X1407500Y671103D02*
X1412912Y676515D01*
X1396441Y677145D02*
X1401323Y682026D01*
X1407500Y670500D02*
Y671103D01*
X1401323Y682026D02*
Y683690D01*
X1412912Y677545D02*
X1415177Y679810D01*
X1394460Y557530D02*
X1550970D01*
X1594693Y505977D02*
X1595710Y504960D01*
X1594693Y505977D02*
Y513807D01*
X1550970Y557530D02*
X1594693Y513807D01*
X1595710Y504500D02*
X1647020D01*
X1673070Y530550D01*
X1423554Y699564D02*
X1423760Y699770D01*
X1416437Y699564D02*
X1423554D01*
X1414510Y697637D02*
X1416437Y699564D01*
X1414510Y696034D02*
Y697637D01*
X1407496Y689020D02*
X1414510Y696034D01*
X1406653Y689020D02*
X1407496D01*
X1416064Y689564D02*
X1424104D01*
X1409250Y682750D02*
X1416064Y689564D01*
X1424104D02*
X1424350Y689810D01*
X1415177Y679810D02*
X1424350D01*
X1369060Y618490D02*
X1375410Y612140D01*
X1377950Y629920D02*
X1390650Y617220D01*
X1562100D01*
X1420172Y666559D02*
Y666729D01*
X1424096Y670652D01*
X1200200Y455980D02*
Y499200D01*
X1200150Y455930D02*
X1200200Y455980D01*
X1424096Y670652D02*
Y674556D01*
X1375410Y612140D02*
X1574800D01*
X1200200Y499200D02*
X1200250Y499250D01*
X1564640Y746831D02*
Y982290D01*
X1523160Y1023770D02*
X1564640Y982290D01*
X1569180Y743680D02*
Y1019750D01*
X1093740Y1015880D02*
X1098920Y1021060D01*
X1185592Y1033780D02*
X1239575Y979797D01*
X1098920Y1021060D02*
X1111640Y1033780D01*
X1185592D01*
X1158920Y1051060D02*
X1221630D01*
X1289361Y983329D01*
X1305560Y923290D02*
X1412240Y816610D01*
Y787990D02*
Y816610D01*
X1231900Y420596D02*
Y474980D01*
X1158290Y645210D02*
X1168400Y655320D01*
X1108710Y600710D02*
X1168400Y541020D01*
X1055190Y645210D02*
X1158290D01*
X1075690Y600710D02*
X1108710D01*
X1121410Y887930D02*
X1145693Y912213D01*
X1121410Y927100D02*
X1143000Y948690D01*
X1145693Y912213D02*
X1153513D01*
X1155700Y914400D01*
X1206500D01*
X1117600Y847090D02*
Y847861D01*
X1103146Y854592D02*
X1110869D01*
X1117600Y847861D01*
X1121410Y912930D02*
Y927100D01*
Y877857D02*
Y887930D01*
X1206500Y914400D02*
X1234440Y886460D01*
X1509104Y689564D02*
X1509350Y689810D01*
X1509300Y699760D02*
X1509330Y699790D01*
X1508554Y724976D02*
X1508760Y724770D01*
X1501774Y724976D02*
X1508554D01*
X1424350Y694810D02*
X1424470Y694690D01*
X1405490Y699770D02*
X1405510Y699790D01*
X1493500Y699750D02*
X1493510Y699760D01*
X1509300D01*
X1493750Y689250D02*
X1494064Y689564D01*
X1509104D01*
X1487250Y709250D02*
X1487810Y709810D01*
X1509350D01*
X1463040Y699770D02*
X1490820Y727550D01*
X1501750Y725000D02*
X1501774Y724976D01*
X1501207Y725000D02*
X1501750D01*
X1490820Y727550D02*
X1498657D01*
X1501207Y725000D01*
X1419905Y729810D02*
X1424350D01*
X1508189Y670480D02*
Y674556D01*
X1508443Y674810D01*
X1509350D01*
X1463040Y678180D02*
X1478098D01*
X1493456Y679770D02*
X1509310D01*
X1491000Y678250D02*
X1491936D01*
X1493456Y679770D01*
X1509310D02*
X1509350Y679810D01*
X1463040Y678180D02*
X1468760Y672460D01*
X1424350Y684810D02*
X1436090D01*
X1463040Y678180D02*
Y699770D01*
X1436090Y684810D02*
X1436370Y684530D01*
X1424470Y694690D02*
X1436370D01*
X1438807Y744817D02*
Y767080D01*
X1453944Y744954D02*
Y759254D01*
X1488966Y752366D02*
X1494790Y758190D01*
X1453944Y759254D02*
X1454150Y759460D01*
X1418195Y731520D02*
X1419905Y729810D01*
X1397000Y731520D02*
X1418195D01*
X1488760Y744770D02*
X1488966Y744976D01*
X1419860Y796290D02*
Y825890D01*
X1411750Y787500D02*
X1412240Y787990D01*
X1494604Y744220D02*
X1507490D01*
X1494350Y744474D02*
Y744810D01*
Y744474D02*
X1494604Y744220D01*
X1496060Y721280D02*
X1496996D01*
X1498466Y719810D01*
X1509350D01*
X1702590Y772950D02*
Y776481D01*
X1488966Y744976D02*
Y752366D01*
X1453760Y744770D02*
X1453944Y744954D01*
X1430020Y657860D02*
X1430956D01*
X1432906Y659810D02*
X1438760D01*
X1430956Y657860D02*
X1432906Y659810D01*
X1453760Y659770D02*
Y670348D01*
X1443760Y659770D02*
X1443966Y659976D01*
X1443990Y666990D02*
Y673100D01*
X1443966Y666966D02*
X1443990Y666990D01*
X1443966Y659976D02*
Y666966D01*
X1474350Y659810D02*
X1478760D01*
X1509350Y729810D02*
X1513795D01*
X1478098Y678180D02*
X1488733Y667544D01*
X1468760Y659770D02*
Y672460D01*
X1488733Y659797D02*
Y667544D01*
Y659797D02*
X1488760Y659770D01*
X1534300Y709790D02*
X1535290D01*
X1569180Y743680D01*
X1534160Y709930D02*
X1534300Y709790D01*
X1534090Y716280D02*
X1564640Y746831D01*
X1523064Y716280D02*
X1534090D01*
X1521594Y714810D02*
X1523064Y716280D01*
X1515905Y731920D02*
X1534160D01*
X1513795Y729810D02*
X1515905Y731920D01*
X1521200Y705960D02*
X1522136D01*
X1520050Y704810D02*
X1521200Y705960D01*
X1509350Y704810D02*
X1520050D01*
X1509350Y714810D02*
X1521594D01*
X1523064Y692150D02*
X1524000D01*
X1520404Y694810D02*
X1523064Y692150D01*
X1509350Y694810D02*
X1520404D01*
X1518539Y684810D02*
X1523250Y680099D01*
Y680000D02*
Y680099D01*
X1509350Y684810D02*
X1518539D01*
X783590Y391563D02*
Y419100D01*
X755650Y383270D02*
Y448310D01*
X783590Y391563D02*
X847784Y327370D01*
X755650Y383270D02*
X837930Y300990D01*
X1454150Y643890D02*
X1458760Y648500D01*
X1448760Y651200D02*
Y659770D01*
X1442720Y645160D02*
X1448760Y651200D01*
X1458760Y648500D02*
Y659770D01*
X1480820Y645160D02*
Y646096D01*
X1464310Y639680D02*
X1473760Y649130D01*
Y659770D01*
X1483760Y649036D02*
Y659770D01*
X1480820Y646096D02*
X1483760Y649036D01*
X1358900Y593090D02*
Y638974D01*
X1357630Y640244D02*
X1358900Y638974D01*
X1357630Y640244D02*
Y646430D01*
X1357007Y647054D02*
X1357630Y646430D01*
X1549880Y423446D02*
Y467106D01*
X1574800Y612140D02*
X1581150Y618490D01*
X1493760Y628010D02*
Y659770D01*
X1464310Y626980D02*
Y639680D01*
X1562100Y617220D02*
X1574800Y629920D01*
X1493760Y628010D02*
X1494790Y626980D01*
X1602740Y400586D02*
Y435610D01*
X1391130Y421386D02*
Y469646D01*
X1416685Y425831D02*
Y436471D01*
X1416530Y436626D02*
X1416685Y436471D01*
X1315250Y930500D02*
X1419860Y825890D01*
X1253617Y428879D02*
X1298420Y384076D01*
X1251430Y437896D02*
X1253617Y435709D01*
X1231900Y420596D02*
X1268420Y384076D01*
X1253617Y428879D02*
Y435709D01*
X1103146Y859593D02*
X1121410Y877857D01*
X847784Y327370D02*
X853550D01*
X879930Y300990D01*
X1391130Y421386D02*
X1427960Y384556D01*
X1416685Y425831D02*
X1457960Y384556D01*
X1549880Y423446D02*
X1590520Y382806D01*
X1602740Y400586D02*
X1620520Y382806D01*
X1358900Y593090D02*
X1394460Y557530D01*
D18*
X1150620Y834771D02*
D03*
Y854329D02*
D03*
X1089660Y852551D02*
D03*
Y872109D02*
D03*
D19*
X1508760Y729770D02*
D03*
Y704770D02*
D03*
Y709770D02*
D03*
Y699770D02*
D03*
Y719770D02*
D03*
Y724770D02*
D03*
Y714770D02*
D03*
Y679770D02*
D03*
Y689770D02*
D03*
Y694770D02*
D03*
Y684770D02*
D03*
Y674770D02*
D03*
X1423760Y724770D02*
D03*
Y719770D02*
D03*
Y729770D02*
D03*
Y699770D02*
D03*
Y704770D02*
D03*
Y694770D02*
D03*
Y714770D02*
D03*
Y709770D02*
D03*
Y679770D02*
D03*
Y684770D02*
D03*
Y689770D02*
D03*
Y674770D02*
D03*
D20*
X1468760Y744770D02*
D03*
X1458760D02*
D03*
X1453760D02*
D03*
X1463760D02*
D03*
X1488760D02*
D03*
X1483760D02*
D03*
X1493760D02*
D03*
X1473760D02*
D03*
X1478760D02*
D03*
X1473760Y659770D02*
D03*
X1478760D02*
D03*
X1463760D02*
D03*
X1458760D02*
D03*
X1468760D02*
D03*
X1493760D02*
D03*
X1488760D02*
D03*
X1483760D02*
D03*
X1443760Y744770D02*
D03*
X1438760D02*
D03*
X1448760D02*
D03*
X1438760Y659770D02*
D03*
X1448760D02*
D03*
X1443760D02*
D03*
X1453760D02*
D03*
D21*
X1132054Y834587D02*
D03*
Y839588D02*
D03*
Y844589D02*
D03*
Y849591D02*
D03*
Y854592D02*
D03*
Y859593D02*
D03*
X1103146D02*
D03*
Y854592D02*
D03*
Y849591D02*
D03*
Y844589D02*
D03*
Y839588D02*
D03*
Y834587D02*
D03*
D22*
X1117600Y847090D02*
D03*
D24*
X1191770Y762000D02*
D03*
X1096770D02*
D03*
D25*
X1204040Y592210D02*
D03*
X1406040Y935710D02*
D03*
D26*
X1204040Y542210D02*
D03*
X1329040D02*
D03*
Y592210D02*
D03*
X1406040Y885710D02*
D03*
X1531040D02*
D03*
Y935710D02*
D03*
D27*
X1595710Y504500D02*
D03*
X1270000Y914400D02*
D03*
X869950Y453390D02*
D03*
X1586230Y808990D02*
D03*
X1664180Y467106D02*
D03*
X1717040Y435610D02*
D03*
X1365730Y437896D02*
D03*
X1346200Y474980D02*
D03*
X1143000Y948690D02*
D03*
X1505430Y469646D02*
D03*
X897890Y419100D02*
D03*
X1530830Y436626D02*
D03*
D28*
X1481410Y504500D02*
D03*
X1155700Y914400D02*
D03*
X1234440Y772160D02*
D03*
X755650Y453390D02*
D03*
X1332500Y984160D02*
D03*
X1471930Y808990D02*
D03*
X1549880Y467106D02*
D03*
X1602740Y435610D02*
D03*
X1168400Y655320D02*
D03*
X1251430Y437896D02*
D03*
X1231900Y474980D02*
D03*
X1288460Y984230D02*
D03*
X1236390Y982960D02*
D03*
X1379750Y982660D02*
D03*
X1257300Y948690D02*
D03*
X1391130Y469646D02*
D03*
X783590Y419100D02*
D03*
X1416530Y436626D02*
D03*
D30*
X1098920Y1051060D02*
D03*
X1128920D02*
D03*
X1158920D02*
D03*
X1098920Y1021060D02*
D03*
X1128920D02*
D03*
X1158920D02*
D03*
X1703070Y590550D02*
D03*
Y560550D02*
D03*
Y530550D02*
D03*
X1673070Y590550D02*
D03*
Y560550D02*
D03*
Y530550D02*
D03*
X1664180Y906780D02*
D03*
Y936780D02*
D03*
Y966780D02*
D03*
X1694180Y906780D02*
D03*
Y936780D02*
D03*
Y966780D02*
D03*
X1588940Y384556D02*
D03*
X1618940D02*
D03*
X1648940D02*
D03*
X1588940Y354556D02*
D03*
X1618940D02*
D03*
X1648940D02*
D03*
X1427960Y384556D02*
D03*
X1457960D02*
D03*
X1487960D02*
D03*
X1427960Y354556D02*
D03*
X1457960D02*
D03*
X1487960D02*
D03*
X1268420Y384076D02*
D03*
X1298420D02*
D03*
X1328420D02*
D03*
X1268420Y354076D02*
D03*
X1298420D02*
D03*
X1328420D02*
D03*
X1702590Y772950D02*
D03*
Y742950D02*
D03*
Y712950D02*
D03*
X1672590Y772950D02*
D03*
Y742950D02*
D03*
Y712950D02*
D03*
D31*
X1188920Y1011660D02*
D03*
X1068920D02*
D03*
X1663670Y500550D02*
D03*
Y620550D02*
D03*
X1703580Y996780D02*
D03*
Y876780D02*
D03*
X1678940Y345156D02*
D03*
X1558940D02*
D03*
X1517960D02*
D03*
X1397960D02*
D03*
X1358420Y344676D02*
D03*
X1238420D02*
D03*
X1663190Y682950D02*
D03*
Y802950D02*
D03*
D32*
X1024890Y850100D02*
D03*
Y800100D02*
D03*
X946150Y850100D02*
D03*
Y800100D02*
D03*
X1173960Y390106D02*
D03*
Y340106D02*
D03*
D33*
X1278890Y715210D02*
D03*
Y740210D02*
D03*
X1121410Y887930D02*
D03*
Y912930D02*
D03*
X1238250Y715210D02*
D03*
Y740210D02*
D03*
D34*
X1234440Y886460D02*
D03*
X1332500Y1098460D02*
D03*
X1168400Y541020D02*
D03*
X1288460Y1098530D02*
D03*
X1236390Y1097260D02*
D03*
X1379750Y1096960D02*
D03*
D36*
X800369Y665713D02*
D03*
Y623713D02*
D03*
Y581713D02*
D03*
X745369Y665713D02*
D03*
Y623713D02*
D03*
Y581713D02*
D03*
X1569600Y1019330D02*
D03*
X1527600D02*
D03*
X1485600D02*
D03*
X1443600D02*
D03*
X1569600Y1074330D02*
D03*
X1527600D02*
D03*
X1485600D02*
D03*
X1443600D02*
D03*
X963930Y300990D02*
D03*
X921930D02*
D03*
X879930D02*
D03*
X837930D02*
D03*
X963930Y355990D02*
D03*
X921930D02*
D03*
X879930D02*
D03*
X837930D02*
D03*
D37*
X972820Y464820D02*
D03*
X971550Y412750D02*
D03*
D38*
X1022820Y464820D02*
D03*
X1021550Y412750D02*
D03*
D41*
X762150Y939800D02*
D03*
X819150D02*
D03*
D42*
X822400Y1001500D02*
D03*
Y878100D02*
D03*
D43*
X932180Y986790D02*
D03*
Y906790D02*
D03*
D44*
X924180Y946790D02*
D03*
D48*
X1335024Y779120D02*
D03*
Y760120D02*
D03*
X1311656D02*
D03*
Y769620D02*
D03*
Y779120D02*
D03*
D49*
X1492944Y770020D02*
Y897614D01*
X1531040Y935710D01*
X1441913Y770020D02*
X1492944D01*
X1496060D01*
X1426259Y1029509D02*
X1471080Y1074330D01*
X1404796Y1029509D02*
X1426259D01*
X1471080Y1074330D02*
X1485600D01*
X1159839Y1021979D02*
X1233128Y948690D01*
X1257300D01*
X1234440Y772160D02*
X1234879Y772599D01*
X1245092D01*
X1250950Y778457D01*
Y941276D01*
X1257300Y947626D01*
Y948690D01*
X1335602Y674370D02*
X1342390Y681158D01*
X1332230Y674370D02*
X1335602D01*
X1342390Y681158D02*
Y709930D01*
X1430931Y769261D02*
X1438151D01*
X1438910Y770020D01*
X1342390Y709930D02*
X1363980Y731520D01*
X1397000D01*
X1398244Y732764D01*
Y736574D01*
X1430931Y769261D01*
X1385394Y638154D02*
X1389636D01*
X1400810Y626980D01*
X1701793Y591827D02*
Y600717D01*
X1662430Y640080D02*
X1701793Y600717D01*
X1565040Y640080D02*
X1662430D01*
X1701793Y591827D02*
X1703070Y590550D01*
X1342390Y681158D02*
X1385394Y638154D01*
X1551940Y626980D02*
X1565040Y640080D01*
X1433830Y626980D02*
X1464310D01*
X1522730D02*
X1551940D01*
X1400810D02*
X1433830D01*
X1494790D02*
X1522730D01*
X1464310D02*
X1494790D01*
X1257300Y948690D02*
X1323977D01*
X1335024Y779120D02*
X1340104D01*
X1323977Y948690D02*
X1404796Y1029509D01*
X1496060Y770020D02*
X1534160Y731920D01*
X1363980Y754780D02*
Y755244D01*
Y754780D02*
X1373740D01*
X1397000Y731520D01*
X1340104Y779120D02*
X1363980Y755244D01*
D50*
X1139097Y849591D02*
X1144343Y854837D01*
X1132054Y849591D02*
X1139097D01*
D51*
X745369Y623713D02*
X786780Y582302D01*
X745369Y623713D02*
X786780Y665124D01*
X837930Y355990D02*
X848366D01*
X872562Y380185D01*
X786780Y665124D02*
X799780D01*
X800369Y665713D01*
X799780Y582302D02*
X800369Y581713D01*
X786780Y582302D02*
X799780D01*
X988985Y380185D02*
X1031710Y422910D01*
X872562Y380185D02*
X988985D01*
X1031710Y422910D02*
X1075690D01*
D52*
X740770Y1109770D02*
D03*
X739500Y295750D02*
D03*
X1710611Y1110620D02*
D03*
X1710250Y294750D02*
D03*
D53*
X1283970Y825100D02*
D03*
Y775100D02*
D03*
X1400810Y626980D02*
D03*
Y576980D02*
D03*
X1464310Y626980D02*
D03*
Y576980D02*
D03*
X1397000Y781520D02*
D03*
Y731520D02*
D03*
X1405490Y699770D02*
D03*
X1355490D02*
D03*
X1363980Y804780D02*
D03*
Y754780D02*
D03*
X1551940Y626980D02*
D03*
Y576980D02*
D03*
X1522730Y626980D02*
D03*
Y576980D02*
D03*
X1534160Y781920D02*
D03*
Y731920D02*
D03*
X1494790Y626980D02*
D03*
Y576980D02*
D03*
X1433830Y626980D02*
D03*
Y576980D02*
D03*
X1438910Y820020D02*
D03*
Y770020D02*
D03*
D54*
X1075690Y600710D02*
D03*
Y575310D02*
D03*
Y473710D02*
D03*
Y448310D02*
D03*
Y422910D02*
D03*
Y397510D02*
D03*
Y359410D02*
D03*
Y334010D02*
D03*
D55*
X1055190Y645210D02*
D03*
Y302310D02*
D03*
D56*
X1407500Y670500D02*
D03*
X1396441Y677145D02*
D03*
X1409250Y682750D02*
D03*
X1390650Y647700D02*
D03*
X1369060Y618490D02*
D03*
X1377950Y629920D02*
D03*
X1420172Y666559D02*
D03*
X1200150Y455930D02*
D03*
X1385570Y604520D02*
D03*
X1200250Y499250D02*
D03*
X1305560Y923290D02*
D03*
X1087120Y934720D02*
D03*
X1054100Y901700D02*
D03*
X1041400Y955040D02*
D03*
X1071880Y919480D02*
D03*
X1026160Y941070D02*
D03*
X1365250Y562610D02*
D03*
X1377950Y589280D02*
D03*
X1325880Y792480D02*
D03*
X786130Y778510D02*
D03*
X783590Y742950D02*
D03*
X820420D02*
D03*
X861060Y744220D02*
D03*
X859790Y778510D02*
D03*
X861060Y812800D02*
D03*
X821690D02*
D03*
X788670D02*
D03*
X859790Y1026160D02*
D03*
Y1041400D02*
D03*
X889000Y1026160D02*
D03*
Y1041400D02*
D03*
X915670Y1026160D02*
D03*
Y1041400D02*
D03*
X1523250Y680000D02*
D03*
X1574800Y629920D02*
D03*
X1581150Y618490D02*
D03*
X1524000Y692150D02*
D03*
X1522136Y705960D02*
D03*
X1524000Y716280D02*
D03*
X1534160Y708660D02*
D03*
X1557020Y781050D02*
D03*
X1581150D02*
D03*
X1620520Y304800D02*
D03*
X1550670D02*
D03*
X1470250Y305250D02*
D03*
X1229360Y300990D02*
D03*
X1173480Y302260D02*
D03*
X1430020Y657860D02*
D03*
X1436370Y684530D02*
D03*
X1508189Y670480D02*
D03*
X1454150Y643890D02*
D03*
X1442720Y645160D02*
D03*
X1480820D02*
D03*
X1443990Y673100D02*
D03*
X1491000Y678250D02*
D03*
X1454150Y673100D02*
D03*
X1463040Y678180D02*
D03*
X1306830Y736600D02*
D03*
X1258570Y786130D02*
D03*
Y769620D02*
D03*
Y803910D02*
D03*
X1306830Y712470D02*
D03*
X1487250Y709250D02*
D03*
X1496060Y721280D02*
D03*
X1493500Y699750D02*
D03*
X1419860Y796290D02*
D03*
X1436370Y694690D02*
D03*
X1454150Y759460D02*
D03*
X1507490Y744220D02*
D03*
X1411750Y787500D02*
D03*
X1494790Y758190D02*
D03*
X1258570Y819150D02*
D03*
X1315250Y930500D02*
D03*
X1493750Y689250D02*
D03*
X1407160Y304800D02*
D03*
X1289050Y302260D02*
D03*
D57*
X1014730Y1033780D02*
D03*
X1203500Y681000D02*
D03*
X820420Y779780D02*
D03*
X949960Y1033780D02*
D03*
X1610360Y742950D02*
D03*
Y712470D02*
D03*
X1617230Y549730D02*
D03*
X1332230Y674370D02*
D03*
X1355090Y303530D02*
D03*
D58*
X1578610Y673100D02*
D03*
X1579880Y652780D02*
D03*
X1357007Y647054D02*
D03*
M02*
